<svg width="297" height="438" viewBox="0 0 297 438" fill="none" xmlns="http://www.w3.org/2000/svg">
<path d="M18.812 263.697C18.8386 264.126 18.8386 264.557 18.812 264.987C18.812 265.194 18.812 265.4 18.7729 265.632C18.7273 266.019 18.6752 266.4 18.5906 266.787C18.5877 266.793 18.5861 266.8 18.5861 266.807C18.5861 266.813 18.5877 266.82 18.5906 266.826C18.5636 267.028 18.5178 267.226 18.4537 267.42C18.3715 267.765 18.2693 268.105 18.1476 268.439C17.9594 268.973 17.7263 269.491 17.4505 269.987C17.3709 270.159 17.2794 270.325 17.1769 270.484C16.2017 272.169 14.8349 273.599 13.1899 274.656C11.5449 275.713 9.66911 276.367 7.71815 276.562C7.30775 276.601 6.89083 276.633 6.46089 276.633C6.18077 276.633 5.90065 276.633 5.64008 276.633C5.48373 276.633 5.32088 276.633 5.1515 276.581C4.89969 276.568 4.64925 276.535 4.40234 276.485C4.08393 276.444 3.76842 276.384 3.45776 276.304C2.96872 276.184 2.4879 276.033 2.01812 275.852C0.633873 275.323 -0.641907 274.549 -1.74718 273.568C-2.18998 273.164 -2.67982 272.813 -3.20638 272.523C-3.53362 272.338 -3.87835 272.184 -4.23566 272.065C-4.77433 271.879 -5.33944 271.779 -5.90984 271.768H-6.15087C-6.99316 271.764 -7.83358 271.847 -8.65887 272.013C-9.90263 272.268 -11.0387 272.891 -11.916 273.8C-13.0387 274.968 -13.666 276.518 -13.6684 278.13V304.622C-13.6684 304.815 -13.6684 305.009 -13.6684 305.196C-13.628 305.579 -13.5494 305.957 -13.4338 306.325C-13.2131 307.032 -12.8546 307.69 -12.3785 308.261L-12.0072 308.661C-11.8793 308.795 -11.7398 308.918 -11.5903 309.028C-10.7162 309.745 -9.6498 310.194 -8.52205 310.319H-8.39828C-8.29199 310.326 -8.18536 310.326 -8.07909 310.319C-8.01844 310.325 -7.95734 310.325 -7.89671 310.319H18.9097C20.3591 310.313 21.7659 310.804 22.8915 311.708C24.0171 312.612 24.7921 313.875 25.0853 315.28C25.2606 316.099 25.3501 316.934 25.3524 317.771V317.99C25.2662 319.521 24.6363 320.972 23.574 322.087C22.2383 323.556 21.2895 325.329 20.8119 327.249C20.5709 328.22 20.4484 329.216 20.4471 330.217C20.4128 331.929 20.7411 333.63 21.4111 335.209C22.081 336.788 23.0776 338.211 24.3367 339.385C25.5958 340.559 27.0894 341.459 28.7211 342.027C30.3529 342.594 32.0866 342.817 33.8105 342.68C35.5344 342.543 37.2102 342.05 38.7299 341.232C40.2496 340.415 41.5794 339.291 42.6336 337.933C43.6878 336.575 44.4431 335.014 44.8506 333.349C45.2581 331.684 45.3089 329.953 44.9996 328.268C44.941 327.939 44.8758 327.623 44.7911 327.281C44.3048 325.367 43.3621 323.597 42.0421 322.119C40.9815 321.015 40.3572 319.57 40.2832 318.048V317.816C40.2791 316.98 40.3621 316.145 40.5308 315.326C40.8301 313.92 41.6086 312.66 42.7357 311.756C43.8627 310.853 45.2694 310.361 46.7194 310.364H73.4281C73.4888 310.37 73.5499 310.37 73.6105 310.364C73.7168 310.371 73.8234 310.371 73.9297 310.364H74.0535C75.1812 310.239 76.2476 309.79 77.1217 309.074C77.2848 308.948 77.4354 308.808 77.5712 308.654C77.695 308.525 77.8318 308.39 77.9425 308.254C77.9425 308.254 77.9425 308.254 77.9816 308.209C78.3276 307.79 78.6086 307.323 78.8154 306.822C78.9004 306.655 78.966 306.48 79.0109 306.299C79.1265 305.931 79.205 305.553 79.2454 305.17C79.2454 304.983 79.2454 304.789 79.2454 304.596V278.117C79.2485 276.681 78.7511 275.288 77.8372 274.174C76.9232 273.059 75.6488 272.292 74.2294 272C73.4042 271.833 72.5637 271.751 71.7214 271.755H71.4868C70.9142 271.765 70.3469 271.865 69.8062 272.052C68.9019 272.366 68.071 272.857 67.3633 273.497C66.0768 274.642 64.5573 275.5 62.9075 276.014C62.6641 276.106 62.4136 276.18 62.1583 276.233C61.8708 276.304 61.5793 276.357 61.2854 276.394C61.0385 276.445 60.7881 276.477 60.5362 276.491C60.3669 276.491 60.204 276.53 60.0477 276.543C59.7871 276.543 59.507 276.543 59.2269 276.543C58.797 276.543 58.38 276.543 57.9696 276.472C56.0193 276.277 54.1442 275.624 52.5002 274.567C50.8561 273.51 49.4907 272.079 48.5174 270.394C48.4128 270.235 48.3191 270.069 48.2372 269.897C47.9615 269.401 47.7283 268.883 47.5402 268.349C47.4177 268.016 47.3175 267.675 47.2405 267.329C47.1713 267.137 47.1232 266.938 47.0972 266.736C47.1001 266.73 47.1016 266.723 47.1016 266.716C47.1016 266.71 47.1001 266.703 47.0972 266.697C47.0125 266.31 46.9604 265.929 46.9148 265.542C46.9148 265.335 46.8757 265.129 46.8757 264.897C46.8491 264.467 46.8491 264.036 46.8757 263.606C46.8757 263.4 46.8757 263.193 46.9148 262.961C46.9604 262.574 47.0125 262.193 47.0972 261.806C47.0943 261.8 47.0928 261.794 47.0928 261.787C47.0928 261.78 47.0943 261.774 47.0972 261.768C47.1232 261.565 47.1713 261.366 47.2405 261.174C47.2788 260.978 47.3332 260.786 47.4034 260.6C47.4567 260.402 47.522 260.209 47.5988 260.019C47.7798 259.533 47.9976 259.06 48.2502 258.606C48.3322 258.434 48.4258 258.268 48.5304 258.109C49.5037 256.424 50.8691 254.993 52.5132 253.936C54.1572 252.879 56.0324 252.226 57.9826 252.031C58.6732 251.964 59.3681 251.951 60.0607 251.993C60.2171 251.993 60.3799 251.993 60.5493 252.044C60.7444 252.049 60.9387 252.073 61.1291 252.115C61.17 252.109 61.2119 252.109 61.2528 252.115C61.2599 252.112 61.2677 252.11 61.2756 252.11C61.2835 252.11 61.2913 252.112 61.2984 252.115C61.6169 252.156 61.9323 252.216 62.243 252.296C62.4982 252.349 62.7488 252.423 62.9922 252.515C64.6457 253.029 66.1693 253.887 67.461 255.032C68.164 255.671 68.9906 256.163 69.8908 256.477C70.4321 256.663 70.9989 256.765 71.5715 256.78H71.8061C72.236 256.78 72.6659 256.748 73.1089 256.722C73.5519 256.696 73.9427 256.612 74.3401 256.529C75.5831 256.272 76.7187 255.649 77.5973 254.741C78.7224 253.57 79.3499 252.016 79.3496 250.399V223.946C79.3496 223.74 79.3496 223.546 79.3496 223.359C79.3092 222.976 79.2307 222.598 79.1151 222.23C79.0618 222.051 78.9965 221.877 78.9197 221.707C78.7749 221.36 78.5936 221.029 78.379 220.72C77.9479 220.083 77.3918 219.539 76.7439 219.12L76.327 218.875C76.1576 218.791 75.9948 218.707 75.8254 218.642C75.3042 218.422 74.7533 218.279 74.1903 218.217H74.0665C73.9602 218.21 73.8536 218.21 73.7473 218.217C73.7473 218.217 73.7017 218.217 73.6887 218.217C73.6476 218.21 73.6059 218.21 73.5649 218.217H46.8562C45.4062 218.219 43.9995 217.728 42.8725 216.824C41.7454 215.921 40.9668 214.66 40.6676 213.255C40.4982 212.436 40.4152 211.601 40.42 210.765V210.532C40.4926 209.012 41.1172 207.568 42.1789 206.468C43.4963 204.988 44.4387 203.218 44.928 201.306C45.0126 200.97 45.0778 200.661 45.1364 200.312C45.4358 198.516 45.3274 196.676 44.8191 194.926C44.3108 193.177 43.4154 191.561 42.1978 190.197C40.9803 188.833 39.4712 187.754 37.7803 187.04C36.0894 186.326 34.259 185.993 32.4222 186.067C30.5854 186.141 28.7882 186.619 27.1614 187.467C25.5345 188.315 24.1187 189.511 23.0169 190.968C21.915 192.426 21.1548 194.108 20.7914 195.893C20.4281 197.678 20.4707 199.52 20.9162 201.287C21.3938 203.206 22.3426 204.979 23.6782 206.448C24.7405 207.563 25.3704 209.015 25.4566 210.545V210.765C25.455 211.602 25.3655 212.436 25.1896 213.255C24.8964 214.661 24.1213 215.923 22.9957 216.827C21.8701 217.732 20.4633 218.222 19.014 218.217H-7.73384C-7.77922 218.21 -7.82525 218.21 -7.87062 218.217H-7.91622C-8.02251 218.21 -8.12914 218.21 -8.23542 218.217H-8.35919C-8.92223 218.279 -9.47312 218.422 -9.99433 218.642C-10.1637 218.707 -10.3265 218.791 -10.4959 218.875L-10.9128 219.12C-11.6364 219.592 -12.2454 220.217 -12.696 220.95C-13.1465 221.683 -13.4274 222.505 -13.5185 223.359C-13.5185 223.546 -13.5185 223.74 -13.5185 223.946V250.399C-13.5188 252.016 -12.8914 253.57 -11.7662 254.741C-10.8907 255.653 -9.75383 256.277 -8.50905 256.529C-8.09213 256.612 -7.69475 256.664 -7.27783 256.722C-6.86092 256.78 -6.43097 256.78 -5.97497 256.78H-5.73394C-5.16354 256.764 -4.59895 256.662 -4.05976 256.477C-3.15952 256.163 -2.33293 255.671 -1.62993 255.032C-0.517944 254.053 0.761597 253.28 2.14837 252.748C2.61918 252.57 3.09986 252.419 3.58805 252.296C3.89872 252.216 4.21423 252.156 4.53264 252.115C4.54734 252.11 4.56354 252.11 4.57824 252.115C4.61922 252.109 4.66103 252.109 4.70201 252.115C4.89241 252.073 5.08664 252.049 5.2818 252.044C5.45117 252.044 5.61403 252.006 5.77037 251.993C6.463 251.951 7.15786 251.964 7.8484 252.031C9.79935 252.227 11.6752 252.88 13.3202 253.937C14.9652 254.994 16.332 256.424 17.3072 258.109C17.4097 258.268 17.5011 258.434 17.5808 258.606C17.8335 259.06 18.0512 259.533 18.2322 260.019C18.309 260.209 18.3743 260.402 18.4277 260.6C18.4969 260.787 18.5535 260.979 18.597 261.174C18.6611 261.367 18.7069 261.566 18.7338 261.768C18.7367 261.774 18.7383 261.78 18.7383 261.787C18.7383 261.794 18.7367 261.8 18.7338 261.806C18.8185 262.193 18.8707 262.574 18.9163 262.961C18.799 263.284 18.799 263.49 18.812 263.697Z" fill="#FFC00E" stroke="#C99403" stroke-miterlimit="10"/>
<path d="M204.332 264.04C204.359 264.47 204.359 264.901 204.332 265.331C204.332 265.537 204.332 265.744 204.293 265.976C204.248 266.363 204.196 266.744 204.111 267.131C204.108 267.137 204.107 267.143 204.107 267.15C204.107 267.157 204.108 267.163 204.111 267.17C204.084 267.371 204.038 267.57 203.974 267.763C203.892 268.108 203.79 268.449 203.668 268.783C203.48 269.317 203.247 269.835 202.971 270.331C202.891 270.503 202.8 270.669 202.697 270.828C201.722 272.513 200.355 273.943 198.71 275C197.065 276.057 195.189 276.71 193.239 276.906C192.828 276.944 192.411 276.977 191.981 276.977C191.701 276.977 191.421 276.977 191.16 276.977C191.004 276.977 190.841 276.977 190.672 276.925C190.42 276.911 190.17 276.879 189.923 276.828C189.604 276.788 189.289 276.728 188.978 276.647C188.489 276.527 188.008 276.376 187.539 276.196C186.154 275.666 184.878 274.892 183.773 273.912C183.33 273.507 182.841 273.156 182.314 272.867C181.987 272.681 181.642 272.528 181.285 272.409C180.746 272.222 180.181 272.122 179.611 272.112H179.37C178.527 272.108 177.687 272.19 176.862 272.357C175.618 272.611 174.482 273.235 173.604 274.144C172.482 275.312 171.854 276.861 171.852 278.473V304.965C171.852 305.159 171.852 305.352 171.852 305.54C171.892 305.923 171.971 306.301 172.087 306.669C172.307 307.376 172.666 308.034 173.142 308.604L173.513 309.004C173.641 309.139 173.781 309.262 173.93 309.372C174.804 310.089 175.871 310.537 176.998 310.662H177.122C177.228 310.669 177.335 310.669 177.441 310.662C177.502 310.669 177.563 310.669 177.624 310.662H204.43C205.879 310.657 207.286 311.147 208.412 312.052C209.537 312.956 210.313 314.218 210.606 315.624C210.781 316.443 210.871 317.277 210.873 318.114V318.334C210.787 319.864 210.157 321.316 209.094 322.431C207.759 323.9 206.81 325.673 206.332 327.592C206.091 328.564 205.969 329.56 205.968 330.56C205.933 332.273 206.262 333.974 206.931 335.553C207.601 337.132 208.598 338.554 209.857 339.729C211.116 340.903 212.61 341.803 214.241 342.37C215.873 342.938 217.607 343.16 219.331 343.024C221.055 342.887 222.731 342.394 224.25 341.576C225.77 340.758 227.1 339.634 228.154 338.277C229.208 336.919 229.963 335.357 230.371 333.692C230.778 332.028 230.829 330.297 230.52 328.612C230.461 328.283 230.396 327.967 230.312 327.625C229.825 325.711 228.882 323.941 227.562 322.463C226.502 321.359 225.878 319.914 225.804 318.392V318.16C225.8 317.323 225.882 316.489 226.051 315.669C226.35 314.264 227.129 313.004 228.256 312.1C229.383 311.197 230.79 310.705 232.24 310.708H258.948C259.009 310.714 259.07 310.714 259.131 310.708C259.237 310.715 259.344 310.715 259.45 310.708H259.574C260.702 310.582 261.768 310.134 262.642 309.417C262.805 309.292 262.956 309.152 263.092 308.998C263.215 308.869 263.352 308.733 263.463 308.598C263.463 308.598 263.463 308.598 263.502 308.553C263.848 308.134 264.129 307.666 264.336 307.165C264.421 306.999 264.486 306.824 264.531 306.643C264.647 306.275 264.725 305.897 264.766 305.514C264.766 305.327 264.766 305.133 264.766 304.939V278.461C264.769 277.025 264.271 275.632 263.358 274.518C262.444 273.403 261.169 272.635 259.75 272.344C258.925 272.177 258.084 272.094 257.242 272.099H257.007C256.435 272.109 255.867 272.209 255.327 272.396C254.422 272.71 253.591 273.201 252.884 273.841C251.597 274.986 250.078 275.844 248.428 276.357C248.184 276.45 247.934 276.523 247.679 276.577C247.391 276.647 247.1 276.701 246.806 276.738C246.559 276.789 246.308 276.821 246.057 276.835C245.887 276.835 245.724 276.873 245.568 276.886C245.307 276.886 245.027 276.886 244.747 276.886C244.317 276.886 243.9 276.886 243.49 276.815C241.54 276.621 239.665 275.967 238.021 274.91C236.377 273.853 235.011 272.423 234.038 270.737C233.933 270.578 233.84 270.412 233.758 270.241C233.482 269.745 233.249 269.227 233.061 268.692C232.938 268.359 232.838 268.019 232.761 267.673C232.692 267.481 232.644 267.282 232.618 267.079C232.62 267.073 232.622 267.067 232.622 267.06C232.622 267.053 232.62 267.047 232.618 267.04C232.533 266.653 232.481 266.273 232.435 265.886C232.435 265.679 232.396 265.473 232.396 265.24C232.37 264.811 232.37 264.38 232.396 263.95C232.396 263.744 232.396 263.537 232.435 263.305C232.481 262.918 232.533 262.537 232.618 262.15C232.615 262.144 232.613 262.137 232.613 262.131C232.613 262.124 232.615 262.117 232.618 262.111C232.644 261.909 232.692 261.71 232.761 261.518C232.799 261.322 232.854 261.13 232.924 260.943C232.977 260.746 233.042 260.552 233.119 260.363C233.3 259.876 233.518 259.404 233.771 258.95C233.853 258.778 233.946 258.612 234.051 258.453C235.024 256.768 236.39 255.337 238.034 254.28C239.678 253.223 241.553 252.57 243.503 252.375C244.194 252.307 244.888 252.294 245.581 252.336C245.737 252.336 245.9 252.336 246.07 252.388C246.265 252.393 246.459 252.416 246.649 252.459C246.69 252.452 246.732 252.452 246.773 252.459C246.78 252.456 246.788 252.454 246.796 252.454C246.804 252.454 246.812 252.456 246.819 252.459C247.137 252.499 247.453 252.56 247.763 252.64C248.019 252.693 248.269 252.766 248.513 252.859C250.166 253.373 251.69 254.231 252.981 255.375C253.684 256.015 254.511 256.506 255.411 256.821C255.952 257.006 256.519 257.108 257.092 257.124H257.326C257.756 257.124 258.186 257.092 258.629 257.066C259.072 257.04 259.463 256.956 259.86 256.872C261.104 256.616 262.239 255.993 263.118 255.085C264.243 253.914 264.87 252.359 264.87 250.743V224.29C264.87 224.083 264.87 223.89 264.87 223.702C264.83 223.319 264.751 222.941 264.635 222.573C264.582 222.395 264.517 222.22 264.44 222.051C264.295 221.704 264.114 221.373 263.899 221.064C263.468 220.427 262.912 219.883 262.264 219.464L261.847 219.218C261.678 219.134 261.515 219.051 261.346 218.986C260.825 218.766 260.274 218.623 259.711 218.56H259.587C259.481 218.553 259.374 218.553 259.268 218.56C259.268 218.56 259.222 218.56 259.209 218.56C259.168 218.554 259.126 218.554 259.085 218.56H232.377C230.927 218.563 229.52 218.071 228.393 217.168C227.266 216.264 226.487 215.004 226.188 213.599C226.019 212.779 225.936 211.945 225.94 211.108V210.876C226.013 209.355 226.638 207.912 227.699 206.811C229.017 205.331 229.959 203.562 230.448 201.65C230.533 201.314 230.598 201.004 230.657 200.656C230.956 198.86 230.848 197.02 230.339 195.27C229.831 193.52 228.936 191.905 227.718 190.54C226.501 189.176 224.992 188.098 223.301 187.384C221.61 186.669 219.779 186.337 217.943 186.411C216.106 186.485 214.309 186.963 212.682 187.811C211.055 188.658 209.639 189.855 208.537 191.312C207.435 192.769 206.675 194.452 206.312 196.236C205.948 198.021 205.991 199.864 206.437 201.63C206.914 203.55 207.863 205.323 209.199 206.792C210.261 207.907 210.891 209.358 210.977 210.889V211.108C210.975 211.945 210.886 212.78 210.71 213.599C210.417 215.005 209.642 216.267 208.516 217.171C207.39 218.075 205.984 218.566 204.534 218.56H177.787C177.741 218.554 177.695 218.554 177.65 218.56H177.604C177.498 218.553 177.391 218.553 177.285 218.56H177.161C176.598 218.623 176.047 218.766 175.526 218.986C175.357 219.051 175.194 219.134 175.025 219.218L174.608 219.464C173.884 219.936 173.275 220.56 172.824 221.293C172.374 222.026 172.093 222.849 172.002 223.702C172.002 223.89 172.002 224.083 172.002 224.29V250.743C172.002 252.359 172.629 253.914 173.754 255.085C174.63 255.997 175.767 256.621 177.011 256.872C177.428 256.956 177.826 257.008 178.243 257.066C178.659 257.124 179.089 257.124 179.545 257.124H179.786C180.357 257.108 180.921 257.006 181.461 256.821C182.361 256.506 183.187 256.015 183.89 255.375C185.002 254.397 186.282 253.624 187.669 253.091C188.14 252.914 188.62 252.763 189.108 252.64C189.419 252.56 189.735 252.499 190.053 252.459C190.068 252.454 190.084 252.454 190.099 252.459C190.14 252.452 190.181 252.452 190.222 252.459C190.413 252.416 190.607 252.393 190.802 252.388C190.972 252.388 191.134 252.349 191.291 252.336C191.983 252.294 192.678 252.307 193.369 252.375C195.32 252.57 197.196 253.224 198.841 254.281C200.486 255.338 201.852 256.768 202.828 258.453C202.93 258.612 203.022 258.778 203.101 258.95C203.354 259.404 203.572 259.876 203.753 260.363C203.829 260.552 203.895 260.746 203.948 260.943C204.017 261.131 204.074 261.323 204.117 261.518C204.182 261.711 204.227 261.91 204.254 262.111C204.257 262.117 204.259 262.124 204.259 262.131C204.259 262.137 204.257 262.144 204.254 262.15C204.339 262.537 204.391 262.918 204.437 263.305C204.319 263.627 204.319 263.834 204.332 264.04Z" fill="#FFC00E" stroke="#C99403" stroke-miterlimit="10"/>
<g filter="url(#filter0_d_2070_15835)">
<path d="M-32.6815 185.217C-31.6774 185.219 -30.6769 185.096 -29.7024 184.852C-27.7798 184.374 -26.004 183.424 -24.5325 182.087C-23.4169 181.022 -21.9622 180.393 -20.429 180.313H-20.2092C-19.3736 180.309 -18.5399 180.392 -17.7212 180.561C-16.3131 180.86 -15.0501 181.639 -14.144 182.768C-13.2379 183.896 -12.744 185.304 -12.7452 186.757V213.784C-12.6897 214.983 -12.2688 216.135 -11.5401 217.082C-10.8114 218.03 -9.8104 218.728 -8.67395 219.08C-8.18506 219.25 -7.67241 219.34 -7.15533 219.347H-7.11655C-7.07154 219.341 -7.02584 219.341 -6.98083 219.347H19.547C20.9854 219.352 22.381 218.854 23.4975 217.939C24.614 217.024 25.3826 215.747 25.6733 214.325C25.8475 213.5 25.9363 212.658 25.9382 211.814V211.593C25.8566 210.044 25.2312 208.576 24.174 207.451C22.8538 205.963 21.9133 204.172 21.434 202.234C21.1971 201.249 21.0777 200.24 21.0786 199.227C21.0653 197.508 21.4066 195.804 22.0809 194.225C22.7552 192.646 23.7477 191.226 24.9952 190.055C26.2428 188.885 27.7181 187.989 29.3274 187.424C30.9366 186.86 32.6446 186.64 34.3427 186.778C36.0408 186.916 37.6919 187.409 39.1908 188.226C40.6898 189.043 42.004 190.166 43.0497 191.524C44.0954 192.881 44.8498 194.443 45.2649 196.111C45.6801 197.778 45.7468 199.515 45.4609 201.21C45.4092 201.549 45.3381 201.862 45.2541 202.214C44.7745 204.149 43.839 205.939 42.527 207.432C41.4763 208.549 40.8572 210.009 40.7822 211.547V211.782C40.781 212.625 40.8632 213.466 41.0277 214.293C41.3244 215.714 42.0966 216.989 43.2145 217.903C44.3324 218.818 45.728 219.316 47.167 219.315H73.6625C73.7031 219.308 73.7446 219.308 73.7853 219.315C73.7853 219.315 73.8305 219.315 73.8434 219.315C74.3661 219.3 74.8839 219.21 75.3815 219.047C76.533 218.695 77.5447 217.984 78.2723 217.016C78.9999 216.049 79.4063 214.874 79.4333 213.66C79.4396 213.608 79.4396 213.556 79.4333 213.504V186.757C79.4318 185.305 79.9248 183.897 80.8296 182.769C81.7344 181.641 82.996 180.861 84.4029 180.561C85.2238 180.392 86.0597 180.309 86.8973 180.313H87.1235C88.6567 180.393 90.1114 181.022 91.2271 182.087C92.6977 183.425 94.4739 184.375 96.3969 184.852C98.3115 185.337 100.314 185.348 102.234 184.886C104.154 184.423 105.935 183.501 107.426 182.196C108.918 180.891 110.076 179.242 110.801 177.39C111.527 175.537 111.8 173.535 111.596 171.554C111.408 169.878 110.886 168.259 110.062 166.793C109.238 165.326 108.128 164.043 106.8 163.02C105.472 161.997 103.953 161.256 102.334 160.841C100.715 160.425 99.0299 160.344 97.3792 160.603C97.0496 160.662 96.733 160.727 96.3905 160.812C94.4728 161.296 92.6993 162.24 91.2206 163.564C90.1105 164.633 88.656 165.263 87.1235 165.338H86.8909C86.053 165.339 85.2171 165.254 84.3964 165.084C82.989 164.784 81.7266 164.005 80.8216 162.876C79.9166 161.748 79.4241 160.339 79.4269 158.888V132.147C79.4332 132.065 79.4332 131.982 79.4269 131.899C79.3624 130.431 78.7507 129.041 77.7142 128.008C76.6776 126.975 75.2928 126.376 73.837 126.33C73.7768 126.336 73.7162 126.336 73.656 126.33H47.1605C45.7221 126.327 44.3266 126.824 43.2086 127.737C42.0906 128.651 41.3182 129.925 41.0213 131.345C40.8568 132.174 40.7745 133.017 40.7757 133.863V134.097C40.852 135.635 41.4708 137.095 42.5205 138.213C43.8346 139.704 44.7705 141.494 45.2477 143.43C45.3317 143.763 45.4028 144.083 45.4545 144.428C45.7515 146.244 45.6439 148.104 45.1397 149.873C44.6354 151.642 43.7471 153.275 42.5393 154.654C41.3315 156.033 39.8345 157.123 38.1571 157.845C36.4796 158.567 34.6638 158.903 32.8417 158.828C31.0195 158.754 29.2368 158.27 27.6229 157.413C26.009 156.556 24.6045 155.347 23.5115 153.874C22.4184 152.401 21.6643 150.7 21.3038 148.896C20.9434 147.092 20.9856 145.229 21.4276 143.443C21.9039 141.504 22.8447 139.712 24.1676 138.226C25.2247 137.101 25.8502 135.633 25.9318 134.084V133.863C25.9299 133.016 25.8411 132.173 25.6668 131.345C25.376 129.924 24.6071 128.648 23.4905 127.734C22.3739 126.82 20.9783 126.324 19.5405 126.33H-6.99377C-7.05175 126.336 -7.11024 126.336 -7.16822 126.33C-7.68467 126.338 -8.19686 126.426 -8.68689 126.59C-9.82426 126.937 -10.8269 127.631 -11.5563 128.577C-12.2856 129.524 -12.7057 130.675 -12.7582 131.873V158.881C-12.7557 160.334 -13.2491 161.743 -14.1554 162.871C-15.0617 164 -16.3255 164.779 -17.7341 165.077C-18.5526 165.248 -19.3863 165.333 -20.2221 165.332H-20.4548C-21.9797 165.253 -23.4264 164.626 -24.5325 163.564C-26.0112 162.24 -27.7847 161.296 -29.7024 160.812C-30.032 160.727 -30.3486 160.662 -30.6975 160.603C-32.3734 160.32 -34.0893 160.392 -35.7364 160.813C-37.3836 161.234 -38.9262 161.995 -40.2667 163.049C-41.6072 164.103 -42.7164 165.426 -43.5241 166.935C-44.3318 168.444 -44.8205 170.105 -44.9591 171.814C-45.0978 173.523 -44.8835 175.243 -44.3297 176.864C-43.7759 178.485 -42.8947 179.973 -41.7418 181.233C-40.589 182.493 -39.1897 183.497 -37.6324 184.183C-36.075 184.869 -34.3936 185.221 -32.6944 185.217H-32.6815Z" fill="#4254A6"/>
<path d="M-32.6815 185.217C-31.6774 185.219 -30.6769 185.096 -29.7024 184.852C-27.7798 184.374 -26.004 183.424 -24.5325 182.087C-23.4169 181.022 -21.9622 180.393 -20.429 180.313H-20.2092C-19.3736 180.309 -18.5399 180.392 -17.7212 180.561C-16.3131 180.86 -15.0501 181.639 -14.144 182.768C-13.2379 183.896 -12.744 185.304 -12.7452 186.757V213.784C-12.6897 214.983 -12.2688 216.135 -11.5401 217.082C-10.8114 218.03 -9.8104 218.728 -8.67395 219.08C-8.18506 219.25 -7.67241 219.34 -7.15533 219.347H-7.11655C-7.07154 219.341 -7.02584 219.341 -6.98083 219.347H19.547C20.9854 219.352 22.381 218.854 23.4975 217.939C24.614 217.024 25.3826 215.747 25.6733 214.325C25.8475 213.5 25.9363 212.658 25.9382 211.814V211.593C25.8566 210.044 25.2312 208.576 24.174 207.451C22.8538 205.963 21.9133 204.172 21.434 202.234C21.1971 201.249 21.0777 200.24 21.0786 199.227C21.0653 197.508 21.4066 195.804 22.0809 194.225C22.7552 192.646 23.7477 191.226 24.9952 190.055C26.2428 188.885 27.7181 187.989 29.3274 187.424C30.9366 186.86 32.6446 186.64 34.3427 186.778C36.0408 186.916 37.6919 187.409 39.1908 188.226C40.6898 189.043 42.004 190.166 43.0497 191.524C44.0954 192.881 44.8498 194.443 45.2649 196.111C45.6801 197.778 45.7468 199.515 45.4609 201.21C45.4092 201.549 45.3381 201.862 45.2541 202.214C44.7745 204.149 43.839 205.939 42.527 207.432C41.4763 208.549 40.8572 210.009 40.7822 211.547V211.782C40.781 212.625 40.8632 213.466 41.0277 214.293C41.3244 215.714 42.0966 216.989 43.2145 217.903C44.3324 218.818 45.728 219.316 47.167 219.315H73.6625C73.7031 219.308 73.7446 219.308 73.7853 219.315C73.7853 219.315 73.8305 219.315 73.8434 219.315C74.3661 219.3 74.8839 219.21 75.3815 219.047C76.533 218.695 77.5447 217.984 78.2723 217.016C78.9999 216.049 79.4063 214.874 79.4333 213.66C79.4396 213.608 79.4396 213.556 79.4333 213.504V186.757C79.4318 185.305 79.9248 183.897 80.8296 182.769C81.7344 181.641 82.996 180.861 84.4029 180.561C85.2238 180.392 86.0597 180.309 86.8973 180.313H87.1235C88.6567 180.393 90.1114 181.022 91.2271 182.087C92.6977 183.425 94.4739 184.375 96.3969 184.852C98.3115 185.337 100.314 185.348 102.234 184.886C104.154 184.423 105.935 183.501 107.426 182.196C108.918 180.891 110.076 179.242 110.801 177.39C111.527 175.537 111.8 173.535 111.596 171.554C111.408 169.878 110.886 168.259 110.062 166.793C109.238 165.326 108.128 164.043 106.8 163.02C105.472 161.997 103.953 161.256 102.334 160.841C100.715 160.425 99.0299 160.344 97.3792 160.603C97.0496 160.662 96.733 160.727 96.3905 160.812C94.4728 161.296 92.6993 162.24 91.2206 163.564C90.1105 164.633 88.656 165.263 87.1235 165.338H86.8909C86.053 165.339 85.2171 165.254 84.3964 165.084C82.989 164.784 81.7266 164.005 80.8216 162.876C79.9166 161.748 79.4241 160.339 79.4269 158.888V132.147C79.4332 132.065 79.4332 131.982 79.4269 131.899C79.3624 130.431 78.7507 129.041 77.7142 128.008C76.6776 126.975 75.2928 126.376 73.837 126.33C73.7768 126.336 73.7162 126.336 73.656 126.33H47.1605C45.7221 126.327 44.3266 126.824 43.2086 127.737C42.0906 128.651 41.3182 129.925 41.0213 131.345C40.8568 132.174 40.7745 133.017 40.7757 133.863V134.097C40.852 135.635 41.4708 137.095 42.5205 138.213C43.8346 139.704 44.7705 141.494 45.2477 143.43C45.3317 143.763 45.4028 144.083 45.4545 144.428C45.7515 146.244 45.6439 148.104 45.1397 149.873C44.6354 151.642 43.7471 153.275 42.5393 154.654C41.3315 156.033 39.8345 157.123 38.1571 157.845C36.4796 158.567 34.6638 158.903 32.8417 158.828C31.0195 158.754 29.2368 158.27 27.6229 157.413C26.009 156.556 24.6045 155.347 23.5115 153.874C22.4184 152.401 21.6643 150.7 21.3038 148.896C20.9434 147.092 20.9856 145.229 21.4276 143.443C21.9039 141.504 22.8447 139.712 24.1676 138.226C25.2247 137.101 25.8502 135.633 25.9318 134.084V133.863C25.9299 133.016 25.8411 132.173 25.6668 131.345C25.376 129.924 24.6071 128.648 23.4905 127.734C22.3739 126.82 20.9783 126.324 19.5405 126.33H-6.99377C-7.05175 126.336 -7.11024 126.336 -7.16822 126.33C-7.68467 126.338 -8.19686 126.426 -8.68689 126.59C-9.82426 126.937 -10.8269 127.631 -11.5563 128.577C-12.2856 129.524 -12.7057 130.675 -12.7582 131.873V158.881C-12.7557 160.334 -13.2491 161.743 -14.1554 162.871C-15.0617 164 -16.3255 164.779 -17.7341 165.077C-18.5526 165.248 -19.3863 165.333 -20.2221 165.332H-20.4548C-21.9797 165.253 -23.4264 164.626 -24.5325 163.564C-26.0112 162.24 -27.7847 161.296 -29.7024 160.812C-30.032 160.727 -30.3486 160.662 -30.6975 160.603C-32.3734 160.32 -34.0893 160.392 -35.7364 160.813C-37.3836 161.234 -38.9262 161.995 -40.2667 163.049C-41.6072 164.103 -42.7164 165.426 -43.5241 166.935C-44.3318 168.444 -44.8205 170.105 -44.9591 171.814C-45.0978 173.523 -44.8835 175.243 -44.3297 176.864C-43.7759 178.485 -42.8947 179.973 -41.7418 181.233C-40.589 182.493 -39.1897 183.497 -37.6324 184.183C-36.075 184.869 -34.3936 185.221 -32.6944 185.217H-32.6815Z" stroke="#344383" stroke-miterlimit="10"/>
</g>
<g filter="url(#filter1_d_2070_15835)">
<path d="M-125.682 277.888C-124.677 277.89 -123.677 277.767 -122.702 277.523C-120.78 277.044 -119.004 276.095 -117.533 274.757C-116.417 273.693 -114.962 273.064 -113.429 272.983H-113.209C-112.374 272.98 -111.54 273.063 -110.721 273.231C-109.313 273.531 -108.05 274.31 -107.144 275.438C-106.238 276.566 -105.744 277.975 -105.745 279.427V306.455C-105.69 307.653 -105.269 308.805 -104.54 309.753C-103.811 310.701 -102.81 311.399 -101.674 311.751C-101.185 311.921 -100.672 312.011 -100.155 312.018H-100.117C-100.072 312.012 -100.026 312.012 -99.9808 312.018H-73.453C-72.0146 312.022 -70.619 311.525 -69.5025 310.61C-68.386 309.694 -67.6174 308.418 -67.3267 306.996C-67.1525 306.171 -67.0637 305.329 -67.0618 304.485V304.263C-67.1434 302.715 -67.7688 301.247 -68.826 300.122C-70.1462 298.633 -71.0867 296.842 -71.566 294.904C-71.8029 293.92 -71.9223 292.91 -71.9214 291.897C-71.9347 290.178 -71.5934 288.475 -70.9191 286.896C-70.2448 285.317 -69.2523 283.897 -68.0048 282.726C-66.7572 281.555 -65.2819 280.659 -63.6726 280.095C-62.0634 279.531 -60.3554 279.311 -58.6573 279.449C-56.9592 279.587 -55.3081 280.08 -53.8092 280.897C-52.3102 281.714 -50.996 282.837 -49.9503 284.194C-48.9046 285.551 -48.1502 287.114 -47.7351 288.781C-47.3199 290.449 -47.2532 292.185 -47.5391 293.88C-47.5908 294.219 -47.6619 294.532 -47.7459 294.884C-48.2255 296.82 -49.161 298.61 -50.473 300.102C-51.5237 301.219 -52.1428 302.679 -52.2178 304.218V304.452C-52.219 305.296 -52.1368 306.137 -51.9723 306.963C-51.6756 308.384 -50.9034 309.659 -49.7855 310.574C-48.6676 311.488 -47.272 311.987 -45.833 311.985H-19.3375C-19.2969 311.979 -19.2554 311.979 -19.2147 311.985C-19.2147 311.985 -19.1695 311.985 -19.1566 311.985C-18.6339 311.97 -18.1161 311.88 -17.6185 311.718C-16.467 311.365 -15.4553 310.654 -14.7277 309.687C-14.0001 308.72 -13.5937 307.545 -13.5667 306.331C-13.5604 306.279 -13.5604 306.226 -13.5667 306.174V279.427C-13.5682 277.976 -13.0752 276.568 -12.1704 275.44C-11.2656 274.312 -10.004 273.532 -8.59715 273.231C-7.77622 273.063 -6.94035 272.98 -6.10266 272.983H-5.8765C-4.34326 273.064 -2.88857 273.693 -1.77294 274.757C-0.302269 276.096 1.47386 277.046 3.39692 277.523C5.31153 278.007 7.31371 278.019 9.23368 277.556C11.1537 277.094 12.9348 276.171 14.4263 274.866C15.9178 273.561 17.0755 271.913 17.8014 270.06C18.5273 268.208 18.8 266.206 18.5963 264.224C18.4079 262.549 17.886 260.93 17.0618 259.463C16.2377 257.997 15.1283 256.713 13.8003 255.691C12.4724 254.668 10.9534 253.926 9.33438 253.511C7.7154 253.096 6.02991 253.015 4.37921 253.274C4.04963 253.332 3.733 253.398 3.39049 253.482C1.47281 253.966 -0.300728 254.911 -1.77937 256.235C-2.8895 257.304 -4.34395 257.933 -5.8765 258.009H-6.10913C-6.94704 258.01 -7.78287 257.925 -8.60358 257.754C-10.011 257.455 -11.2734 256.675 -12.1784 255.547C-13.0834 254.418 -13.5759 253.01 -13.5731 251.558V224.818C-13.5668 224.735 -13.5668 224.652 -13.5731 224.57C-13.6376 223.101 -14.2493 221.711 -15.2858 220.679C-16.3224 219.646 -17.7072 219.046 -19.163 219C-19.2232 219.007 -19.2838 219.007 -19.344 219H-45.8395C-47.2779 218.997 -48.6734 219.494 -49.7914 220.408C-50.9094 221.321 -51.6818 222.595 -51.9787 224.016C-52.1432 224.844 -52.2255 225.688 -52.2243 226.533V226.768C-52.148 228.306 -51.5292 229.766 -50.4795 230.883C-49.1654 232.374 -48.2295 234.165 -47.7523 236.101C-47.6683 236.434 -47.5972 236.753 -47.5455 237.099C-47.2485 238.915 -47.3561 240.775 -47.8603 242.543C-48.3646 244.312 -49.2529 245.945 -50.4607 247.324C-51.6685 248.703 -53.1655 249.793 -54.8429 250.515C-56.5204 251.238 -58.3362 251.573 -60.1583 251.499C-61.9805 251.424 -63.7632 250.941 -65.3771 250.084C-66.991 249.227 -68.3955 248.018 -69.4885 246.544C-70.5816 245.071 -71.3357 243.371 -71.6962 241.566C-72.0566 239.762 -72.0144 237.9 -71.5724 236.114C-71.0961 234.175 -70.1553 232.383 -68.8324 230.896C-67.7753 229.771 -67.1498 228.303 -67.0682 226.755V226.533C-67.0701 225.687 -67.1589 224.843 -67.3332 224.016C-67.624 222.594 -68.3929 221.319 -69.5095 220.404C-70.6261 219.49 -72.0217 218.994 -73.4595 219H-99.9938C-100.052 219.007 -100.11 219.007 -100.168 219C-100.685 219.008 -101.197 219.096 -101.687 219.261C-102.824 219.607 -103.827 220.301 -104.556 221.248C-105.286 222.194 -105.706 223.346 -105.758 224.544V251.552C-105.756 253.004 -106.249 254.414 -107.155 255.542C-108.062 256.67 -109.326 257.449 -110.734 257.748C-111.553 257.919 -112.386 258.004 -113.222 258.002H-113.455C-114.98 257.924 -116.426 257.297 -117.533 256.235C-119.011 254.911 -120.785 253.966 -122.702 253.482C-123.032 253.398 -123.349 253.332 -123.698 253.274C-125.373 252.991 -127.089 253.062 -128.736 253.483C-130.384 253.904 -131.926 254.666 -133.267 255.72C-134.607 256.774 -135.716 258.097 -136.524 259.605C-137.332 261.114 -137.82 262.776 -137.959 264.485C-138.098 266.194 -137.883 267.914 -137.33 269.535C-136.776 271.156 -135.895 272.644 -134.742 273.903C-133.589 275.163 -132.19 276.168 -130.632 276.854C-129.075 277.54 -127.394 277.892 -125.694 277.888H-125.682Z" fill="#4254A6"/>
<path d="M-125.682 277.888C-124.677 277.89 -123.677 277.767 -122.702 277.523C-120.78 277.044 -119.004 276.095 -117.533 274.757C-116.417 273.693 -114.962 273.064 -113.429 272.983H-113.209C-112.374 272.98 -111.54 273.063 -110.721 273.231C-109.313 273.531 -108.05 274.31 -107.144 275.438C-106.238 276.566 -105.744 277.975 -105.745 279.427V306.455C-105.69 307.653 -105.269 308.805 -104.54 309.753C-103.811 310.701 -102.81 311.399 -101.674 311.751C-101.185 311.921 -100.672 312.011 -100.155 312.018H-100.117C-100.072 312.012 -100.026 312.012 -99.9808 312.018H-73.453C-72.0146 312.022 -70.619 311.525 -69.5025 310.61C-68.386 309.694 -67.6174 308.418 -67.3267 306.996C-67.1525 306.171 -67.0637 305.329 -67.0618 304.485V304.263C-67.1434 302.715 -67.7688 301.247 -68.826 300.122C-70.1462 298.633 -71.0867 296.842 -71.566 294.904C-71.8029 293.92 -71.9223 292.91 -71.9214 291.897C-71.9347 290.178 -71.5934 288.475 -70.9191 286.896C-70.2448 285.317 -69.2523 283.897 -68.0048 282.726C-66.7572 281.555 -65.2819 280.659 -63.6726 280.095C-62.0634 279.531 -60.3554 279.311 -58.6573 279.449C-56.9592 279.587 -55.3081 280.08 -53.8092 280.897C-52.3102 281.714 -50.996 282.837 -49.9503 284.194C-48.9046 285.551 -48.1502 287.114 -47.7351 288.781C-47.3199 290.449 -47.2532 292.185 -47.5391 293.88C-47.5908 294.219 -47.6619 294.532 -47.7459 294.884C-48.2255 296.82 -49.161 298.61 -50.473 300.102C-51.5237 301.219 -52.1428 302.679 -52.2178 304.218V304.452C-52.219 305.296 -52.1368 306.137 -51.9723 306.963C-51.6756 308.384 -50.9034 309.659 -49.7855 310.574C-48.6676 311.488 -47.272 311.987 -45.833 311.985H-19.3375C-19.2969 311.979 -19.2554 311.979 -19.2147 311.985C-19.2147 311.985 -19.1695 311.985 -19.1566 311.985C-18.6339 311.97 -18.1161 311.88 -17.6185 311.718C-16.467 311.365 -15.4553 310.654 -14.7277 309.687C-14.0001 308.72 -13.5937 307.545 -13.5667 306.331C-13.5604 306.279 -13.5604 306.226 -13.5667 306.174V279.427C-13.5682 277.976 -13.0752 276.568 -12.1704 275.44C-11.2656 274.312 -10.004 273.532 -8.59715 273.231C-7.77622 273.063 -6.94035 272.98 -6.10266 272.983H-5.8765C-4.34326 273.064 -2.88857 273.693 -1.77294 274.757C-0.302269 276.096 1.47386 277.046 3.39692 277.523C5.31153 278.007 7.31371 278.019 9.23368 277.556C11.1537 277.094 12.9348 276.171 14.4263 274.866C15.9178 273.561 17.0755 271.913 17.8014 270.06C18.5273 268.208 18.8 266.206 18.5963 264.224C18.4079 262.549 17.886 260.93 17.0618 259.463C16.2377 257.997 15.1283 256.713 13.8003 255.691C12.4724 254.668 10.9534 253.926 9.33438 253.511C7.7154 253.096 6.02991 253.015 4.37921 253.274C4.04963 253.332 3.733 253.398 3.39049 253.482C1.47281 253.966 -0.300728 254.911 -1.77937 256.235C-2.8895 257.304 -4.34395 257.933 -5.8765 258.009H-6.10913C-6.94704 258.01 -7.78287 257.925 -8.60358 257.754C-10.011 257.455 -11.2734 256.675 -12.1784 255.547C-13.0834 254.418 -13.5759 253.01 -13.5731 251.558V224.818C-13.5668 224.735 -13.5668 224.652 -13.5731 224.57C-13.6376 223.101 -14.2493 221.711 -15.2858 220.679C-16.3224 219.646 -17.7072 219.046 -19.163 219C-19.2232 219.007 -19.2838 219.007 -19.344 219H-45.8395C-47.2779 218.997 -48.6734 219.494 -49.7914 220.408C-50.9094 221.321 -51.6818 222.595 -51.9787 224.016C-52.1432 224.844 -52.2255 225.688 -52.2243 226.533V226.768C-52.148 228.306 -51.5292 229.766 -50.4795 230.883C-49.1654 232.374 -48.2295 234.165 -47.7523 236.101C-47.6683 236.434 -47.5972 236.753 -47.5455 237.099C-47.2485 238.915 -47.3561 240.775 -47.8603 242.543C-48.3646 244.312 -49.2529 245.945 -50.4607 247.324C-51.6685 248.703 -53.1655 249.793 -54.8429 250.515C-56.5204 251.238 -58.3362 251.573 -60.1583 251.499C-61.9805 251.424 -63.7632 250.941 -65.3771 250.084C-66.991 249.227 -68.3955 248.018 -69.4885 246.544C-70.5816 245.071 -71.3357 243.371 -71.6962 241.566C-72.0566 239.762 -72.0144 237.9 -71.5724 236.114C-71.0961 234.175 -70.1553 232.383 -68.8324 230.896C-67.7753 229.771 -67.1498 228.303 -67.0682 226.755V226.533C-67.0701 225.687 -67.1589 224.843 -67.3332 224.016C-67.624 222.594 -68.3929 221.319 -69.5095 220.404C-70.6261 219.49 -72.0217 218.994 -73.4595 219H-99.9938C-100.052 219.007 -100.11 219.007 -100.168 219C-100.685 219.008 -101.197 219.096 -101.687 219.261C-102.824 219.607 -103.827 220.301 -104.556 221.248C-105.286 222.194 -105.706 223.346 -105.758 224.544V251.552C-105.756 253.004 -106.249 254.414 -107.155 255.542C-108.062 256.67 -109.326 257.449 -110.734 257.748C-111.553 257.919 -112.386 258.004 -113.222 258.002H-113.455C-114.98 257.924 -116.426 257.297 -117.533 256.235C-119.011 254.911 -120.785 253.966 -122.702 253.482C-123.032 253.398 -123.349 253.332 -123.698 253.274C-125.373 252.991 -127.089 253.062 -128.736 253.483C-130.384 253.904 -131.926 254.666 -133.267 255.72C-134.607 256.774 -135.716 258.097 -136.524 259.605C-137.332 261.114 -137.82 262.776 -137.959 264.485C-138.098 266.194 -137.883 267.914 -137.33 269.535C-136.776 271.156 -135.895 272.644 -134.742 273.903C-133.589 275.163 -132.19 276.168 -130.632 276.854C-129.075 277.54 -127.394 277.892 -125.694 277.888H-125.682Z" stroke="#344383" stroke-miterlimit="10"/>
</g>
<path d="M151.527 369.296C152.531 369.298 153.531 369.175 154.506 368.931C156.428 368.453 158.204 367.503 159.676 366.166C160.791 365.101 162.246 364.472 163.779 364.392H163.999C164.835 364.388 165.668 364.471 166.487 364.639C167.895 364.939 169.158 365.718 170.064 366.846C170.97 367.975 171.464 369.383 171.463 370.835V397.863C171.518 399.061 171.939 400.213 172.668 401.161C173.397 402.109 174.398 402.807 175.534 403.159C176.023 403.329 176.536 403.419 177.053 403.426H177.092C177.137 403.42 177.182 403.42 177.227 403.426H203.755C205.193 403.431 206.589 402.933 207.706 402.018C208.822 401.103 209.591 399.826 209.881 398.404C210.056 397.579 210.144 396.737 210.146 395.893V395.671C210.065 394.123 209.439 392.655 208.382 391.53C207.062 390.042 206.121 388.251 205.642 386.312C205.405 385.328 205.286 384.319 205.287 383.306C205.273 381.586 205.615 379.883 206.289 378.304C206.963 376.725 207.956 375.305 209.203 374.134C210.451 372.963 211.926 372.067 213.535 371.503C215.145 370.939 216.853 370.719 218.551 370.857C220.249 370.995 221.9 371.488 223.399 372.305C224.898 373.122 226.212 374.245 227.258 375.602C228.304 376.96 229.058 378.522 229.473 380.189C229.888 381.857 229.955 383.593 229.669 385.288C229.617 385.627 229.546 385.94 229.462 386.293C228.983 388.228 228.047 390.018 226.735 391.51C225.684 392.627 225.065 394.087 224.99 395.626V395.861C224.989 396.704 225.071 397.545 225.236 398.372C225.533 399.793 226.305 401.067 227.423 401.982C228.54 402.896 229.936 403.395 231.375 403.394H257.871C257.911 403.387 257.953 403.387 257.993 403.394C257.993 403.394 258.039 403.394 258.052 403.394C258.574 403.378 259.092 403.288 259.59 403.126C260.741 402.773 261.753 402.063 262.48 401.095C263.208 400.128 263.614 398.953 263.641 397.739C263.648 397.687 263.648 397.634 263.641 397.582V370.835C263.64 369.384 264.133 367.976 265.038 366.848C265.943 365.72 267.204 364.94 268.611 364.639C269.432 364.471 270.268 364.388 271.105 364.392H271.332C272.865 364.472 274.32 365.101 275.435 366.166C276.906 367.504 278.682 368.454 280.605 368.931C282.52 369.415 284.522 369.427 286.442 368.965C288.362 368.502 290.143 367.579 291.634 366.274C293.126 364.969 294.284 363.321 295.01 361.468C295.735 359.616 296.008 357.614 295.804 355.632C295.616 353.957 295.094 352.338 294.27 350.871C293.446 349.405 292.336 348.122 291.008 347.099C289.681 346.076 288.161 345.335 286.543 344.919C284.924 344.504 283.238 344.423 281.587 344.682C281.258 344.74 280.941 344.806 280.599 344.891C278.681 345.375 276.907 346.319 275.429 347.643C274.319 348.712 272.864 349.342 271.332 349.417H271.099C270.261 349.418 269.425 349.333 268.605 349.162C267.197 348.863 265.935 348.083 265.03 346.955C264.125 345.827 263.632 344.418 263.635 342.966V316.226C263.641 316.143 263.641 316.061 263.635 315.978C263.571 314.51 262.959 313.12 261.922 312.087C260.886 311.054 259.501 310.455 258.045 310.408C257.985 310.415 257.924 310.415 257.864 310.408H231.369C229.93 310.405 228.535 310.903 227.417 311.816C226.299 312.729 225.526 314.003 225.229 315.424C225.065 316.253 224.983 317.096 224.984 317.941V318.176C225.06 319.714 225.679 321.174 226.729 322.291C228.043 323.782 228.979 325.573 229.456 327.509C229.54 327.842 229.611 328.161 229.663 328.507C229.96 330.323 229.852 332.183 229.348 333.952C228.844 335.72 227.955 337.354 226.747 338.733C225.54 340.111 224.043 341.202 222.365 341.924C220.688 342.646 218.872 342.982 217.05 342.907C215.228 342.832 213.445 342.349 211.831 341.492C210.217 340.635 208.813 339.426 207.72 337.953C206.627 336.479 205.872 334.779 205.512 332.975C205.151 331.17 205.194 329.308 205.636 327.522C206.112 325.583 207.053 323.791 208.376 322.305C209.433 321.18 210.058 319.711 210.14 318.163V317.941C210.138 317.095 210.049 316.251 209.875 315.424C209.584 314.003 208.815 312.727 207.699 311.813C206.582 310.899 205.186 310.402 203.749 310.408H177.214C177.156 310.415 177.098 310.415 177.04 310.408C176.523 310.416 176.011 310.504 175.521 310.669C174.384 311.015 173.381 311.71 172.652 312.656C171.923 313.603 171.502 314.754 171.45 315.952V342.96C171.452 344.413 170.959 345.822 170.053 346.95C169.146 348.079 167.883 348.858 166.474 349.156C165.656 349.327 164.822 349.412 163.986 349.41H163.753C162.228 349.332 160.782 348.705 159.676 347.643C158.197 346.319 156.423 345.375 154.506 344.891C154.176 344.806 153.86 344.74 153.511 344.682C151.835 344.399 150.119 344.471 148.472 344.892C146.825 345.313 145.282 346.074 143.941 347.128C142.601 348.182 141.492 349.505 140.684 351.014C139.876 352.522 139.388 354.184 139.249 355.893C139.11 357.602 139.325 359.322 139.878 360.943C140.432 362.564 141.313 364.052 142.466 365.312C143.619 366.571 145.018 367.576 146.576 368.262C148.133 368.948 149.815 369.3 151.514 369.296H151.527Z" fill="#D1193D" stroke="#A41330" stroke-miterlimit="10"/>
<path d="M18.812 79.1248C18.8386 79.5572 18.8386 79.9909 18.812 80.4233C18.812 80.631 18.812 80.8388 18.7729 81.0725C18.7273 81.4621 18.6752 81.8451 18.5906 82.2346C18.5877 82.2407 18.5861 82.2474 18.5861 82.2541C18.5861 82.2609 18.5877 82.2675 18.5906 82.2736C18.5636 82.4765 18.5178 82.6765 18.4537 82.8709C18.3715 83.2184 18.2693 83.5609 18.1476 83.8967C17.9594 84.4346 17.7263 84.9558 17.4505 85.4548C17.3709 85.6275 17.2794 85.7945 17.1769 85.9548C16.2017 87.6502 14.8349 89.0895 13.1899 90.1531C11.5449 91.2167 9.66911 91.874 7.71815 92.0705C7.30775 92.1095 6.89083 92.1419 6.46089 92.1419C6.18077 92.1419 5.90065 92.1419 5.64008 92.1419C5.48373 92.1419 5.32088 92.1419 5.1515 92.09C4.89969 92.0763 4.64925 92.0438 4.40234 91.9926C4.08393 91.952 3.76842 91.8913 3.45776 91.8108C2.96872 91.6898 2.4879 91.5379 2.01812 91.3563C0.633873 90.8235 -0.641907 90.0448 -1.74718 89.0581C-2.18998 88.651 -2.67982 88.2979 -3.20638 88.0063C-3.53362 87.8197 -3.87835 87.6653 -4.23566 87.5453C-4.77433 87.3581 -5.33944 87.2573 -5.90984 87.2467H-6.15087C-6.99316 87.2429 -7.83358 87.3256 -8.65887 87.4934C-9.90263 87.7494 -11.0387 88.3766 -11.916 89.2918C-13.0387 90.4665 -13.666 92.0259 -13.6684 93.6481V120.306C-13.6684 120.5 -13.6684 120.695 -13.6684 120.883C-13.628 121.269 -13.5494 121.649 -13.4338 122.02C-13.2131 122.731 -12.8546 123.393 -12.3785 123.967L-12.0072 124.37C-11.8793 124.505 -11.7398 124.629 -11.5903 124.74C-10.7162 125.461 -9.6498 125.912 -8.52205 126.038H-8.39828C-8.29199 126.045 -8.18536 126.045 -8.07909 126.038C-8.01844 126.044 -7.95734 126.044 -7.89671 126.038H18.9097C20.3591 126.032 21.7659 126.526 22.8915 127.436C24.0171 128.346 24.7921 129.616 25.0853 131.031C25.2606 131.855 25.3501 132.695 25.3524 133.537V133.758C25.2662 135.298 24.6363 136.758 23.574 137.88C22.2383 139.359 21.2895 141.143 20.8119 143.074C20.5709 144.051 20.4484 145.054 20.4471 146.061C20.4128 147.784 20.7411 149.495 21.4111 151.084C22.081 152.673 23.0776 154.105 24.3367 155.286C25.5958 156.468 27.0894 157.373 28.7211 157.944C30.3529 158.515 32.0866 158.739 33.8105 158.602C35.5344 158.464 37.2102 157.968 38.7299 157.145C40.2496 156.322 41.5794 155.191 42.6336 153.825C43.6878 152.459 44.4431 150.887 44.8506 149.212C45.2581 147.537 45.3089 145.796 44.9996 144.1C44.941 143.769 44.8758 143.451 44.7911 143.107C44.3048 141.181 43.3621 139.4 42.0421 137.913C40.9815 136.802 40.3572 135.348 40.2832 133.816V133.582C40.2791 132.741 40.3621 131.901 40.5308 131.076C40.8301 129.662 41.6086 128.394 42.7357 127.485C43.8627 126.576 45.2694 126.081 46.7194 126.084H73.4281C73.4888 126.09 73.5499 126.09 73.6105 126.084C73.7168 126.091 73.8234 126.091 73.9297 126.084H74.0535C75.1812 125.958 76.2476 125.506 77.1217 124.785C77.2848 124.659 77.4354 124.518 77.5712 124.363C77.695 124.233 77.8318 124.097 77.9425 123.961C77.9425 123.961 77.9425 123.961 77.9816 123.915C78.3276 123.494 78.6086 123.023 78.8154 122.519C78.9004 122.352 78.966 122.176 79.0109 121.994C79.1265 121.623 79.205 121.243 79.2454 120.857C79.2454 120.669 79.2454 120.474 79.2454 120.28V93.6351C79.2485 92.1904 78.7511 90.7889 77.8372 89.6675C76.9232 88.5461 75.6488 87.7736 74.2294 87.4804C73.4042 87.312 72.5637 87.2293 71.7214 87.2337H71.4868C70.9142 87.2437 70.3469 87.3445 69.8062 87.5324C68.9019 87.8482 68.071 88.3429 67.3633 88.9867C66.0768 90.1385 64.5573 91.0019 62.9075 91.5186C62.6641 91.6121 62.4136 91.6859 62.1583 91.7394C61.8708 91.8105 61.5793 91.8647 61.2854 91.9017C61.0385 91.9529 60.7881 91.9854 60.5362 91.9991C60.3669 91.9991 60.204 92.038 60.0477 92.051C59.7871 92.051 59.507 92.051 59.2269 92.051C58.797 92.051 58.38 92.051 57.9696 91.9796C56.0193 91.7837 54.1442 91.1265 52.5002 90.0628C50.8561 88.9991 49.4907 87.5595 48.5174 85.8639C48.4128 85.7037 48.3191 85.5367 48.2372 85.3639C47.9615 84.8649 47.7283 84.3437 47.5402 83.8058C47.4177 83.4709 47.3175 83.1282 47.2405 82.78C47.1713 82.5866 47.1232 82.3864 47.0972 82.1827C47.1001 82.1766 47.1016 82.17 47.1016 82.1632C47.1016 82.1565 47.1001 82.1498 47.0972 82.1437C47.0125 81.7542 46.9604 81.3712 46.9148 80.9816C46.9148 80.7739 46.8757 80.5661 46.8757 80.3324C46.8491 79.9 46.8491 79.4663 46.8757 79.0339C46.8757 78.8262 46.8757 78.6184 46.9148 78.3847C46.9604 77.9952 47.0125 77.6121 47.0972 77.2226C47.0943 77.2165 47.0928 77.2098 47.0928 77.2031C47.0928 77.1964 47.0943 77.1897 47.0972 77.1836C47.1232 76.98 47.1713 76.7797 47.2405 76.5863C47.2788 76.3896 47.3332 76.1963 47.4034 76.0085C47.4567 75.81 47.522 75.6149 47.5988 75.4242C47.7798 74.9346 47.9976 74.4593 48.2502 74.0024C48.3322 73.8296 48.4258 73.6626 48.5304 73.5025C49.5037 71.8068 50.8691 70.3672 52.5132 69.3035C54.1572 68.2398 56.0324 67.5826 57.9826 67.3867C58.6732 67.3186 59.3681 67.3056 60.0607 67.3478C60.2171 67.3478 60.3799 67.3478 60.5493 67.3997C60.7444 67.4043 60.9387 67.4282 61.1291 67.4711C61.17 67.4643 61.2119 67.4643 61.2528 67.4711C61.2599 67.4677 61.2677 67.4659 61.2756 67.4659C61.2835 67.4659 61.2913 67.4677 61.2984 67.4711C61.6169 67.5117 61.9323 67.5724 62.243 67.6529C62.4982 67.7064 62.7488 67.7802 62.9922 67.8736C64.6457 68.3909 66.1693 69.2541 67.461 70.4057C68.164 71.0491 68.9906 71.5438 69.8908 71.8599C70.4321 72.0468 70.9989 72.1497 71.5715 72.165H71.8061C72.236 72.165 72.6659 72.1326 73.1089 72.1066C73.5519 72.0807 73.9427 71.9963 74.3401 71.9119C75.5831 71.654 76.7187 71.027 77.5973 70.1135C78.7224 68.9352 79.3499 67.3708 79.3496 65.7442V39.1257C79.3496 38.9179 79.3496 38.7231 79.3496 38.5349C79.3092 38.1494 79.2307 37.7688 79.1151 37.3987C79.0618 37.2193 78.9965 37.0436 78.9197 36.8728C78.7749 36.5238 78.5936 36.1908 78.379 35.8795C77.9479 35.2389 77.3918 34.6913 76.7439 34.2694L76.327 34.0227C76.1576 33.9383 75.9948 33.8539 75.8254 33.789C75.3042 33.5677 74.7533 33.4233 74.1903 33.3605H74.0665C73.9602 33.3534 73.8536 33.3534 73.7473 33.3605C73.7473 33.3605 73.7017 33.3605 73.6887 33.3605C73.6476 33.3542 73.6059 33.3542 73.5649 33.3605H46.8562C45.4062 33.3633 43.9995 32.8685 42.8725 31.9593C41.7454 31.0501 40.9668 29.7819 40.6676 28.3679C40.4982 27.5434 40.4152 26.7035 40.42 25.8619V25.6282C40.4926 24.0981 41.1172 22.6456 42.1789 21.538C43.4963 20.049 44.4387 18.2685 44.928 16.3442C45.0126 16.0065 45.0778 15.6949 45.1364 15.3443C45.4358 13.5367 45.3274 11.6853 44.8191 9.92459C44.3108 8.16391 43.4154 6.53818 42.1978 5.16552C40.9803 3.79285 39.4712 2.70772 37.7803 1.98894C36.0894 1.27017 34.259 0.935815 32.4222 1.01016C30.5854 1.08451 28.7882 1.5657 27.1614 2.41876C25.5345 3.27183 24.1187 4.47534 23.0169 5.94189C21.915 7.40843 21.1548 9.10119 20.7914 10.8971C20.4281 12.6931 20.4707 14.5472 20.9162 16.3247C21.3938 18.2562 22.3426 20.0403 23.6782 21.5185C24.7405 22.6406 25.3704 24.1009 25.4566 25.6411V25.8619C25.455 26.7042 25.3655 27.5441 25.1896 28.3679C24.8964 29.7825 24.1213 31.0525 22.9957 31.9625C21.8701 32.8724 20.4633 33.3664 19.014 33.3605H-7.73384C-7.77922 33.3541 -7.82525 33.3541 -7.87062 33.3605H-7.91622C-8.02251 33.3534 -8.12914 33.3534 -8.23542 33.3605H-8.35919C-8.92223 33.4233 -9.47312 33.5677 -9.99433 33.789C-10.1637 33.8539 -10.3265 33.9383 -10.4959 34.0227L-10.9128 34.2694C-11.6364 34.7444 -12.2454 35.3732 -12.696 36.1108C-13.1465 36.8483 -13.4274 37.6762 -13.5185 38.5349C-13.5185 38.7231 -13.5185 38.9179 -13.5185 39.1257V65.7442C-13.5188 67.3708 -12.8914 68.9352 -11.7662 70.1135C-10.8907 71.031 -9.75383 71.6587 -8.50905 71.9119C-8.09213 71.9963 -7.69475 72.0482 -7.27783 72.1066C-6.86092 72.1651 -6.43097 72.165 -5.97497 72.165H-5.73394C-5.16354 72.149 -4.59895 72.0461 -4.05976 71.8599C-3.15952 71.5438 -2.33293 71.0491 -1.62993 70.4057C-0.517944 69.4213 0.761597 68.643 2.14837 68.1074C2.61918 67.9286 3.09986 67.7769 3.58805 67.6529C3.89872 67.5724 4.21423 67.5117 4.53264 67.4711C4.54734 67.4656 4.56354 67.4656 4.57824 67.4711C4.61922 67.4643 4.66103 67.4643 4.70201 67.4711C4.89241 67.4282 5.08664 67.4043 5.2818 67.3997C5.45117 67.3997 5.61403 67.3607 5.77037 67.3478C6.463 67.3056 7.15786 67.3186 7.8484 67.3867C9.79935 67.5832 11.6752 68.2405 13.3202 69.3041C14.9652 70.3678 16.332 71.807 17.3072 73.5025C17.4097 73.6627 17.5011 73.8297 17.5808 74.0024C17.8335 74.4593 18.0512 74.9346 18.2322 75.4242C18.309 75.6149 18.3743 75.81 18.4277 76.0085C18.4969 76.1972 18.5535 76.3902 18.597 76.5863C18.6611 76.7807 18.7069 76.9807 18.7338 77.1836C18.7367 77.1897 18.7383 77.1964 18.7383 77.2031C18.7383 77.2098 18.7367 77.2165 18.7338 77.2226C18.8185 77.6121 18.8707 77.9952 18.9163 78.3847C18.799 78.7093 18.799 78.9171 18.812 79.1248Z" fill="#912891" stroke="#601A60" stroke-miterlimit="10"/>
<path d="M111.831 171.649C111.857 172.084 111.857 172.52 111.831 172.955C111.831 173.164 111.831 173.373 111.791 173.608C111.746 174 111.694 174.386 111.609 174.778C111.606 174.784 111.605 174.791 111.605 174.797C111.605 174.804 111.606 174.811 111.609 174.817C111.582 175.021 111.536 175.222 111.472 175.418C111.39 175.768 111.288 176.112 111.166 176.45C110.978 176.991 110.745 177.516 110.469 178.018C110.389 178.192 110.298 178.36 110.195 178.521C109.22 180.227 107.854 181.675 106.208 182.745C104.563 183.816 102.688 184.477 100.737 184.675C100.326 184.714 99.9094 184.747 99.4794 184.747C99.1993 184.747 98.9192 184.747 98.6586 184.747C98.5023 184.747 98.3394 184.747 98.1701 184.694C97.9182 184.681 97.6678 184.648 97.4209 184.596C97.1025 184.556 96.787 184.494 96.4763 184.413C95.9873 184.292 95.5065 184.139 95.0367 183.956C93.6524 183.42 92.3766 182.636 91.2714 181.644C90.8286 181.234 90.3387 180.879 89.8122 180.585C89.4849 180.397 89.1402 180.242 88.7829 180.121C88.2442 179.933 87.6791 179.832 87.1087 179.821H86.8677C86.0254 179.817 85.185 179.9 84.3597 180.069C83.1159 180.327 81.9798 180.958 81.1025 181.879C79.9799 183.061 79.3526 184.63 79.3501 186.262V213.085C79.3501 213.281 79.3501 213.477 79.3501 213.667C79.3905 214.054 79.4691 214.437 79.5847 214.81C79.8054 215.526 80.1639 216.192 80.64 216.77L81.0113 217.175C81.1392 217.311 81.2787 217.435 81.4282 217.547C82.3024 218.273 83.3688 218.727 84.4965 218.853H84.6203C84.7266 218.861 84.8332 218.861 84.9395 218.853C85.0001 218.86 85.0612 218.86 85.1218 218.853H111.928C113.378 218.848 114.784 219.345 115.91 220.26C117.036 221.176 117.811 222.454 118.104 223.877C118.279 224.706 118.369 225.551 118.371 226.399V226.621C118.285 228.171 117.655 229.64 116.593 230.769C115.257 232.256 114.308 234.052 113.83 235.995C113.589 236.979 113.467 237.987 113.466 239C113.431 240.734 113.76 242.456 114.43 244.055C115.1 245.654 116.096 247.094 117.355 248.283C118.614 249.472 120.108 250.383 121.74 250.958C123.371 251.532 125.105 251.758 126.829 251.619C128.553 251.481 130.229 250.981 131.748 250.154C133.268 249.326 134.598 248.188 135.652 246.813C136.706 245.438 137.462 243.857 137.869 242.171C138.277 240.486 138.327 238.734 138.018 237.027C137.96 236.694 137.894 236.374 137.81 236.028C137.323 234.09 136.381 232.298 135.061 230.802C134 229.684 133.376 228.221 133.302 226.68V226.444C133.298 225.598 133.381 224.753 133.549 223.923C133.849 222.5 134.627 221.224 135.754 220.309C136.881 219.394 138.288 218.896 139.738 218.899H166.447C166.507 218.905 166.568 218.905 166.629 218.899C166.735 218.906 166.842 218.906 166.948 218.899H167.072C168.2 218.772 169.266 218.318 170.14 217.593C170.303 217.466 170.454 217.324 170.59 217.168C170.714 217.037 170.85 216.9 170.961 216.763C170.961 216.763 170.961 216.763 171 216.717C171.346 216.293 171.627 215.82 171.834 215.313C171.919 215.144 171.985 214.967 172.029 214.784C172.145 214.411 172.224 214.028 172.264 213.64C172.264 213.451 172.264 213.255 172.264 213.059V186.249C172.267 184.795 171.77 183.385 170.856 182.257C169.942 181.128 168.667 180.351 167.248 180.056C166.423 179.887 165.582 179.803 164.74 179.808H164.505C163.933 179.818 163.365 179.919 162.825 180.108C161.92 180.426 161.09 180.924 160.382 181.572C159.095 182.731 157.576 183.6 155.926 184.119C155.683 184.213 155.432 184.288 155.177 184.342C154.889 184.413 154.598 184.468 154.304 184.505C154.057 184.556 153.807 184.589 153.555 184.603C153.385 184.603 153.223 184.642 153.066 184.655C152.806 184.655 152.526 184.655 152.245 184.655C151.816 184.655 151.399 184.655 150.988 184.583C149.038 184.386 147.163 183.725 145.519 182.655C143.875 181.584 142.509 180.136 141.536 178.43C141.431 178.268 141.338 178.1 141.256 177.926C140.98 177.424 140.747 176.9 140.559 176.359C140.436 176.022 140.336 175.677 140.259 175.327C140.19 175.132 140.142 174.93 140.116 174.726C140.119 174.719 140.12 174.713 140.12 174.706C140.12 174.699 140.119 174.692 140.116 174.686C140.031 174.294 139.979 173.909 139.933 173.517C139.933 173.308 139.894 173.099 139.894 172.864C139.868 172.429 139.868 171.992 139.894 171.557C139.894 171.348 139.894 171.139 139.933 170.904C139.979 170.512 140.031 170.127 140.116 169.735C140.113 169.728 140.111 169.722 140.111 169.715C140.111 169.708 140.113 169.702 140.116 169.695C140.142 169.49 140.19 169.289 140.259 169.094C140.297 168.896 140.352 168.702 140.422 168.513C140.475 168.313 140.541 168.117 140.617 167.925C140.798 167.432 141.016 166.954 141.269 166.494C141.351 166.321 141.444 166.152 141.549 165.991C142.522 164.285 143.888 162.837 145.532 161.766C147.176 160.696 149.051 160.035 151.001 159.838C151.692 159.769 152.387 159.756 153.079 159.798C153.236 159.798 153.398 159.798 153.568 159.851C153.763 159.855 153.957 159.879 154.148 159.923C154.189 159.916 154.23 159.916 154.271 159.923C154.279 159.919 154.286 159.917 154.294 159.917C154.302 159.917 154.31 159.919 154.317 159.923C154.635 159.963 154.951 160.024 155.262 160.105C155.517 160.159 155.767 160.234 156.011 160.328C157.664 160.848 159.188 161.717 160.48 162.875C161.183 163.523 162.009 164.021 162.909 164.339C163.451 164.527 164.017 164.63 164.59 164.646H164.825C165.255 164.646 165.684 164.613 166.127 164.587C166.57 164.561 166.961 164.476 167.359 164.391C168.602 164.131 169.737 163.501 170.616 162.581C171.741 161.396 172.368 159.822 172.368 158.185V131.401C172.368 131.192 172.368 130.996 172.368 130.807C172.328 130.419 172.249 130.036 172.134 129.663C172.08 129.483 172.015 129.306 171.938 129.134C171.793 128.783 171.612 128.448 171.398 128.135C170.966 127.49 170.41 126.939 169.762 126.515L169.346 126.266C169.176 126.181 169.013 126.097 168.844 126.031C168.323 125.809 167.772 125.663 167.209 125.6H167.085C166.979 125.593 166.872 125.593 166.766 125.6C166.766 125.6 166.72 125.6 166.707 125.6C166.666 125.594 166.624 125.594 166.583 125.6H139.875C138.425 125.603 137.018 125.105 135.891 124.19C134.764 123.275 133.985 121.999 133.686 120.576C133.517 119.747 133.434 118.902 133.439 118.055V117.82C133.511 116.28 134.136 114.819 135.197 113.704C136.515 112.206 137.457 110.414 137.947 108.478C138.031 108.138 138.096 107.825 138.155 107.472C138.454 105.653 138.346 103.79 137.838 102.019C137.329 100.247 136.434 98.6112 135.216 97.23C133.999 95.8488 132.49 94.7569 130.799 94.0337C129.108 93.3104 127.278 92.974 125.441 93.0488C123.604 93.1236 121.807 93.6078 120.18 94.4662C118.553 95.3245 117.137 96.5355 116.035 98.0112C114.934 99.4868 114.173 101.19 113.81 102.997C113.447 104.804 113.489 106.67 113.935 108.458C114.412 110.402 115.361 112.197 116.697 113.685C117.759 114.814 118.389 116.283 118.475 117.833V118.055C118.474 118.902 118.384 119.748 118.208 120.576C117.915 122 117.14 123.278 116.014 124.193C114.889 125.109 113.482 125.606 112.033 125.6H85.2847C85.2393 125.594 85.1933 125.594 85.1479 125.6H85.1023C84.996 125.593 84.8894 125.593 84.7831 125.6H84.6594C84.0963 125.663 83.5454 125.809 83.0242 126.031C82.8549 126.097 82.6921 126.181 82.5227 126.266L82.1058 126.515C81.3822 126.993 80.7731 127.625 80.3226 128.367C79.872 129.11 79.5911 129.943 79.5 130.807C79.5 130.996 79.5 131.192 79.5 131.401V158.185C79.4998 159.822 80.1272 161.396 81.2523 162.581C82.1279 163.505 83.2647 164.136 84.5095 164.391C84.9264 164.476 85.3238 164.528 85.7407 164.587C86.1576 164.646 86.5876 164.646 87.0436 164.646H87.2846C87.855 164.629 88.4196 164.526 88.9588 164.339C89.859 164.021 90.6856 163.523 91.3886 162.875C92.5006 161.885 93.7802 161.102 95.1669 160.563C95.6377 160.383 96.1184 160.23 96.6066 160.105C96.9173 160.024 97.2328 159.963 97.5512 159.923C97.5659 159.917 97.5821 159.917 97.5968 159.923C97.6378 159.916 97.6796 159.916 97.7206 159.923C97.911 159.879 98.1052 159.855 98.3004 159.851C98.4697 159.851 98.6326 159.811 98.7889 159.798C99.4816 159.756 100.176 159.769 100.867 159.838C102.818 160.035 104.694 160.697 106.339 161.767C107.984 162.837 109.351 164.285 110.326 165.991C110.428 166.153 110.52 166.321 110.599 166.494C110.852 166.954 111.07 167.432 111.251 167.925C111.328 168.117 111.393 168.313 111.446 168.513C111.515 168.703 111.572 168.897 111.616 169.094C111.68 169.29 111.725 169.491 111.752 169.695C111.755 169.702 111.757 169.708 111.757 169.715C111.757 169.722 111.755 169.728 111.752 169.735C111.837 170.127 111.889 170.512 111.935 170.904C111.818 171.231 111.818 171.44 111.831 171.649Z" fill="#C9DA2A" stroke="#9EAC20" stroke-miterlimit="10"/>
<path d="M110.732 356.811C110.759 357.246 110.759 357.683 110.732 358.118C110.732 358.327 110.732 358.536 110.693 358.771C110.647 359.163 110.595 359.548 110.51 359.94C110.508 359.946 110.506 359.953 110.506 359.96C110.506 359.967 110.508 359.973 110.51 359.98C110.484 360.184 110.438 360.385 110.374 360.581C110.291 360.93 110.189 361.275 110.068 361.613C109.879 362.154 109.646 362.678 109.37 363.181C109.291 363.354 109.199 363.522 109.097 363.684C108.122 365.39 106.755 366.838 105.11 367.908C103.465 368.978 101.589 369.64 99.6381 369.837C99.2277 369.877 98.8108 369.909 98.3808 369.909C98.1007 369.909 97.8206 369.909 97.56 369.909C97.4037 369.909 97.2408 369.909 97.0714 369.857C96.8196 369.843 96.5692 369.81 96.3223 369.759C96.0039 369.718 95.6883 369.657 95.3777 369.576C94.8886 369.454 94.4078 369.301 93.938 369.119C92.5538 368.583 91.278 367.799 90.1727 366.806C89.7299 366.397 89.2401 366.041 88.7135 365.748C88.3863 365.56 88.0416 365.405 87.6843 365.284C87.1456 365.096 86.5805 364.994 86.0101 364.984H85.7691C84.9268 364.98 84.0863 365.063 83.2611 365.232C82.0173 365.489 80.8812 366.12 80.0039 367.041C78.8812 368.223 78.2539 369.792 78.2515 371.425V398.248C78.2515 398.444 78.2515 398.64 78.2515 398.829C78.2919 399.217 78.3705 399.6 78.4861 399.972C78.7068 400.689 79.0653 401.354 79.5414 401.932L79.9127 402.337C80.0406 402.473 80.1801 402.598 80.3296 402.71C81.2038 403.435 82.2701 403.889 83.3979 404.016H83.5216C83.6279 404.023 83.7346 404.023 83.8408 404.016C83.9015 404.022 83.9626 404.022 84.0232 404.016H110.83C112.279 404.01 113.686 404.507 114.811 405.423C115.937 406.338 116.712 407.616 117.005 409.04C117.181 409.869 117.27 410.714 117.272 411.561V411.783C117.186 413.333 116.556 414.803 115.494 415.932C114.158 417.419 113.209 419.214 112.732 421.158C112.491 422.141 112.368 423.15 112.367 424.163C112.333 425.897 112.661 427.619 113.331 429.217C114.001 430.816 114.998 432.257 116.257 433.446C117.516 434.635 119.009 435.546 120.641 436.12C122.273 436.695 124.006 436.92 125.73 436.782C127.454 436.643 129.13 436.144 130.65 435.316C132.169 434.488 133.499 433.35 134.554 431.975C135.608 430.601 136.363 429.02 136.771 427.334C137.178 425.649 137.229 423.896 136.92 422.19C136.861 421.857 136.796 421.537 136.711 421.19C136.225 419.253 135.282 417.461 133.962 415.964C132.901 414.846 132.277 413.383 132.203 411.842V411.607C132.199 410.76 132.282 409.915 132.451 409.085C132.75 407.663 133.529 406.387 134.656 405.472C135.783 404.557 137.189 404.059 138.639 404.062H165.348C165.409 404.068 165.47 404.068 165.53 404.062C165.637 404.069 165.743 404.069 165.85 404.062H165.973C167.101 403.935 168.167 403.481 169.042 402.755C169.205 402.629 169.355 402.486 169.491 402.331C169.615 402.2 169.752 402.063 169.862 401.926C169.862 401.926 169.862 401.926 169.902 401.88C170.248 401.456 170.529 400.982 170.735 400.475C170.82 400.307 170.886 400.129 170.931 399.946C171.046 399.574 171.125 399.191 171.165 398.803C171.165 398.614 171.165 398.418 171.165 398.222V371.412C171.168 369.958 170.671 368.548 169.757 367.419C168.843 366.291 167.569 365.514 166.149 365.219C165.324 365.049 164.484 364.966 163.641 364.97H163.407C162.834 364.981 162.267 365.082 161.726 365.271C160.822 365.589 159.991 366.087 159.283 366.734C157.997 367.893 156.477 368.762 154.827 369.282C154.584 369.376 154.334 369.45 154.078 369.504C153.791 369.576 153.499 369.63 153.205 369.667C152.958 369.719 152.708 369.752 152.456 369.765C152.287 369.765 152.124 369.805 151.968 369.818C151.707 369.818 151.427 369.818 151.147 369.818C150.717 369.818 150.3 369.818 149.89 369.746C147.939 369.549 146.064 368.887 144.42 367.817C142.776 366.747 141.411 365.298 140.437 363.592C140.333 363.431 140.239 363.263 140.157 363.089C139.881 362.587 139.648 362.063 139.46 361.521C139.338 361.184 139.237 360.839 139.16 360.489C139.091 360.295 139.043 360.093 139.017 359.888C139.02 359.882 139.022 359.875 139.022 359.868C139.022 359.862 139.02 359.855 139.017 359.849C138.932 359.457 138.88 359.072 138.835 358.68C138.835 358.471 138.796 358.261 138.796 358.026C138.769 357.591 138.769 357.155 138.796 356.72C138.796 356.511 138.796 356.302 138.835 356.067C138.88 355.675 138.932 355.289 139.017 354.897C139.014 354.891 139.013 354.884 139.013 354.878C139.013 354.871 139.014 354.864 139.017 354.858C139.043 354.653 139.091 354.452 139.16 354.257C139.199 354.059 139.253 353.865 139.323 353.676C139.377 353.476 139.442 353.28 139.519 353.088C139.7 352.595 139.917 352.117 140.17 351.657C140.252 351.483 140.346 351.315 140.45 351.154C141.424 349.448 142.789 347.999 144.433 346.929C146.077 345.859 147.952 345.197 149.903 345C150.593 344.932 151.288 344.919 151.981 344.961C152.137 344.961 152.3 344.961 152.469 345.013C152.664 345.018 152.859 345.042 153.049 345.085C153.09 345.078 153.132 345.078 153.173 345.085C153.18 345.082 153.188 345.08 153.196 345.08C153.203 345.08 153.211 345.082 153.218 345.085C153.537 345.126 153.852 345.187 154.163 345.268C154.418 345.322 154.669 345.396 154.912 345.49C156.566 346.011 158.089 346.879 159.381 348.038C160.084 348.685 160.911 349.183 161.811 349.501C162.352 349.689 162.919 349.793 163.491 349.808H163.726C164.156 349.808 164.586 349.776 165.029 349.749C165.472 349.723 165.863 349.638 166.26 349.553C167.503 349.294 168.639 348.663 169.517 347.744C170.642 346.558 171.27 344.984 171.27 343.347V316.564C171.27 316.355 171.27 316.159 171.27 315.969C171.229 315.581 171.151 315.198 171.035 314.826C170.982 314.645 170.916 314.469 170.84 314.297C170.695 313.946 170.514 313.611 170.299 313.297C169.868 312.653 169.312 312.102 168.664 311.677L168.247 311.429C168.078 311.344 167.915 311.259 167.745 311.194C167.224 310.971 166.673 310.826 166.11 310.763H165.986C165.88 310.756 165.774 310.756 165.667 310.763C165.667 310.763 165.622 310.763 165.609 310.763C165.568 310.756 165.526 310.756 165.485 310.763H138.776C137.326 310.765 135.919 310.268 134.792 309.353C133.665 308.438 132.887 307.162 132.587 305.739C132.418 304.909 132.335 304.064 132.34 303.217V302.982C132.413 301.443 133.037 299.981 134.099 298.867C135.416 297.369 136.359 295.577 136.848 293.641C136.933 293.301 136.998 292.987 137.056 292.635C137.356 290.816 137.247 288.953 136.739 287.181C136.231 285.41 135.335 283.774 134.118 282.393C132.9 281.011 131.391 279.919 129.7 279.196C128.009 278.473 126.179 278.137 124.342 278.211C122.505 278.286 120.708 278.77 119.081 279.629C117.454 280.487 116.039 281.698 114.937 283.174C113.835 284.649 113.075 286.353 112.711 288.16C112.348 289.967 112.391 291.832 112.836 293.621C113.314 295.565 114.262 297.36 115.598 298.847C116.66 299.976 117.29 301.446 117.377 302.995V303.217C117.375 304.065 117.285 304.91 117.109 305.739C116.816 307.162 116.041 308.44 114.916 309.356C113.79 310.272 112.383 310.769 110.934 310.763H84.1861C84.1407 310.756 84.0947 310.756 84.0493 310.763H84.0037C83.8974 310.756 83.7908 310.756 83.6845 310.763H83.5607C82.9977 310.826 82.4468 310.971 81.9256 311.194C81.7562 311.259 81.5934 311.344 81.424 311.429L81.0071 311.677C80.2835 312.155 79.6745 312.788 79.224 313.53C78.7734 314.272 78.4925 315.105 78.4014 315.969C78.4014 316.159 78.4014 316.355 78.4014 316.564V343.347C78.4011 344.984 79.0285 346.558 80.1537 347.744C81.0292 348.667 82.1661 349.299 83.4109 349.553C83.8278 349.638 84.2252 349.691 84.6421 349.749C85.059 349.808 85.489 349.808 85.945 349.808H86.186C86.7564 349.792 87.321 349.689 87.8602 349.501C88.7604 349.183 89.587 348.685 90.29 348.038C91.402 347.047 92.6815 346.264 94.0683 345.725C94.5391 345.546 95.0198 345.393 95.508 345.268C95.8186 345.187 96.1341 345.126 96.4526 345.085C96.4673 345.08 96.4835 345.08 96.4982 345.085C96.5391 345.078 96.581 345.078 96.6219 345.085C96.8123 345.042 97.0066 345.018 97.2017 345.013C97.3711 345.013 97.534 344.974 97.6903 344.961C98.3829 344.919 99.0778 344.932 99.7683 345C101.719 345.198 103.595 345.859 105.24 346.93C106.885 348 108.252 349.448 109.227 351.154C109.33 351.315 109.421 351.483 109.501 351.657C109.753 352.117 109.971 352.595 110.152 353.088C110.229 353.28 110.294 353.476 110.348 353.676C110.417 353.865 110.473 354.06 110.517 354.257C110.581 354.453 110.627 354.654 110.654 354.858C110.657 354.864 110.658 354.871 110.658 354.878C110.658 354.884 110.657 354.891 110.654 354.897C110.738 355.289 110.791 355.675 110.836 356.067C110.719 356.393 110.719 356.602 110.732 356.811Z" fill="#01B8C6" stroke="#01858E" stroke-miterlimit="10"/>
<path d="M58.4221 277.366C59.4387 277.368 60.4517 277.245 61.4384 277.001C63.385 276.523 65.1831 275.573 66.6729 274.236C67.8025 273.171 69.2754 272.542 70.8278 272.462H71.0503C71.8963 272.458 72.7404 272.541 73.5694 272.71C74.995 273.009 76.2739 273.788 77.1913 274.917C78.1087 276.045 78.6088 277.453 78.6075 278.906V305.933C78.6637 307.132 79.0899 308.283 79.8277 309.231C80.5655 310.179 81.579 310.877 82.7297 311.229C83.2247 311.399 83.7438 311.489 84.2673 311.496H84.3066C84.3521 311.49 84.3984 311.49 84.444 311.496H111.303C112.76 311.501 114.173 311.003 115.303 310.088C116.434 309.173 117.212 307.896 117.506 306.474C117.683 305.649 117.773 304.807 117.775 303.963V303.742C117.692 302.193 117.059 300.725 115.988 299.6C114.652 298.112 113.699 296.321 113.214 294.382C112.974 293.398 112.853 292.389 112.854 291.376C112.841 289.656 113.186 287.953 113.869 286.374C114.552 284.795 115.557 283.375 116.82 282.204C118.083 281.034 119.577 280.138 121.206 279.573C122.835 279.009 124.565 278.789 126.284 278.927C128.003 279.065 129.675 279.558 131.193 280.375C132.711 281.192 134.041 282.315 135.1 283.673C136.159 285.03 136.923 286.592 137.343 288.26C137.763 289.927 137.831 291.664 137.541 293.358C137.489 293.698 137.417 294.011 137.332 294.363C136.846 296.298 135.899 298.088 134.571 299.581C133.507 300.698 132.88 302.158 132.804 303.696V303.931C132.803 304.774 132.886 305.615 133.053 306.442C133.353 307.863 134.135 309.138 135.267 310.052C136.399 310.967 137.812 311.465 139.269 311.464H166.095C166.136 311.457 166.178 311.457 166.22 311.464C166.22 311.464 166.265 311.464 166.279 311.464C166.808 311.449 167.332 311.359 167.836 311.196C169.002 310.844 170.026 310.133 170.763 309.165C171.499 308.198 171.911 307.023 171.938 305.809C171.945 305.757 171.945 305.705 171.938 305.653V278.906C171.937 277.454 172.436 276.046 173.352 274.918C174.268 273.79 175.545 273.01 176.97 272.71C177.801 272.541 178.647 272.458 179.496 272.462H179.725C181.277 272.542 182.75 273.171 183.879 274.236C185.369 275.574 187.167 276.524 189.114 277.001C191.052 277.486 193.08 277.497 195.024 277.035C196.968 276.572 198.771 275.649 200.281 274.345C201.791 273.04 202.964 271.391 203.699 269.539C204.433 267.686 204.71 265.684 204.503 263.703C204.313 262.027 203.784 260.408 202.95 258.942C202.115 257.475 200.992 256.192 199.647 255.169C198.303 254.146 196.765 253.405 195.126 252.99C193.486 252.574 191.78 252.493 190.109 252.752C189.775 252.811 189.454 252.876 189.107 252.961C187.166 253.445 185.37 254.389 183.873 255.713C182.749 256.782 181.276 257.412 179.725 257.487H179.489C178.641 257.488 177.794 257.403 176.963 257.233C175.538 256.933 174.26 256.154 173.344 255.025C172.428 253.897 171.929 252.488 171.932 251.037V224.296C171.938 224.214 171.938 224.131 171.932 224.048C171.867 222.58 171.247 221.19 170.198 220.157C169.148 219.124 167.746 218.525 166.272 218.478C166.211 218.485 166.15 218.485 166.089 218.478H139.262C137.806 218.476 136.393 218.973 135.261 219.886C134.129 220.799 133.347 222.073 133.046 223.494C132.88 224.323 132.796 225.166 132.798 226.011V226.246C132.875 227.784 133.501 229.244 134.564 230.362C135.895 231.853 136.842 233.643 137.325 235.579C137.41 235.912 137.482 236.232 137.535 236.577C137.835 238.393 137.727 240.253 137.216 242.022C136.705 243.791 135.806 245.424 134.583 246.803C133.36 248.182 131.844 249.272 130.146 249.994C128.448 250.716 126.609 251.052 124.764 250.977C122.919 250.902 121.114 250.419 119.48 249.562C117.846 248.705 116.424 247.496 115.317 246.023C114.211 244.55 113.447 242.849 113.082 241.045C112.717 239.241 112.76 237.378 113.207 235.592C113.69 233.653 114.642 231.861 115.982 230.375C117.052 229.25 117.685 227.781 117.768 226.233V226.011C117.766 225.165 117.676 224.322 117.5 223.494C117.205 222.073 116.427 220.797 115.296 219.883C114.166 218.969 112.753 218.473 111.297 218.478H84.4309C84.3722 218.485 84.313 218.485 84.2542 218.478C83.7313 218.487 83.2128 218.575 82.7166 218.739C81.565 219.086 80.5498 219.78 79.8113 220.726C79.0729 221.673 78.6476 222.824 78.5944 224.022V251.03C78.5969 252.483 78.0973 253.892 77.1797 255.02C76.2621 256.149 74.9825 256.928 73.5563 257.226C72.7276 257.397 71.8834 257.482 71.0372 257.48H70.8016C69.2576 257.402 67.7928 256.775 66.6729 255.713C65.1758 254.389 63.3801 253.445 61.4384 252.961C61.1047 252.876 60.7842 252.811 60.4308 252.752C58.734 252.469 56.9967 252.541 55.3289 252.962C53.6612 253.383 52.0993 254.144 50.7421 255.198C49.3848 256.252 48.2617 257.575 47.4439 259.084C46.6261 260.593 46.1313 262.254 45.991 263.963C45.8506 265.672 46.0676 267.392 46.6283 269.013C47.189 270.634 48.0812 272.122 49.2485 273.382C50.4157 274.642 51.8325 275.646 53.4093 276.332C54.9861 277.018 56.6886 277.37 58.409 277.366H58.4221Z" fill="#F06522" stroke="#D05011" stroke-miterlimit="10"/>
<path d="M-125.682 92.8879C-124.677 92.8896 -123.677 92.7669 -122.702 92.5227C-120.78 92.0445 -119.004 91.0946 -117.533 89.7573C-116.417 88.6928 -114.962 88.0639 -113.429 87.9833H-113.209C-112.374 87.9795 -111.54 88.0626 -110.721 88.2312C-109.313 88.5306 -108.05 89.3099 -107.144 90.4381C-106.238 91.5664 -105.744 92.9749 -105.745 94.4272V121.455C-105.69 122.653 -105.269 123.805 -104.54 124.753C-103.811 125.701 -102.81 126.399 -101.674 126.751C-101.185 126.921 -100.672 127.011 -100.155 127.018H-100.117C-100.072 127.012 -100.026 127.012 -99.9808 127.018H-73.453C-72.0146 127.022 -70.619 126.525 -69.5025 125.61C-68.386 124.694 -67.6174 123.418 -67.3267 121.996C-67.1525 121.171 -67.0637 120.329 -67.0618 119.485V119.263C-67.1434 117.715 -67.7688 116.247 -68.826 115.122C-70.1462 113.633 -71.0867 111.842 -71.566 109.904C-71.8029 108.92 -71.9223 107.91 -71.9214 106.897C-71.9347 105.178 -71.5934 103.475 -70.9191 101.896C-70.2448 100.317 -69.2523 98.8968 -68.0048 97.726C-66.7572 96.5551 -65.2819 95.6591 -63.6726 95.0949C-62.0634 94.5307 -60.3554 94.3106 -58.6573 94.4487C-56.9592 94.5868 -55.3081 95.08 -53.8092 95.897C-52.3102 96.714 -50.996 97.8368 -49.9503 99.1941C-48.9046 100.551 -48.1502 102.114 -47.7351 103.781C-47.3199 105.449 -47.2532 107.185 -47.5391 108.88C-47.5908 109.219 -47.6619 109.532 -47.7459 109.884C-48.2255 111.82 -49.161 113.61 -50.473 115.102C-51.5237 116.219 -52.1428 117.679 -52.2178 119.218V119.452C-52.219 120.296 -52.1368 121.137 -51.9723 121.963C-51.6756 123.384 -50.9034 124.659 -49.7855 125.574C-48.6676 126.488 -47.272 126.987 -45.833 126.985H-19.3375C-19.2969 126.979 -19.2554 126.979 -19.2147 126.985C-19.2147 126.985 -19.1695 126.985 -19.1566 126.985C-18.6339 126.97 -18.1161 126.88 -17.6185 126.718C-16.467 126.365 -15.4553 125.654 -14.7277 124.687C-14.0001 123.72 -13.5937 122.545 -13.5667 121.331C-13.5604 121.279 -13.5604 121.226 -13.5667 121.174V94.4272C-13.5682 92.9758 -13.0752 91.5679 -12.1704 90.4398C-11.2656 89.3117 -10.004 88.5319 -8.59715 88.2312C-7.77622 88.0629 -6.94035 87.9799 -6.10266 87.9833H-5.8765C-4.34326 88.0639 -2.88857 88.6928 -1.77294 89.7573C-0.302269 91.0957 1.47386 92.0458 3.39692 92.5227C5.31153 93.0072 7.31371 93.0188 9.23368 92.5564C11.1537 92.0939 12.9348 91.1711 14.4263 89.8662C15.9178 88.5612 17.0755 86.9127 17.8014 85.0601C18.5273 83.2076 18.8 81.2057 18.5963 79.2242C18.4079 77.549 17.886 75.9296 17.0618 74.4631C16.2377 72.9967 15.1283 71.7135 13.8003 70.6907C12.4724 69.6678 10.9534 68.9265 9.33438 68.5111C7.7154 68.0958 6.02991 68.015 4.37921 68.2736C4.04963 68.3323 3.733 68.3975 3.39049 68.4823C1.47281 68.9664 -0.300728 69.9106 -1.77937 71.2346C-2.8895 72.3036 -4.34395 72.9334 -5.8765 73.0086H-6.10913C-6.94704 73.01 -7.78287 72.9247 -8.60358 72.7543C-10.011 72.4546 -11.2734 71.6751 -12.1784 70.5468C-13.0834 69.4184 -13.5759 68.01 -13.5731 66.5583V39.8177C-13.5668 39.7352 -13.5668 39.6524 -13.5731 39.5699C-13.6376 38.1013 -14.2493 36.7115 -15.2858 35.6787C-16.3224 34.6459 -17.7072 34.0463 -19.163 34.0001C-19.2232 34.0065 -19.2838 34.0065 -19.344 34.0001H-45.8395C-47.2779 33.9973 -48.6734 34.4943 -49.7914 35.4077C-50.9094 36.3211 -51.6818 37.5951 -51.9787 39.0155C-52.1432 39.8444 -52.2255 40.6877 -52.2243 41.5331V41.7679C-52.148 43.3059 -51.5292 44.7657 -50.4795 45.8833C-49.1654 47.3741 -48.2295 49.1646 -47.7523 51.101C-47.6683 51.4336 -47.5972 51.7532 -47.5455 52.0988C-47.2485 53.9148 -47.3561 55.7747 -47.8603 57.5434C-48.3646 59.3122 -49.2529 60.9454 -50.4607 62.3243C-51.6685 63.7033 -53.1655 64.7934 -54.8429 65.5155C-56.5204 66.2375 -58.3362 66.5734 -60.1583 66.4987C-61.9805 66.424 -63.7632 65.9407 -65.3771 65.0837C-66.991 64.2267 -68.3955 63.0177 -69.4885 61.5444C-70.5816 60.0711 -71.3357 58.3706 -71.6962 56.5664C-72.0566 54.7622 -72.0144 52.8996 -71.5724 51.114C-71.0961 49.1746 -70.1553 47.3829 -68.8324 45.8963C-67.7753 44.7713 -67.1498 43.3031 -67.0682 41.7548V41.5331C-67.0701 40.6869 -67.1589 39.8432 -67.3332 39.0155C-67.624 37.5944 -68.3929 36.3186 -69.5095 35.4045C-70.6261 34.4903 -72.0217 33.9941 -73.4595 34.0001H-99.9938C-100.052 34.0065 -100.11 34.0065 -100.168 34.0001C-100.685 34.0082 -101.197 34.0962 -101.687 34.2609C-102.824 34.6071 -103.827 35.3015 -104.556 36.2479C-105.286 37.1943 -105.706 38.346 -105.758 39.5438V66.5518C-105.756 68.0044 -106.249 69.4135 -107.155 70.542C-108.062 71.6705 -109.326 72.4494 -110.734 72.7477C-111.553 72.9185 -112.386 73.0038 -113.222 73.0021H-113.455C-114.98 72.924 -116.426 72.2969 -117.533 71.2346C-119.011 69.9106 -120.785 68.9664 -122.702 68.4823C-123.032 68.3975 -123.349 68.3323 -123.698 68.2736C-125.373 67.9909 -127.089 68.0623 -128.736 68.4834C-130.384 68.9044 -131.926 69.6659 -133.267 70.7197C-134.607 71.7735 -135.716 73.0967 -136.524 74.6054C-137.332 76.1141 -137.82 77.7756 -137.959 79.4848C-138.098 81.1939 -137.883 82.9135 -137.33 84.5348C-136.776 86.156 -135.895 87.6436 -134.742 88.9034C-133.589 90.1632 -132.19 91.1679 -130.632 91.8537C-129.075 92.5396 -127.394 92.8917 -125.694 92.8879H-125.682Z" fill="#D1193D" stroke="#A41330" stroke-miterlimit="10"/>
<defs>
<filter id="filter0_d_2070_15835" x="-59.5001" y="115.829" width="185.662" height="122.019" filterUnits="userSpaceOnUse" color-interpolation-filters="sRGB">
<feFlood flood-opacity="0" result="BackgroundImageFix"/>
<feColorMatrix in="SourceAlpha" type="matrix" values="0 0 0 0 0 0 0 0 0 0 0 0 0 0 0 0 0 0 127 0" result="hardAlpha"/>
<feOffset dy="4"/>
<feGaussianBlur stdDeviation="7"/>
<feComposite in2="hardAlpha" operator="out"/>
<feColorMatrix type="matrix" values="0 0 0 0 0 0 0 0 0 0 0 0 0 0 0 0 0 0 0.15 0"/>
<feBlend mode="normal" in2="BackgroundImageFix" result="effect1_dropShadow_2070_15835"/>
<feBlend mode="normal" in="SourceGraphic" in2="effect1_dropShadow_2070_15835" result="shape"/>
</filter>
<filter id="filter1_d_2070_15835" x="-152.5" y="208.499" width="185.662" height="122.019" filterUnits="userSpaceOnUse" color-interpolation-filters="sRGB">
<feFlood flood-opacity="0" result="BackgroundImageFix"/>
<feColorMatrix in="SourceAlpha" type="matrix" values="0 0 0 0 0 0 0 0 0 0 0 0 0 0 0 0 0 0 127 0" result="hardAlpha"/>
<feOffset dy="4"/>
<feGaussianBlur stdDeviation="7"/>
<feComposite in2="hardAlpha" operator="out"/>
<feColorMatrix type="matrix" values="0 0 0 0 0 0 0 0 0 0 0 0 0 0 0 0 0 0 0.15 0"/>
<feBlend mode="normal" in2="BackgroundImageFix" result="effect1_dropShadow_2070_15835"/>
<feBlend mode="normal" in="SourceGraphic" in2="effect1_dropShadow_2070_15835" result="shape"/>
</filter>
</defs>
</svg>
