<svg width="256" height="354" viewBox="0 0 256 354" fill="none" xmlns="http://www.w3.org/2000/svg">
<g filter="url(#filter0_d_2070_9581)">
<path d="M104.498 172.65C104.473 173.061 104.473 173.473 104.498 173.884C104.498 174.081 104.498 174.278 104.535 174.5C104.579 174.87 104.628 175.234 104.708 175.604C104.711 175.61 104.713 175.616 104.713 175.623C104.713 175.629 104.711 175.635 104.708 175.641C104.734 175.834 104.778 176.024 104.838 176.209C104.917 176.539 105.014 176.864 105.129 177.183C105.308 177.694 105.529 178.189 105.791 178.663C105.867 178.827 105.954 178.986 106.051 179.138C106.978 180.749 108.276 182.116 109.839 183.127C111.402 184.137 113.184 184.761 115.037 184.948C115.427 184.985 115.823 185.016 116.231 185.016C116.497 185.016 116.763 185.016 117.011 185.016C117.16 185.016 117.314 185.016 117.475 184.967C117.714 184.954 117.952 184.923 118.187 184.874C118.489 184.835 118.789 184.778 119.084 184.701C119.549 184.586 120.005 184.442 120.452 184.27C121.767 183.763 122.979 183.024 124.029 182.086C124.449 181.7 124.915 181.364 125.415 181.087C125.726 180.91 126.053 180.763 126.393 180.649C126.904 180.471 127.441 180.376 127.983 180.366H128.212C129.012 180.362 129.811 180.441 130.595 180.6C131.776 180.843 132.855 181.439 133.689 182.308C134.755 183.424 135.351 184.906 135.353 186.447V211.77C135.353 211.955 135.353 212.141 135.353 212.319C135.315 212.686 135.24 213.047 135.131 213.399C134.921 214.075 134.58 214.703 134.128 215.249L133.775 215.631C133.654 215.76 133.521 215.877 133.379 215.983C132.549 216.668 131.536 217.097 130.465 217.216H130.347C130.246 217.223 130.145 217.223 130.044 217.216C129.986 217.222 129.928 217.222 129.871 217.216H104.405C103.028 217.211 101.692 217.68 100.623 218.544C99.5535 219.409 98.8171 220.615 98.5386 221.959C98.3721 222.742 98.2871 223.54 98.2849 224.34V224.549C98.3668 226.013 98.9652 227.4 99.9744 228.466C101.243 229.87 102.144 231.565 102.598 233.4C102.827 234.328 102.944 235.281 102.945 236.237C102.977 237.874 102.665 239.5 102.029 241.009C101.393 242.519 100.446 243.878 99.2498 245.001C98.0537 246.123 96.6349 246.984 95.0847 247.526C93.5346 248.069 91.8877 248.281 90.25 248.151C88.6124 248.02 87.0204 247.548 85.5767 246.767C84.1331 245.985 82.8698 244.911 81.8683 243.613C80.8668 242.315 80.1494 240.822 79.7623 239.231C79.3751 237.64 79.3269 235.985 79.6207 234.374C79.6764 234.06 79.7383 233.758 79.8187 233.431C80.2808 231.602 81.1763 229.91 82.4302 228.497C83.4378 227.441 84.0308 226.06 84.1011 224.605V224.383C84.105 223.583 84.0262 222.786 83.8659 222.002C83.5816 220.659 82.842 219.454 81.7714 218.591C80.7007 217.727 79.3644 217.257 77.9869 217.26H52.6145C52.5569 217.265 52.4988 217.265 52.4412 217.26C52.3403 217.266 52.239 217.266 52.138 217.26H52.0204C50.9491 217.14 49.9361 216.711 49.1057 216.026C48.9507 215.906 48.8077 215.772 48.6787 215.625C48.5611 215.502 48.4311 215.372 48.3259 215.243C48.3259 215.243 48.3259 215.243 48.2888 215.2C47.9601 214.799 47.6932 214.352 47.4967 213.874C47.416 213.715 47.3537 213.547 47.311 213.374C47.2012 213.022 47.1266 212.661 47.0883 212.295C47.0883 212.116 47.0883 211.931 47.0883 211.746V186.434C47.0853 185.062 47.5578 183.731 48.426 182.665C49.2942 181.6 50.5049 180.866 51.8533 180.588C52.6372 180.428 53.4357 180.349 54.2359 180.353H54.4587C55.0026 180.363 55.5415 180.459 56.0552 180.637C56.9143 180.937 57.7036 181.407 58.3759 182.018C59.598 183.113 61.0415 183.933 62.6088 184.424C62.84 184.513 63.0779 184.583 63.3204 184.633C63.5936 184.701 63.8705 184.752 64.1497 184.788C64.3842 184.836 64.6222 184.867 64.8614 184.88C65.0223 184.88 65.177 184.917 65.3255 184.93C65.573 184.93 65.8391 184.93 66.1052 184.93C66.5136 184.93 66.9097 184.93 67.2996 184.862C69.1523 184.676 70.9336 184.051 72.4954 183.041C74.0572 182.03 75.3543 180.663 76.2789 179.052C76.3783 178.9 76.4672 178.741 76.5451 178.577C76.807 178.103 77.0285 177.608 77.2072 177.097C77.3236 176.779 77.4187 176.453 77.4919 176.122C77.5576 175.939 77.6033 175.748 77.628 175.555C77.6253 175.549 77.6239 175.543 77.6239 175.536C77.6239 175.53 77.6253 175.524 77.628 175.518C77.7085 175.148 77.758 174.784 77.8013 174.414C77.8013 174.217 77.8384 174.019 77.8384 173.797C77.8637 173.386 77.8637 172.974 77.8384 172.564C77.8384 172.366 77.8384 172.169 77.8013 171.947C77.758 171.577 77.7085 171.213 77.628 170.843C77.6308 170.837 77.6322 170.831 77.6322 170.824C77.6322 170.818 77.6308 170.812 77.628 170.806C77.6033 170.612 77.5576 170.422 77.4919 170.239C77.4555 170.052 77.4038 169.868 77.3372 169.69C77.2865 169.501 77.2245 169.316 77.1515 169.135C76.9796 168.669 76.7727 168.218 76.5327 167.784C76.4548 167.62 76.3659 167.461 76.2666 167.309C75.342 165.698 74.0448 164.331 72.483 163.32C70.9212 162.31 69.1399 161.685 67.2872 161.499C66.6312 161.434 65.9711 161.422 65.3131 161.462C65.1646 161.462 65.0099 161.462 64.849 161.512C64.6636 161.516 64.4791 161.539 64.2982 161.579C64.2593 161.573 64.2195 161.573 64.1806 161.579C64.1739 161.576 64.1665 161.574 64.159 161.574C64.1515 161.574 64.144 161.576 64.1373 161.579C63.8348 161.618 63.5351 161.676 63.24 161.752C62.9975 161.803 62.7595 161.873 62.5283 161.962C60.9575 162.453 59.5102 163.273 58.2831 164.367C57.6153 164.978 56.83 165.448 55.9748 165.749C55.4606 165.926 54.9222 166.024 54.3782 166.038H54.1554C53.747 166.038 53.3385 166.008 52.9177 165.983C52.4969 165.958 52.1256 165.878 51.7481 165.798C50.5673 165.553 49.4886 164.957 48.6539 164.09C47.5851 162.97 46.989 161.484 46.9893 159.939V134.652C46.9893 134.455 46.9893 134.27 46.9893 134.091C47.0276 133.725 47.1022 133.363 47.212 133.012C47.2627 132.841 47.3247 132.674 47.3977 132.512C47.5352 132.18 47.7074 131.864 47.9113 131.568C48.3208 130.96 48.8491 130.44 49.4646 130.039L49.8606 129.804C50.0215 129.724 50.1763 129.644 50.3372 129.582C50.8323 129.372 51.3556 129.235 51.8905 129.175H52.008C52.109 129.169 52.2103 129.169 52.3113 129.175C52.3113 129.175 52.3546 129.175 52.367 129.175C52.4059 129.169 52.4456 129.169 52.4846 129.175H77.857C79.2344 129.178 80.5708 128.708 81.6414 127.844C82.712 126.981 83.4517 125.776 83.736 124.433C83.8969 123.649 83.9757 122.851 83.9712 122.052V121.83C83.9022 120.376 83.3088 118.997 82.3003 117.944C81.0487 116.53 80.1535 114.838 79.6888 113.01C79.6083 112.69 79.5464 112.394 79.4907 112.061C79.2063 110.343 79.3093 108.585 79.7922 106.912C80.275 105.239 81.1257 103.695 82.2823 102.391C83.4389 101.087 84.8725 100.056 86.4788 99.3734C88.0851 98.6906 89.824 98.3729 91.5689 98.4436C93.3138 98.5142 95.021 98.9713 96.5665 99.7817C98.112 100.592 99.4569 101.735 100.504 103.129C101.55 104.522 102.272 106.13 102.618 107.836C102.963 109.542 102.922 111.303 102.499 112.992C102.045 114.827 101.144 116.522 99.8753 117.926C98.8662 118.992 98.2678 120.379 98.1859 121.842V122.052C98.1874 122.852 98.2724 123.65 98.4396 124.433C98.7181 125.776 99.4545 126.983 100.524 127.847C101.593 128.712 102.929 129.181 104.306 129.175H129.716C129.759 129.169 129.803 129.169 129.846 129.175H129.889C129.99 129.169 130.091 129.169 130.192 129.175H130.31C130.845 129.235 131.368 129.372 131.863 129.582C132.024 129.644 132.179 129.724 132.34 129.804L132.736 130.039C133.423 130.49 134.002 131.087 134.43 131.788C134.858 132.489 135.125 133.275 135.211 134.091C135.211 134.27 135.211 134.455 135.211 134.652V159.939C135.211 161.484 134.615 162.97 133.546 164.09C132.715 164.961 131.635 165.557 130.452 165.798C130.056 165.878 129.679 165.927 129.283 165.983C128.887 166.038 128.478 166.038 128.045 166.038H127.816C127.274 166.023 126.738 165.925 126.226 165.749C125.37 165.448 124.585 164.978 123.917 164.367C122.861 163.432 121.645 162.693 120.328 162.184C119.881 162.014 119.424 161.87 118.96 161.752C118.665 161.676 118.366 161.618 118.063 161.579C118.049 161.574 118.034 161.574 118.02 161.579C117.981 161.573 117.941 161.573 117.902 161.579C117.721 161.539 117.537 161.516 117.351 161.512C117.19 161.512 117.036 161.475 116.887 161.462C116.229 161.422 115.569 161.434 114.913 161.499C113.06 161.686 111.278 162.31 109.715 163.321C108.152 164.331 106.854 165.698 105.928 167.309C105.83 167.461 105.743 167.62 105.668 167.784C105.428 168.218 105.221 168.669 105.049 169.135C104.976 169.316 104.914 169.501 104.863 169.69C104.797 169.869 104.744 170.052 104.702 170.239C104.641 170.423 104.598 170.613 104.572 170.806C104.57 170.812 104.568 170.818 104.568 170.824C104.568 170.831 104.57 170.837 104.572 170.843C104.492 171.213 104.442 171.577 104.399 171.947C104.51 172.255 104.51 172.453 104.498 172.65Z" fill="#4254A6"/>
<path d="M104.498 172.65C104.473 173.061 104.473 173.473 104.498 173.884C104.498 174.081 104.498 174.278 104.535 174.5C104.579 174.87 104.628 175.234 104.708 175.604C104.711 175.61 104.713 175.616 104.713 175.623C104.713 175.629 104.711 175.635 104.708 175.641C104.734 175.834 104.778 176.024 104.838 176.209C104.917 176.539 105.014 176.864 105.129 177.183C105.308 177.694 105.529 178.189 105.791 178.663C105.867 178.827 105.954 178.986 106.051 179.138C106.978 180.749 108.276 182.116 109.839 183.127C111.402 184.137 113.184 184.761 115.037 184.948C115.427 184.985 115.823 185.016 116.231 185.016C116.497 185.016 116.763 185.016 117.011 185.016C117.16 185.016 117.314 185.016 117.475 184.967C117.714 184.954 117.952 184.923 118.187 184.874C118.489 184.835 118.789 184.778 119.084 184.701C119.549 184.586 120.005 184.442 120.452 184.27C121.767 183.763 122.979 183.024 124.029 182.086C124.449 181.7 124.915 181.364 125.415 181.087C125.726 180.91 126.053 180.763 126.393 180.649C126.904 180.471 127.441 180.376 127.983 180.366H128.212C129.012 180.362 129.811 180.441 130.595 180.6C131.776 180.843 132.855 181.439 133.689 182.308C134.755 183.424 135.351 184.906 135.353 186.447V211.77C135.353 211.955 135.353 212.141 135.353 212.319C135.315 212.686 135.24 213.047 135.131 213.399C134.921 214.075 134.58 214.703 134.128 215.249L133.775 215.631C133.654 215.76 133.521 215.877 133.379 215.983C132.549 216.668 131.536 217.097 130.465 217.216H130.347C130.246 217.223 130.145 217.223 130.044 217.216C129.986 217.222 129.928 217.222 129.871 217.216H104.405C103.028 217.211 101.692 217.68 100.623 218.544C99.5535 219.409 98.8171 220.615 98.5386 221.959C98.3721 222.742 98.2871 223.54 98.2849 224.34V224.549C98.3668 226.013 98.9652 227.4 99.9744 228.466C101.243 229.87 102.144 231.565 102.598 233.4C102.827 234.328 102.944 235.281 102.945 236.237C102.977 237.874 102.665 239.5 102.029 241.009C101.393 242.519 100.446 243.878 99.2498 245.001C98.0537 246.123 96.6349 246.984 95.0847 247.526C93.5346 248.069 91.8877 248.281 90.25 248.151C88.6124 248.02 87.0204 247.548 85.5767 246.767C84.1331 245.985 82.8698 244.911 81.8683 243.613C80.8668 242.315 80.1494 240.822 79.7623 239.231C79.3751 237.64 79.3269 235.985 79.6207 234.374C79.6764 234.06 79.7383 233.758 79.8187 233.431C80.2808 231.602 81.1763 229.91 82.4302 228.497C83.4378 227.441 84.0308 226.06 84.1011 224.605V224.383C84.105 223.583 84.0262 222.786 83.8659 222.002C83.5816 220.659 82.842 219.454 81.7714 218.591C80.7007 217.727 79.3644 217.257 77.9869 217.26H52.6145C52.5569 217.265 52.4988 217.265 52.4412 217.26C52.3403 217.266 52.239 217.266 52.138 217.26H52.0204C50.9491 217.14 49.9361 216.711 49.1057 216.026C48.9507 215.906 48.8077 215.772 48.6787 215.625C48.5611 215.502 48.4311 215.372 48.3259 215.243C48.3259 215.243 48.3259 215.243 48.2888 215.2C47.9601 214.799 47.6932 214.352 47.4967 213.874C47.416 213.715 47.3537 213.547 47.311 213.374C47.2012 213.022 47.1266 212.661 47.0883 212.295C47.0883 212.116 47.0883 211.931 47.0883 211.746V186.434C47.0853 185.062 47.5578 183.731 48.426 182.665C49.2942 181.6 50.5049 180.866 51.8533 180.588C52.6372 180.428 53.4357 180.349 54.2359 180.353H54.4587C55.0026 180.363 55.5415 180.459 56.0552 180.637C56.9143 180.937 57.7036 181.407 58.3759 182.018C59.598 183.113 61.0415 183.933 62.6088 184.424C62.84 184.513 63.0779 184.583 63.3204 184.633C63.5936 184.701 63.8705 184.752 64.1497 184.788C64.3842 184.836 64.6222 184.867 64.8614 184.88C65.0223 184.88 65.177 184.917 65.3255 184.93C65.573 184.93 65.8391 184.93 66.1052 184.93C66.5136 184.93 66.9097 184.93 67.2996 184.862C69.1523 184.676 70.9336 184.051 72.4954 183.041C74.0572 182.03 75.3543 180.663 76.2789 179.052C76.3783 178.9 76.4672 178.741 76.5451 178.577C76.807 178.103 77.0285 177.608 77.2072 177.097C77.3236 176.779 77.4187 176.453 77.4919 176.122C77.5576 175.939 77.6033 175.748 77.628 175.555C77.6253 175.549 77.6239 175.543 77.6239 175.536C77.6239 175.53 77.6253 175.524 77.628 175.518C77.7085 175.148 77.758 174.784 77.8013 174.414C77.8013 174.217 77.8384 174.019 77.8384 173.797C77.8637 173.386 77.8637 172.974 77.8384 172.564C77.8384 172.366 77.8384 172.169 77.8013 171.947C77.758 171.577 77.7085 171.213 77.628 170.843C77.6308 170.837 77.6322 170.831 77.6322 170.824C77.6322 170.818 77.6308 170.812 77.628 170.806C77.6033 170.612 77.5576 170.422 77.4919 170.239C77.4555 170.052 77.4038 169.868 77.3372 169.69C77.2865 169.501 77.2245 169.316 77.1515 169.135C76.9796 168.669 76.7727 168.218 76.5327 167.784C76.4548 167.62 76.3659 167.461 76.2666 167.309C75.342 165.698 74.0448 164.331 72.483 163.32C70.9212 162.31 69.1399 161.685 67.2872 161.499C66.6312 161.434 65.9711 161.422 65.3131 161.462C65.1646 161.462 65.0099 161.462 64.849 161.512C64.6636 161.516 64.4791 161.539 64.2982 161.579C64.2593 161.573 64.2195 161.573 64.1806 161.579C64.1739 161.576 64.1665 161.574 64.159 161.574C64.1515 161.574 64.144 161.576 64.1373 161.579C63.8348 161.618 63.5351 161.676 63.24 161.752C62.9975 161.803 62.7595 161.873 62.5283 161.962C60.9575 162.453 59.5102 163.273 58.2831 164.367C57.6153 164.978 56.83 165.448 55.9748 165.749C55.4606 165.926 54.9222 166.024 54.3782 166.038H54.1554C53.747 166.038 53.3385 166.008 52.9177 165.983C52.4969 165.958 52.1256 165.878 51.7481 165.798C50.5673 165.553 49.4886 164.957 48.6539 164.09C47.5851 162.97 46.989 161.484 46.9893 159.939V134.652C46.9893 134.455 46.9893 134.27 46.9893 134.091C47.0276 133.725 47.1022 133.363 47.212 133.012C47.2627 132.841 47.3247 132.674 47.3977 132.512C47.5352 132.18 47.7074 131.864 47.9113 131.568C48.3208 130.96 48.8491 130.44 49.4646 130.039L49.8606 129.804C50.0215 129.724 50.1763 129.644 50.3372 129.582C50.8323 129.372 51.3556 129.235 51.8905 129.175H52.008C52.109 129.169 52.2103 129.169 52.3113 129.175C52.3113 129.175 52.3546 129.175 52.367 129.175C52.4059 129.169 52.4456 129.169 52.4846 129.175H77.857C79.2344 129.178 80.5708 128.708 81.6414 127.844C82.712 126.981 83.4517 125.776 83.736 124.433C83.8969 123.649 83.9757 122.851 83.9712 122.052V121.83C83.9022 120.376 83.3088 118.997 82.3003 117.944C81.0487 116.53 80.1535 114.838 79.6888 113.01C79.6083 112.69 79.5464 112.394 79.4907 112.061C79.2063 110.343 79.3093 108.585 79.7922 106.912C80.275 105.239 81.1257 103.695 82.2823 102.391C83.4389 101.087 84.8725 100.056 86.4788 99.3734C88.0851 98.6906 89.824 98.3729 91.5689 98.4436C93.3138 98.5142 95.021 98.9713 96.5665 99.7817C98.112 100.592 99.4569 101.735 100.504 103.129C101.55 104.522 102.272 106.13 102.618 107.836C102.963 109.542 102.922 111.303 102.499 112.992C102.045 114.827 101.144 116.522 99.8753 117.926C98.8662 118.992 98.2678 120.379 98.1859 121.842V122.052C98.1874 122.852 98.2724 123.65 98.4396 124.433C98.7181 125.776 99.4545 126.983 100.524 127.847C101.593 128.712 102.929 129.181 104.306 129.175H129.716C129.759 129.169 129.803 129.169 129.846 129.175H129.889C129.99 129.169 130.091 129.169 130.192 129.175H130.31C130.845 129.235 131.368 129.372 131.863 129.582C132.024 129.644 132.179 129.724 132.34 129.804L132.736 130.039C133.423 130.49 134.002 131.087 134.43 131.788C134.858 132.489 135.125 133.275 135.211 134.091C135.211 134.27 135.211 134.455 135.211 134.652V159.939C135.211 161.484 134.615 162.97 133.546 164.09C132.715 164.961 131.635 165.557 130.452 165.798C130.056 165.878 129.679 165.927 129.283 165.983C128.887 166.038 128.478 166.038 128.045 166.038H127.816C127.274 166.023 126.738 165.925 126.226 165.749C125.37 165.448 124.585 164.978 123.917 164.367C122.861 163.432 121.645 162.693 120.328 162.184C119.881 162.014 119.424 161.87 118.96 161.752C118.665 161.676 118.366 161.618 118.063 161.579C118.049 161.574 118.034 161.574 118.02 161.579C117.981 161.573 117.941 161.573 117.902 161.579C117.721 161.539 117.537 161.516 117.351 161.512C117.19 161.512 117.036 161.475 116.887 161.462C116.229 161.422 115.569 161.434 114.913 161.499C113.06 161.686 111.278 162.31 109.715 163.321C108.152 164.331 106.854 165.698 105.928 167.309C105.83 167.461 105.743 167.62 105.668 167.784C105.428 168.218 105.221 168.669 105.049 169.135C104.976 169.316 104.914 169.501 104.863 169.69C104.797 169.869 104.744 170.052 104.702 170.239C104.641 170.423 104.598 170.613 104.572 170.806C104.57 170.812 104.568 170.818 104.568 170.824C104.568 170.831 104.57 170.837 104.572 170.843C104.492 171.213 104.442 171.577 104.399 171.947C104.51 172.255 104.51 172.453 104.498 172.65Z" stroke="#344383" stroke-miterlimit="10"/>
</g>
<path d="M154.274 96.7067C153.314 96.7083 152.357 96.5918 151.426 96.3597C149.588 95.9055 147.891 95.0031 146.484 93.7327C145.418 92.7215 144.027 92.1241 142.561 92.0475H142.351C141.553 92.0439 140.756 92.1228 139.973 92.2829C138.627 92.5674 137.42 93.3077 136.553 94.3795C135.687 95.4513 135.215 96.7893 135.216 98.1689V123.844C135.163 124.983 134.761 126.077 134.064 126.978C133.368 127.878 132.411 128.541 131.325 128.875C130.857 129.037 130.367 129.123 129.873 129.129H129.836C129.793 129.123 129.749 129.123 129.706 129.129H104.348C102.973 129.133 101.639 128.661 100.572 127.791C99.5045 126.922 98.7698 125.709 98.4919 124.358C98.3254 123.574 98.2405 122.775 98.2386 121.973V121.762C98.3167 120.292 98.9145 118.897 99.9251 117.828C101.187 116.414 102.086 114.713 102.544 112.871C102.771 111.936 102.885 110.978 102.884 110.015C102.897 108.382 102.57 106.764 101.926 105.264C101.281 103.764 100.333 102.415 99.1401 101.303C97.9475 100.19 96.5373 99.3393 94.999 98.8033C93.4607 98.2673 91.828 98.0582 90.2047 98.1894C88.5815 98.3206 87.0033 98.7891 85.5704 99.5652C84.1375 100.341 82.8813 101.408 81.8817 102.697C80.8821 103.987 80.161 105.471 79.7641 107.055C79.3673 108.639 79.3035 110.289 79.5768 111.899C79.6262 112.221 79.6942 112.518 79.7745 112.853C80.2329 114.691 81.1273 116.392 82.3813 117.81C83.3857 118.871 83.9775 120.258 84.0492 121.719V121.942C84.0504 122.743 83.9718 123.542 83.8145 124.327C83.5309 125.677 82.7928 126.888 81.7242 127.757C80.6556 128.626 79.3215 129.099 77.946 129.098H52.6188C52.5799 129.092 52.5403 129.092 52.5014 129.098C52.5014 129.098 52.4581 129.098 52.4458 129.098C51.9462 129.084 51.4512 128.998 50.9756 128.844C49.8748 128.509 48.9077 127.834 48.2122 126.915C47.5167 125.996 47.1283 124.88 47.1024 123.727C47.0964 123.677 47.0964 123.627 47.1024 123.578V98.1689C47.1039 96.7902 46.6326 95.4528 45.7677 94.3811C44.9028 93.3094 43.6968 92.5687 42.352 92.2829C41.5672 92.1231 40.7682 92.0442 39.9675 92.0475H39.7513C38.2857 92.1241 36.8951 92.7215 35.8287 93.7327C34.4229 95.0042 32.725 95.9067 30.8868 96.3597C29.0566 96.8201 27.1427 96.831 25.3074 96.3917C23.4721 95.9524 21.7694 95.0758 20.3437 93.8361C18.918 92.5965 17.8113 91.0304 17.1174 89.2705C16.4235 87.5107 16.1629 85.609 16.3576 83.7266C16.5377 82.1352 17.0366 80.5968 17.8244 79.2037C18.6122 77.8106 19.6727 76.5917 20.9421 75.62C22.2115 74.6484 23.6635 73.9441 25.2111 73.5495C26.7587 73.1549 28.3699 73.0782 29.9478 73.3239C30.2628 73.3796 30.5655 73.4416 30.8929 73.5221C32.726 73.982 34.4214 74.8789 35.8348 76.1368C36.896 77.1523 38.2863 77.7505 39.7513 77.822H39.9737C40.7746 77.8233 41.5736 77.7423 42.3581 77.5804C43.7035 77.2957 44.9102 76.5552 45.7753 75.4833C46.6404 74.4114 47.1112 73.0734 47.1085 71.6944V46.2917C47.1025 46.2133 47.1025 46.1346 47.1085 46.0563C47.1701 44.6611 47.7549 43.3408 48.7457 42.3597C49.7366 41.3786 51.0603 40.809 52.452 40.7651C52.5095 40.7712 52.5675 40.7712 52.625 40.7651H77.9522C79.3272 40.7624 80.6611 41.2346 81.7298 42.1023C82.7985 42.97 83.5369 44.1802 83.8207 45.5296C83.9779 46.317 84.0565 47.1181 84.0554 47.9212V48.1442C83.9825 49.6053 83.391 50.9921 82.3875 52.0538C81.1314 53.47 80.2368 55.1709 79.7807 57.0104C79.7004 57.3264 79.6324 57.63 79.583 57.9583C79.2991 59.6834 79.4019 61.4503 79.8839 63.1305C80.3659 64.8108 81.215 66.3623 82.3696 67.6722C83.5241 68.9822 84.9551 70.0178 86.5586 70.7037C88.1621 71.3897 89.8978 71.7087 91.6396 71.6378C93.3814 71.5668 95.0855 71.1076 96.6283 70.2935C98.171 69.4794 99.5136 68.3309 100.558 66.9313C101.603 65.5318 102.324 63.9163 102.669 62.2024C103.013 60.4885 102.973 58.7191 102.55 57.0228C102.095 55.1804 101.196 53.4784 99.9312 52.0662C98.9207 50.9974 98.3229 49.6026 98.2448 48.1318V47.9212C98.2467 47.1174 98.3315 46.3159 98.4981 45.5296C98.7761 44.1796 99.5111 42.9676 100.579 42.0992C101.646 41.2308 102.98 40.7594 104.354 40.7651H129.719C129.774 40.7712 129.83 40.7712 129.885 40.7651C130.379 40.7728 130.869 40.8564 131.337 41.0129C132.424 41.3418 133.383 42.0014 134.08 42.9004C134.777 43.7995 135.179 44.8936 135.229 46.0315V71.6882C135.226 73.0681 135.698 74.4067 136.564 75.4788C137.431 76.5508 138.639 77.2908 139.985 77.5741C140.768 77.7364 141.565 77.8174 142.364 77.8158H142.586C144.044 77.7416 145.427 77.1459 146.484 76.1368C147.897 74.8789 149.593 73.982 151.426 73.5221C151.741 73.4416 152.044 73.3796 152.377 73.3239C153.979 73.0553 155.619 73.1232 157.194 73.5231C158.768 73.9231 160.243 74.6465 161.524 75.6476C162.806 76.6487 163.866 77.9056 164.638 79.3389C165.41 80.7721 165.877 82.3505 166.01 83.9741C166.142 85.5978 165.938 87.2313 165.408 88.7715C164.879 90.3116 164.036 91.7248 162.934 92.9215C161.832 94.1183 160.495 95.0727 159.006 95.7242C157.517 96.3758 155.91 96.7103 154.286 96.7067H154.274Z" fill="#01B8C6" stroke="#01858E" stroke-miterlimit="10"/>
<path d="M242.813 185.349C241.853 185.35 240.896 185.234 239.965 185.002C238.127 184.548 236.43 183.645 235.023 182.375C233.957 181.364 232.566 180.766 231.1 180.69H230.89C230.092 180.686 229.295 180.765 228.512 180.925C227.166 181.209 225.959 181.95 225.093 183.022C224.226 184.093 223.754 185.431 223.755 186.811V212.486C223.702 213.625 223.3 214.719 222.603 215.62C221.907 216.52 220.95 217.183 219.864 217.517C219.396 217.679 218.906 217.765 218.412 217.771H218.375C218.332 217.765 218.288 217.765 218.245 217.771H192.887C191.512 217.775 190.178 217.303 189.111 216.433C188.044 215.564 187.309 214.351 187.031 213.001C186.864 212.216 186.78 211.417 186.778 210.615V210.405C186.856 208.934 187.454 207.539 188.464 206.47C189.726 205.056 190.625 203.355 191.083 201.514C191.31 200.579 191.424 199.62 191.423 198.657C191.436 197.024 191.11 195.406 190.465 193.906C189.82 192.406 188.872 191.057 187.679 189.945C186.487 188.833 185.076 187.981 183.538 187.445C182 186.909 180.367 186.7 178.744 186.831C177.121 186.963 175.542 187.431 174.109 188.207C172.677 188.983 171.42 190.05 170.421 191.339C169.421 192.629 168.7 194.113 168.303 195.697C167.906 197.281 167.843 198.931 168.116 200.541C168.165 200.863 168.233 201.16 168.314 201.495C168.772 203.334 169.666 205.034 170.92 206.452C171.925 207.513 172.517 208.9 172.588 210.361V210.584C172.589 211.385 172.511 212.184 172.354 212.97C172.07 214.32 171.332 215.531 170.263 216.399C169.195 217.268 167.861 217.742 166.485 217.74H141.158C141.119 217.734 141.079 217.734 141.04 217.74C141.04 217.74 140.997 217.74 140.985 217.74C140.485 217.726 139.99 217.64 139.515 217.486C138.414 217.151 137.447 216.476 136.751 215.557C136.056 214.638 135.667 213.522 135.641 212.369C135.635 212.319 135.635 212.269 135.641 212.22V186.811C135.643 185.432 135.172 184.095 134.307 183.023C133.442 181.952 132.236 181.211 130.891 180.925C130.106 180.765 129.307 180.686 128.507 180.69H128.29C126.825 180.766 125.434 181.364 124.368 182.375C122.962 183.646 121.264 184.549 119.426 185.002C117.596 185.462 115.682 185.473 113.846 185.034C112.011 184.595 110.308 183.718 108.883 182.478C107.457 181.239 106.35 179.672 105.656 177.913C104.963 176.153 104.702 174.251 104.897 172.369C105.077 170.777 105.576 169.239 106.363 167.846C107.151 166.453 108.212 165.234 109.481 164.262C110.751 163.29 112.203 162.586 113.75 162.192C115.298 161.797 116.909 161.72 118.487 161.966C118.802 162.022 119.105 162.084 119.432 162.164C121.265 162.624 122.96 163.521 124.374 164.779C125.435 165.794 126.825 166.393 128.29 166.464H128.513C129.314 166.465 130.113 166.384 130.897 166.222C132.243 165.938 133.449 165.197 134.314 164.125C135.179 163.053 135.65 161.716 135.648 160.336V134.934C135.642 134.855 135.642 134.777 135.648 134.698C135.709 133.303 136.294 131.983 137.285 131.002C138.276 130.021 139.599 129.451 140.991 129.407C141.049 129.413 141.107 129.413 141.164 129.407H166.491C167.866 129.405 169.2 129.877 170.269 130.744C171.338 131.612 172.076 132.822 172.36 134.172C172.517 134.959 172.596 135.76 172.594 136.563V136.786C172.522 138.247 171.93 139.634 170.927 140.696C169.67 142.112 168.776 143.813 168.32 145.652C168.239 145.968 168.171 146.272 168.122 146.6C167.838 148.326 167.941 150.092 168.423 151.773C168.905 153.453 169.754 155.004 170.909 156.314C172.063 157.624 173.494 158.66 175.098 159.346C176.701 160.032 178.437 160.351 180.179 160.28C181.92 160.209 183.625 159.75 185.167 158.936C186.71 158.122 188.053 156.973 189.097 155.573C190.142 154.174 190.863 152.558 191.208 150.845C191.552 149.131 191.512 147.361 191.09 145.665C190.634 143.823 189.735 142.12 188.47 140.708C187.46 139.64 186.862 138.245 186.784 136.774V136.563C186.786 135.759 186.871 134.958 187.037 134.172C187.315 132.822 188.05 131.61 189.118 130.741C190.185 129.873 191.519 129.402 192.893 129.407H218.258C218.313 129.413 218.369 129.413 218.424 129.407C218.918 129.415 219.408 129.498 219.876 129.655C220.963 129.984 221.922 130.643 222.619 131.543C223.316 132.442 223.718 133.536 223.768 134.674V160.33C223.766 161.71 224.237 163.049 225.103 164.121C225.97 165.193 227.178 165.933 228.524 166.216C229.307 166.378 230.104 166.459 230.903 166.458H231.125C232.583 166.384 233.966 165.788 235.023 164.779C236.436 163.521 238.132 162.624 239.965 162.164C240.28 162.084 240.583 162.022 240.916 161.966C242.518 161.697 244.158 161.765 245.733 162.165C247.307 162.565 248.782 163.289 250.063 164.29C251.345 165.291 252.405 166.548 253.177 167.981C253.949 169.414 254.416 170.993 254.549 172.616C254.681 174.24 254.477 175.873 253.947 177.414C253.418 178.954 252.575 180.367 251.474 181.564C250.372 182.76 249.034 183.715 247.545 184.366C246.057 185.018 244.449 185.352 242.825 185.349H242.813Z" fill="#C9DA2A" stroke="#9EAC20" stroke-miterlimit="10"/>
<path d="M154.274 271.916C153.314 271.917 152.357 271.802 151.426 271.573C149.588 271.123 147.891 270.23 146.484 268.973C145.418 267.973 144.027 267.381 142.561 267.306H142.351C141.553 267.302 140.756 267.38 139.973 267.539C138.627 267.82 137.42 268.553 136.553 269.613C135.687 270.674 135.215 271.998 135.216 273.363V298.768C135.163 299.894 134.761 300.977 134.064 301.868C133.368 302.759 132.411 303.415 131.325 303.746C130.857 303.906 130.367 303.99 129.873 303.997H129.836C129.793 303.991 129.749 303.991 129.706 303.997H104.348C102.973 304.001 101.639 303.533 100.572 302.673C99.5045 301.813 98.7698 300.613 98.4919 299.276C98.3254 298.501 98.2405 297.71 98.2386 296.916V296.708C98.3167 295.252 98.9145 293.872 99.9251 292.815C101.187 291.416 102.086 289.732 102.544 287.91C102.771 286.985 102.885 286.036 102.884 285.084C102.897 283.468 102.57 281.867 101.926 280.383C101.281 278.899 100.333 277.564 99.1401 276.463C97.9475 275.363 96.5373 274.521 94.999 273.99C93.4607 273.46 91.828 273.253 90.2047 273.383C88.5815 273.513 87.0033 273.976 85.5704 274.744C84.1375 275.512 82.8813 276.568 81.8817 277.843C80.8821 279.119 80.161 280.588 79.7641 282.155C79.3673 283.723 79.3035 285.355 79.5768 286.948C79.6262 287.267 79.6942 287.561 79.7745 287.892C80.2329 289.711 81.1273 291.394 82.3813 292.796C83.3857 293.846 83.9775 295.219 84.0492 296.665V296.886C84.0504 297.678 83.9718 298.469 83.8145 299.246C83.5309 300.582 82.7928 301.78 81.7242 302.639C80.6556 303.499 79.3215 303.968 77.946 303.966H52.6188C52.5799 303.96 52.5403 303.96 52.5014 303.966C52.5014 303.966 52.4581 303.966 52.4458 303.966C51.9462 303.952 51.4512 303.867 50.9756 303.715C49.8748 303.383 48.9077 302.715 48.2122 301.806C47.5167 300.897 47.1283 299.793 47.1024 298.651C47.0964 298.602 47.0964 298.553 47.1024 298.504V273.363C47.1039 271.998 46.6326 270.675 45.7677 269.615C44.9028 268.554 43.6968 267.821 42.352 267.539C41.5672 267.38 40.7682 267.302 39.9675 267.306H39.7513C38.2857 267.381 36.8951 267.973 35.8287 268.973C34.4229 270.231 32.725 271.124 30.8868 271.573C29.0566 272.028 27.1427 272.039 25.3074 271.604C23.4721 271.169 21.7694 270.302 20.3437 269.075C18.918 267.849 17.8113 266.299 17.1174 264.558C16.4235 262.817 16.1629 260.935 16.3576 259.072C16.5377 257.498 17.0366 255.975 17.8244 254.597C18.6122 253.219 19.6727 252.013 20.9421 251.051C22.2115 250.09 23.6635 249.393 25.2111 249.002C26.7587 248.612 28.3699 248.536 29.9478 248.779C30.2628 248.834 30.5655 248.896 30.8929 248.975C32.726 249.43 34.4214 250.318 35.8348 251.562C36.896 252.567 38.2863 253.159 39.7513 253.23H39.9737C40.7746 253.231 41.5736 253.151 42.3581 252.991C43.7035 252.709 44.9102 251.976 45.7753 250.916C46.6404 249.855 47.1112 248.531 47.1085 247.167V222.031C47.1025 221.954 47.1025 221.876 47.1085 221.799C47.1701 220.418 47.7549 219.112 48.7457 218.141C49.7366 217.17 51.0603 216.607 52.452 216.563C52.5095 216.569 52.5675 216.569 52.625 216.563H77.9522C79.3272 216.56 80.6611 217.028 81.7298 217.886C82.7985 218.745 83.5369 219.942 83.8207 221.277C83.9779 222.057 84.0565 222.849 84.0554 223.644V223.865C83.9825 225.31 83.391 226.682 82.3875 227.733C81.1314 229.134 80.2368 230.817 79.7807 232.637C79.7004 232.95 79.6324 233.25 79.583 233.575C79.2991 235.282 79.4019 237.031 79.8839 238.693C80.3659 240.356 81.215 241.891 82.3696 243.187C83.5241 244.483 84.9551 245.508 86.5586 246.187C88.1621 246.865 89.8978 247.181 91.6396 247.111C93.3814 247.041 95.0855 246.586 96.6283 245.781C98.171 244.975 99.5136 243.839 100.558 242.454C101.603 241.069 102.324 239.471 102.669 237.775C103.013 236.079 102.973 234.328 102.55 232.65C102.095 230.827 101.196 229.143 99.9312 227.745C98.9207 226.688 98.3229 225.308 98.2448 223.852V223.644C98.2467 222.848 98.3315 222.055 98.4981 221.277C98.7761 219.942 99.5111 218.742 100.579 217.883C101.646 217.024 102.98 216.557 104.354 216.563H129.719C129.774 216.569 129.83 216.569 129.885 216.563C130.379 216.571 130.869 216.653 131.337 216.808C132.424 217.134 133.383 217.786 134.08 218.676C134.777 219.566 135.179 220.648 135.229 221.774V247.161C135.226 248.526 135.698 249.851 136.564 250.911C137.431 251.972 138.639 252.704 139.985 252.985C140.768 253.145 141.565 253.225 142.364 253.224H142.586C144.044 253.15 145.427 252.561 146.484 251.562C147.897 250.318 149.593 249.43 151.426 248.975C151.741 248.896 152.044 248.834 152.377 248.779C153.979 248.513 155.619 248.581 157.194 248.976C158.768 249.372 160.243 250.088 161.524 251.078C162.806 252.069 163.866 253.313 164.638 254.731C165.41 256.149 165.877 257.711 166.01 259.317C166.142 260.924 165.938 262.54 165.408 264.064C164.879 265.588 164.036 266.986 162.934 268.171C161.832 269.355 160.495 270.299 159.006 270.944C157.517 271.588 155.91 271.919 154.286 271.916H154.274Z" fill="#FFC00E" stroke="#C99403" stroke-miterlimit="10"/>
<path d="M65.8357 185.071C64.8699 185.072 63.9076 184.956 62.9702 184.724C61.121 184.269 59.4129 183.367 57.9976 182.097C56.9246 181.085 55.5254 180.488 54.0507 180.412H53.8393C53.0356 180.408 52.2337 180.487 51.4462 180.647C50.0919 180.931 48.877 181.672 48.0055 182.743C47.134 183.815 46.6589 185.153 46.6601 186.533V212.208C46.6068 213.347 46.2019 214.441 45.501 215.342C44.8001 216.242 43.8373 216.905 42.7442 217.239C42.274 217.401 41.7809 217.487 41.2835 217.493H41.2462C41.2029 217.487 41.159 217.487 41.1157 217.493H15.6001C14.2166 217.497 12.8742 217.025 11.8003 216.155C10.7264 215.286 9.98711 214.073 9.70755 212.722C9.53998 211.938 9.45456 211.139 9.45268 210.337V210.126C9.53119 208.656 10.1328 207.261 11.1496 206.192C12.4194 204.778 13.3241 203.077 13.7851 201.236C14.013 200.3 14.1277 199.342 14.1269 198.379C14.1397 196.746 13.8114 195.128 13.1628 193.628C12.5143 192.128 11.5596 190.779 10.3597 189.667C9.15976 188.554 7.74073 187.703 6.19288 187.167C4.64502 186.631 3.00219 186.422 1.36889 186.553C-0.264419 186.685 -1.85245 187.153 -3.29425 187.929C-4.73605 188.705 -6.00005 189.772 -7.00586 191.061C-8.01167 192.351 -8.73729 193.835 -9.13657 195.419C-9.53584 197.003 -9.60005 198.653 -9.32508 200.263C-9.27535 200.585 -9.20698 200.882 -9.12617 201.217C-8.66485 203.055 -7.76499 204.756 -6.50311 206.174C-5.49251 207.235 -4.89706 208.622 -4.82485 210.083V210.306C-4.82369 211.107 -4.90282 211.906 -5.06105 212.691C-5.34643 214.041 -6.08909 215.253 -7.16433 216.121C-8.23957 216.99 -9.58193 217.463 -10.966 217.462H-36.4505C-36.4896 217.456 -36.5295 217.456 -36.5686 217.462C-36.5686 217.462 -36.6122 217.462 -36.6246 217.462C-37.1273 217.448 -37.6254 217.362 -38.104 217.208C-39.2115 216.873 -40.1846 216.198 -40.8845 215.279C-41.5843 214.36 -41.9752 213.244 -42.0012 212.091C-42.0072 212.041 -42.0072 211.991 -42.0012 211.942V186.533C-41.9997 185.154 -42.4739 183.817 -43.3442 182.745C-44.2144 181.673 -45.4279 180.933 -46.7811 180.647C-47.5707 180.487 -48.3747 180.408 -49.1804 180.412H-49.3979C-50.8727 180.488 -52.2719 181.085 -53.3449 182.097C-54.7595 183.368 -56.4678 184.271 -58.3175 184.724C-60.1591 185.184 -62.0848 185.195 -63.9316 184.756C-65.7783 184.316 -67.4915 183.44 -68.926 182.2C-70.3606 180.96 -71.4742 179.394 -72.1724 177.635C-72.8706 175.875 -73.1329 173.973 -72.937 172.091C-72.7558 170.499 -72.2537 168.961 -71.461 167.568C-70.6683 166.175 -69.6012 164.956 -68.324 163.984C-67.0467 163.012 -65.5856 162.308 -64.0284 161.914C-62.4712 161.519 -60.85 161.442 -59.2623 161.688C-58.9453 161.744 -58.6408 161.806 -58.3113 161.886C-56.4668 162.346 -54.761 163.243 -53.3387 164.501C-52.271 165.516 -50.872 166.115 -49.3979 166.186H-49.1742C-48.3683 166.187 -47.5643 166.106 -46.7749 165.944C-45.4212 165.66 -44.207 164.919 -43.3365 163.847C-42.4661 162.775 -41.9924 161.437 -41.995 160.058V134.656C-42.0011 134.577 -42.0011 134.499 -41.995 134.42C-41.933 133.025 -41.3446 131.705 -40.3476 130.724C-39.3507 129.743 -38.0187 129.173 -36.6184 129.129C-36.5605 129.135 -36.5022 129.135 -36.4443 129.129H-10.9598C-9.57626 129.126 -8.23404 129.599 -7.15868 130.466C-6.08331 131.334 -5.34038 132.544 -5.05483 133.894C-4.8966 134.681 -4.81751 135.482 -4.81867 136.285V136.508C-4.89196 137.969 -5.48722 139.356 -6.49689 140.418C-7.76081 141.834 -8.66095 143.535 -9.11995 145.374C-9.20075 145.69 -9.26913 145.994 -9.31886 146.322C-9.60452 148.047 -9.50108 149.814 -9.01608 151.495C-8.53107 153.175 -7.67668 154.726 -6.51495 156.036C-5.35321 157.346 -3.91333 158.382 -2.2999 159.068C-0.686461 159.754 1.06003 160.073 2.81265 160.002C4.56526 159.931 6.28 159.472 7.83232 158.658C9.38464 157.843 10.7355 156.695 11.7868 155.295C12.8382 153.896 13.5636 152.28 13.9103 150.566C14.257 148.852 14.2163 147.083 13.7913 145.387C13.3331 143.544 12.4281 141.842 11.1558 140.43C10.139 139.361 9.53741 137.967 9.4589 136.496V136.285C9.46075 135.481 9.54614 134.68 9.71373 133.894C9.99346 132.544 10.7331 131.332 11.8071 130.463C12.8811 129.595 14.2234 129.123 15.6063 129.129H41.1281C41.1839 129.135 41.2401 129.135 41.2959 129.129C41.7927 129.137 42.2853 129.22 42.7566 129.377C43.8506 129.706 44.815 130.365 45.5165 131.264C46.2181 132.164 46.6221 133.258 46.6726 134.395V160.052C46.6702 161.432 47.1448 162.771 48.0165 163.843C48.8882 164.915 50.1038 165.655 51.4587 165.938C52.2459 166.1 53.0478 166.181 53.8517 166.18H54.0755C55.5422 166.106 56.9337 165.51 57.9976 164.501C59.4199 163.243 61.1257 162.346 62.9702 161.886C63.2872 161.806 63.5918 161.744 63.9274 161.688C65.5394 161.419 67.1897 161.487 68.774 161.887C70.3583 162.287 71.8421 163.011 73.1314 164.012C74.4208 165.013 75.4877 166.27 76.2646 167.703C77.0415 169.136 77.5115 170.714 77.6448 172.338C77.7782 173.962 77.5721 175.595 77.0394 177.135C76.5068 178.676 75.6591 180.089 74.5503 181.286C73.4415 182.482 72.0956 183.437 70.5976 184.088C69.0997 184.74 67.4825 185.074 65.8481 185.071H65.8357Z" fill="#912891" stroke="#601A60" stroke-miterlimit="10"/>
<g filter="url(#filter1_d_2070_9581)">
<path d="M192.863 259.623C192.838 260.031 192.838 260.441 192.863 260.849C192.863 261.045 192.863 261.241 192.9 261.462C192.944 261.829 192.993 262.191 193.074 262.559C193.076 262.565 193.078 262.571 193.078 262.577C193.078 262.584 193.076 262.59 193.074 262.596C193.099 262.787 193.143 262.976 193.204 263.16C193.282 263.488 193.379 263.811 193.495 264.128C193.673 264.636 193.895 265.128 194.157 265.599C194.232 265.762 194.319 265.92 194.417 266.071C195.343 267.672 196.641 269.03 198.204 270.034C199.767 271.039 201.549 271.659 203.402 271.845C203.792 271.881 204.188 271.912 204.596 271.912C204.863 271.912 205.129 271.912 205.376 271.912C205.525 271.912 205.679 271.912 205.84 271.863C206.08 271.85 206.317 271.819 206.552 271.771C206.855 271.733 207.154 271.675 207.449 271.599C207.914 271.485 208.371 271.342 208.817 271.17C210.132 270.667 211.344 269.932 212.394 269.001C212.815 268.616 213.28 268.283 213.78 268.008C214.091 267.831 214.418 267.686 214.758 267.572C215.27 267.396 215.806 267.301 216.348 267.291H216.577C217.377 267.287 218.176 267.365 218.96 267.523C220.141 267.765 221.221 268.357 222.054 269.221C223.12 270.33 223.716 271.802 223.719 273.334V298.5C223.719 298.684 223.719 298.868 223.719 299.046C223.68 299.41 223.606 299.769 223.496 300.118C223.286 300.79 222.946 301.415 222.493 301.957L222.141 302.337C222.019 302.465 221.887 302.582 221.745 302.687C220.914 303.367 219.901 303.794 218.83 303.912H218.712C218.611 303.919 218.51 303.919 218.409 303.912C218.351 303.918 218.293 303.918 218.236 303.912H192.77C191.394 303.907 190.057 304.373 188.988 305.232C187.919 306.091 187.182 307.29 186.904 308.626C186.737 309.404 186.652 310.197 186.65 310.992V311.2C186.732 312.654 187.33 314.033 188.34 315.092C189.608 316.488 190.51 318.172 190.963 319.995C191.192 320.918 191.309 321.865 191.31 322.815C191.343 324.442 191.031 326.057 190.394 327.557C189.758 329.058 188.811 330.409 187.615 331.525C186.419 332.64 185 333.495 183.45 334.034C181.9 334.573 180.253 334.785 178.615 334.655C176.978 334.525 175.386 334.056 173.942 333.279C172.498 332.503 171.235 331.435 170.234 330.145C169.232 328.855 168.515 327.372 168.127 325.79C167.74 324.209 167.692 322.565 167.986 320.964C168.042 320.651 168.104 320.351 168.184 320.026C168.646 318.208 169.542 316.527 170.795 315.123C171.803 314.074 172.396 312.701 172.466 311.255V311.035C172.47 310.24 172.391 309.447 172.231 308.669C171.947 307.334 171.207 306.137 170.137 305.278C169.066 304.42 167.73 303.953 166.352 303.955H140.98C140.922 303.961 140.864 303.961 140.806 303.955C140.706 303.962 140.604 303.962 140.503 303.955H140.386C139.314 303.836 138.301 303.41 137.471 302.73C137.316 302.611 137.173 302.477 137.044 302.331C136.926 302.209 136.796 302.08 136.691 301.951C136.691 301.951 136.691 301.951 136.654 301.908C136.325 301.51 136.058 301.066 135.862 300.59C135.781 300.432 135.719 300.266 135.676 300.094C135.566 299.745 135.492 299.385 135.453 299.021C135.453 298.844 135.453 298.66 135.453 298.476V273.322C135.451 271.958 135.923 270.635 136.791 269.576C137.659 268.517 138.87 267.788 140.219 267.511C141.002 267.352 141.801 267.274 142.601 267.278H142.824C143.368 267.288 143.907 267.383 144.42 267.56C145.279 267.858 146.069 268.325 146.741 268.933C147.963 270.021 149.407 270.836 150.974 271.324C151.205 271.412 151.443 271.482 151.686 271.532C151.959 271.599 152.236 271.65 152.515 271.685C152.749 271.733 152.987 271.764 153.227 271.777C153.387 271.777 153.542 271.814 153.691 271.826C153.938 271.826 154.204 271.826 154.47 271.826C154.879 271.826 155.275 271.826 155.665 271.759C157.518 271.574 159.299 270.953 160.861 269.949C162.422 268.945 163.72 267.586 164.644 265.985C164.744 265.834 164.832 265.676 164.91 265.513C165.172 265.042 165.394 264.55 165.572 264.042C165.689 263.726 165.784 263.402 165.857 263.074C165.923 262.891 165.969 262.702 165.993 262.51C165.991 262.504 165.989 262.498 165.989 262.491C165.989 262.485 165.991 262.479 165.993 262.473C166.074 262.105 166.123 261.744 166.167 261.376C166.167 261.18 166.204 260.984 166.204 260.763C166.229 260.355 166.229 259.945 166.204 259.537C166.204 259.341 166.204 259.145 166.167 258.924C166.123 258.556 166.074 258.195 165.993 257.827C165.996 257.821 165.997 257.815 165.997 257.809C165.997 257.802 165.996 257.796 165.993 257.79C165.969 257.598 165.923 257.409 165.857 257.226C165.821 257.041 165.769 256.858 165.702 256.681C165.652 256.494 165.59 256.309 165.517 256.129C165.345 255.667 165.138 255.218 164.898 254.787C164.82 254.624 164.731 254.466 164.632 254.315C163.707 252.714 162.41 251.355 160.848 250.351C159.286 249.347 157.505 248.726 155.652 248.541C154.996 248.477 154.336 248.465 153.678 248.505C153.53 248.505 153.375 248.505 153.214 248.554C153.029 248.558 152.844 248.581 152.663 248.621C152.625 248.615 152.585 248.615 152.546 248.621C152.539 248.618 152.532 248.616 152.524 248.616C152.517 248.616 152.509 248.618 152.503 248.621C152.2 248.659 151.9 248.717 151.605 248.793C151.363 248.843 151.125 248.913 150.894 249.001C149.323 249.489 147.875 250.304 146.648 251.391C145.98 251.999 145.195 252.466 144.34 252.764C143.826 252.941 143.287 253.038 142.743 253.052H142.521C142.112 253.052 141.704 253.022 141.283 252.997C140.862 252.973 140.491 252.893 140.113 252.813C138.933 252.57 137.854 251.978 137.019 251.116C135.95 250.003 135.354 248.526 135.354 246.991V221.861C135.354 221.665 135.354 221.481 135.354 221.303C135.393 220.939 135.467 220.58 135.577 220.231C135.628 220.061 135.69 219.895 135.763 219.734C135.9 219.405 136.073 219.09 136.277 218.796C136.686 218.192 137.214 217.675 137.83 217.276L138.226 217.044C138.387 216.964 138.542 216.884 138.702 216.823C139.198 216.614 139.721 216.478 140.256 216.418H140.373C140.474 216.412 140.576 216.412 140.677 216.418C140.677 216.418 140.72 216.418 140.732 216.418C140.771 216.412 140.811 216.412 140.85 216.418H166.222C167.6 216.421 168.936 215.954 170.007 215.095C171.077 214.237 171.817 213.04 172.101 211.705C172.262 210.927 172.341 210.134 172.336 209.339V209.118C172.267 207.674 171.674 206.303 170.666 205.257C169.414 203.851 168.519 202.17 168.054 200.354C167.974 200.035 167.912 199.741 167.856 199.41C167.572 197.703 167.675 195.955 168.157 194.293C168.64 192.631 169.491 191.096 170.648 189.8C171.804 188.504 173.238 187.48 174.844 186.801C176.45 186.123 178.189 185.807 179.934 185.877C181.679 185.948 183.386 186.402 184.932 187.207C186.477 188.013 187.822 189.149 188.869 190.533C189.916 191.918 190.638 193.516 190.983 195.211C191.328 196.907 191.288 198.657 190.864 200.335C190.411 202.159 189.509 203.843 188.241 205.239C187.231 206.298 186.633 207.677 186.551 209.131V209.339C186.553 210.134 186.638 210.927 186.805 211.705C187.083 213.04 187.82 214.239 188.889 215.098C189.958 215.958 191.295 216.424 192.671 216.418H218.081C218.124 216.412 218.168 216.412 218.211 216.418H218.254C218.355 216.412 218.457 216.412 218.558 216.418H218.675C219.21 216.478 219.733 216.614 220.228 216.823C220.389 216.884 220.544 216.964 220.705 217.044L221.101 217.276C221.788 217.725 222.367 218.318 222.795 219.015C223.223 219.711 223.49 220.493 223.576 221.303C223.576 221.481 223.576 221.665 223.576 221.861V246.991C223.577 248.526 222.981 250.003 221.912 251.116C221.08 251.982 220 252.574 218.817 252.813C218.421 252.893 218.044 252.942 217.648 252.997C217.252 253.052 216.843 253.052 216.41 253.052H216.181C215.639 253.037 215.103 252.94 214.591 252.764C213.736 252.466 212.95 251.999 212.283 251.391C211.226 250.462 210.011 249.727 208.693 249.222C208.246 249.053 207.789 248.91 207.326 248.793C207.03 248.717 206.731 248.659 206.428 248.621C206.414 248.616 206.399 248.616 206.385 248.621C206.346 248.615 206.306 248.615 206.267 248.621C206.086 248.581 205.902 248.558 205.717 248.554C205.556 248.554 205.401 248.517 205.252 248.505C204.594 248.465 203.934 248.477 203.278 248.541C201.425 248.727 199.643 249.347 198.08 250.352C196.518 251.356 195.219 252.714 194.293 254.315C194.195 254.466 194.109 254.624 194.033 254.787C193.793 255.218 193.586 255.667 193.414 256.129C193.341 256.309 193.279 256.494 193.228 256.681C193.163 256.859 193.109 257.041 193.068 257.226C193.007 257.41 192.963 257.599 192.938 257.79C192.935 257.796 192.933 257.802 192.933 257.809C192.933 257.815 192.935 257.821 192.938 257.827C192.857 258.195 192.808 258.556 192.764 258.924C192.876 259.231 192.876 259.427 192.863 259.623Z" fill="#D1193D"/>
<path d="M192.863 259.623C192.838 260.031 192.838 260.441 192.863 260.849C192.863 261.045 192.863 261.241 192.9 261.462C192.944 261.829 192.993 262.191 193.074 262.559C193.076 262.565 193.078 262.571 193.078 262.577C193.078 262.584 193.076 262.59 193.074 262.596C193.099 262.787 193.143 262.976 193.204 263.16C193.282 263.488 193.379 263.811 193.495 264.128C193.673 264.636 193.895 265.128 194.157 265.599C194.232 265.762 194.319 265.92 194.417 266.071C195.343 267.672 196.641 269.03 198.204 270.034C199.767 271.039 201.549 271.659 203.402 271.845C203.792 271.881 204.188 271.912 204.596 271.912C204.863 271.912 205.129 271.912 205.376 271.912C205.525 271.912 205.679 271.912 205.84 271.863C206.08 271.85 206.317 271.819 206.552 271.771C206.855 271.733 207.154 271.675 207.449 271.599C207.914 271.485 208.371 271.342 208.817 271.17C210.132 270.667 211.344 269.932 212.394 269.001C212.815 268.616 213.28 268.283 213.78 268.008C214.091 267.831 214.418 267.686 214.758 267.572C215.27 267.396 215.806 267.301 216.348 267.291H216.577C217.377 267.287 218.176 267.365 218.96 267.523C220.141 267.765 221.221 268.357 222.054 269.221C223.12 270.33 223.716 271.802 223.719 273.334V298.5C223.719 298.684 223.719 298.868 223.719 299.046C223.68 299.41 223.606 299.769 223.496 300.118C223.286 300.79 222.946 301.415 222.493 301.957L222.141 302.337C222.019 302.465 221.887 302.582 221.745 302.687C220.914 303.367 219.901 303.794 218.83 303.912H218.712C218.611 303.919 218.51 303.919 218.409 303.912C218.351 303.918 218.293 303.918 218.236 303.912H192.77C191.394 303.907 190.057 304.373 188.988 305.232C187.919 306.091 187.182 307.29 186.904 308.626C186.737 309.404 186.652 310.197 186.65 310.992V311.2C186.732 312.654 187.33 314.033 188.34 315.092C189.608 316.488 190.51 318.172 190.963 319.995C191.192 320.918 191.309 321.865 191.31 322.815C191.343 324.442 191.031 326.057 190.394 327.557C189.758 329.058 188.811 330.409 187.615 331.525C186.419 332.64 185 333.495 183.45 334.034C181.9 334.573 180.253 334.785 178.615 334.655C176.978 334.525 175.386 334.056 173.942 333.279C172.498 332.503 171.235 331.435 170.234 330.145C169.232 328.855 168.515 327.372 168.127 325.79C167.74 324.209 167.692 322.565 167.986 320.964C168.042 320.651 168.104 320.351 168.184 320.026C168.646 318.208 169.542 316.527 170.795 315.123C171.803 314.074 172.396 312.701 172.466 311.255V311.035C172.47 310.24 172.391 309.447 172.231 308.669C171.947 307.334 171.207 306.137 170.137 305.278C169.066 304.42 167.73 303.953 166.352 303.955H140.98C140.922 303.961 140.864 303.961 140.806 303.955C140.706 303.962 140.604 303.962 140.503 303.955H140.386C139.314 303.836 138.301 303.41 137.471 302.73C137.316 302.611 137.173 302.477 137.044 302.331C136.926 302.209 136.796 302.08 136.691 301.951C136.691 301.951 136.691 301.951 136.654 301.908C136.325 301.51 136.058 301.066 135.862 300.59C135.781 300.432 135.719 300.266 135.676 300.094C135.566 299.745 135.492 299.385 135.453 299.021C135.453 298.844 135.453 298.66 135.453 298.476V273.322C135.451 271.958 135.923 270.635 136.791 269.576C137.659 268.517 138.87 267.788 140.219 267.511C141.002 267.352 141.801 267.274 142.601 267.278H142.824C143.368 267.288 143.907 267.383 144.42 267.56C145.279 267.858 146.069 268.325 146.741 268.933C147.963 270.021 149.407 270.836 150.974 271.324C151.205 271.412 151.443 271.482 151.686 271.532C151.959 271.599 152.236 271.65 152.515 271.685C152.749 271.733 152.987 271.764 153.227 271.777C153.387 271.777 153.542 271.814 153.691 271.826C153.938 271.826 154.204 271.826 154.47 271.826C154.879 271.826 155.275 271.826 155.665 271.759C157.518 271.574 159.299 270.953 160.861 269.949C162.422 268.945 163.72 267.586 164.644 265.985C164.744 265.834 164.832 265.676 164.91 265.513C165.172 265.042 165.394 264.55 165.572 264.042C165.689 263.726 165.784 263.402 165.857 263.074C165.923 262.891 165.969 262.702 165.993 262.51C165.991 262.504 165.989 262.498 165.989 262.491C165.989 262.485 165.991 262.479 165.993 262.473C166.074 262.105 166.123 261.744 166.167 261.376C166.167 261.18 166.204 260.984 166.204 260.763C166.229 260.355 166.229 259.945 166.204 259.537C166.204 259.341 166.204 259.145 166.167 258.924C166.123 258.556 166.074 258.195 165.993 257.827C165.996 257.821 165.997 257.815 165.997 257.809C165.997 257.802 165.996 257.796 165.993 257.79C165.969 257.598 165.923 257.409 165.857 257.226C165.821 257.041 165.769 256.858 165.702 256.681C165.652 256.494 165.59 256.309 165.517 256.129C165.345 255.667 165.138 255.218 164.898 254.787C164.82 254.624 164.731 254.466 164.632 254.315C163.707 252.714 162.41 251.355 160.848 250.351C159.286 249.347 157.505 248.726 155.652 248.541C154.996 248.477 154.336 248.465 153.678 248.505C153.53 248.505 153.375 248.505 153.214 248.554C153.029 248.558 152.844 248.581 152.663 248.621C152.625 248.615 152.585 248.615 152.546 248.621C152.539 248.618 152.532 248.616 152.524 248.616C152.517 248.616 152.509 248.618 152.503 248.621C152.2 248.659 151.9 248.717 151.605 248.793C151.363 248.843 151.125 248.913 150.894 249.001C149.323 249.489 147.875 250.304 146.648 251.391C145.98 251.999 145.195 252.466 144.34 252.764C143.826 252.941 143.287 253.038 142.743 253.052H142.521C142.112 253.052 141.704 253.022 141.283 252.997C140.862 252.973 140.491 252.893 140.113 252.813C138.933 252.57 137.854 251.978 137.019 251.116C135.95 250.003 135.354 248.526 135.354 246.991V221.861C135.354 221.665 135.354 221.481 135.354 221.303C135.393 220.939 135.467 220.58 135.577 220.231C135.628 220.061 135.69 219.895 135.763 219.734C135.9 219.405 136.073 219.09 136.277 218.796C136.686 218.192 137.214 217.675 137.83 217.276L138.226 217.044C138.387 216.964 138.542 216.884 138.702 216.823C139.198 216.614 139.721 216.478 140.256 216.418H140.373C140.474 216.412 140.576 216.412 140.677 216.418C140.677 216.418 140.72 216.418 140.732 216.418C140.771 216.412 140.811 216.412 140.85 216.418H166.222C167.6 216.421 168.936 215.954 170.007 215.095C171.077 214.237 171.817 213.04 172.101 211.705C172.262 210.927 172.341 210.134 172.336 209.339V209.118C172.267 207.674 171.674 206.303 170.666 205.257C169.414 203.851 168.519 202.17 168.054 200.354C167.974 200.035 167.912 199.741 167.856 199.41C167.572 197.703 167.675 195.955 168.157 194.293C168.64 192.631 169.491 191.096 170.648 189.8C171.804 188.504 173.238 187.48 174.844 186.801C176.45 186.123 178.189 185.807 179.934 185.877C181.679 185.948 183.386 186.402 184.932 187.207C186.477 188.013 187.822 189.149 188.869 190.533C189.916 191.918 190.638 193.516 190.983 195.211C191.328 196.907 191.288 198.657 190.864 200.335C190.411 202.159 189.509 203.843 188.241 205.239C187.231 206.298 186.633 207.677 186.551 209.131V209.339C186.553 210.134 186.638 210.927 186.805 211.705C187.083 213.04 187.82 214.239 188.889 215.098C189.958 215.958 191.295 216.424 192.671 216.418H218.081C218.124 216.412 218.168 216.412 218.211 216.418H218.254C218.355 216.412 218.457 216.412 218.558 216.418H218.675C219.21 216.478 219.733 216.614 220.228 216.823C220.389 216.884 220.544 216.964 220.705 217.044L221.101 217.276C221.788 217.725 222.367 218.318 222.795 219.015C223.223 219.711 223.49 220.493 223.576 221.303C223.576 221.481 223.576 221.665 223.576 221.861V246.991C223.577 248.526 222.981 250.003 221.912 251.116C221.08 251.982 220 252.574 218.817 252.813C218.421 252.893 218.044 252.942 217.648 252.997C217.252 253.052 216.843 253.052 216.41 253.052H216.181C215.639 253.037 215.103 252.94 214.591 252.764C213.736 252.466 212.95 251.999 212.283 251.391C211.226 250.462 210.011 249.727 208.693 249.222C208.246 249.053 207.789 248.91 207.326 248.793C207.03 248.717 206.731 248.659 206.428 248.621C206.414 248.616 206.399 248.616 206.385 248.621C206.346 248.615 206.306 248.615 206.267 248.621C206.086 248.581 205.902 248.558 205.717 248.554C205.556 248.554 205.401 248.517 205.252 248.505C204.594 248.465 203.934 248.477 203.278 248.541C201.425 248.727 199.643 249.347 198.08 250.352C196.518 251.356 195.219 252.714 194.293 254.315C194.195 254.466 194.109 254.624 194.033 254.787C193.793 255.218 193.586 255.667 193.414 256.129C193.341 256.309 193.279 256.494 193.228 256.681C193.163 256.859 193.109 257.041 193.068 257.226C193.007 257.41 192.963 257.599 192.938 257.79C192.935 257.796 192.933 257.802 192.933 257.809C192.933 257.815 192.935 257.821 192.938 257.827C192.857 258.195 192.808 258.556 192.764 258.924C192.876 259.231 192.876 259.427 192.863 259.623Z" stroke="#A41330" stroke-miterlimit="10"/>
</g>
<g filter="url(#filter2_d_2070_9581)">
<path d="M16.1348 84.7552C16.1095 85.1634 16.1095 85.5728 16.1348 85.981C16.1348 86.1771 16.1348 86.3733 16.1719 86.5939C16.2152 86.9617 16.2647 87.3233 16.3452 87.691C16.3479 87.6968 16.3494 87.7031 16.3494 87.7094C16.3494 87.7158 16.3479 87.7221 16.3452 87.7278C16.3707 87.9194 16.4143 88.1082 16.4751 88.2917C16.5533 88.6198 16.6504 88.9431 16.766 89.2601C16.9447 89.7679 17.1662 90.26 17.4281 90.7311C17.5038 90.8941 17.5907 91.0518 17.6881 91.2031C18.6145 92.8037 19.9129 94.1625 21.4756 95.1666C23.0383 96.1707 24.8203 96.7913 26.6736 96.9768C27.0635 97.0135 27.4595 97.0442 27.868 97.0442C28.1341 97.0442 28.4002 97.0442 28.6477 97.0442C28.7962 97.0442 28.951 97.0442 29.1119 96.9951C29.3511 96.9822 29.589 96.9515 29.8235 96.9032C30.126 96.8649 30.4257 96.8076 30.7209 96.7316C31.1854 96.6173 31.6422 96.474 32.0885 96.3025C33.4035 95.7995 34.6154 95.0644 35.6654 94.1328C36.086 93.7485 36.5514 93.4152 37.0516 93.1399C37.3624 92.9637 37.6899 92.8179 38.0294 92.7047C38.5411 92.5279 39.0779 92.4328 39.6198 92.4228H39.8488C40.6489 92.4192 41.4473 92.4972 42.2313 92.6557C43.4128 92.8973 44.4921 93.4895 45.3255 94.3535C46.392 95.4624 46.9879 96.9346 46.9902 98.4661V123.633C46.9902 123.816 46.9902 124 46.9902 124.178C46.9518 124.542 46.8771 124.901 46.7673 125.251C46.5577 125.923 46.2171 126.547 45.7648 127.089L45.4121 127.469C45.2906 127.597 45.1581 127.714 45.0161 127.819C44.1856 128.5 43.1726 128.926 42.1013 129.045H41.9837C41.8828 129.051 41.7815 129.051 41.6805 129.045C41.6229 129.051 41.5648 129.051 41.5072 129.045H16.042C14.6651 129.039 13.3287 129.505 12.2595 130.364C11.1902 131.224 10.4539 132.423 10.1754 133.758C10.0089 134.536 9.92381 135.329 9.92161 136.124V136.332C10.0035 137.786 10.6019 139.165 11.6111 140.224C12.8799 141.62 13.7812 143.304 14.2349 145.128C14.4639 146.05 14.5803 146.997 14.5815 147.947C14.6141 149.574 14.3022 151.19 13.6658 152.69C13.0294 154.19 12.0826 155.541 10.8865 156.657C9.69043 157.772 8.27158 158.627 6.72146 159.166C5.17135 159.705 3.5244 159.917 1.88674 159.787C0.24908 159.657 -1.34289 159.188 -2.78656 158.412C-4.23022 157.635 -5.49351 156.567 -6.49499 155.277C-7.49647 153.987 -8.2139 152.504 -8.60103 150.923C-8.98815 149.341 -9.03638 147.697 -8.74259 146.096C-8.6869 145.783 -8.62501 145.483 -8.54456 145.158C-8.08253 143.34 -7.18699 141.659 -5.93307 140.255C-4.92551 139.206 -4.33245 137.833 -4.26219 136.387V136.167C-4.25828 135.372 -4.33708 134.579 -4.49736 133.801C-4.78165 132.466 -5.52128 131.269 -6.59191 130.41C-7.66254 129.552 -8.9989 129.085 -10.3763 129.088H-35.7488C-35.8064 129.093 -35.8644 129.093 -35.922 129.088C-36.023 129.094 -36.1243 129.094 -36.2253 129.088H-36.3428C-37.4142 128.969 -38.4272 128.543 -39.2576 127.862C-39.4125 127.743 -39.5555 127.609 -39.6846 127.463C-39.8022 127.341 -39.9321 127.212 -40.0373 127.083C-40.0373 127.083 -40.0373 127.083 -40.0745 127.04C-40.4032 126.643 -40.6701 126.198 -40.8666 125.723C-40.9473 125.565 -41.0096 125.398 -41.0523 125.226C-41.1621 124.877 -41.2367 124.517 -41.275 124.154C-41.275 123.976 -41.275 123.792 -41.275 123.608V98.4539C-41.278 97.09 -40.8055 95.7669 -39.9373 94.7082C-39.069 93.6495 -37.8584 92.9202 -36.5099 92.6434C-35.726 92.4844 -34.9276 92.4063 -34.1274 92.4105H-33.9046C-33.3607 92.4199 -32.8218 92.5151 -32.308 92.6925C-31.449 92.9906 -30.6597 93.4576 -29.9874 94.0654C-28.7653 95.1529 -27.3218 95.968 -25.7545 96.4558C-25.5233 96.544 -25.2853 96.6137 -25.0429 96.6642C-24.7697 96.7313 -24.4928 96.7825 -24.2136 96.8174C-23.979 96.8657 -23.7411 96.8964 -23.5019 96.9094C-23.341 96.9094 -23.1863 96.9461 -23.0378 96.9584C-22.7902 96.9584 -22.5242 96.9584 -22.2581 96.9584C-21.8496 96.9584 -21.4536 96.9584 -21.0637 96.8909C-19.211 96.706 -17.4297 96.0856 -15.8679 95.0814C-14.3061 94.0771 -13.0089 92.7181 -12.0843 91.1173C-11.985 90.9661 -11.8961 90.8084 -11.8182 90.6453C-11.5563 90.1742 -11.3348 89.6822 -11.1561 89.1743C-11.0397 88.8581 -10.9446 88.5346 -10.8714 88.2059C-10.8056 88.0233 -10.76 87.8343 -10.7352 87.642C-10.738 87.6363 -10.7394 87.63 -10.7394 87.6236C-10.7394 87.6173 -10.738 87.611 -10.7352 87.6052C-10.6548 87.2375 -10.6053 86.8759 -10.562 86.5081C-10.562 86.312 -10.5249 86.1158 -10.5249 85.8952C-10.4996 85.487 -10.4996 85.0776 -10.5249 84.6693C-10.5249 84.4732 -10.5249 84.2771 -10.562 84.0564C-10.6053 83.6887 -10.6548 83.3271 -10.7352 82.9593C-10.7325 82.9536 -10.7311 82.9473 -10.7311 82.9409C-10.7311 82.9346 -10.7325 82.9283 -10.7352 82.9225C-10.76 82.7303 -10.8056 82.5412 -10.8714 82.3586C-10.9077 82.1729 -10.9595 81.9905 -11.0261 81.8132C-11.0768 81.6258 -11.1388 81.4416 -11.2118 81.2615C-11.3837 80.7993 -11.5906 80.3506 -11.8306 79.9192C-11.9084 79.7561 -11.9973 79.5985 -12.0967 79.4473C-13.0213 77.8464 -14.3184 76.4874 -15.8803 75.4832C-17.4421 74.4789 -19.2234 73.8585 -21.0761 73.6736C-21.7321 73.6093 -22.3922 73.597 -23.0502 73.6368C-23.1987 73.6368 -23.3534 73.6368 -23.5143 73.6859C-23.6997 73.6901 -23.8842 73.7127 -24.0651 73.7533C-24.104 73.7469 -24.1437 73.7469 -24.1827 73.7533C-24.1894 73.75 -24.1968 73.7483 -24.2043 73.7483C-24.2118 73.7483 -24.2192 73.75 -24.226 73.7533C-24.5285 73.7916 -24.8281 73.8489 -25.1233 73.9249C-25.3658 73.9754 -25.6038 74.045 -25.835 74.1333C-27.4058 74.6216 -28.8531 75.4366 -30.0802 76.5237C-30.748 77.1311 -31.5333 77.5982 -32.3885 77.8966C-32.9027 78.073 -33.4411 78.1701 -33.9851 78.1847H-34.2079C-34.6163 78.1847 -35.0247 78.154 -35.4456 78.1295C-35.8664 78.105 -36.2376 78.0253 -36.6151 77.9456C-37.796 77.7022 -38.8747 77.1103 -39.7093 76.2479C-40.7782 75.1355 -41.3743 73.6585 -41.374 72.1229V46.9932C-41.374 46.7971 -41.374 46.6132 -41.374 46.4355C-41.3357 46.0715 -41.261 45.7123 -41.1512 45.3629C-41.1006 45.1935 -41.0386 45.0276 -40.9656 44.8664C-40.8281 44.5369 -40.6559 44.2225 -40.452 43.9286C-40.0425 43.3238 -39.5142 42.8069 -38.8987 42.4086L-38.5026 42.1757C-38.3417 42.096 -38.187 42.0163 -38.0261 41.955C-37.531 41.7461 -37.0077 41.6098 -36.4728 41.5505H-36.3552C-36.2543 41.5439 -36.153 41.5439 -36.052 41.5505C-36.052 41.5505 -36.0087 41.5505 -35.9963 41.5505C-35.9573 41.5445 -35.9177 41.5445 -35.8787 41.5505H-10.5063C-9.12884 41.5531 -7.79251 41.086 -6.72188 40.2277C-5.65125 39.3693 -4.91159 38.1721 -4.62729 36.8372C-4.4664 36.0588 -4.38759 35.2659 -4.39213 34.4713V34.2507C-4.4611 32.8062 -5.05445 31.4349 -6.063 30.3893C-7.31454 28.9836 -8.2098 27.3027 -8.67453 25.4859C-8.75498 25.1672 -8.81687 24.873 -8.87256 24.542C-9.15697 22.8355 -9.05398 21.0876 -8.57111 19.4254C-8.08824 17.7632 -7.2376 16.2284 -6.08098 14.9325C-4.92436 13.6366 -3.49081 12.6122 -1.88447 11.9336C-0.278133 11.2551 1.46068 10.9394 3.20559 11.0096C4.95049 11.0798 6.65769 11.5341 8.20318 12.3394C9.74867 13.1448 11.0936 14.281 12.1403 15.6655C13.187 17.05 13.9092 18.6481 14.2544 20.3436C14.5996 22.0391 14.5591 23.7895 14.1359 25.4675C13.6822 27.291 12.7809 28.9753 11.512 30.3709C10.5029 31.4302 9.9045 32.8088 9.82262 34.2629V34.4713C9.82414 35.2665 9.90916 36.0594 10.0763 36.8372C10.3548 38.1727 11.0912 39.3716 12.1605 40.2307C13.2297 41.0898 14.5661 41.5561 15.943 41.5505H41.3525C41.3956 41.5445 41.4394 41.5445 41.4825 41.5505H41.5258C41.6268 41.5439 41.728 41.5439 41.829 41.5505H41.9466C42.4815 41.6098 43.0048 41.7461 43.4999 41.955C43.6608 42.0163 43.8155 42.096 43.9764 42.1757L44.3724 42.4086C45.0598 42.857 45.6384 43.4507 46.0664 44.1469C46.4944 44.8432 46.7612 45.6248 46.8478 46.4355C46.8478 46.6132 46.8478 46.7971 46.8478 46.9932V72.1229C46.848 73.6585 46.252 75.1355 45.1832 76.2479C44.3514 77.114 43.2715 77.7066 42.089 77.9456C41.6929 78.0253 41.3154 78.0744 40.9193 78.1295C40.5233 78.1847 40.1148 78.1847 39.6817 78.1847H39.4527C38.9108 78.1695 38.3745 78.0724 37.8623 77.8966C37.0071 77.5982 36.2218 77.1311 35.554 76.5237C34.4977 75.5944 33.2821 74.8596 31.9647 74.3539C31.5175 74.1852 31.0608 74.042 30.5971 73.9249C30.302 73.8489 30.0022 73.7916 29.6998 73.7533C29.6858 73.7481 29.6704 73.7481 29.6564 73.7533C29.6175 73.7469 29.5778 73.7469 29.5389 73.7533C29.358 73.7127 29.1735 73.6901 28.9881 73.6859C28.8272 73.6859 28.6725 73.6491 28.5239 73.6368C27.866 73.597 27.2059 73.6093 26.5499 73.6736C24.6965 73.8591 22.9146 74.4796 21.3518 75.4838C19.7891 76.4879 18.4907 77.8466 17.5643 79.4473C17.4669 79.5985 17.3801 79.7562 17.3044 79.9192C17.0644 80.3506 16.8575 80.7993 16.6856 81.2615C16.6126 81.4416 16.5506 81.6258 16.4999 81.8132C16.4341 81.9913 16.3804 82.1735 16.339 82.3586C16.2781 82.5422 16.2346 82.731 16.2091 82.9225C16.2063 82.9283 16.2049 82.9346 16.2049 82.9409C16.2049 82.9473 16.2063 82.9536 16.2091 82.9593C16.1286 83.3271 16.0791 83.6887 16.0358 84.0564C16.1471 84.3629 16.1472 84.559 16.1348 84.7552Z" fill="#F06522"/>
<path d="M16.1348 84.7552C16.1095 85.1634 16.1095 85.5728 16.1348 85.981C16.1348 86.1771 16.1348 86.3733 16.1719 86.5939C16.2152 86.9617 16.2647 87.3233 16.3452 87.691C16.3479 87.6968 16.3494 87.7031 16.3494 87.7094C16.3494 87.7158 16.3479 87.7221 16.3452 87.7278C16.3707 87.9194 16.4143 88.1082 16.4751 88.2917C16.5533 88.6198 16.6504 88.9431 16.766 89.2601C16.9447 89.7679 17.1662 90.26 17.4281 90.7311C17.5038 90.8941 17.5907 91.0518 17.6881 91.2031C18.6145 92.8037 19.9129 94.1625 21.4756 95.1666C23.0383 96.1707 24.8203 96.7913 26.6736 96.9768C27.0635 97.0135 27.4595 97.0442 27.868 97.0442C28.1341 97.0442 28.4002 97.0442 28.6477 97.0442C28.7962 97.0442 28.951 97.0442 29.1119 96.9951C29.3511 96.9822 29.589 96.9515 29.8235 96.9032C30.126 96.8649 30.4257 96.8076 30.7209 96.7316C31.1854 96.6173 31.6422 96.474 32.0885 96.3025C33.4035 95.7995 34.6154 95.0644 35.6654 94.1328C36.086 93.7485 36.5514 93.4152 37.0516 93.1399C37.3624 92.9637 37.6899 92.8179 38.0294 92.7047C38.5411 92.5279 39.0779 92.4328 39.6198 92.4228H39.8488C40.6489 92.4192 41.4473 92.4972 42.2313 92.6557C43.4128 92.8973 44.4921 93.4895 45.3255 94.3535C46.392 95.4624 46.9879 96.9346 46.9902 98.4661V123.633C46.9902 123.816 46.9902 124 46.9902 124.178C46.9518 124.542 46.8771 124.901 46.7673 125.251C46.5577 125.923 46.2171 126.547 45.7648 127.089L45.4121 127.469C45.2906 127.597 45.1581 127.714 45.0161 127.819C44.1856 128.5 43.1726 128.926 42.1013 129.045H41.9837C41.8828 129.051 41.7815 129.051 41.6805 129.045C41.6229 129.051 41.5648 129.051 41.5072 129.045H16.042C14.6651 129.039 13.3287 129.505 12.2595 130.364C11.1902 131.224 10.4539 132.423 10.1754 133.758C10.0089 134.536 9.92381 135.329 9.92161 136.124V136.332C10.0035 137.786 10.6019 139.165 11.6111 140.224C12.8799 141.62 13.7812 143.304 14.2349 145.128C14.4639 146.05 14.5803 146.997 14.5815 147.947C14.6141 149.574 14.3022 151.19 13.6658 152.69C13.0294 154.19 12.0826 155.541 10.8865 156.657C9.69043 157.772 8.27158 158.627 6.72146 159.166C5.17135 159.705 3.5244 159.917 1.88674 159.787C0.24908 159.657 -1.34289 159.188 -2.78656 158.412C-4.23022 157.635 -5.49351 156.567 -6.49499 155.277C-7.49647 153.987 -8.2139 152.504 -8.60103 150.923C-8.98815 149.341 -9.03638 147.697 -8.74259 146.096C-8.6869 145.783 -8.62501 145.483 -8.54456 145.158C-8.08253 143.34 -7.18699 141.659 -5.93307 140.255C-4.92551 139.206 -4.33245 137.833 -4.26219 136.387V136.167C-4.25828 135.372 -4.33708 134.579 -4.49736 133.801C-4.78165 132.466 -5.52128 131.269 -6.59191 130.41C-7.66254 129.552 -8.9989 129.085 -10.3763 129.088H-35.7488C-35.8064 129.093 -35.8644 129.093 -35.922 129.088C-36.023 129.094 -36.1243 129.094 -36.2253 129.088H-36.3428C-37.4142 128.969 -38.4272 128.543 -39.2576 127.862C-39.4125 127.743 -39.5555 127.609 -39.6846 127.463C-39.8022 127.341 -39.9321 127.212 -40.0373 127.083C-40.0373 127.083 -40.0373 127.083 -40.0745 127.04C-40.4032 126.643 -40.6701 126.198 -40.8666 125.723C-40.9473 125.565 -41.0096 125.398 -41.0523 125.226C-41.1621 124.877 -41.2367 124.517 -41.275 124.154C-41.275 123.976 -41.275 123.792 -41.275 123.608V98.4539C-41.278 97.09 -40.8055 95.7669 -39.9373 94.7082C-39.069 93.6495 -37.8584 92.9202 -36.5099 92.6434C-35.726 92.4844 -34.9276 92.4063 -34.1274 92.4105H-33.9046C-33.3607 92.4199 -32.8218 92.5151 -32.308 92.6925C-31.449 92.9906 -30.6597 93.4576 -29.9874 94.0654C-28.7653 95.1529 -27.3218 95.968 -25.7545 96.4558C-25.5233 96.544 -25.2853 96.6137 -25.0429 96.6642C-24.7697 96.7313 -24.4928 96.7825 -24.2136 96.8174C-23.979 96.8657 -23.7411 96.8964 -23.5019 96.9094C-23.341 96.9094 -23.1863 96.9461 -23.0378 96.9584C-22.7902 96.9584 -22.5242 96.9584 -22.2581 96.9584C-21.8496 96.9584 -21.4536 96.9584 -21.0637 96.8909C-19.211 96.706 -17.4297 96.0856 -15.8679 95.0814C-14.3061 94.0771 -13.0089 92.7181 -12.0843 91.1173C-11.985 90.9661 -11.8961 90.8084 -11.8182 90.6453C-11.5563 90.1742 -11.3348 89.6822 -11.1561 89.1743C-11.0397 88.8581 -10.9446 88.5346 -10.8714 88.2059C-10.8056 88.0233 -10.76 87.8343 -10.7352 87.642C-10.738 87.6363 -10.7394 87.63 -10.7394 87.6236C-10.7394 87.6173 -10.738 87.611 -10.7352 87.6052C-10.6548 87.2375 -10.6053 86.8759 -10.562 86.5081C-10.562 86.312 -10.5249 86.1158 -10.5249 85.8952C-10.4996 85.487 -10.4996 85.0776 -10.5249 84.6693C-10.5249 84.4732 -10.5249 84.2771 -10.562 84.0564C-10.6053 83.6887 -10.6548 83.3271 -10.7352 82.9593C-10.7325 82.9536 -10.7311 82.9473 -10.7311 82.9409C-10.7311 82.9346 -10.7325 82.9283 -10.7352 82.9225C-10.76 82.7303 -10.8056 82.5412 -10.8714 82.3586C-10.9077 82.1729 -10.9595 81.9905 -11.0261 81.8132C-11.0768 81.6258 -11.1388 81.4416 -11.2118 81.2615C-11.3837 80.7993 -11.5906 80.3506 -11.8306 79.9192C-11.9084 79.7561 -11.9973 79.5985 -12.0967 79.4473C-13.0213 77.8464 -14.3184 76.4874 -15.8803 75.4832C-17.4421 74.4789 -19.2234 73.8585 -21.0761 73.6736C-21.7321 73.6093 -22.3922 73.597 -23.0502 73.6368C-23.1987 73.6368 -23.3534 73.6368 -23.5143 73.6859C-23.6997 73.6901 -23.8842 73.7127 -24.0651 73.7533C-24.104 73.7469 -24.1437 73.7469 -24.1827 73.7533C-24.1894 73.75 -24.1968 73.7483 -24.2043 73.7483C-24.2118 73.7483 -24.2192 73.75 -24.226 73.7533C-24.5285 73.7916 -24.8281 73.8489 -25.1233 73.9249C-25.3658 73.9754 -25.6038 74.045 -25.835 74.1333C-27.4058 74.6216 -28.8531 75.4366 -30.0802 76.5237C-30.748 77.1311 -31.5333 77.5982 -32.3885 77.8966C-32.9027 78.073 -33.4411 78.1701 -33.9851 78.1847H-34.2079C-34.6163 78.1847 -35.0247 78.154 -35.4456 78.1295C-35.8664 78.105 -36.2376 78.0253 -36.6151 77.9456C-37.796 77.7022 -38.8747 77.1103 -39.7093 76.2479C-40.7782 75.1355 -41.3743 73.6585 -41.374 72.1229V46.9932C-41.374 46.7971 -41.374 46.6132 -41.374 46.4355C-41.3357 46.0715 -41.261 45.7123 -41.1512 45.3629C-41.1006 45.1935 -41.0386 45.0276 -40.9656 44.8664C-40.8281 44.5369 -40.6559 44.2225 -40.452 43.9286C-40.0425 43.3238 -39.5142 42.8069 -38.8987 42.4086L-38.5026 42.1757C-38.3417 42.096 -38.187 42.0163 -38.0261 41.955C-37.531 41.7461 -37.0077 41.6098 -36.4728 41.5505H-36.3552C-36.2543 41.5439 -36.153 41.5439 -36.052 41.5505C-36.052 41.5505 -36.0087 41.5505 -35.9963 41.5505C-35.9573 41.5445 -35.9177 41.5445 -35.8787 41.5505H-10.5063C-9.12884 41.5531 -7.79251 41.086 -6.72188 40.2277C-5.65125 39.3693 -4.91159 38.1721 -4.62729 36.8372C-4.4664 36.0588 -4.38759 35.2659 -4.39213 34.4713V34.2507C-4.4611 32.8062 -5.05445 31.4349 -6.063 30.3893C-7.31454 28.9836 -8.2098 27.3027 -8.67453 25.4859C-8.75498 25.1672 -8.81687 24.873 -8.87256 24.542C-9.15697 22.8355 -9.05398 21.0876 -8.57111 19.4254C-8.08824 17.7632 -7.2376 16.2284 -6.08098 14.9325C-4.92436 13.6366 -3.49081 12.6122 -1.88447 11.9336C-0.278133 11.2551 1.46068 10.9394 3.20559 11.0096C4.95049 11.0798 6.65769 11.5341 8.20318 12.3394C9.74867 13.1448 11.0936 14.281 12.1403 15.6655C13.187 17.05 13.9092 18.6481 14.2544 20.3436C14.5996 22.0391 14.5591 23.7895 14.1359 25.4675C13.6822 27.291 12.7809 28.9753 11.512 30.3709C10.5029 31.4302 9.9045 32.8088 9.82262 34.2629V34.4713C9.82414 35.2665 9.90916 36.0594 10.0763 36.8372C10.3548 38.1727 11.0912 39.3716 12.1605 40.2307C13.2297 41.0898 14.5661 41.5561 15.943 41.5505H41.3525C41.3956 41.5445 41.4394 41.5445 41.4825 41.5505H41.5258C41.6268 41.5439 41.728 41.5439 41.829 41.5505H41.9466C42.4815 41.6098 43.0048 41.7461 43.4999 41.955C43.6608 42.0163 43.8155 42.096 43.9764 42.1757L44.3724 42.4086C45.0598 42.857 45.6384 43.4507 46.0664 44.1469C46.4944 44.8432 46.7612 45.6248 46.8478 46.4355C46.8478 46.6132 46.8478 46.7971 46.8478 46.9932V72.1229C46.848 73.6585 46.252 75.1355 45.1832 76.2479C44.3514 77.114 43.2715 77.7066 42.089 77.9456C41.6929 78.0253 41.3154 78.0744 40.9193 78.1295C40.5233 78.1847 40.1148 78.1847 39.6817 78.1847H39.4527C38.9108 78.1695 38.3745 78.0724 37.8623 77.8966C37.0071 77.5982 36.2218 77.1311 35.554 76.5237C34.4977 75.5944 33.2821 74.8596 31.9647 74.3539C31.5175 74.1852 31.0608 74.042 30.5971 73.9249C30.302 73.8489 30.0022 73.7916 29.6998 73.7533C29.6858 73.7481 29.6704 73.7481 29.6564 73.7533C29.6175 73.7469 29.5778 73.7469 29.5389 73.7533C29.358 73.7127 29.1735 73.6901 28.9881 73.6859C28.8272 73.6859 28.6725 73.6491 28.5239 73.6368C27.866 73.597 27.2059 73.6093 26.5499 73.6736C24.6965 73.8591 22.9146 74.4796 21.3518 75.4838C19.7891 76.4879 18.4907 77.8466 17.5643 79.4473C17.4669 79.5985 17.3801 79.7562 17.3044 79.9192C17.0644 80.3506 16.8575 80.7993 16.6856 81.2615C16.6126 81.4416 16.5506 81.6258 16.4999 81.8132C16.4341 81.9913 16.3804 82.1735 16.339 82.3586C16.2781 82.5422 16.2346 82.731 16.2091 82.9225C16.2063 82.9283 16.2049 82.9346 16.2049 82.9409C16.2049 82.9473 16.2063 82.9536 16.2091 82.9593C16.1286 83.3271 16.0791 83.6887 16.0358 84.0564C16.1471 84.3629 16.1472 84.559 16.1348 84.7552Z" stroke="#D05011" stroke-miterlimit="10"/>
</g>
<defs>
<filter id="filter0_d_2070_9581" x="32.4893" y="87.9339" width="117.364" height="178.754" filterUnits="userSpaceOnUse" color-interpolation-filters="sRGB">
<feFlood flood-opacity="0" result="BackgroundImageFix"/>
<feColorMatrix in="SourceAlpha" type="matrix" values="0 0 0 0 0 0 0 0 0 0 0 0 0 0 0 0 0 0 127 0" result="hardAlpha"/>
<feOffset dy="4"/>
<feGaussianBlur stdDeviation="7"/>
<feComposite in2="hardAlpha" operator="out"/>
<feColorMatrix type="matrix" values="0 0 0 0 0 0 0 0 0 0 0 0 0 0 0 0 0 0 0.15 0"/>
<feBlend mode="normal" in2="BackgroundImageFix" result="effect1_dropShadow_2070_9581"/>
<feBlend mode="normal" in="SourceGraphic" in2="effect1_dropShadow_2070_9581" result="shape"/>
</filter>
<filter id="filter1_d_2070_9581" x="120.854" y="175.368" width="117.364" height="177.824" filterUnits="userSpaceOnUse" color-interpolation-filters="sRGB">
<feFlood flood-opacity="0" result="BackgroundImageFix"/>
<feColorMatrix in="SourceAlpha" type="matrix" values="0 0 0 0 0 0 0 0 0 0 0 0 0 0 0 0 0 0 127 0" result="hardAlpha"/>
<feOffset dy="4"/>
<feGaussianBlur stdDeviation="7"/>
<feComposite in2="hardAlpha" operator="out"/>
<feColorMatrix type="matrix" values="0 0 0 0 0 0 0 0 0 0 0 0 0 0 0 0 0 0 0.15 0"/>
<feBlend mode="normal" in2="BackgroundImageFix" result="effect1_dropShadow_2070_9581"/>
<feBlend mode="normal" in="SourceGraphic" in2="effect1_dropShadow_2070_9581" result="shape"/>
</filter>
<filter id="filter2_d_2070_9581" x="-63.874" y="0.5" width="133.364" height="193.824" filterUnits="userSpaceOnUse" color-interpolation-filters="sRGB">
<feFlood flood-opacity="0" result="BackgroundImageFix"/>
<feColorMatrix in="SourceAlpha" type="matrix" values="0 0 0 0 0 0 0 0 0 0 0 0 0 0 0 0 0 0 127 0" result="hardAlpha"/>
<feOffset dy="12"/>
<feGaussianBlur stdDeviation="11"/>
<feComposite in2="hardAlpha" operator="out"/>
<feColorMatrix type="matrix" values="0 0 0 0 0 0 0 0 0 0 0 0 0 0 0 0 0 0 0.15 0"/>
<feBlend mode="normal" in2="BackgroundImageFix" result="effect1_dropShadow_2070_9581"/>
<feBlend mode="normal" in="SourceGraphic" in2="effect1_dropShadow_2070_9581" result="shape"/>
</filter>
</defs>
</svg>
