<svg width="40" height="40" viewBox="0 0 40 40" fill="none" xmlns="http://www.w3.org/2000/svg">
<path d="M0.015625 0.015625C5.23841 0.015625 10.2473 2.09037 13.9403 5.78343C17.6334 9.4765 19.7082 14.4854 19.7082 19.7082V19.7082C14.4854 19.7082 9.4765 17.6334 5.78343 13.9403C2.09037 10.2473 0.015625 5.23841 0.015625 0.015625L0.015625 0.015625Z" fill="#0593F7"/>
<path d="M39.4445 39.4444C34.2217 39.4444 29.2128 37.3697 25.5197 33.6766C21.8267 29.9835 19.7519 24.9747 19.7519 19.7519V19.7519C24.9747 19.7519 29.9836 21.8266 33.6767 25.5197C37.3697 29.2127 39.4445 34.2216 39.4445 39.4444V39.4444Z" fill="#FF7C02"/>
<path d="M0 39.4319C0 34.2092 2.07474 29.2003 5.76781 25.5072C9.46087 21.8142 14.4697 19.7394 19.6925 19.7394V19.7394C19.6925 24.9622 17.6178 29.9711 13.9247 33.6641C10.2317 37.3572 5.22278 39.4319 0 39.4319H0Z" fill="#FFBE00"/>
<path d="M39.4319 0C39.4319 5.22278 37.3572 10.2317 33.6641 13.9247C29.9711 17.6178 24.9622 19.6925 19.7394 19.6925V19.6925C19.7394 14.4697 21.8142 9.46087 25.5072 5.76781C29.2003 2.07474 34.2092 0 39.4319 0V0Z" fill="#F31958"/>
</svg>
