<svg width="406" height="340" viewBox="0 0 406 340" fill="none" xmlns="http://www.w3.org/2000/svg">
<path d="M338.349 339.825V271.998H405.996V339.825H338.349Z" fill="#C50034"/>
<path d="M338.53 305.921L347.897 296.529L357.264 305.921L347.897 315.313L338.53 305.921Z" fill="#FF7C02"/>
<path d="M387.007 305.915L396.375 296.522L405.742 305.915L396.375 315.307L387.007 305.915Z" fill="#FF7C02"/>
<path d="M381.533 339.844L372.175 330.461L362.817 339.844H381.533Z" fill="#FF7C02"/>
<path d="M372.175 281.399L381.533 272.016H362.817L372.175 281.399Z" fill="#FF7C02"/>
<path d="M372.174 305.761L405.829 272.016H392.807L372.174 292.704L351.541 272.016H338.463L372.174 305.761Z" fill="#FF7C02"/>
<path d="M351.542 339.844L372.175 319.156L392.807 339.844H405.83L372.175 306.043L338.464 339.844H351.542Z" fill="#FF7C02"/>
<path d="M372.174 305.761L405.829 272.016H392.807L372.174 292.704L351.541 272.016H338.463L372.174 305.761Z" fill="#FF7C02"/>
<path d="M351.542 339.844L372.175 319.156L392.807 339.844H405.83L372.175 306.043L338.464 339.844H351.542Z" fill="#FF7C02"/>
<path d="M135.349 339.819V271.991H202.997V339.819H135.349Z" fill="#FFBE00"/>
<path d="M155.139 339.843H169.175L202.999 305.929L169.175 272.016H155.139L188.962 305.929L155.139 339.843Z" fill="#FF7C02"/>
<path d="M135.352 339.843H149.332L183.156 305.93L149.332 272.016H135.352L169.175 305.93L135.352 339.843Z" fill="#FF7C02"/>
<path d="M405.999 0.593018V68.4205L359.322 19.3021C371.442 7.71491 387.903 0.593018 405.999 0.593018Z" fill="#F31958"/>
<path d="M359.322 19.3021L405.999 68.4206H338.351C338.351 49.1462 346.412 31.6806 359.322 19.3021Z" fill="#FF7C02"/>
<path d="M202.999 272.016H270.647V339.844H202.999V272.016Z" fill="#01385E"/>
<path d="M236.992 325.769C226.064 325.769 217.205 316.887 217.205 305.93C217.205 294.973 226.064 286.09 236.992 286.09C247.92 286.09 256.779 294.973 256.779 305.93C256.779 316.887 247.92 325.769 236.992 325.769Z" fill="#0593F7"/>
<path d="M236.992 316.726C231.046 316.726 226.225 311.892 226.225 305.93C226.225 299.968 231.046 295.134 236.992 295.134C242.939 295.134 247.76 299.968 247.76 305.93C247.76 311.892 242.939 316.726 236.992 316.726Z" fill="#F31958"/>
<path fill-rule="evenodd" clip-rule="evenodd" d="M338.351 136.305V204.132H270.647L338.351 136.305Z" fill="#FF7C02"/>
<path d="M67.6802 339.805L67.6802 271.977H135.328V339.805H67.6802Z" fill="#F31958"/>
<path d="M84.6725 339.843H67.7042V322.829C67.7042 313.503 75.2581 305.929 84.5597 305.929C75.2581 305.929 67.7042 298.355 67.7042 289.029V272.015H84.6725C93.974 272.015 101.528 279.589 101.528 288.916C101.528 279.589 109.082 272.015 118.384 272.015H135.352V289.029C135.352 298.355 127.798 305.929 118.496 305.929C127.798 305.929 135.352 313.503 135.352 322.829V339.843H118.384C109.082 339.843 101.528 332.269 101.528 322.942C101.472 332.269 93.974 339.843 84.6725 339.843ZM118.496 305.929C109.082 305.929 101.528 298.298 101.528 288.916C101.528 298.355 93.9176 305.929 84.5597 305.929C93.974 305.929 101.528 313.56 101.528 322.942C101.472 313.56 109.082 305.929 118.496 305.929Z" fill="white"/>
<path d="M338.357 136.277V68.4498L406.004 68.4498V136.277H338.357Z" fill="#01385E"/>
<path d="M353.853 102.391L338.351 116.408L359.209 115.335L358.138 136.305L372.175 120.704L386.155 136.305L385.084 115.335L405.999 116.408L390.496 102.391L405.999 88.3166L385.084 89.3905L386.155 68.4205L372.175 84.0209L358.138 68.4205L359.209 89.3905L338.351 88.3166L353.853 102.391Z" fill="white"/>
<path d="M304.471 272.016C323.13 272.016 338.295 256.811 338.295 238.102V204.189H304.471V272.016Z" fill="#0593F7"/>
<path d="M270.647 238.046C270.647 256.755 285.811 271.96 304.471 271.96V204.132H270.647V238.046Z" fill="#01385E"/>
<path d="M304.471 254.607C294.508 254.607 286.432 246.509 286.432 236.52C286.432 226.53 294.508 218.432 304.471 218.432C314.434 218.432 322.51 226.53 322.51 236.52C322.51 246.509 314.434 254.607 304.471 254.607Z" fill="#FFBE00"/>
<path d="M405.999 136.305L372.175 170.218L338.351 136.305H405.999Z" fill="#FF7C02"/>
<path d="M338.351 136.305L372.175 170.218L338.351 204.132V136.305Z" fill="#FFBE00"/>
<path d="M338.351 204.132L372.175 170.218L405.999 204.132H338.351Z" fill="#FF7C02"/>
<path d="M405.999 204.132L372.175 170.218L405.999 136.305V204.132Z" fill="#FFBE00"/>
<path d="M338.351 204.132H405.999V271.96H338.351V204.132Z" fill="#F31958"/>
<path d="M372.231 257.772C361.334 257.772 352.501 248.915 352.501 237.989C352.501 227.063 361.334 218.206 372.231 218.206C383.128 218.206 391.962 227.063 391.962 237.989C391.962 248.915 383.128 257.772 372.231 257.772Z" fill="#FFBE00"/>
<path d="M372.231 248.785C366.285 248.785 361.464 243.952 361.464 237.989C361.464 232.027 366.285 227.193 372.231 227.193C378.178 227.193 382.999 232.027 382.999 237.989C382.999 243.952 378.178 248.785 372.231 248.785Z" fill="#01385E" stroke="white" stroke-width="3.3081" stroke-miterlimit="10"/>
<path d="M270.647 204.132V271.96H202.999C202.999 253.816 210.102 237.311 221.659 225.159C234.004 212.215 251.367 204.132 270.647 204.132Z" fill="#FF7C02"/>
<path d="M270.647 230.133V271.96H228.931C228.931 260.768 233.328 250.594 240.431 243.076C248.041 235.107 258.752 230.133 270.647 230.133Z" fill="#01385E"/>
<path d="M67.6477 272.016V339.844H3.8147e-05C3.8147e-05 321.7 7.10307 305.195 18.6595 293.043C31.0052 280.099 48.3681 272.016 67.6477 272.016Z" fill="#FF7C02"/>
<path d="M67.6476 298.017V339.844H25.9316C25.9316 328.652 30.3287 318.478 37.4317 310.96C45.0421 302.991 55.7529 298.017 67.6476 298.017Z" fill="#01385E"/>
<path d="M304.471 272.129C323.13 272.129 338.295 287.334 338.295 306.043V339.957H304.471V272.129Z" fill="#01385E"/>
<path d="M270.647 306.043C270.647 287.334 285.811 272.129 304.471 272.129V339.957H270.647V306.043Z" fill="#FF7C02"/>
<path d="M304.471 325.713C294.508 325.713 286.432 317.615 286.432 307.626C286.432 297.636 294.508 289.538 304.471 289.538C314.434 289.538 322.51 297.636 322.51 307.626C322.51 317.615 314.434 325.713 304.471 325.713Z" fill="#F31958"/>
</svg>