<svg width="271" height="306" viewBox="0 0 271 306" fill="none" xmlns="http://www.w3.org/2000/svg">
<path d="M101.142 67.865V135.757H169.035V67.865H101.142Z" fill="#01385E"/>
<path d="M101.105 101.763C101.105 120.518 116.322 135.734 135.077 135.734C153.832 135.734 169.048 120.518 169.048 101.763C169.048 83.0076 153.832 67.7912 135.077 67.7912C116.322 67.8418 101.105 83.0076 101.105 101.763ZM152.164 101.763C152.164 111.216 144.53 118.849 135.077 118.849C125.624 118.849 117.99 111.216 117.99 101.763C117.99 92.3093 125.624 84.6758 135.077 84.6758C144.53 84.6758 152.164 92.3598 152.164 101.763Z" fill="#F31958"/>
<path d="M67.6099 0.157394V67.7464H135.199V0.157394H67.6099Z" fill="#0593F7"/>
<path d="M83.1087 33.9209L67.589 19.9683L88.4673 21.03L87.4057 0.151672L101.409 15.6714L115.412 0.151672L114.35 21.03L135.178 19.9683L119.709 33.9209L135.178 47.924L114.35 46.8624L115.412 67.7407L101.409 52.221L87.4057 67.7407L88.4673 46.8624L67.589 47.924L83.1087 33.9209Z" fill="#0074AF"/>
<path fill-rule="evenodd" clip-rule="evenodd" d="M185.781 237.345C176.53 237.345 169.048 229.863 169.048 220.612V46.003H202.514V220.612C202.514 229.813 195.032 237.345 185.781 237.345Z" fill="#C50034"/>
<path d="M185.427 166.47C188.219 166.47 190.483 164.207 190.483 161.415C190.483 158.623 188.219 156.36 185.427 156.36C182.636 156.36 180.372 158.623 180.372 161.415C180.372 164.207 182.636 166.47 185.427 166.47Z" fill="white"/>
<path d="M185.427 186.489C188.219 186.489 190.483 184.226 190.483 181.434C190.483 178.642 188.219 176.378 185.427 176.378C182.636 176.378 180.372 178.642 180.372 181.434C180.372 184.226 182.636 186.489 185.427 186.489Z" fill="white"/>
<path d="M185.427 206.508C188.219 206.508 190.483 204.245 190.483 201.453C190.483 198.661 188.219 196.397 185.427 196.397C182.636 196.397 180.372 198.661 180.372 201.453C180.372 204.245 182.636 206.508 185.427 206.508Z" fill="white"/>
<path d="M185.427 108.84C188.219 108.84 190.483 106.577 190.483 103.785C190.483 100.993 188.219 98.7295 185.427 98.7295C182.636 98.7295 180.372 100.993 180.372 103.785C180.372 106.577 182.636 108.84 185.427 108.84Z" fill="white"/>
<path d="M185.427 128.859C188.219 128.859 190.483 126.596 190.483 123.804C190.483 121.012 188.219 118.748 185.427 118.748C182.636 118.748 180.372 121.012 180.372 123.804C180.372 126.596 182.636 128.859 185.427 128.859Z" fill="white"/>
<path d="M185.427 148.878C188.219 148.878 190.483 146.614 190.483 143.822C190.483 141.031 188.219 138.767 185.427 138.767C182.636 138.767 180.372 141.031 180.372 143.822C180.372 146.614 182.636 148.878 185.427 148.878Z" fill="white"/>
<path d="M270.558 237.598L236.587 203.626L202.615 237.598H270.558Z" fill="#FFBE00"/>
<path d="M202.615 169.655V237.598L236.587 203.626L202.615 169.655Z" fill="#FF7C02"/>
<path d="M270.558 237.598V169.655L236.587 203.626L270.558 237.598Z" fill="#FF7C02"/>
<path d="M202.615 169.655L236.587 203.626L270.558 169.655H202.615Z" fill="#FFBE00"/>
<path d="M168.998 0.151672H135.178V67.8418H168.998V0.151672Z" fill="#FF7C02"/>
<path d="M202.868 0.151672H169.048V67.8418H202.868V0.151672Z" fill="#F31958"/>
<path d="M169.048 20.5244C161.668 20.5244 155.753 26.4896 155.753 33.8198H182.394C182.344 26.4896 176.378 20.5244 169.048 20.5244Z" fill="#FFBE00"/>
<path d="M169.048 47.1657C176.429 47.1657 182.344 41.2004 182.344 33.8703H155.702C155.702 41.2004 161.668 47.1657 169.048 47.1657Z" fill="#0074AF"/>
<path d="M270.558 169.656V101.713H202.615C202.615 119.912 209.743 136.393 221.37 148.626C233.756 161.568 251.197 169.656 270.558 169.656Z" fill="#F31958"/>
<path d="M270.558 143.57V101.662H228.65C228.65 112.884 233.048 123.045 240.227 130.578C247.86 138.616 258.628 143.57 270.558 143.57Z" fill="#01385E"/>
<path d="M202.878 0.00128937V67.6914H270.568V0.00128937H202.878Z" fill="#C50034"/>
<path d="M203.103 33.8609L212.468 43.2263L221.834 33.8609L212.468 24.4955L203.103 33.8609Z" fill="#FF7C02"/>
<path d="M251.585 33.862L260.95 43.2274L270.316 33.8619L260.95 24.4965L251.585 33.862Z" fill="#FF7C02"/>
<path d="M246.091 0L236.738 9.35226L227.336 0H246.091Z" fill="#FF7C02"/>
<path d="M236.738 58.3378L246.091 67.6901H227.336L236.738 58.3378Z" fill="#FF7C02"/>
<path d="M236.738 33.9714L270.407 67.6901H257.364L236.738 47.0646L216.062 67.6901H203.02L236.738 33.9714Z" fill="#FF7C02"/>
<path d="M216.063 0L236.739 20.6255L257.365 0H270.408L236.739 33.7187L203.021 0H216.063Z" fill="#FF7C02"/>
<path d="M236.738 33.9714L270.407 67.6901H257.364L236.738 47.0646L216.062 67.6901H203.02L236.738 33.9714Z" fill="#FF7C02"/>
<path d="M216.063 0L236.739 20.6255L257.365 0H270.408L236.739 33.7187L203.021 0H216.063Z" fill="#FF7C02"/>
<path d="M67.589 67.7407V0.151672H0C0 18.199 7.07738 34.6286 18.654 46.7613C30.9888 59.7028 48.3284 67.7407 67.589 67.7407Z" fill="#FF7C02"/>
<path d="M67.5889 41.8577V0.151672H25.8829C25.8829 11.3238 30.281 21.4344 37.409 28.9162C44.9919 36.853 55.709 41.8577 67.5889 41.8577Z" fill="#01385E"/>
<path d="M270.558 305.591V237.648H202.615C202.615 255.847 209.743 272.328 221.37 284.561C233.756 297.452 251.197 305.591 270.558 305.591Z" fill="#01385E"/>
<path d="M134.875 169.908H169.048V135.734H100.701C100.701 154.59 116.019 169.908 134.875 169.908Z" fill="#FF7C02"/>
<path d="M152.012 159.342C155.614 159.342 158.533 156.422 158.533 152.821C158.533 149.219 155.614 146.299 152.012 146.299C148.41 146.299 145.491 149.219 145.491 152.821C145.491 156.422 148.41 159.342 152.012 159.342Z" fill="#FFBE00"/>
<path d="M241.693 281.528C250.013 281.528 256.757 274.784 256.757 266.464C256.757 258.143 250.013 251.399 241.693 251.399C233.373 251.399 226.628 258.143 226.628 266.464C226.628 274.784 233.373 281.528 241.693 281.528Z" fill="#F31958" stroke="white" stroke-width="6.1917" stroke-miterlimit="10"/>
<path d="M236.587 67.6901C217.832 67.6901 202.615 82.9065 202.615 101.662H270.558V67.6901H236.587Z" fill="#0593F7"/>
<path d="M234.565 90.8432C237.385 90.8432 239.671 88.5573 239.671 85.7374C239.671 82.9176 237.385 80.6316 234.565 80.6316C231.745 80.6316 229.459 82.9176 229.459 85.7374C229.459 88.5573 231.745 90.8432 234.565 90.8432Z" fill="white"/>
<path d="M249.276 90.8432C252.095 90.8432 254.381 88.5573 254.381 85.7374C254.381 82.9176 252.095 80.6316 249.276 80.6316C246.456 80.6316 244.17 82.9176 244.17 85.7374C244.17 88.5573 246.456 90.8432 249.276 90.8432Z" fill="white"/>
</svg>
