<svg width="115" height="151" viewBox="0 0 115 151" fill="none" xmlns="http://www.w3.org/2000/svg">
<mask id="mask0" mask-type="alpha" maskUnits="userSpaceOnUse" x="0" y="0" width="115" height="151">
<path fill-rule="evenodd" clip-rule="evenodd" d="M67.278 67.7668C70.7816 79.8598 70.5641 83.9842 71.4641 95.5336C71.332 96.8084 71.4091 98.4532 71.3458 99.8709C70.7238 113.707 67.2533 126.887 59.082 137.747C58.3251 138.753 57.516 139.776 56.605 140.79C53.8528 143.858 47.5227 149.546 43.5844 151L47.8365 145.192C49.2621 143.256 49.419 142.706 50.5226 140.989C50.9094 140.421 51.2535 139.824 51.552 139.204C51.8272 138.624 51.94 137.949 52.3996 137.428L54.6014 130.703C55.2647 128.375 55.6748 126.22 56.1757 123.732C57.0976 119.137 57.5215 113.858 57.6673 108.82C58.4435 81.9724 50.319 49.291 35.8865 26.5676C34.5544 24.469 28.3675 15.6178 27.0574 15.0798C26.6528 14.5194 26.1629 14.1132 25.8602 13.5556C25.2547 13.3174 24.9272 12.9112 24.5859 12.3592C26.0611 12.7122 32.526 16.9599 33.7755 17.9013C36.7204 20.1204 39.3102 22.1042 42.222 24.9341C54.062 36.4723 62.5608 51.4933 67.278 67.7668ZM48.1227 69.4479L47.7649 67.8228C47.8833 68.6634 47.3273 73.0876 47.1952 74.1383C47.0714 75.1161 46.8567 76.2369 46.6448 77.198C46.5265 77.7191 46.1659 79.7197 45.8191 80.1343C45.599 82.6729 42.3761 89.0024 40.945 91.1682C39.5139 93.3341 39.2937 93.8581 37.5598 96.0716C33.3021 101.541 25.0098 104.587 21.2365 98.9071C18.4403 94.679 20.4686 88.8483 22.2934 86.4358L21.853 86.5563L21.209 87.013C17.8128 88.5877 14.1331 92.4319 12.9359 94.7491C11.1002 98.3047 11.1992 103.396 12.8093 107.111C16.2881 115.141 25.3923 116.584 33.9186 111.709C41.523 107.36 44.9412 100.936 46.9365 94.1579C48.8053 87.82 49.7988 77.3997 48.1227 69.4451V69.4479ZM31.3343 75.8755C37.0149 72.7373 42.7504 66.349 45.0623 60.8545C44.6802 61.0283 44.3191 61.2464 43.9862 61.5045C43.3587 61.922 43.2101 61.8828 42.9348 62.4824C41.3138 63.1856 37.7057 66.646 30.7839 68.9267C26.0226 70.4986 20.6861 71.3952 16.899 69.6664C13.7615 68.2347 9.38004 64.864 11.3947 59.6805C12.0084 58.1086 13.5138 56.3182 15.0909 55.1022C17.2155 53.4491 18.6962 52.9027 21.4484 51.9332L20.0173 51.7707C18.0907 50.6051 10.8855 51.5634 8.10853 52.5132C-1.17739 55.6822 -4.38645 72.3535 8.79382 78.0105C15.1211 80.7171 23.8786 79.9943 31.3371 75.8727L31.3343 75.8755ZM79.5391 24.9369C85.6242 24.9229 89.3038 21.4738 92.0148 17.8761C93.1156 16.4107 94.0404 14.0824 94.3018 11.6027C94.522 9.50124 93.9193 5.21714 92.4881 3.833L92.2817 4.79685C91.7753 7.24011 90.2644 9.78984 87.4489 11.0843C84.2426 12.5553 80.6014 12.362 77.4419 13.6481C69.9972 16.6769 73.5751 25.0798 79.5391 24.9369ZM50.1511 28.938C51.8299 30.3754 56.4564 32.673 59.8306 31.8548C61.1599 32.0509 63.7387 30.3838 64.6937 29.6133C73.0163 22.998 68.7202 14.1188 63.1772 6.86746C60.0728 2.81871 58.1022 1.66153 56.7206 0C56.3958 0.322219 56.5307 -0.28019 56.4619 0.481927C56.0105 3.53039 53.7097 7.55392 52.4712 9.68617C49.5401 14.7548 43.8871 23.5752 50.1511 28.938ZM114.61 51.9977L113.639 48.2487C112.904 47.3213 112.425 45.4468 111.825 44.2924C111.209 43.1064 110.518 41.9618 109.758 40.8657C102.743 30.7509 88.6598 26.3126 76.5915 28.6466C70.1623 29.8907 66.3285 32.4432 62.2002 36.0577C63.1305 35.8531 64.069 35.3852 65.0405 35.1078C66.012 34.8304 67.0606 34.6679 68.0459 34.3877C72.2788 33.0092 79.7812 33.6424 83.3316 34.5054C93.8395 37.0579 101.447 43.2109 99.509 55.1806C99.1237 57.5594 98.1769 59.8542 96.7568 61.3168C95.6064 62.516 91.2111 64.8808 89.3589 64.0542C89.3589 64.0542 90.2368 58.5065 87.2342 55.783C81.5619 50.6331 74.4227 52.8494 70.9962 58.7474C68.4697 63.0988 68.7945 67.5594 71.0898 72.4039C73.1567 76.7805 77.0098 78.7474 80.3097 80.0111C92.6946 84.7435 108.638 77.3072 113.498 65.161C116.168 58.5037 114.426 53.3538 114.61 51.9977Z" fill="black"/>
</mask>
<g mask="url(#mask0)">
<path d="M57.6916 0H28.0036V30.2241H57.6916V0Z" fill="#F31958"/>
<path d="M28.0036 0H-1.68433V30.2241H28.0036V0Z" fill="#FF7C02"/>
<path d="M42.849 30.2269C51.0478 30.2269 57.6943 23.4604 57.6943 15.1134C57.6943 6.76652 51.0478 0 42.849 0C34.6501 0 28.0036 6.76652 28.0036 15.1134C28.0036 23.4604 34.6501 30.2269 42.849 30.2269Z" fill="#01385E"/>
<path d="M13.1583 6.9347L19.3094 0L18.8416 9.33033L28.0036 8.854L21.1947 15.1134L28.0036 21.3729L18.8416 20.8966L19.3094 30.2269L13.1583 23.2922L7.00986 30.2269L7.47774 20.8966L-1.68433 21.3729L5.12736 15.1134L-1.68433 8.854L7.47774 9.33033L7.00986 0L13.1583 6.9347Z" fill="#F31958"/>
<path d="M57.6916 60.451H28.0036V90.6751H57.6916V60.451Z" fill="#0593F7"/>
<path d="M57.6916 90.6751H28.0036V120.899H57.6916V90.6751Z" fill="#F31958"/>
<path d="M28.0009 90.6751H-1.68709V120.899H28.0009V90.6751Z" fill="#FF7C02"/>
<path d="M57.6916 120.902H28.0036V151.126H57.6916V120.902Z" fill="#01385E"/>
<path d="M28.0009 120.902H-1.68709V151.126H28.0009V120.902Z" fill="#0593F7"/>
<path d="M28.0036 90.7451H13.1583V105.859H28.0036V90.7451Z" fill="#FFBE00"/>
<path d="M13.1583 105.721H-1.68709V120.835H13.1583V105.721Z" fill="#FFBE00"/>
<path d="M57.6916 128.492V120.902H50.2359C48.2767 120.902 46.3979 121.694 45.0125 123.105C43.6272 124.515 42.849 126.428 42.849 128.422C42.8482 126.428 42.0694 124.515 40.6836 123.104C39.2979 121.694 37.4187 120.902 35.4593 120.902H28.0036V128.492C28.0036 130.487 28.7818 132.4 30.167 133.811C31.5523 135.222 33.4311 136.015 35.3905 136.015C33.4314 136.015 31.5525 136.808 30.1672 138.218C28.7819 139.628 28.0036 141.541 28.0036 143.536V151.126H35.4593C36.4296 151.126 37.3905 150.932 38.287 150.554C39.1835 150.177 39.9982 149.623 40.6844 148.924C41.3707 148.226 41.915 147.397 42.2864 146.484C42.6578 145.572 42.849 144.594 42.849 143.606C42.849 145.6 43.6272 147.513 45.0125 148.923C46.3979 150.334 48.2767 151.126 50.2359 151.126H57.6916V143.536C57.6916 141.541 56.9133 139.628 55.528 138.218C54.1427 136.808 52.2638 136.015 50.3047 136.015C51.275 136.015 52.2358 135.821 53.1322 135.443C54.0286 135.065 54.843 134.51 55.529 133.812C56.2149 133.113 56.759 132.284 57.1301 131.371C57.5011 130.458 57.6919 129.48 57.6916 128.492ZM42.849 143.606C42.849 142.609 42.656 141.622 42.2812 140.7C41.9063 139.779 41.3569 138.942 40.6643 138.238C39.9717 137.533 39.1494 136.974 38.2445 136.592C37.3396 136.211 36.3698 136.015 35.3905 136.015C37.3686 136.015 39.2657 135.215 40.6644 133.791C42.0632 132.367 42.849 130.436 42.849 128.422C42.8486 129.419 43.0412 130.407 43.4157 131.328C43.7902 132.249 44.3394 133.086 45.0317 133.791C45.7241 134.496 46.5461 135.056 47.4509 135.437C48.3556 135.819 49.3253 136.015 50.3047 136.015C48.3273 136.015 46.4309 136.815 45.0327 138.239C43.6345 139.662 42.849 141.593 42.849 143.606Z" fill="#FF7C02"/>
<path d="M42.849 90.6779C51.0478 90.6779 57.6943 83.9114 57.6943 75.5645C57.6943 67.2175 51.0478 60.451 42.849 60.451C34.6501 60.451 28.0036 67.2175 28.0036 75.5645C28.0036 83.9114 34.6501 90.6779 42.849 90.6779Z" fill="#FF7C02"/>
<path d="M42.849 90.6751C39.9127 90.6745 37.0422 91.5604 34.6006 93.2208C32.1589 94.8811 30.2557 97.2414 29.1317 100.003C28.0077 102.765 27.7133 105.803 28.2858 108.735C28.8583 111.667 30.2719 114.36 32.348 116.474C34.424 118.588 37.0692 120.028 39.949 120.611C42.8288 121.195 45.8139 120.896 48.5266 119.752C51.2394 118.608 53.5581 116.671 55.1895 114.185C56.8208 111.7 57.6916 108.778 57.6916 105.789C57.6916 101.781 56.1279 97.9369 53.3444 95.1027C50.561 92.2685 46.7857 90.6758 42.849 90.6751ZM42.849 113.399C41.3706 113.399 39.9253 112.952 38.6961 112.116C37.4668 111.28 36.5088 110.091 35.943 108.701C35.3772 107.31 35.2292 105.78 35.5176 104.304C35.806 102.828 36.518 101.472 37.5634 100.407C38.6088 99.3432 39.9407 98.6184 41.3907 98.3248C42.8407 98.0312 44.3436 98.1819 45.7095 98.7578C47.0754 99.3338 48.2428 100.309 49.0642 101.561C49.8855 102.812 50.3239 104.283 50.3239 105.789C50.3239 107.807 49.5364 109.742 48.1346 111.17C46.7327 112.597 44.8314 113.399 42.849 113.399Z" fill="#01385E"/>
<path d="M28.0036 129.756V136.015L13.1583 151.129L-1.68433 136.015V129.756L13.1583 144.867L28.0036 129.756Z" fill="#F31958"/>
<path d="M28.0036 120.902V127.161L13.1583 142.275L-1.68433 127.161V120.902L13.1583 136.015L28.0036 120.902Z" fill="#F31958"/>
<path d="M57.6916 30.2241H28.0036V60.4482H57.6916V30.2241Z" fill="#FFBE00"/>
<path d="M28.0036 30.2241H-1.68433V60.4482H28.0036V30.2241Z" fill="#0593F7"/>
<path d="M28.0036 60.451H-1.68433V90.6751H28.0036V60.451Z" fill="#F31958"/>
<path d="M57.6943 30.2241H42.849V45.3375H57.6943V30.2241Z" fill="#F31958"/>
<path d="M42.849 45.3375H28.0036V60.451H42.849V45.3375Z" fill="#F31958"/>
<path d="M28.0036 68.0413V60.451H20.5479C18.5888 60.451 16.7099 61.2433 15.3246 62.6536C13.9393 64.064 13.161 65.9768 13.161 67.9713C13.1603 65.978 12.3826 64.0665 10.9986 62.6564C9.61463 61.2464 7.73758 60.4532 5.77963 60.451H-1.68433V68.0413C-1.68433 70.0361 -0.906157 71.9492 0.479076 73.36C1.86431 74.7708 3.74319 75.5637 5.70257 75.5644C3.74344 75.5644 1.86456 76.3568 0.479244 77.7671C-0.906068 79.1774 -1.68433 81.0902 -1.68433 83.0847V90.6751H5.77963C6.74992 90.6755 7.71078 90.4812 8.60732 90.1034C9.50386 89.7257 10.3185 89.1718 11.0047 88.4734C11.691 87.7751 12.2353 86.9459 12.6067 86.0333C12.9781 85.1207 13.1693 84.1426 13.1693 83.1548C13.1689 84.1425 13.3597 85.1205 13.7308 86.0331C14.1019 86.9457 14.646 87.7749 15.332 88.4733C16.0181 89.1717 16.8325 89.7256 17.7289 90.1034C18.6253 90.4812 19.586 90.6755 20.5562 90.6751H28.0119V83.0847C28.0119 81.0902 27.2336 79.1774 25.8483 77.7671C24.463 76.3568 22.5841 75.5644 20.625 75.5644C22.5829 75.5615 24.4597 74.7676 25.8431 73.357C27.2266 71.9465 28.0036 70.0347 28.0036 68.0413ZM13.161 83.1548C13.161 82.1578 12.9681 81.1705 12.5932 80.2494C12.2184 79.3284 11.6689 78.4915 10.9763 77.7866C10.2837 77.0818 9.46147 76.5227 8.55659 76.1414C7.6517 75.7601 6.6819 75.5641 5.70257 75.5644C7.68067 75.5644 9.57776 74.7645 10.9765 73.3405C12.3752 71.9165 13.161 69.9851 13.161 67.9713C13.1607 68.9683 13.3532 69.9556 13.7278 70.8769C14.1023 71.7981 14.6514 72.6352 15.3438 73.3403C16.0361 74.0454 16.8582 74.6048 17.7629 74.9864C18.6677 75.368 19.6374 75.5644 20.6167 75.5644C18.6394 75.5644 16.743 76.3641 15.3447 77.7876C13.9465 79.2111 13.161 81.1417 13.161 83.1548Z" fill="#FF7C02"/>
<path d="M13.2199 30.3331L9.11362 34.5135L13.2199 38.6939L17.3262 34.5135L13.2199 30.3331Z" fill="#FFBE00"/>
<path d="M13.2194 51.9828L9.11312 56.1633L13.2194 60.3437L17.3256 56.1633L13.2194 51.9828Z" fill="#FFBE00"/>
<path d="M28.0642 49.518L23.9579 45.3375L28.0642 41.1571V49.518Z" fill="#FFBE00"/>
<path d="M2.47974 45.3375L-1.62379 49.518V41.1571L2.47974 45.3375Z" fill="#FFBE00"/>
<path d="M13.1555 45.3375L-1.62379 60.3866V54.5558L7.42819 45.3375L-1.62379 36.1193V30.2885L13.1555 45.3375Z" fill="#FFBE00"/>
<path d="M28.0642 36.1193L19.0094 45.3375L28.0642 54.5558V60.3866L13.2821 45.3375L28.0642 30.2885V36.1193Z" fill="#FFBE00"/>
<path d="M13.1555 45.3375L-1.62379 60.3866V54.5558L7.42819 45.3375L-1.62379 36.1193V30.2885L13.1555 45.3375Z" fill="#FFBE00"/>
<path d="M28.0642 36.1193L19.0094 45.3375L28.0642 54.5558V60.3866L13.2821 45.3375L28.0642 30.2885V36.1193Z" fill="#FFBE00"/>
<path d="M117.07 0H87.3823V30.2241H117.07V0Z" fill="#FF7C02"/>
<path d="M87.3823 0H57.6943V30.2241H87.3823V0Z" fill="#01385E"/>
<path d="M102.228 6.9347L108.376 0L107.908 9.33033L117.073 8.854L110.261 15.1134L117.073 21.3729L107.908 20.8966L108.376 30.2269L102.228 23.2922L96.0792 30.2269L96.5471 20.8966L87.3823 21.3729L94.194 15.1134L87.3823 8.854L96.5471 9.33033L96.0792 0L102.228 6.9347Z" fill="#F31958"/>
<path d="M72.5397 2.59844e-07C69.6034 -0.000553926 66.733 0.885363 64.2913 2.54571C61.8496 4.20606 59.9464 6.56627 58.8224 9.32784C57.6984 12.0894 57.404 15.1283 57.9765 18.0602C58.549 20.9921 59.9626 23.6853 62.0387 25.7993C64.1147 27.9132 66.7599 29.3529 69.6397 29.9363C72.5195 30.5197 75.5046 30.2205 78.2174 29.0767C80.9301 27.9329 83.2488 25.9958 84.8802 23.5103C86.5115 21.0249 87.3823 18.1027 87.3823 15.1134C87.3823 11.1056 85.8186 7.26186 83.0351 4.42762C80.2517 1.59338 76.4764 0.00074328 72.5397 2.59844e-07ZM72.5397 22.7234C71.0613 22.7234 69.6161 22.2771 68.3868 21.4409C67.1575 20.6047 66.1995 19.4162 65.6337 18.0257C65.0679 16.6351 64.9199 15.105 65.2083 13.6288C65.4968 12.1526 66.2087 10.7967 67.2541 9.7324C68.2995 8.66812 69.6314 7.94334 71.0814 7.64971C72.5314 7.35608 74.0343 7.50678 75.4002 8.08276C76.7661 8.65874 77.9335 9.63413 78.7549 10.8856C79.5762 12.137 80.0146 13.6083 80.0146 15.1134C80.0139 17.1315 79.2261 19.0667 77.8245 20.4937C76.4228 21.9207 74.5219 22.7227 72.5397 22.7234Z" fill="#0593F7"/>
<path d="M117.07 90.6751H87.3823V120.899H117.07V90.6751Z" fill="#FF7C02"/>
<path d="M117.07 120.902H87.3823V151.126H117.07V120.902Z" fill="#0593F7"/>
<path d="M87.3795 120.902H57.6916V151.126H87.3795V120.902Z" fill="#FFBE00"/>
<path d="M117.073 90.7451H102.228V105.859H117.073V90.7451Z" fill="#FFBE00"/>
<path d="M102.228 105.721H87.3823V120.835H102.228V105.721Z" fill="#FFBE00"/>
<path d="M72.5371 121.009L68.4308 125.189L72.5371 129.369L76.6433 125.189L72.5371 121.009Z" fill="#01385E"/>
<path d="M72.5366 142.658L68.4303 146.839L72.5366 151.019L76.6428 146.839L72.5366 142.658Z" fill="#01385E"/>
<path d="M87.3823 140.196L83.276 136.015L87.3823 131.835V140.196Z" fill="#01385E"/>
<path d="M61.7978 136.015L57.6943 140.196V131.835L61.7978 136.015Z" fill="#01385E"/>
<path d="M72.4736 136.015L57.6943 151.062V145.234L66.7463 136.015L57.6943 126.797V120.966L72.4736 136.015Z" fill="#01385E"/>
<path d="M87.3823 126.797L78.3276 136.015L87.3823 145.234V151.062L72.6002 136.015L87.3823 120.966V126.797Z" fill="#01385E"/>
<path d="M72.4736 136.015L57.6943 151.062V145.234L66.7463 136.015L57.6943 126.797V120.966L72.4736 136.015Z" fill="#01385E"/>
<path d="M87.3823 126.797L78.3276 136.015L87.3823 145.234V151.062L72.6002 136.015L87.3823 120.966V126.797Z" fill="#01385E"/>
<path d="M117.073 129.756V136.015L102.228 151.129L87.3823 136.015V129.756L102.228 144.867L117.073 129.756Z" fill="#F31958"/>
<path d="M117.073 120.902V127.161L102.228 142.275L87.3823 127.161V120.902L102.228 136.015L117.073 120.902Z" fill="#F31958"/>
<path d="M117.07 30.2241H87.3823V60.4482H117.07V30.2241Z" fill="#0593F7"/>
<path d="M87.3823 30.2241H57.6943V60.4482H87.3823V30.2241Z" fill="#FF7C02"/>
<path d="M117.07 60.451H87.3823V90.6751H117.07V60.451Z" fill="#F31958"/>
<path d="M87.3823 60.451H57.6943V90.6751H87.3823V60.451Z" fill="#01385E"/>
<path d="M87.3823 90.6751H57.6943V120.899H87.3823V90.6751Z" fill="#FFBE00"/>
<path d="M87.3823 69.305V75.5645L72.5369 90.6779L57.6943 75.5645V69.305L72.5369 84.4185L87.3823 69.305Z" fill="#0593F7"/>
<path d="M87.3823 60.451V66.7104L72.5369 81.8239L57.6943 66.7104V60.451L72.5369 75.5645L87.3823 60.451Z" fill="#0593F7"/>
<path d="M117.073 68.0413V60.451H109.615C107.655 60.451 105.777 61.2433 104.391 62.6536C103.006 64.064 102.228 65.9768 102.228 67.9713C102.228 65.9768 101.449 64.064 100.064 62.6536C98.6787 61.2433 96.7999 60.451 94.8407 60.451H87.3823V68.0413C87.3823 70.0366 88.1608 71.9501 89.5466 73.361C90.9325 74.7718 92.8121 75.5644 94.7719 75.5644C92.8125 75.5644 90.9334 76.3567 89.5476 77.7669C88.1619 79.1772 87.383 81.09 87.3823 83.0847V90.6751H94.8407C96.7999 90.6751 98.6787 89.8828 100.064 88.4725C101.449 87.0621 102.228 85.1493 102.228 83.1548C102.228 85.1493 103.006 87.0621 104.391 88.4725C105.777 89.8828 107.655 90.6751 109.615 90.6751H117.073V83.0847C117.072 81.09 116.293 79.1772 114.908 77.7669C113.522 76.3567 111.643 75.5644 109.683 75.5644C110.654 75.5644 111.615 75.3699 112.511 74.9918C113.408 74.6137 114.222 74.0596 114.909 73.361C115.595 72.6624 116.139 71.8331 116.511 70.9203C116.882 70.0076 117.073 69.0293 117.073 68.0413ZM102.228 83.1548C102.228 81.1417 101.442 79.2111 100.044 77.7876C98.6457 76.3641 96.7493 75.5644 94.7719 75.5644C95.7513 75.5644 96.721 75.368 97.6257 74.9864C98.5305 74.6048 99.3525 74.0454 100.045 73.3403C100.737 72.6352 101.286 71.7981 101.661 70.8769C102.035 69.9556 102.228 68.9683 102.228 67.9713C102.227 68.9683 102.42 69.9556 102.794 70.8769C103.169 71.7981 103.718 72.6352 104.41 73.3403C105.103 74.0454 105.925 74.6048 106.83 74.9864C107.734 75.368 108.704 75.5644 109.683 75.5644C107.706 75.5644 105.81 76.3641 104.411 77.7876C103.013 79.2111 102.228 81.1417 102.228 83.1548Z" fill="#FF7C02"/>
<path d="M72.5397 30.2241L57.6943 45.3375L72.5397 60.451L87.3823 45.3375L72.5397 30.2241ZM63.8978 45.3375L72.5397 36.5396L81.1898 45.3375L72.5507 54.1355L63.8978 45.3375Z" fill="#01385E"/>
<path d="M102.29 30.3328L98.1833 34.5132L102.29 38.6936L106.396 34.5132L102.29 30.3328Z" fill="#FFBE00"/>
<path d="M102.289 51.9826L98.1828 56.163L102.289 60.3434L106.395 56.163L102.289 51.9826Z" fill="#FFBE00"/>
<path d="M117.134 49.518L113.027 45.3375L117.134 41.1571V49.518Z" fill="#FFBE00"/>
<path d="M91.5491 45.3375L87.4428 49.518V41.1571L91.5491 45.3375Z" fill="#FFBE00"/>
<path d="M102.225 45.3375L87.4428 60.3866V54.5558L96.4976 45.3375L87.4428 36.1193V30.2885L102.225 45.3375Z" fill="#FFBE00"/>
<path d="M117.134 36.1193L108.079 45.3375L117.134 54.5558V60.3866L102.352 45.3375L117.134 30.2885V36.1193Z" fill="#FFBE00"/>
<path d="M102.225 45.3375L87.4428 60.3866V54.5558L96.4976 45.3375L87.4428 36.1193V30.2885L102.225 45.3375Z" fill="#FFBE00"/>
<path d="M117.134 36.1193L108.079 45.3375L117.134 54.5558V60.3866L102.352 45.3375L117.134 30.2885V36.1193Z" fill="#FFBE00"/>
<path d="M72.5369 97.6098L78.6881 90.6779L78.2202 100.005L87.3823 99.5291L80.5733 105.789L87.3823 112.048L78.2202 111.572L78.6881 120.902L72.5369 113.967L66.3885 120.902L66.8564 111.572L57.6943 112.048L64.506 105.789L57.6943 99.5291L66.8564 100.005L66.3885 90.6779L72.5369 97.6098Z" fill="#F31958"/>
</g>
</svg>
