<svg width="360" height="127" viewBox="0 0 360 127" fill="none" xmlns="http://www.w3.org/2000/svg">
<path d="M0 127L3.27836e-06 102L137.791 102C141.294 102 144.654 103.316 147.131 105.659C149.608 108.003 151 111.181 151 114.494V114.494C151 117.808 149.608 120.986 147.131 123.329C144.654 125.672 141.294 126.989 137.791 126.989L1.48599e-09 126.989L0 127Z" fill="#C52037"/>
<path d="M97.7137 114.548C97.7138 112.446 96.0098 110.742 93.9078 110.742C91.8059 110.742 90.1019 112.446 90.1019 114.548C90.1019 116.65 91.8059 118.354 93.9078 118.354C96.0098 118.354 97.7137 116.65 97.7137 114.548Z" fill="white"/>
<path d="M112.781 114.548C112.781 112.446 111.077 110.742 108.975 110.742C106.874 110.742 105.17 112.446 105.17 114.548C105.17 116.65 106.874 118.354 108.975 118.354C111.077 118.354 112.781 116.65 112.781 114.548Z" fill="white"/>
<path d="M127.849 114.548C127.849 112.446 126.145 110.742 124.043 110.742C121.941 110.742 120.237 112.446 120.237 114.548C120.237 116.65 121.941 118.354 124.043 118.354C126.145 118.354 127.849 116.65 127.849 114.548Z" fill="white"/>
<path d="M54.3151 114.548C54.3151 112.446 52.6111 110.742 50.5092 110.742C48.4072 110.742 46.7032 112.446 46.7032 114.548C46.7032 116.65 48.4072 118.354 50.5092 118.354C52.6111 118.354 54.3151 116.65 54.3151 114.548Z" fill="white"/>
<path d="M69.3826 114.548C69.3826 112.446 67.6786 110.742 65.5767 110.742C63.4747 110.742 61.7708 112.446 61.7708 114.548C61.7708 116.65 63.4747 118.354 65.5767 118.354C67.6786 118.354 69.3826 116.65 69.3826 114.548Z" fill="white"/>
<path d="M84.454 114.548C84.454 112.446 82.75 110.742 80.6481 110.742C78.5461 110.742 76.8422 112.446 76.8422 114.548C76.8422 116.65 78.5461 118.354 80.6481 118.354C82.75 118.354 84.454 116.65 84.454 114.548Z" fill="white"/>
<path d="M334.068 51.4721C340.893 51.4721 347.439 48.7607 352.266 43.9342C357.092 39.1078 359.804 32.5617 359.804 25.7361V25.7361L346.631 25.7361C346.631 29.381 345.183 32.8766 342.606 35.4539C340.029 38.0312 336.533 39.4791 332.888 39.4791C329.243 39.4791 325.748 38.0312 323.17 35.4539C320.593 32.8766 319.145 29.381 319.145 25.7361L308.332 25.7361L308.332 51.4721L334.068 51.4721Z" fill="#01385E"/>
<path d="M319.145 25.736C319.145 22.0912 320.593 18.5956 323.17 16.0182C325.748 13.4409 329.243 11.993 332.888 11.993C336.533 11.993 340.029 13.4409 342.606 16.0182C345.183 18.5956 346.631 22.0912 346.631 25.736V25.736L359.804 25.736C359.804 18.9104 357.092 12.3644 352.266 7.53791C347.439 2.71147 340.893 -8.26601e-07 334.068 -1.12496e-06L308.332 -2.24992e-06L308.332 25.736L319.145 25.736Z" fill="#FF7C02"/>
<path d="M332.888 39.4876C336.528 39.4876 340.02 38.0415 342.594 35.4674C345.168 32.8933 346.614 29.4021 346.614 25.7617L319.145 25.7617C319.145 27.5657 319.501 29.3519 320.192 31.0184C320.882 32.6848 321.895 34.1987 323.171 35.4735C324.448 36.7482 325.963 37.7589 327.63 38.4477C329.297 39.1365 331.084 39.4899 332.888 39.4876Z" fill="#F31958"/>
<path d="M332.888 12.0103C329.248 12.0103 325.756 13.4564 323.182 16.0305C320.608 18.6046 319.162 22.0958 319.162 25.7361L346.631 25.7362C346.631 23.9322 346.276 22.1459 345.585 20.4795C344.894 18.8131 343.881 17.2992 342.605 16.0244C341.328 14.7496 339.813 13.7389 338.146 13.0502C336.479 12.3614 334.692 12.008 332.888 12.0103V12.0103Z" fill="#F31958"/>
<path d="M256.886 51.4722V9.05991e-05H205.414V51.4722H256.886ZM231.249 10.6634C234.229 10.6625 237.143 11.5455 239.621 13.2005C242.1 14.8555 244.032 17.2084 245.173 19.9614C246.314 22.7145 246.613 25.7442 246.033 28.6673C245.452 31.5905 244.018 34.2758 241.911 36.3838C239.804 38.4918 237.12 39.9277 234.197 40.5099C231.274 41.0922 228.244 40.7946 225.491 39.6549C222.737 38.5152 220.383 36.5845 218.727 34.107C217.07 31.6295 216.186 28.7164 216.185 25.7361C216.184 23.7572 216.572 21.7973 217.329 19.9687C218.085 18.14 219.195 16.4784 220.594 15.0786C221.993 13.6789 223.654 12.5685 225.482 11.8109C227.31 11.0533 229.27 10.6634 231.249 10.6634V10.6634Z" fill="#01385E"/>
<path d="M231.249 40.7959C234.23 40.7967 237.144 39.9135 239.622 38.2579C242.101 36.6023 244.033 34.2487 245.174 31.4949C246.315 28.7411 246.614 25.7107 246.032 22.7872C245.45 19.8637 244.015 17.1784 241.907 15.0709C239.799 12.9635 237.113 11.5286 234.189 10.9478C231.265 10.367 228.235 10.6664 225.482 11.8081C222.728 12.9498 220.375 14.8824 218.72 17.3617C217.065 19.8409 216.183 22.7552 216.185 25.736C216.187 29.7302 217.775 33.5601 220.6 36.384C223.424 39.2079 227.255 40.7948 231.249 40.7959V40.7959ZM231.249 17.5305C232.87 17.5297 234.455 18.0095 235.803 18.9093C237.151 19.8091 238.203 21.0884 238.824 22.5857C239.445 24.0829 239.609 25.7307 239.294 27.3208C238.979 28.9109 238.199 30.3719 237.054 31.519C235.908 32.6661 234.449 33.4479 232.859 33.7655C231.269 34.0831 229.621 33.9223 228.123 33.3033C226.625 32.6843 225.344 31.635 224.442 30.2881C223.54 28.9412 223.058 27.357 223.056 25.736C223.055 24.6592 223.266 23.5928 223.677 22.5976C224.088 21.6023 224.692 20.6979 225.452 19.9359C226.213 19.1739 227.117 18.5692 228.111 18.1565C229.106 17.7438 230.172 17.5311 231.249 17.5305V17.5305Z" fill="#0593F7"/>
<path d="M230.663 17.5528C226.147 17.8741 222.747 21.7952 223.069 26.3108C223.39 30.8264 227.311 34.2266 231.827 33.9053C236.342 33.584 239.742 29.6629 239.421 25.1472C239.1 20.6316 235.179 17.2314 230.663 17.5528Z" fill="#F31958"/>
<path d="M282.631 3.69198C286.99 3.69408 291.25 4.98839 294.874 7.41131C298.497 9.83423 301.321 13.277 302.988 17.3044C304.655 21.3319 305.091 25.7632 304.241 30.0383C303.39 34.3134 301.291 38.2403 298.209 41.3227L308.358 51.4722V0.0172424H256.903L267.036 10.1496C269.081 8.09846 271.512 6.47201 274.189 5.36377C276.865 4.25553 279.734 3.68737 282.631 3.69198V3.69198Z" fill="#0593F7"/>
<path d="M282.631 47.7803C278.271 47.7816 274.008 46.4897 270.382 44.0681C266.756 41.6465 263.929 38.2039 262.26 34.1757C260.59 30.1476 260.153 25.7149 261.003 21.4382C261.853 17.1615 263.953 13.233 267.036 10.1496L256.903 0.0172424V51.4722H308.358L298.209 41.3227C296.165 43.3718 293.737 44.997 291.064 46.1052C288.391 47.2134 285.525 47.7826 282.631 47.7803V47.7803Z" fill="#F31958"/>
<path d="M267.036 10.1497L256.886 0.000171399L267.036 10.1497Z" fill="#F31958"/>
<path d="M298.209 41.3227L308.358 51.4722L298.209 41.3227Z" fill="#F31958"/>
<path d="M282.631 25.7448L298.209 41.3228C300.294 39.2844 301.954 36.8527 303.093 34.1683C304.232 31.4838 304.827 28.6002 304.844 25.6842C304.86 22.7682 304.298 19.8779 303.19 17.1807C302.082 14.4835 300.449 12.033 298.388 9.97103C296.326 7.9091 293.875 6.27675 291.178 5.16851C288.481 4.06028 285.59 3.49819 282.674 3.51481C279.758 3.53142 276.875 4.1264 274.19 5.26529C271.506 6.40418 269.074 8.06435 267.036 10.1496L282.631 25.7448Z" fill="white"/>
<path d="M282.631 47.7803C285.525 47.7826 288.391 47.2134 291.064 46.1052C293.737 44.997 296.165 43.3717 298.209 41.3227L282.631 25.7447L267.036 10.1496C263.953 13.233 261.853 17.1615 261.003 21.4382C260.153 25.7149 260.59 30.1476 262.26 34.1757C263.929 38.2039 266.756 41.6465 270.382 44.0681C274.008 46.4897 278.271 47.7816 282.631 47.7803V47.7803Z" fill="white"/>
<path d="M282.622 25.7362L298.209 41.3228L282.622 25.7362Z" fill="white"/>
<rect x="205.414" y="51.4722" width="51.4721" height="51.4721" transform="rotate(-180 205.414 51.4722)" fill="white"/>
<path d="M205.414 25.7402V1.18497e-05H179.682C183.93 18.0571 187.37 21.4969 205.414 25.7402Z" fill="#FFBE00"/>
<path d="M179.682 51.4722H205.414V25.7403C187.37 29.9878 183.93 33.4277 179.682 51.4722Z" fill="#FFBE00"/>
<path d="M179.682 1.18497e-05H153.942V25.7402C171.999 21.4969 175.439 18.0571 179.682 1.18497e-05Z" fill="#FFBE00"/>
<path d="M179.682 51.4722C175.439 33.4277 171.999 29.9878 153.942 25.7403V51.4722H179.682Z" fill="#FFBE00"/>
<path d="M102.474 8.1939e-05V25.7319L128.204 8.1939e-05H102.474Z" fill="#0074AF"/>
<path d="M102.473 51.468V51.4722H153.937L128.203 25.7361L102.473 51.468Z" fill="#0074AF"/>
<path d="M128.204 15.0801L153.938 40.8119V51.4722H153.942V9.52606e-05H128.204L153.938 25.7361V36.3964L128.204 10.6603L102.474 36.3922V40.8078L128.204 15.0801Z" fill="#0074AF"/>
<path d="M102.47 25.736V36.3962L102.474 36.3921V25.7318L102.47 25.736Z" fill="#FFBE00"/>
<path d="M153.938 36.3962V25.736L128.204 -1.91965e-05L102.474 25.7318V36.3921L128.204 10.6602L153.938 36.3962Z" fill="#FFBE00"/>
<path d="M102.47 40.8119V51.4722L102.474 51.468V40.8078L102.47 40.8119Z" fill="#FFBE00"/>
<path d="M128.203 15.0801L102.473 40.8078V51.468L128.203 25.7361L153.937 51.4722V40.8119L128.203 15.0801Z" fill="#FFBE00"/>
<path d="M115.72 76.5647C115.781 73.2666 117.134 70.1242 119.488 67.8134C121.841 65.5025 125.008 64.2079 128.307 64.2079C131.606 64.2079 134.772 65.5025 137.126 67.8134C139.48 70.1242 140.833 73.2666 140.894 76.5647H153.942V50.8287H102.47V76.5647H115.72Z" fill="#FF7C02"/>
<path d="M153.942 102.301V76.5647H140.894C140.833 79.8628 139.48 83.0052 137.126 85.3161C134.772 87.6269 131.606 88.9216 128.307 88.9216C125.008 88.9216 121.841 87.6269 119.488 85.3161C117.134 83.0052 115.781 79.8628 115.72 76.5647H102.47V102.301H153.942Z" fill="#F31958"/>
<path d="M128.305 63.9712V76.5647H140.894C140.895 74.9109 140.57 73.2732 139.938 71.745C139.306 70.2169 138.379 68.8283 137.209 67.6588C136.04 66.4892 134.652 65.5615 133.124 64.9288C131.596 64.296 129.958 63.9706 128.305 63.9712V63.9712Z" fill="#FFBE00"/>
<path d="M128.305 89.1411C131.642 89.1423 134.843 87.818 137.203 85.4596C139.564 83.1012 140.892 79.9018 140.894 76.5648H128.305V89.1411Z" fill="#FFBE00"/>
<path d="M128.305 63.9712C126.651 63.9712 125.014 64.297 123.487 64.93C121.959 65.563 120.572 66.4907 119.403 67.6603C118.234 68.8298 117.307 70.2182 116.675 71.746C116.043 73.2739 115.719 74.9113 115.72 76.5647H128.305V63.9712Z" fill="#0074AF"/>
<path d="M115.72 76.5648C115.722 79.901 117.049 83.0998 119.409 85.4581C121.769 87.8164 124.969 89.1411 128.305 89.1411V76.5648H115.72Z" fill="#0074AF"/>
<path d="M205.414 102.301V50.8287H153.942V102.301H205.414ZM179.777 61.492C182.757 61.4912 185.671 62.3741 188.149 64.0291C190.628 65.6841 192.56 68.037 193.701 70.79C194.842 73.5431 195.141 76.5728 194.561 79.496C193.98 82.4191 192.546 85.1045 190.439 87.2124C188.332 89.3204 185.648 90.7563 182.725 91.3385C179.802 91.9208 176.772 91.6232 174.019 90.4835C171.265 89.3438 168.911 87.4131 167.255 84.9356C165.598 82.4581 164.713 79.545 164.713 76.5647C164.712 74.5858 165.1 72.626 165.857 70.7973C166.613 68.9686 167.723 67.307 169.122 65.9072C170.521 64.5075 172.182 63.3971 174.01 62.6395C175.838 61.8819 177.798 61.492 179.777 61.492V61.492Z" fill="#01385E"/>
<path d="M179.777 91.6245C182.758 91.6254 185.672 90.7421 188.15 89.0865C190.629 87.4309 192.561 85.0773 193.702 82.3235C194.843 79.5697 195.141 76.5393 194.56 73.6158C193.978 70.6923 192.543 68.007 190.435 65.8995C188.326 63.7921 185.641 62.3572 182.717 61.7764C179.793 61.1956 176.763 61.495 174.01 62.6367C171.256 63.7784 168.903 65.7111 167.248 68.1903C165.593 70.6695 164.711 73.5838 164.713 76.5646C164.715 80.5588 166.303 84.3887 169.128 87.2126C171.952 90.0365 175.783 91.6234 179.777 91.6245V91.6245ZM179.777 68.3591C181.398 68.3583 182.983 68.8381 184.331 69.7379C185.679 70.6377 186.731 71.9171 187.352 73.4143C187.973 74.9115 188.137 76.5593 187.822 78.1494C187.507 79.7395 186.727 81.2005 185.582 82.3476C184.436 83.4947 182.977 84.2765 181.387 84.5941C179.797 84.9117 178.149 84.7509 176.651 84.1319C175.153 83.5129 173.872 82.4637 172.97 81.1167C172.068 79.7698 171.586 78.1857 171.584 76.5646C171.583 75.4878 171.794 74.4214 172.205 73.4262C172.616 72.431 173.22 71.5265 173.98 70.7645C174.741 70.0025 175.645 69.3979 176.639 68.9851C177.634 68.5724 178.7 68.3597 179.777 68.3591V68.3591Z" fill="#0593F7"/>
<path d="M179.191 68.3814C174.675 68.7027 171.275 72.6238 171.597 77.1394C171.918 81.655 175.839 85.0552 180.355 84.7339C184.87 84.4126 188.27 80.4915 187.949 75.9758C187.628 71.4602 183.707 68.0601 179.191 68.3814Z" fill="#F31958"/>
<path d="M205.414 102.301L256.886 50.8287V102.301H205.414Z" fill="#0593F7"/>
<path d="M256.886 50.8287L205.414 102.301V50.8287H256.886V50.8287Z" fill="#0074AF"/>
<path d="M231.15 56.9714C241.953 56.9714 250.744 65.7619 250.744 76.5647C250.744 87.3675 241.953 96.158 231.15 96.158C220.347 96.158 211.557 87.3675 211.557 76.5647C211.557 65.7619 220.347 56.9714 231.15 56.9714Z" fill="#01385E"/>
<path d="M231.15 94.3928C221.301 94.3928 213.322 86.4143 213.322 76.5647C213.322 66.7151 221.301 58.7365 231.15 58.7365C241 58.7365 248.978 66.7151 248.978 76.5647C248.978 86.4143 241 94.3928 231.15 94.3928ZM231.15 97.9231C242.941 97.9231 252.509 88.3559 252.509 76.5647C252.509 64.7734 242.941 55.2062 231.15 55.2062C219.359 55.2062 209.792 64.7734 209.792 76.5647C209.792 88.3559 219.359 97.9231 231.15 97.9231Z" fill="white"/>
<path d="M308.358 50.8286L256.886 50.8286L294.154 86.3387C302.944 77.092 308.358 64.6108 308.358 50.8286Z" fill="#FF7C02"/>
<path d="M294.154 86.3387L256.886 50.8286L256.886 102.301C271.547 102.301 284.767 96.1831 294.154 86.3387Z" fill="#F31958"/>
<path d="M288.037 65.771C288.037 67.9263 289.784 69.6736 291.939 69.6736C294.095 69.6736 295.842 67.9263 295.842 65.771C295.842 63.6157 294.095 61.8684 291.939 61.8684C289.784 61.8684 288.037 63.6157 288.037 65.771Z" fill="white"/>
<path d="M267.715 84.3347C267.715 86.4901 269.462 88.2373 271.618 88.2373C273.773 88.2373 275.52 86.4901 275.52 84.3347C275.52 82.1794 273.773 80.4321 271.618 80.4321C269.462 80.4321 267.715 82.1794 267.715 84.3347Z" fill="white"/>
<path d="M51.47 51.47V-2.88486e-05H-2.88486e-05V51.47H51.47ZM25.8336 10.6628C28.8138 10.662 31.7272 11.5449 34.2056 13.1998C36.684 14.8548 38.6159 17.2075 39.7571 19.9605C40.8984 22.7135 41.1976 25.743 40.6171 28.6661C40.0365 31.5891 38.6022 34.2743 36.4955 36.3822C34.3888 38.4901 31.7044 39.9259 28.7817 40.5082C25.859 41.0904 22.8293 40.7929 20.0757 39.6532C17.322 38.5135 14.9682 36.5829 13.3118 34.1055C11.6555 31.6281 10.7709 28.7151 10.7701 25.735C10.7689 23.7561 11.1577 21.7963 11.9143 19.9678C12.6708 18.1392 13.7802 16.4776 15.179 15.0779C16.5779 13.6782 18.2389 12.5679 20.0671 11.8103C21.8952 11.0528 23.8547 10.6628 25.8336 10.6628V10.6628Z" fill="#01385E"/>
<path d="M25.8336 40.7942C28.8143 40.795 31.7283 39.9118 34.2069 38.2563C36.6856 36.6007 38.6175 34.2473 39.7584 31.4935C40.8992 28.7398 41.1977 25.7096 40.6161 22.7862C40.0345 19.8628 38.5989 17.1776 36.491 15.0703C34.383 12.9629 31.6974 11.5281 28.7738 10.9473C25.8503 10.3665 22.8201 10.6659 20.0667 11.8075C17.3134 12.9492 14.9604 14.8818 13.3056 17.3609C11.6508 19.84 10.7684 22.7542 10.7701 25.7349C10.7723 29.7289 12.3603 33.5586 15.1849 36.3824C18.0095 39.2062 21.8396 40.7931 25.8336 40.7942V40.7942ZM25.8336 17.5297C27.4546 17.5289 29.0394 18.0087 30.3877 18.9084C31.736 19.8082 32.7872 21.0875 33.4085 22.5847C34.0298 24.0818 34.1932 25.7296 33.8782 27.3196C33.5631 28.9097 32.7836 30.3706 31.6383 31.5177C30.493 32.6647 29.0334 33.4465 27.4438 33.7641C25.8543 34.0817 24.2063 33.9208 22.7081 33.3019C21.21 32.6829 19.929 31.6337 19.0272 30.2868C18.1253 28.9399 17.643 27.3559 17.6413 25.7349C17.6402 24.6582 17.8512 23.5917 18.2624 22.5966C18.6735 21.6014 19.2767 20.697 20.0375 19.935C20.7983 19.173 21.7017 18.5684 22.6963 18.1557C23.6908 17.743 24.7569 17.5303 25.8336 17.5297V17.5297Z" fill="#0593F7"/>
<path d="M25.248 17.5519C20.7325 17.8732 17.3325 21.7942 17.6538 26.3096C17.9751 30.825 21.896 34.2251 26.4115 33.9038C30.9269 33.5825 34.3269 29.6615 34.0056 25.1461C33.6844 20.6307 29.7634 17.2306 25.248 17.5519Z" fill="#F31958"/>
<path d="M0.469954 102.47H26.205V76.735H0.469954V102.47Z" fill="#FFBE00"/>
<path d="M26.2049 76.7349H51.9399V50.9999H26.2049V76.7349Z" fill="#FFBE00"/>
<path d="M0.469954 76.7349H26.205V50.9999H0.469954V76.7349Z" fill="#0074AF"/>
<path d="M26.2049 102.47H51.9399V76.735H26.2049V102.47Z" fill="#0074AF"/>
<path d="M66.5452 51.0054H51.47V66.0752L67.3571 66.887L66.5452 51.0054Z" fill="#01385E"/>
<path d="M87.8563 51.0042H66.5493L77.2049 62.8055L87.8563 51.0042Z" fill="#01385E"/>
<path d="M51.47 66.074V87.3918L63.2765 76.7329L51.47 66.074Z" fill="#01385E"/>
<path d="M87.8648 51.0042L87.0529 66.8858L102.94 66.0739V51.0042H87.8648Z" fill="#01385E"/>
<path d="M102.94 87.3918V66.074L91.1334 76.7329L102.94 87.3918Z" fill="#01385E"/>
<path d="M87.8648 102.466L77.205 90.6603L66.5452 102.466L67.3571 86.5801L51.47 87.3919V102.47H102.94V87.3919L87.0528 86.5801L87.8648 102.466Z" fill="#01385E"/>
<path d="M66.5452 51V51.0053H66.5505L66.5452 51Z" fill="white"/>
<path d="M87.8655 51L87.8564 51.0045H87.8655V51Z" fill="white"/>
<path d="M87.8648 51.0054H87.8564L77.205 62.8068L66.5494 51.0054H66.5452L67.3571 66.887L51.47 66.0752L63.2765 76.7341L51.47 87.393L67.3571 86.5811L66.5452 102.467L77.205 90.6614L87.8648 102.467L87.0528 86.5811L102.94 87.393L91.1334 76.7341L102.94 66.0752L87.0528 66.887L87.8648 51.0054Z" fill="white"/>
<path d="M77.205 51.47L51.47 25.735V51.47H77.205Z" fill="#FFBE00"/>
<path d="M102.94 -0.000138925H77.2049L102.94 25.7349V-0.000138925Z" fill="#FFBE00"/>
<path d="M51.47 -0.000138925V25.7349L77.205 -0.000138925H51.47Z" fill="#FFBE00"/>
<path d="M102.94 51.47V25.735L77.2049 51.47H102.94Z" fill="#FFBE00"/>
<path d="M77.205 40.715L92.1852 25.7349L77.205 10.7547L62.2249 25.7349L77.205 40.715Z" fill="#FFBE00"/>
<path d="M102.94 25.735L77.2049 -3.00625e-05L51.4699 25.735L77.2049 51.47L102.94 25.735ZM77.2049 10.7523L92.1876 25.735L77.2049 40.7176L62.2223 25.735L77.2049 10.7523Z" fill="#01385E"/>
</svg>
