<svg width="287" height="231" viewBox="0 0 287 231" fill="none" xmlns="http://www.w3.org/2000/svg">
<path d="M190.116 169.074C189.188 169.076 188.263 168.963 187.363 168.739C185.587 168.3 183.946 167.427 182.586 166.199C181.555 165.222 180.211 164.645 178.794 164.571H178.591C177.819 164.567 177.049 164.643 176.292 164.798C174.991 165.073 173.824 165.789 172.987 166.825C172.15 167.861 171.694 169.154 171.695 170.488V195.306C171.643 196.406 171.254 197.464 170.581 198.334C169.908 199.205 168.983 199.845 167.933 200.169C167.481 200.325 167.007 200.408 166.53 200.414H166.494C166.452 200.408 166.41 200.408 166.368 200.414H141.857C140.528 200.418 139.238 199.961 138.207 199.121C137.175 198.281 136.465 197.108 136.196 195.803C136.035 195.045 135.953 194.272 135.951 193.497V193.293C136.027 191.872 136.605 190.523 137.581 189.49C138.801 188.124 139.67 186.479 140.113 184.699C140.332 183.795 140.442 182.869 140.442 181.938C140.454 180.36 140.139 178.796 139.515 177.346C138.892 175.896 137.975 174.592 136.823 173.517C135.67 172.442 134.307 171.619 132.82 171.101C131.333 170.583 129.755 170.381 128.186 170.507C126.617 170.634 125.091 171.087 123.706 171.837C122.321 172.587 121.107 173.618 120.14 174.865C119.174 176.111 118.477 177.546 118.094 179.077C117.71 180.608 117.648 182.203 117.912 183.759C117.96 184.07 118.026 184.358 118.104 184.681C118.547 186.459 119.411 188.102 120.623 189.472C121.594 190.498 122.166 191.839 122.236 193.252V193.467C122.237 194.241 122.161 195.014 122.009 195.773C121.735 197.078 121.021 198.248 119.988 199.088C118.955 199.928 117.666 200.386 116.336 200.384H91.8544C91.8168 200.378 91.7785 200.378 91.7409 200.384C91.7409 200.384 91.6991 200.384 91.6872 200.384C91.2043 200.37 90.7258 200.288 90.266 200.139C89.202 199.815 88.2672 199.162 87.5949 198.274C86.9226 197.385 86.5472 196.307 86.5222 195.192C86.5164 195.144 86.5164 195.096 86.5222 195.048V170.488C86.5236 169.155 86.0681 167.862 85.232 166.826C84.396 165.79 83.2303 165.074 81.9303 164.798C81.1718 164.644 80.3995 164.567 79.6255 164.571H79.4165C77.9998 164.645 76.6556 165.222 75.6248 166.199C74.2659 167.428 72.6248 168.301 70.8479 168.739C69.0788 169.184 67.2288 169.194 65.4548 168.77C63.6807 168.345 62.0349 167.498 60.6568 166.299C59.2787 165.101 58.2089 163.587 57.5382 161.886C56.8675 160.185 56.6155 158.347 56.8037 156.527C56.9778 154.989 57.4601 153.502 58.2216 152.155C58.9831 150.809 60.0082 149.631 61.2352 148.691C62.4622 147.752 63.8658 147.071 65.3617 146.69C66.8576 146.309 68.415 146.234 69.9403 146.472C70.2448 146.526 70.5374 146.586 70.8538 146.664C72.6258 147.108 74.2645 147.975 75.6308 149.191C76.6565 150.173 78.0004 150.751 79.4165 150.82H79.6314C80.4057 150.821 81.178 150.743 81.9363 150.586C83.2367 150.311 84.4031 149.595 85.2394 148.559C86.0756 147.523 86.5307 146.23 86.5281 144.897V120.342C86.5223 120.266 86.5223 120.19 86.5281 120.115C86.5877 118.766 87.1529 117.49 88.1107 116.541C89.0684 115.593 90.348 115.043 91.6932 115C91.7487 115.006 91.8048 115.006 91.8604 115H116.342C117.671 114.997 118.961 115.454 119.994 116.293C121.027 117.131 121.74 118.301 122.015 119.606C122.167 120.367 122.243 121.141 122.242 121.917V122.133C122.171 123.545 121.599 124.886 120.629 125.912C119.415 127.281 118.55 128.925 118.11 130.703C118.032 131.008 117.966 131.302 117.918 131.619C117.644 133.287 117.743 134.995 118.209 136.619C118.675 138.243 119.496 139.743 120.612 141.009C121.728 142.275 123.111 143.276 124.661 143.939C126.211 144.602 127.889 144.911 129.573 144.842C131.256 144.774 132.903 144.33 134.395 143.543C135.886 142.756 137.184 141.646 138.194 140.293C139.204 138.94 139.9 137.378 140.234 135.722C140.567 134.065 140.528 132.355 140.119 130.715C139.679 128.934 138.81 127.289 137.587 125.924C136.611 124.891 136.033 123.543 135.957 122.121V121.917C135.959 121.14 136.041 120.366 136.202 119.606C136.471 118.301 137.181 117.129 138.213 116.29C139.245 115.45 140.534 114.995 141.863 115H166.38C166.434 115.006 166.488 115.006 166.542 115C167.019 115.008 167.492 115.088 167.945 115.24C168.996 115.558 169.922 116.195 170.596 117.064C171.27 117.933 171.658 118.991 171.707 120.091V144.891C171.704 146.225 172.16 147.519 172.998 148.555C173.835 149.591 175.003 150.306 176.304 150.58C177.061 150.737 177.831 150.815 178.603 150.814H178.818C180.227 150.742 181.564 150.166 182.586 149.191C183.952 147.975 185.591 147.108 187.363 146.664C187.667 146.586 187.96 146.526 188.282 146.472C189.831 146.212 191.416 146.278 192.938 146.665C194.46 147.051 195.886 147.75 197.124 148.718C198.363 149.686 199.388 150.901 200.134 152.286C200.88 153.672 201.332 155.197 201.46 156.767C201.588 158.336 201.39 159.915 200.879 161.404C200.367 162.893 199.553 164.259 198.487 165.415C197.422 166.572 196.129 167.495 194.69 168.125C193.251 168.754 191.698 169.078 190.128 169.074H190.116Z" fill="#C9DA2A" stroke="#C99403" stroke-miterlimit="10"/>
<path d="M274.631 85.7653C273.703 85.7668 272.779 85.6542 271.879 85.4299C270.102 84.9908 268.461 84.1186 267.102 82.8906C266.071 81.9131 264.727 81.3357 263.31 81.2617H263.107C262.335 81.2582 261.565 81.3344 260.808 81.4893C259.507 81.7642 258.34 82.4798 257.503 83.5158C256.665 84.5518 256.209 85.8452 256.21 87.1787V111.997C256.159 113.097 255.77 114.155 255.097 115.026C254.423 115.896 253.499 116.537 252.448 116.86C251.997 117.016 251.523 117.099 251.045 117.105H251.009C250.968 117.1 250.926 117.1 250.884 117.105H226.372C225.043 117.109 223.754 116.653 222.722 115.812C221.691 114.972 220.98 113.799 220.712 112.494C220.551 111.736 220.469 110.963 220.467 110.188V109.985C220.542 108.563 221.12 107.215 222.097 106.182C223.317 104.815 224.186 103.17 224.629 101.39C224.848 100.487 224.958 99.5597 224.957 98.6296C224.97 97.0508 224.654 95.4868 224.031 94.0369C223.408 92.587 222.491 91.283 221.338 90.2079C220.186 89.1328 218.822 88.31 217.335 87.7919C215.848 87.2738 214.27 87.0717 212.701 87.1985C211.132 87.3253 209.607 87.7782 208.222 88.5284C206.837 89.2786 205.622 90.3097 204.656 91.556C203.69 92.8024 202.993 94.2368 202.609 95.7681C202.226 97.2993 202.164 98.8938 202.428 100.45C202.476 100.762 202.542 101.049 202.619 101.372C203.062 103.15 203.927 104.793 205.139 106.164C206.11 107.189 206.682 108.53 206.751 109.943V110.158C206.752 110.933 206.676 111.705 206.524 112.464C206.25 113.769 205.537 114.94 204.504 115.779C203.471 116.619 202.181 117.077 200.852 117.076H176.37C176.332 117.069 176.294 117.069 176.257 117.076C176.257 117.076 176.215 117.076 176.203 117.076C175.72 117.062 175.241 116.979 174.782 116.83C173.718 116.506 172.783 115.853 172.111 114.965C171.438 114.077 171.063 112.998 171.038 111.883C171.032 111.835 171.032 111.787 171.038 111.739V87.1787C171.039 85.846 170.584 84.5532 169.748 83.5173C168.912 82.4815 167.746 81.7654 166.446 81.4893C165.687 81.3347 164.915 81.2585 164.141 81.2617H163.932C162.515 81.3357 161.171 81.9131 160.14 82.8906C158.782 84.1196 157.14 84.992 155.364 85.4299C153.594 85.8749 151.744 85.8855 149.97 85.4609C148.196 85.0362 146.551 84.1888 145.172 82.9906C143.794 81.7923 142.725 80.2785 142.054 78.5774C141.383 76.8763 141.131 75.0381 141.319 73.2185C141.493 71.6803 141.976 70.1932 142.737 68.8466C143.499 67.5001 144.524 66.3218 145.751 65.3826C146.978 64.4434 148.381 63.7626 149.877 63.3812C151.373 62.9998 152.931 62.9256 154.456 63.1631C154.76 63.217 155.053 63.2769 155.369 63.3547C157.141 63.7992 158.78 64.6662 160.146 65.8821C161.172 66.8637 162.516 67.4419 163.932 67.5111H164.147C164.921 67.5123 165.694 67.434 166.452 67.2775C167.752 67.0023 168.919 66.2866 169.755 65.2504C170.591 64.2143 171.046 62.921 171.044 61.588V37.0333C171.038 36.9576 171.038 36.8815 171.044 36.8058C171.103 35.4572 171.669 34.181 172.626 33.2326C173.584 32.2842 174.864 31.7337 176.209 31.6912C176.264 31.6972 176.32 31.6972 176.376 31.6912H200.858C202.187 31.6886 203.476 32.1451 204.509 32.9838C205.542 33.8225 206.256 34.9924 206.53 36.2967C206.682 37.0578 206.758 37.8322 206.757 38.6084V38.824C206.687 40.2363 206.115 41.5768 205.145 42.6031C203.931 43.972 203.066 45.6161 202.625 47.3942C202.548 47.6996 202.482 47.9931 202.434 48.3105C202.16 49.978 202.259 51.6859 202.725 53.31C203.191 54.9342 204.012 56.4339 205.128 57.7001C206.244 58.9664 207.627 59.9674 209.177 60.6304C210.727 61.2935 212.405 61.6019 214.088 61.5333C215.772 61.4647 217.419 61.0209 218.91 60.2339C220.402 59.447 221.699 58.3368 222.709 56.9839C223.719 55.6311 224.416 54.0696 224.749 52.4129C225.082 50.7562 225.043 49.0459 224.635 47.4062C224.195 45.6253 223.325 43.9801 222.103 42.615C221.126 41.582 220.548 40.2337 220.473 38.812V38.6084C220.475 37.8314 220.557 37.0567 220.718 36.2967C220.986 34.9918 221.697 33.8203 222.729 32.9808C223.76 32.1414 225.05 31.6858 226.378 31.6912H250.896C250.95 31.6971 251.004 31.6971 251.057 31.6912C251.534 31.6987 252.008 31.7795 252.46 31.9308C253.511 32.2487 254.438 32.8863 255.112 33.7553C255.786 34.6243 256.174 35.6819 256.222 36.7818V61.582C256.22 62.9159 256.676 64.2098 257.513 65.246C258.351 66.2823 259.518 66.9975 260.82 67.2715C261.576 67.4283 262.347 67.5066 263.119 67.5051H263.334C264.743 67.4333 266.08 66.8575 267.102 65.8821C268.468 64.6662 270.107 63.7992 271.879 63.3547C272.183 63.2769 272.476 63.217 272.798 63.1631C274.347 62.9035 275.932 62.9691 277.454 63.3557C278.976 63.7424 280.401 64.4416 281.64 65.4093C282.879 66.3769 283.903 67.5919 284.65 68.9773C285.396 70.3627 285.848 71.8884 285.976 73.4578C286.104 75.0272 285.906 76.6063 285.394 78.095C284.882 79.5837 284.068 80.9497 283.003 82.1065C281.938 83.2634 280.645 84.1859 279.206 84.8157C277.767 85.4455 276.213 85.7688 274.643 85.7653H274.631Z" fill="#FFC00E" stroke="#C99403" stroke-miterlimit="10"/>
<path d="M56.589 157.376C56.5646 157.773 56.5646 158.171 56.589 158.568C56.589 158.759 56.589 158.949 56.6249 159.164C56.6667 159.522 56.7146 159.873 56.7923 160.231C56.795 160.237 56.7964 160.243 56.7964 160.249C56.7964 160.255 56.795 160.261 56.7923 160.267C56.817 160.453 56.8591 160.637 56.918 160.815C56.9935 161.134 57.0873 161.449 57.1991 161.757C57.3718 162.251 57.586 162.73 57.8392 163.188C57.9123 163.347 57.9963 163.5 58.0904 163.647C58.9859 165.204 60.2409 166.526 61.7515 167.502C63.2621 168.479 64.9845 169.083 66.776 169.263C67.1528 169.299 67.5357 169.329 67.9305 169.329C68.1877 169.329 68.4449 169.329 68.6842 169.329C68.8277 169.329 68.9773 169.329 69.1328 169.281C69.364 169.268 69.594 169.238 69.8207 169.191C70.1131 169.154 70.4028 169.098 70.6881 169.024C71.1372 168.913 71.5787 168.774 72.0101 168.607C73.2812 168.118 74.4526 167.403 75.4676 166.497C75.8742 166.123 76.324 165.799 76.8075 165.531C77.108 165.36 77.4245 165.218 77.7526 165.108C78.2473 164.936 78.7662 164.843 79.29 164.833H79.5113C80.2847 164.83 81.0564 164.906 81.8143 165.06C82.9564 165.295 83.9996 165.871 84.8052 166.711C85.8361 167.79 86.4121 169.222 86.4143 170.712V195.19C86.4143 195.369 86.4143 195.548 86.4143 195.721C86.3772 196.075 86.305 196.424 86.1989 196.764C85.9962 197.417 85.667 198.025 85.2299 198.552L84.8889 198.922C84.7715 199.046 84.6434 199.16 84.5061 199.262C83.7034 199.924 82.7242 200.338 81.6886 200.454H81.575C81.4774 200.461 81.3795 200.461 81.2819 200.454C81.2262 200.46 81.1701 200.46 81.1144 200.454H56.4992C55.1684 200.449 53.8766 200.902 52.843 201.738C51.8094 202.573 51.0977 203.74 50.8285 205.039C50.6675 205.795 50.5853 206.566 50.5832 207.34V207.542C50.6624 208.957 51.2408 210.298 52.2163 211.328C53.4428 212.685 54.314 214.324 54.7526 216.097C54.9739 216.995 55.0863 217.915 55.0875 218.84C55.1191 220.422 54.8176 221.993 54.2024 223.453C53.5872 224.912 52.672 226.226 51.5159 227.311C50.3597 228.396 48.9883 229.228 47.4899 229.752C45.9915 230.276 44.3996 230.482 42.8166 230.356C41.2336 230.229 39.6948 229.774 38.2993 229.018C36.9038 228.263 35.6827 227.224 34.7147 225.969C33.7466 224.715 33.0531 223.272 32.6789 221.734C32.3047 220.196 32.2581 218.596 32.5421 217.039C32.5959 216.735 32.6557 216.443 32.7335 216.127C33.1801 214.359 34.0458 212.723 35.2578 211.358C36.2317 210.338 36.805 209.003 36.8729 207.596V207.381C36.8767 206.609 36.8005 205.837 36.6456 205.08C36.3708 203.782 35.6559 202.617 34.621 201.782C33.5861 200.948 32.2943 200.493 30.9629 200.496H6.43745C6.38176 200.501 6.32566 200.501 6.26997 200.496C6.17238 200.502 6.07447 200.502 5.97687 200.496H5.86322C4.82765 200.38 3.84847 199.966 3.04577 199.303C2.89599 199.188 2.75777 199.058 2.63302 198.916C2.51937 198.797 2.39375 198.672 2.29206 198.546C2.29206 198.546 2.29206 198.546 2.25617 198.505C1.93846 198.118 1.68042 197.686 1.49051 197.223C1.41247 197.069 1.35224 196.907 1.31103 196.74C1.2049 196.4 1.13277 196.051 1.09569 195.697C1.09569 195.524 1.09569 195.345 1.09569 195.166V170.7C1.09281 169.373 1.54958 168.086 2.38881 167.056C3.22804 166.027 4.39826 165.317 5.7017 165.048C6.45943 164.893 7.23122 164.817 8.00468 164.822H8.22005C8.74583 164.831 9.26677 164.923 9.76333 165.096C10.5937 165.386 11.3567 165.84 12.0065 166.431C13.1878 167.489 14.5831 168.282 16.0981 168.756C16.3216 168.842 16.5516 168.91 16.786 168.959C17.05 169.024 17.3177 169.074 17.5876 169.108C17.8143 169.155 18.0442 169.185 18.2755 169.197C18.431 169.197 18.5805 169.233 18.7241 169.245C18.9634 169.245 19.2206 169.245 19.4778 169.245C19.8726 169.245 20.2555 169.245 20.6323 169.179C22.4231 169 24.145 168.396 25.6546 167.419C27.1643 166.443 28.4182 165.121 29.3119 163.564C29.4079 163.417 29.4939 163.263 29.5691 163.105C29.8223 162.646 30.0364 162.168 30.2092 161.674C30.3217 161.366 30.4136 161.052 30.4843 160.732C30.5479 160.554 30.592 160.37 30.616 160.183C30.6133 160.178 30.6119 160.172 30.6119 160.166C30.6119 160.159 30.6133 160.153 30.616 160.148C30.6937 159.79 30.7416 159.438 30.7834 159.081C30.7834 158.89 30.8193 158.699 30.8193 158.484C30.8437 158.087 30.8437 157.689 30.8193 157.292C30.8193 157.101 30.8193 156.91 30.7834 156.696C30.7416 156.338 30.6937 155.986 30.616 155.629C30.6186 155.623 30.62 155.617 30.62 155.611C30.62 155.605 30.6186 155.599 30.616 155.593C30.592 155.406 30.5479 155.222 30.4843 155.045C30.4492 154.864 30.3992 154.686 30.3348 154.514C30.2858 154.332 30.2259 154.152 30.1553 153.977C29.9891 153.528 29.7892 153.091 29.5572 152.672C29.4819 152.513 29.396 152.36 29.2999 152.213C28.4062 150.656 27.1524 149.334 25.6427 148.357C24.133 147.38 22.4112 146.777 20.6203 146.597C19.9862 146.534 19.3481 146.522 18.7121 146.561C18.5686 146.561 18.419 146.561 18.2635 146.609C18.0843 146.613 17.9059 146.635 17.7311 146.674C17.6935 146.668 17.6551 146.668 17.6175 146.674C17.6109 146.671 17.6038 146.67 17.5965 146.67C17.5893 146.67 17.5821 146.671 17.5756 146.674C17.2832 146.712 16.9935 146.767 16.7082 146.841C16.4739 146.89 16.2438 146.958 16.0203 147.044C14.502 147.519 13.1029 148.312 11.9168 149.369C11.2713 149.96 10.5122 150.414 9.68557 150.704C9.18855 150.876 8.66808 150.971 8.14228 150.985H7.92691C7.53211 150.985 7.13731 150.955 6.73055 150.931C6.32379 150.907 5.96491 150.83 5.60001 150.752C4.45859 150.515 3.41587 149.94 2.60911 149.101C1.5759 148.019 0.99977 146.582 1 145.089V120.646C1 120.455 1 120.276 1 120.104C1.03708 119.75 1.1092 119.4 1.21534 119.06C1.26428 118.896 1.32422 118.734 1.39478 118.577C1.52775 118.257 1.69417 117.951 1.89128 117.665C2.28711 117.077 2.79774 116.574 3.39272 116.187L3.77553 115.96C3.93106 115.883 4.08062 115.805 4.23614 115.746C4.71475 115.542 5.22057 115.41 5.73758 115.352H5.85124C5.94884 115.346 6.04675 115.346 6.14434 115.352C6.14434 115.352 6.18623 115.352 6.1982 115.352C6.23586 115.346 6.27419 115.346 6.31185 115.352H30.8373C32.1687 115.355 33.4604 114.9 34.4953 114.065C35.5302 113.231 36.2452 112.066 36.52 110.768C36.6755 110.011 36.7517 109.239 36.7473 108.467V108.252C36.6806 106.847 36.1071 105.513 35.1322 104.496C33.9225 103.129 33.0571 101.494 32.6079 99.7268C32.5301 99.4168 32.4703 99.1306 32.4165 98.8087C32.1415 97.1488 32.2411 95.4488 32.7078 93.832C33.1746 92.2153 33.9968 90.7224 35.1148 89.462C36.2328 88.2015 37.6185 87.2051 39.1713 86.5451C40.724 85.885 42.4047 85.578 44.0914 85.6463C45.778 85.7146 47.4283 86.1564 48.9221 86.9398C50.416 87.7231 51.7161 88.8282 52.7278 90.1749C53.7396 91.5215 54.4377 93.0759 54.7714 94.7251C55.105 96.3742 55.0659 98.0767 54.6568 99.7089C54.2182 101.483 53.347 103.121 52.1205 104.478C51.1451 105.509 50.5667 106.849 50.4875 108.264V108.467C50.489 109.24 50.5712 110.011 50.7328 110.768C51.002 112.067 51.7137 113.233 52.7473 114.068C53.7809 114.904 55.0727 115.358 56.4035 115.352H80.9649C81.0065 115.346 81.0488 115.346 81.0905 115.352H81.1323C81.2299 115.346 81.3278 115.346 81.4254 115.352H81.5391C82.0561 115.41 82.562 115.542 83.0406 115.746C83.1961 115.805 83.3456 115.883 83.5011 115.96L83.8839 116.187C84.5484 116.623 85.1076 117.2 85.5214 117.878C85.9351 118.555 86.193 119.315 86.2767 120.104C86.2767 120.276 86.2767 120.455 86.2767 120.646V145.089C86.2769 146.582 85.7008 148.019 84.6676 149.101C83.8637 149.943 82.8197 150.52 81.6767 150.752C81.2939 150.83 80.929 150.877 80.5461 150.931C80.1633 150.985 79.7685 150.985 79.3498 150.985H79.1284C78.6047 150.97 78.0862 150.875 77.5911 150.704C76.7645 150.414 76.0054 149.96 75.3599 149.369C74.3388 148.465 73.1639 147.75 71.8905 147.259C71.4581 147.095 71.0167 146.955 70.5685 146.841C70.2832 146.767 69.9935 146.712 69.7011 146.674C69.6876 146.669 69.6727 146.669 69.6592 146.674C69.6216 146.668 69.5832 146.668 69.5456 146.674C69.3707 146.635 69.1924 146.613 69.0132 146.609C68.8576 146.609 68.7081 146.573 68.5645 146.561C67.9285 146.522 67.2905 146.534 66.6564 146.597C64.8649 146.777 63.1424 147.381 61.6319 148.358C60.1213 149.334 58.8662 150.656 57.9708 152.213C57.8766 152.36 57.7927 152.513 57.7195 152.672C57.4875 153.091 57.2876 153.528 57.1214 153.977C57.0508 154.152 56.9909 154.332 56.9419 154.514C56.8783 154.687 56.8264 154.864 56.7864 155.045C56.7275 155.223 56.6855 155.407 56.6608 155.593C56.6581 155.599 56.6567 155.605 56.6567 155.611C56.6567 155.617 56.6581 155.623 56.6608 155.629C56.583 155.986 56.5351 156.338 56.4932 156.696C56.6009 156.994 56.6009 157.185 56.589 157.376Z" fill="#FFC00E" stroke="#C99403" stroke-miterlimit="10"/>
<path d="M142.003 72.8604C141.979 73.2574 141.979 73.6556 142.003 74.0527C142.003 74.2435 142.003 74.4342 142.039 74.6489C142.081 75.0066 142.129 75.3583 142.206 75.716C142.209 75.7216 142.21 75.7277 142.21 75.7339C142.21 75.7401 142.209 75.7461 142.206 75.7517C142.231 75.938 142.273 76.1217 142.332 76.3002C142.408 76.6193 142.501 76.9338 142.613 77.2421C142.786 77.7361 143 78.2147 143.253 78.6729C143.326 78.8315 143.41 78.9849 143.504 79.132C144.4 80.6889 145.655 82.0105 147.166 82.9871C148.676 83.9638 150.399 84.5674 152.19 84.7478C152.567 84.7836 152.95 84.8134 153.345 84.8134C153.602 84.8134 153.859 84.8134 154.098 84.8134C154.242 84.8134 154.391 84.8134 154.547 84.7657C154.778 84.7531 155.008 84.7233 155.235 84.6763C155.527 84.639 155.817 84.5833 156.102 84.5093C156.551 84.3982 156.993 84.2588 157.424 84.092C158.695 83.6028 159.867 82.8877 160.882 81.9816C161.288 81.6078 161.738 81.2836 162.222 81.0158C162.522 80.8445 162.839 80.7027 163.167 80.5926C163.661 80.4206 164.18 80.3281 164.704 80.3183H164.925C165.699 80.3149 166.47 80.3908 167.228 80.5449C168.37 80.7799 169.414 81.3559 170.219 82.1962C171.25 83.2749 171.826 84.7068 171.828 86.1965V110.675C171.828 110.854 171.828 111.033 171.828 111.205C171.791 111.559 171.719 111.909 171.613 112.249C171.41 112.902 171.081 113.51 170.644 114.037L170.303 114.407C170.186 114.531 170.057 114.645 169.92 114.747C169.117 115.409 168.138 115.823 167.103 115.939H166.989C166.891 115.945 166.794 115.945 166.696 115.939C166.64 115.945 166.584 115.945 166.528 115.939H141.913C140.582 115.934 139.291 116.387 138.257 117.223C137.223 118.058 136.512 119.224 136.243 120.523C136.082 121.28 135.999 122.051 135.997 122.825V123.027C136.076 124.442 136.655 125.783 137.63 126.813C138.857 128.17 139.728 129.809 140.167 131.582C140.388 132.48 140.5 133.4 140.502 134.324C140.533 135.907 140.232 137.478 139.616 138.937C139.001 140.397 138.086 141.711 136.93 142.796C135.774 143.881 134.402 144.712 132.904 145.237C131.406 145.761 129.814 145.967 128.231 145.84C126.648 145.714 125.109 145.258 123.713 144.503C122.318 143.747 121.097 142.709 120.129 141.454C119.161 140.2 118.467 138.757 118.093 137.219C117.719 135.68 117.672 134.081 117.956 132.524C118.01 132.22 118.07 131.928 118.148 131.612C118.594 129.844 119.46 128.208 120.672 126.843C121.646 125.823 122.219 124.487 122.287 123.081V122.866C122.291 122.093 122.215 121.322 122.06 120.565C121.785 119.267 121.07 118.102 120.035 117.267C119 116.432 117.708 115.978 116.377 115.981H91.8515C91.7958 115.986 91.7397 115.986 91.684 115.981C91.5864 115.987 91.4885 115.987 91.3909 115.981H91.2773C90.2417 115.865 89.2625 115.451 88.4598 114.788C88.3101 114.673 88.1718 114.543 88.0471 114.401C87.9334 114.282 87.8078 114.156 87.7061 114.031C87.7061 114.031 87.7061 114.031 87.6702 113.989C87.3525 113.603 87.0945 113.17 86.9046 112.708C86.8265 112.554 86.7663 112.392 86.7251 112.225C86.619 111.885 86.5468 111.536 86.5098 111.182C86.5098 111.009 86.5098 110.83 86.5098 110.651V86.1845C86.5069 84.8579 86.9636 83.571 87.8029 82.5412C88.6421 81.5115 89.8123 80.8021 91.1158 80.533C91.8735 80.3782 92.6453 80.3023 93.4187 80.3064H93.6341C94.1599 80.3156 94.6808 80.4082 95.1774 80.5807C96.0077 80.8707 96.7707 81.3249 97.4206 81.916C98.6019 82.9738 99.9971 83.7666 101.512 84.2411C101.736 84.3269 101.966 84.3947 102.2 84.4438C102.464 84.509 102.732 84.5588 103.002 84.5928C103.228 84.6398 103.458 84.6697 103.69 84.6822C103.845 84.6822 103.995 84.718 104.138 84.7299C104.377 84.7299 104.635 84.7299 104.892 84.7299C105.287 84.7299 105.67 84.7299 106.046 84.6643C107.837 84.4844 109.559 83.881 111.069 82.9042C112.578 81.9275 113.832 80.6056 114.726 79.0485C114.822 78.9015 114.908 78.7481 114.983 78.5895C115.236 78.1312 115.45 77.6527 115.623 77.1587C115.736 76.8511 115.828 76.5365 115.898 76.2168C115.962 76.0392 116.006 75.8553 116.03 75.6683C116.027 75.6627 116.026 75.6566 116.026 75.6504C116.026 75.6442 116.027 75.6381 116.03 75.6325C116.108 75.2748 116.156 74.9231 116.197 74.5654C116.197 74.3746 116.233 74.1838 116.233 73.9692C116.258 73.5722 116.258 73.174 116.233 72.7769C116.233 72.5861 116.233 72.3954 116.197 72.1807C116.156 71.823 116.108 71.4713 116.03 71.1136C116.033 71.108 116.034 71.1019 116.034 71.0957C116.034 71.0895 116.033 71.0835 116.03 71.0779C116.006 70.8908 115.962 70.7069 115.898 70.5294C115.863 70.3487 115.813 70.1713 115.749 69.9988C115.7 69.8165 115.64 69.6374 115.569 69.4622C115.403 69.0127 115.203 68.5763 114.971 68.1567C114.896 67.998 114.81 67.8447 114.714 67.6976C113.82 66.1405 112.566 64.8187 111.057 63.8419C109.547 62.8651 107.825 62.2617 106.034 62.0818C105.4 62.0192 104.762 62.0073 104.126 62.046C103.983 62.046 103.833 62.046 103.678 62.0937C103.498 62.0979 103.32 62.1199 103.145 62.1593C103.108 62.1531 103.069 62.1531 103.032 62.1593C103.025 62.1561 103.018 62.1545 103.011 62.1545C103.003 62.1545 102.996 62.1561 102.99 62.1593C102.697 62.1965 102.408 62.2523 102.122 62.3262C101.888 62.3753 101.658 62.4431 101.434 62.5289C99.916 63.0039 98.517 63.7966 97.3309 64.8539C96.6853 65.4448 95.9263 65.8991 95.0996 66.1893C94.6026 66.3609 94.0821 66.4554 93.5563 66.4695H93.341C92.9462 66.4695 92.5514 66.4397 92.1446 66.4159C91.7378 66.392 91.379 66.3145 91.0141 66.237C89.8727 66.0002 88.8299 65.4245 88.0232 64.5857C86.99 63.5037 86.4138 62.0672 86.4141 60.5735V36.1309C86.4141 35.9402 86.4141 35.7613 86.4141 35.5884C86.4511 35.2344 86.5233 34.885 86.6294 34.5451C86.6783 34.3804 86.7383 34.2191 86.8088 34.0623C86.9418 33.7417 87.1082 33.436 87.3053 33.1501C87.7012 32.5619 88.2118 32.0591 88.8068 31.6717L89.1896 31.4451C89.3451 31.3676 89.4947 31.2901 89.6502 31.2305C90.1288 31.0273 90.6346 30.8947 91.1516 30.837H91.2653C91.3629 30.8306 91.4608 30.8306 91.5584 30.837C91.5584 30.837 91.6003 30.837 91.6123 30.837C91.6499 30.8312 91.6883 30.8312 91.7259 30.837H116.251C117.583 30.8396 118.875 30.3852 119.909 29.5503C120.944 28.7155 121.659 27.551 121.934 26.2526C122.09 25.4954 122.166 24.7242 122.161 23.9514V23.7368C122.095 22.3318 121.521 20.998 120.546 19.981C119.337 18.6137 118.471 16.9788 118.022 15.2117C117.944 14.9017 117.884 14.6155 117.831 14.2936C117.556 12.6337 117.655 10.9336 118.122 9.31688C118.589 7.70013 119.411 6.20729 120.529 4.94683C121.647 3.68637 123.033 2.68995 124.585 2.02993C126.138 1.36991 127.819 1.06289 129.505 1.13116C131.192 1.19943 132.842 1.64128 134.336 2.42461C135.83 3.20795 137.13 4.31308 138.142 5.65974C139.154 7.00641 139.852 8.56079 140.185 10.2099C140.519 11.8591 140.48 13.5616 140.071 15.1938C139.632 16.9674 138.761 18.6056 137.535 19.9631C136.559 20.9934 135.981 22.3343 135.902 23.7487V23.9514C135.903 24.7248 135.985 25.4961 136.147 26.2526C136.416 27.5515 137.128 28.7177 138.161 29.5533C139.195 30.3889 140.487 30.8424 141.818 30.837H166.379C166.421 30.8312 166.463 30.8312 166.505 30.837H166.546C166.644 30.8306 166.742 30.8306 166.839 30.837H166.953C167.47 30.8947 167.976 31.0273 168.455 31.2305C168.61 31.2901 168.76 31.3676 168.915 31.4451L169.298 31.6717C169.962 32.1078 170.522 32.6852 170.935 33.3625C171.349 34.0397 171.607 34.7999 171.691 35.5884C171.691 35.7613 171.691 35.9402 171.691 36.1309V60.5735C171.691 62.0672 171.115 63.5037 170.082 64.5857C169.278 65.4282 168.234 66.0045 167.091 66.237C166.708 66.3145 166.343 66.3622 165.96 66.4159C165.577 66.4695 165.183 66.4695 164.764 66.4695H164.542C164.019 66.4548 163.5 66.3603 163.005 66.1893C162.179 65.8991 161.42 65.4448 160.774 64.8539C159.753 63.9501 158.578 63.2354 157.305 62.7435C156.872 62.5794 156.431 62.4401 155.983 62.3262C155.697 62.2523 155.408 62.1965 155.115 62.1593C155.102 62.1543 155.087 62.1543 155.073 62.1593C155.036 62.1531 154.997 62.1531 154.96 62.1593C154.785 62.1199 154.606 62.0979 154.427 62.0937C154.272 62.0937 154.122 62.0579 153.979 62.046C153.343 62.0073 152.705 62.0192 152.07 62.0818C150.279 62.2622 148.556 62.8658 147.046 63.8425C145.535 64.8191 144.28 66.1407 143.385 67.6976C143.291 67.8447 143.207 67.9981 143.134 68.1567C142.902 68.5763 142.702 69.0127 142.535 69.4622C142.465 69.6374 142.405 69.8165 142.356 69.9988C142.292 70.1721 142.24 70.3493 142.2 70.5294C142.142 70.7079 142.1 70.8915 142.075 71.0779C142.072 71.0835 142.071 71.0895 142.071 71.0957C142.071 71.1019 142.072 71.108 142.075 71.1136C141.997 71.4713 141.949 71.823 141.907 72.1807C142.015 72.4788 142.015 72.6696 142.003 72.8604Z" fill="#FFC00E" stroke="#C99403" stroke-miterlimit="10"/>
</svg>
