<svg width="258" height="232" viewBox="0 0 258 232" fill="none" xmlns="http://www.w3.org/2000/svg">
<path d="M227.331 72.7385C227.307 73.1356 227.307 73.5338 227.331 73.9309C227.331 74.1216 227.331 74.3124 227.367 74.527C227.409 74.8847 227.457 75.2364 227.535 75.5941C227.537 75.5997 227.539 75.6059 227.539 75.612C227.539 75.6182 227.537 75.6243 227.535 75.6299C227.559 75.8162 227.601 75.9999 227.66 76.1784C227.736 76.4975 227.83 76.812 227.941 77.1203C228.114 77.6143 228.328 78.0929 228.581 78.5511C228.655 78.7096 228.738 78.863 228.833 79.0102C229.728 80.567 230.983 81.8886 232.494 82.8653C234.004 83.842 235.727 84.4456 237.518 84.626C237.895 84.6618 238.278 84.6916 238.673 84.6916C238.93 84.6916 239.187 84.6916 239.426 84.6916C239.57 84.6916 239.719 84.6915 239.875 84.6439C240.106 84.6313 240.336 84.6014 240.563 84.5544C240.855 84.5172 241.145 84.4614 241.43 84.3875C241.879 84.2764 242.321 84.137 242.752 83.9702C244.023 83.4809 245.195 82.7659 246.21 81.8598C246.616 81.486 247.066 81.1618 247.55 80.894C247.85 80.7226 248.167 80.5809 248.495 80.4707C248.989 80.2988 249.508 80.2062 250.032 80.1965H250.253C251.027 80.193 251.799 80.2689 252.556 80.4231C253.699 80.6581 254.742 81.234 255.547 82.0744C256.578 83.1531 257.154 84.585 257.157 86.0746V110.553C257.157 110.732 257.157 110.911 257.157 111.084C257.119 111.438 257.047 111.787 256.941 112.127C256.738 112.78 256.409 113.388 255.972 113.915L255.631 114.285C255.514 114.409 255.386 114.523 255.248 114.625C254.446 115.287 253.466 115.701 252.431 115.817H252.317C252.22 115.824 252.122 115.824 252.024 115.817C251.968 115.823 251.912 115.823 251.857 115.817H227.241C225.911 115.812 224.619 116.265 223.585 117.101C222.552 117.936 221.84 119.103 221.571 120.402C221.41 121.158 221.328 121.929 221.325 122.703V122.905C221.405 124.32 221.983 125.661 222.958 126.691C224.185 128.048 225.056 129.687 225.495 131.46C225.716 132.358 225.829 133.278 225.83 134.203C225.861 135.785 225.56 137.356 224.945 138.816C224.329 140.275 223.414 141.589 222.258 142.674C221.102 143.759 219.73 144.591 218.232 145.115C216.734 145.639 215.142 145.845 213.559 145.719C211.976 145.592 210.437 145.137 209.041 144.381C207.646 143.626 206.425 142.587 205.457 141.332C204.489 140.078 203.795 138.635 203.421 137.097C203.047 135.559 203 133.959 203.284 132.402C203.338 132.098 203.398 131.806 203.476 131.49C203.922 129.722 204.788 128.087 206 126.721C206.974 125.701 207.547 124.366 207.615 122.959V122.744C207.619 121.972 207.543 121.201 207.388 120.443C207.113 119.145 206.398 117.98 205.363 117.145C204.328 116.311 203.037 115.856 201.705 115.859H177.18C177.124 115.865 177.068 115.865 177.012 115.859C176.915 115.865 176.817 115.865 176.719 115.859H176.605C175.57 115.743 174.591 115.329 173.788 114.667C173.638 114.551 173.5 114.421 173.375 114.279C173.262 114.16 173.136 114.035 173.034 113.909C173.034 113.909 173.034 113.909 172.998 113.868C172.681 113.481 172.423 113.049 172.233 112.586C172.155 112.432 172.094 112.27 172.053 112.103C171.947 111.763 171.875 111.414 171.838 111.06C171.838 110.887 171.838 110.708 171.838 110.529V86.0627C171.835 84.7361 172.292 83.4492 173.131 82.4194C173.97 81.3897 175.14 80.6803 176.444 80.4111C177.202 80.2564 177.973 80.1805 178.747 80.1846H178.962C179.488 80.1938 180.009 80.2863 180.506 80.4588C181.336 80.7489 182.099 81.2031 182.749 81.7942C183.93 82.8519 185.325 83.6448 186.84 84.1192C187.064 84.2051 187.294 84.2729 187.528 84.3219C187.792 84.3872 188.06 84.437 188.33 84.471C188.556 84.518 188.786 84.5479 189.018 84.5604C189.173 84.5604 189.323 84.5962 189.466 84.6081C189.706 84.6081 189.963 84.6081 190.22 84.6081C190.615 84.6081 190.998 84.6081 191.374 84.5425C193.165 84.3626 194.887 83.7592 196.397 82.7824C197.906 81.8056 199.16 80.4838 200.054 78.9267C200.15 78.7796 200.236 78.6263 200.311 78.4676C200.565 78.0094 200.779 77.5308 200.951 77.0369C201.064 76.7293 201.156 76.4146 201.227 76.0949C201.29 75.9174 201.334 75.7335 201.358 75.5465C201.355 75.5409 201.354 75.5348 201.354 75.5286C201.354 75.5224 201.355 75.5163 201.358 75.5107C201.436 75.153 201.484 74.8013 201.526 74.4436C201.526 74.2528 201.562 74.062 201.562 73.8474C201.586 73.4503 201.586 73.0521 201.562 72.6551C201.562 72.4643 201.562 72.2735 201.526 72.0589C201.484 71.7012 201.436 71.3495 201.358 70.9918C201.361 70.9862 201.362 70.9801 201.362 70.9739C201.362 70.9677 201.361 70.9616 201.358 70.956C201.334 70.769 201.29 70.5851 201.227 70.4075C201.191 70.2269 201.141 70.0494 201.077 69.877C201.028 69.6947 200.968 69.5155 200.898 69.3404C200.731 68.8909 200.531 68.4544 200.299 68.0348C200.224 67.8762 200.138 67.7228 200.042 67.5758C199.148 66.0187 197.895 64.6968 196.385 63.7201C194.875 62.7433 193.153 62.1399 191.363 61.96C190.728 61.8974 190.09 61.8855 189.454 61.9242C189.311 61.9242 189.161 61.9242 189.006 61.9719C188.826 61.9761 188.648 61.998 188.473 62.0375C188.436 62.0312 188.397 62.0312 188.36 62.0375C188.353 62.0343 188.346 62.0327 188.339 62.0327C188.331 62.0327 188.324 62.0343 188.318 62.0375C188.025 62.0747 187.736 62.1305 187.45 62.2044C187.216 62.2535 186.986 62.3213 186.763 62.4071C185.244 62.882 183.845 63.6747 182.659 64.7321C182.013 65.323 181.254 65.7772 180.428 66.0675C179.931 66.2391 179.41 66.3336 178.884 66.3477H178.669C178.274 66.3477 177.88 66.3179 177.473 66.2941C177.066 66.2702 176.707 66.1927 176.342 66.1152C175.201 65.8784 174.158 65.3027 173.351 64.4638C172.318 63.3819 171.742 61.9453 171.742 60.4517V36.0091C171.742 35.8183 171.742 35.6395 171.742 35.4666C171.779 35.1126 171.851 34.7631 171.958 34.4233C172.006 34.2585 172.066 34.0972 172.137 33.9404C172.27 33.6199 172.436 33.3142 172.633 33.0283C173.029 32.44 173.54 31.9372 174.135 31.5498L174.518 31.3233C174.673 31.2458 174.823 31.1683 174.978 31.1087C175.457 30.9054 175.963 30.7729 176.48 30.7152H176.593C176.691 30.7087 176.789 30.7087 176.887 30.7152C176.887 30.7152 176.928 30.7152 176.94 30.7152C176.978 30.7094 177.016 30.7094 177.054 30.7152H201.579C202.911 30.7178 204.203 30.2634 205.238 29.4285C206.272 28.5936 206.987 27.4291 207.262 26.1307C207.418 25.3736 207.494 24.6024 207.49 23.8296V23.615C207.423 22.21 206.849 20.8762 205.874 19.8591C204.665 18.4919 203.799 16.8569 203.35 15.0898C203.272 14.7798 203.212 14.4937 203.159 14.1718C202.884 12.5119 202.983 10.8118 203.45 9.19505C203.917 7.5783 204.739 6.08547 205.857 4.82501C206.975 3.56455 208.361 2.56812 209.913 1.9081C211.466 1.24808 213.147 0.941062 214.834 1.00933C216.52 1.0776 218.17 1.51946 219.664 2.30279C221.158 3.08612 222.458 4.19125 223.47 5.53791C224.482 6.88458 225.18 8.43896 225.514 10.0881C225.847 11.7373 225.808 13.4398 225.399 15.072C224.96 16.8456 224.089 18.4838 222.863 19.8412C221.887 20.8716 221.309 22.2125 221.23 23.6269V23.8296C221.231 24.603 221.313 25.3742 221.475 26.1307C221.744 27.4297 222.456 28.5959 223.489 29.4315C224.523 30.267 225.815 30.7206 227.146 30.7152H251.707C251.749 30.7093 251.791 30.7093 251.833 30.7152H251.875C251.972 30.7087 252.07 30.7087 252.168 30.7152H252.281C252.798 30.7729 253.304 30.9054 253.783 31.1087C253.938 31.1683 254.088 31.2458 254.243 31.3233L254.626 31.5498C255.291 31.9859 255.85 32.5634 256.264 33.2406C256.677 33.9179 256.935 34.6781 257.019 35.4666C257.019 35.6395 257.019 35.8183 257.019 36.0091V60.4517C257.019 61.9453 256.443 63.3819 255.41 64.4638C254.606 65.3063 253.562 65.8827 252.419 66.1152C252.036 66.1927 251.671 66.2404 251.288 66.2941C250.905 66.3477 250.511 66.3477 250.092 66.3477H249.871C249.347 66.333 248.828 66.2385 248.333 66.0675C247.507 65.7772 246.748 65.323 246.102 64.7321C245.081 63.8283 243.906 63.1135 242.633 62.6217C242.2 62.4576 241.759 62.3183 241.311 62.2044C241.025 62.1305 240.736 62.0747 240.443 62.0375C240.43 62.0324 240.415 62.0324 240.401 62.0375C240.364 62.0312 240.325 62.0312 240.288 62.0375C240.113 61.998 239.935 61.9761 239.755 61.9719C239.6 61.9719 239.45 61.9361 239.307 61.9242C238.671 61.8855 238.033 61.8974 237.399 61.96C235.607 62.1404 233.885 62.744 232.374 63.7206C230.863 64.6973 229.608 66.0189 228.713 67.5758C228.619 67.7229 228.535 67.8763 228.462 68.0348C228.23 68.4544 228.03 68.8909 227.864 69.3404C227.793 69.5155 227.733 69.6947 227.684 69.877C227.621 70.0502 227.569 70.2274 227.529 70.4075C227.47 70.5861 227.428 70.7697 227.403 70.956C227.4 70.9616 227.399 70.9677 227.399 70.9739C227.399 70.9801 227.4 70.9862 227.403 70.9918C227.325 71.3495 227.277 71.7012 227.235 72.0589C227.343 72.357 227.343 72.5478 227.331 72.7385Z" fill="#FFC00E" stroke="#C99403" stroke-miterlimit="10"/>
<path d="M57.1741 73.3755C57.1494 73.7726 57.1494 74.1708 57.1741 74.5678C57.1741 74.7586 57.1741 74.9494 57.2104 75.164C57.2527 75.5217 57.301 75.8734 57.3796 76.2311C57.3823 76.2367 57.3837 76.2428 57.3837 76.249C57.3837 76.2552 57.3823 76.2613 57.3796 76.2669C57.4046 76.4532 57.4471 76.6368 57.5066 76.8154C57.5829 77.1345 57.6777 77.4489 57.7907 77.7573C57.9652 78.2512 58.1816 78.7299 58.4375 79.1881C58.5114 79.3466 58.5962 79.5 58.6914 79.6471C59.5962 81.204 60.8645 82.5256 62.391 83.5023C63.9174 84.4789 65.658 85.0825 67.4684 85.2629C67.8492 85.2987 68.236 85.3285 68.635 85.3285C68.8949 85.3285 69.1549 85.3285 69.3966 85.3285C69.5417 85.3285 69.6928 85.3285 69.85 85.2808C70.0837 85.2683 70.3161 85.2384 70.5452 85.1914C70.8406 85.1542 71.1334 85.0984 71.4217 85.0245C71.8755 84.9133 72.3216 84.7739 72.7575 84.6071C74.042 84.1179 75.2258 83.4029 76.2514 82.4967C76.6623 82.123 77.1169 81.7988 77.6055 81.531C77.9091 81.3596 78.229 81.2178 78.5605 81.1077C79.0604 80.9357 79.5848 80.8432 80.1141 80.8335H80.3377C81.1193 80.83 81.8991 80.9059 82.6649 81.06C83.819 81.295 84.8733 81.871 85.6873 82.7114C86.7291 83.79 87.3112 85.222 87.3134 86.7116V111.19C87.3134 111.369 87.3134 111.548 87.3134 111.721C87.2759 112.075 87.203 112.424 87.0957 112.764C86.8909 113.417 86.5583 114.025 86.1165 114.552L85.772 114.922C85.6533 115.046 85.5238 115.16 85.3851 115.262C84.5739 115.924 83.5844 116.338 82.538 116.454H82.4231C82.3245 116.461 82.2256 116.461 82.1269 116.454C82.0707 116.46 82.014 116.46 81.9577 116.454H57.0834C55.7386 116.449 54.4332 116.902 53.3887 117.738C52.3443 118.573 51.625 119.74 51.353 121.039C51.1904 121.795 51.1073 122.566 51.1051 123.34V123.542C51.1851 124.957 51.7697 126.298 52.7554 127.328C53.9948 128.685 54.8752 130.324 55.3184 132.097C55.542 132.995 55.6557 133.915 55.6569 134.84C55.6888 136.422 55.3841 137.993 54.7624 139.453C54.1408 140.912 53.216 142.226 52.0476 143.311C50.8793 144.396 49.4934 145.228 47.9793 145.752C46.4651 146.276 44.8564 146.482 43.2567 146.356C41.6571 146.229 40.1021 145.774 38.6919 145.018C37.2817 144.263 36.0478 143.224 35.0695 141.969C34.0913 140.715 33.3905 139.272 33.0124 137.734C32.6342 136.196 32.5871 134.596 32.8741 133.039C32.9285 132.735 32.989 132.443 33.0675 132.127C33.5188 130.359 34.3936 128.723 35.6184 127.358C36.6026 126.338 37.1819 125.003 37.2505 123.596V123.381C37.2543 122.609 37.1774 121.837 37.0208 121.08C36.7431 119.782 36.0207 118.617 34.9749 117.782C33.9291 116.948 32.6237 116.493 31.2783 116.496H6.49468C6.43841 116.501 6.38172 116.501 6.32545 116.496C6.22683 116.502 6.12788 116.502 6.02926 116.496H5.91441C4.86795 116.38 3.87845 115.966 3.0673 115.303C2.91595 115.188 2.77627 115.058 2.65021 114.916C2.53536 114.797 2.40842 114.672 2.30566 114.546C2.30566 114.546 2.30566 114.546 2.26939 114.505C1.94834 114.118 1.68758 113.686 1.49568 113.223C1.41682 113.069 1.35595 112.907 1.3143 112.74C1.20705 112.4 1.13417 112.051 1.0967 111.697C1.0967 111.524 1.0967 111.345 1.0967 111.166V86.6997C1.09379 85.3731 1.55536 84.0861 2.40343 83.0564C3.25149 82.0266 4.43404 81.3173 5.75119 81.0481C6.5169 80.8934 7.29681 80.8175 8.07841 80.8215H8.29605C8.82737 80.8307 9.35378 80.9233 9.85558 81.0958C10.6947 81.3858 11.4657 81.84 12.1224 82.4312C13.3161 83.4889 14.7261 84.2817 16.257 84.7562C16.4828 84.842 16.7153 84.9098 16.9521 84.9589C17.2189 85.0242 17.4894 85.0739 17.7622 85.1079C17.9913 85.1549 18.2237 85.1848 18.4573 85.1974C18.6145 85.1974 18.7656 85.2331 18.9107 85.245C19.1525 85.245 19.4124 85.245 19.6723 85.245C20.0712 85.245 20.4581 85.245 20.839 85.1795C22.6487 84.9996 24.3886 84.3961 25.9142 83.4194C27.4397 82.4426 28.7068 81.1207 29.6099 79.5637C29.707 79.4166 29.7938 79.2632 29.8699 79.1046C30.1257 78.6464 30.3421 78.1678 30.5166 77.6738C30.6303 77.3663 30.7232 77.0516 30.7947 76.7319C30.8589 76.5543 30.9035 76.3705 30.9277 76.1834C30.925 76.1778 30.9236 76.1717 30.9236 76.1655C30.9236 76.1593 30.925 76.1532 30.9277 76.1476C31.0063 75.7899 31.0546 75.4382 31.0969 75.0805C31.0969 74.8897 31.1332 74.699 31.1332 74.4844C31.1579 74.0873 31.1579 73.6891 31.1332 73.292C31.1332 73.1013 31.1332 72.9105 31.0969 72.6959C31.0546 72.3382 31.0063 71.9865 30.9277 71.6288C30.9304 71.6232 30.9318 71.6171 30.9318 71.6109C30.9318 71.6047 30.9304 71.5986 30.9277 71.593C30.9035 71.406 30.8589 71.2221 30.7947 71.0445C30.7592 70.8638 30.7087 70.6864 30.6436 70.5139C30.5941 70.3317 30.5335 70.1525 30.4622 69.9774C30.2943 69.5278 30.0922 69.0914 29.8578 68.6718C29.7817 68.5132 29.6949 68.3598 29.5978 68.2127C28.6947 66.6557 27.4277 65.3338 25.9021 64.357C24.3765 63.3802 22.6366 62.7768 20.8269 62.5969C20.1861 62.5344 19.5413 62.5224 18.8986 62.5612C18.7535 62.5612 18.6024 62.5612 18.4452 62.6089C18.2641 62.613 18.0839 62.635 17.9072 62.6744C17.8692 62.6682 17.8304 62.6682 17.7924 62.6744C17.7858 62.6713 17.7786 62.6696 17.7712 62.6696C17.7639 62.6696 17.7566 62.6713 17.7501 62.6744C17.4546 62.7117 17.1619 62.7674 16.8736 62.8414C16.6367 62.8905 16.4043 62.9582 16.1784 63.044C14.6441 63.519 13.2303 64.3117 12.0317 65.3691C11.3794 65.9599 10.6123 66.4142 9.77699 66.7045C9.27475 66.876 8.74879 66.9705 8.21747 66.9847H7.99983C7.60087 66.9847 7.20192 66.9549 6.79087 66.931C6.37983 66.9072 6.01717 66.8297 5.64844 66.7522C4.495 66.5154 3.4413 65.9397 2.62605 65.1008C1.58197 64.0188 0.999767 62.5823 1 61.0886V36.6461C1 36.4553 1 36.2764 1 36.1036C1.03747 35.7496 1.11035 35.4001 1.2176 35.0603C1.26706 34.8955 1.32764 34.7342 1.39894 34.5774C1.5333 34.2569 1.70147 33.9511 1.90067 33.6653C2.30066 33.077 2.81667 32.5742 3.41791 32.1868L3.80475 31.9603C3.96191 31.8828 4.11304 31.8052 4.27021 31.7456C4.75386 31.5424 5.26499 31.4098 5.78745 31.3522H5.90231C6.00093 31.3457 6.09987 31.3457 6.19849 31.3522C6.19849 31.3522 6.24082 31.3522 6.25291 31.3522C6.29097 31.3463 6.32971 31.3463 6.36777 31.3522H31.1514C32.4968 31.3547 33.8021 30.9004 34.8479 30.0655C35.8937 29.2306 36.6162 28.0661 36.8939 26.7677C37.051 26.0106 37.128 25.2394 37.1236 24.4665V24.2519C37.0562 22.8469 36.4766 21.5132 35.4915 20.4961C34.269 19.1288 33.3945 17.4939 32.9406 15.7268C32.862 15.4168 32.8016 15.1306 32.7472 14.8087C32.4693 13.1488 32.5699 11.4488 33.0416 9.83202C33.5133 8.21526 34.3442 6.72243 35.4739 5.46197C36.6037 4.20151 38.004 3.20508 39.5731 2.54506C41.1421 1.88505 42.8406 1.57802 44.545 1.64629C46.2494 1.71456 47.917 2.15642 49.4266 2.93975C50.9362 3.72308 52.2499 4.82821 53.2724 6.17488C54.2948 7.52154 55.0002 9.07592 55.3374 10.7251C55.6745 12.3742 55.635 14.0767 55.2216 15.7089C54.7784 17.4825 53.8981 19.1208 52.6586 20.4782C51.6729 21.5085 51.0884 22.8495 51.0084 24.2638V24.4665C51.0099 25.24 51.093 26.0112 51.2563 26.7677C51.5283 28.0667 52.2476 29.2328 53.292 30.0684C54.3365 30.904 55.6419 31.3576 56.9867 31.3522H81.8066C81.8487 31.3463 81.8914 31.3463 81.9335 31.3522H81.9758C82.0744 31.3457 82.1734 31.3457 82.272 31.3522H82.3869C82.9093 31.4098 83.4205 31.5424 83.9042 31.7456C84.0613 31.8052 84.2124 31.8828 84.3695 31.9603L84.7564 32.1868C85.4278 32.6229 85.993 33.2004 86.411 33.8776C86.8291 34.5549 87.0898 35.3151 87.1743 36.1036C87.1743 36.2764 87.1743 36.4553 87.1743 36.6461V61.0886C87.1746 62.5823 86.5924 64.0188 85.5483 65.1008C84.7359 65.9433 83.681 66.5197 82.5259 66.7522C82.1391 66.8297 81.7703 66.8774 81.3834 66.931C80.9966 66.9847 80.5976 66.9847 80.1745 66.9847H79.9508C79.4215 66.9699 78.8977 66.8755 78.3973 66.7045C77.562 66.4142 76.795 65.9599 76.1426 65.3691C75.1108 64.4652 73.9235 63.7505 72.6367 63.2587C72.1998 63.0946 71.7538 62.9552 71.3008 62.8414C71.0125 62.7674 70.7197 62.7117 70.4243 62.6744C70.4106 62.6694 70.3956 62.6694 70.3819 62.6744C70.3439 62.6682 70.3051 62.6682 70.2671 62.6744C70.0904 62.635 69.9102 62.613 69.7291 62.6089C69.5719 62.6089 69.4208 62.5731 69.2757 62.5612C68.633 62.5224 67.9883 62.5344 67.3475 62.5969C65.5372 62.7773 63.7965 63.3809 62.2701 64.3576C60.7436 65.3343 59.4753 66.6559 58.5705 68.2127C58.4753 68.3599 58.3905 68.5133 58.3166 68.6718C58.0821 69.0914 57.8801 69.5278 57.7121 69.9774C57.6408 70.1525 57.5802 70.3317 57.5307 70.5139C57.4665 70.6872 57.414 70.8644 57.3736 71.0445C57.3141 71.223 57.2716 71.4067 57.2467 71.593C57.244 71.5986 57.2426 71.6047 57.2426 71.6109C57.2426 71.6171 57.244 71.6232 57.2467 71.6288C57.1681 71.9865 57.1197 72.3382 57.0774 72.6959C57.1862 72.994 57.1862 73.1847 57.1741 73.3755Z" fill="#FFC00E" stroke="#C99403" stroke-miterlimit="10"/>
<path d="M190.188 85.3815C189.266 85.3831 188.347 85.2704 187.452 85.0462C185.687 84.607 184.056 83.7348 182.705 82.5069C181.68 81.5293 180.345 80.9519 178.937 80.8779H178.735C177.968 80.8744 177.202 80.9506 176.45 81.1055C175.157 81.3804 173.997 82.096 173.165 83.132C172.333 84.168 171.88 85.4614 171.881 86.795V111.613C171.83 112.714 171.444 113.771 170.774 114.642C170.105 115.512 169.186 116.153 168.143 116.476C167.694 116.632 167.223 116.715 166.748 116.722H166.712C166.671 116.716 166.629 116.716 166.588 116.722H142.229C140.908 116.726 139.626 116.269 138.601 115.428C137.576 114.588 136.87 113.416 136.603 112.11C136.443 111.352 136.362 110.579 136.36 109.804V109.601C136.435 108.179 137.009 106.831 137.98 105.798C139.192 104.431 140.056 102.786 140.496 101.007C140.713 100.103 140.823 99.1759 140.822 98.2458C140.834 96.667 140.521 95.103 139.902 93.6531C139.283 92.2032 138.371 90.8993 137.226 89.8241C136.08 88.749 134.725 87.9262 133.248 87.4081C131.77 86.89 130.202 86.6879 128.642 86.8147C127.083 86.9415 125.567 87.3944 124.19 88.1446C122.814 88.8948 121.607 89.9259 120.647 91.1722C119.687 92.4186 118.994 93.8531 118.613 95.3843C118.232 96.9155 118.17 98.51 118.433 100.066C118.48 100.378 118.546 100.665 118.623 100.989C119.063 102.766 119.922 104.41 121.127 105.78C122.092 106.806 122.66 108.146 122.729 109.559V109.775C122.73 110.549 122.655 111.321 122.504 112.08C122.231 113.385 121.522 114.556 120.496 115.395C119.469 116.235 118.188 116.693 116.866 116.692H92.5367C92.4994 116.685 92.4613 116.685 92.424 116.692C92.424 116.692 92.3824 116.692 92.3705 116.692C91.8906 116.678 91.4151 116.595 90.9582 116.446C89.9008 116.122 88.9718 115.47 88.3037 114.581C87.6356 113.693 87.2624 112.614 87.2376 111.499C87.2319 111.452 87.2319 111.403 87.2376 111.356V86.795C87.239 85.4622 86.7863 84.1695 85.9555 83.1336C85.1246 82.0977 83.9662 81.3816 82.6743 81.1055C81.9205 80.9509 81.1529 80.8747 80.3837 80.8779H80.176C78.7681 80.9519 77.4324 81.5293 76.4079 82.5069C75.0575 83.7358 73.4265 84.6082 71.6607 85.0462C69.9026 85.4911 68.0641 85.5017 66.301 85.0771C64.538 84.6524 62.9024 83.8051 61.5329 82.6068C60.1633 81.4085 59.1002 79.8947 58.4337 78.1936C57.7671 76.4925 57.5167 74.6543 57.7037 72.8347C57.8767 71.2965 58.356 69.8094 59.1128 68.4629C59.8696 67.1163 60.8883 65.938 62.1077 64.9988C63.3271 64.0596 64.7219 63.3788 66.2086 62.9974C67.6952 62.616 69.2429 62.5418 70.7587 62.7793C71.0613 62.8332 71.3521 62.8931 71.6666 62.9709C73.4275 63.4154 75.0561 64.2825 76.4138 65.4983C77.4332 66.4799 78.7688 67.0581 80.176 67.1273H80.3897C81.1591 67.1285 81.9266 67.0502 82.6802 66.8937C83.9726 66.6185 85.1317 65.9028 85.9628 64.8666C86.7938 63.8305 87.246 62.5372 87.2435 61.2042V36.6495C87.2377 36.5738 87.2377 36.4977 87.2435 36.422C87.3027 35.0734 87.8644 33.7972 88.8162 32.8488C89.768 31.9004 91.0396 31.3499 92.3765 31.3074C92.4317 31.3134 92.4874 31.3134 92.5426 31.3074H116.872C118.193 31.3049 119.475 31.7613 120.501 32.6C121.528 33.4387 122.237 34.6086 122.51 35.9129C122.661 36.674 122.736 37.4484 122.735 38.2246V38.4402C122.665 39.8526 122.097 41.193 121.133 42.2193C119.926 43.5882 119.067 45.2324 118.629 47.0104C118.552 47.3159 118.486 47.6093 118.439 47.9267C118.166 49.5942 118.265 51.3021 118.728 52.9263C119.191 54.5504 120.007 56.0501 121.116 57.3163C122.225 58.5826 123.599 59.5836 125.14 60.2466C126.68 60.9097 128.347 61.2181 130.021 61.1495C131.694 61.0809 133.331 60.6371 134.813 59.8501C136.295 59.0632 137.584 57.953 138.588 56.6002C139.592 55.2473 140.284 53.6858 140.615 52.0291C140.946 50.3724 140.908 48.6621 140.502 47.0224C140.064 45.2415 139.2 43.5963 137.986 42.2312C137.015 41.1982 136.441 39.85 136.366 38.4283V38.2246C136.367 37.4476 136.449 36.6729 136.609 35.9129C136.876 34.608 137.582 33.4365 138.607 32.597C139.633 31.7576 140.914 31.302 142.234 31.3074H166.6C166.653 31.3134 166.707 31.3134 166.76 31.3074C167.234 31.3149 167.704 31.3957 168.154 31.547C169.199 31.8649 170.12 32.5025 170.789 33.3715C171.459 34.2406 171.845 35.2981 171.893 36.398V61.1982C171.891 62.5321 172.344 63.826 173.176 64.8623C174.008 65.8985 175.169 66.6138 176.462 66.8877C177.214 67.0445 177.979 67.1228 178.747 67.1213H178.96C180.361 67.0495 181.689 66.4738 182.705 65.4983C184.063 64.2825 185.691 63.4154 187.452 62.9709C187.755 62.8931 188.045 62.8332 188.366 62.7793C189.905 62.5197 191.48 62.5853 192.993 62.9719C194.505 63.3586 195.922 64.0578 197.153 65.0255C198.384 65.9931 199.402 67.2081 200.144 68.5935C200.886 69.9789 201.334 71.5046 201.462 73.074C201.589 74.6435 201.392 76.2225 200.884 77.7112C200.375 79.1999 199.566 80.5659 198.507 81.7227C197.449 82.8796 196.164 83.8021 194.734 84.4319C193.304 85.0617 191.76 85.385 190.2 85.3815H190.188Z" fill="#C9DA2A" stroke="#9EAC20" stroke-miterlimit="10"/>
<path d="M142.317 158.344C142.293 158.739 142.293 159.135 142.317 159.529C142.317 159.719 142.317 159.908 142.353 160.122C142.394 160.477 142.442 160.827 142.519 161.182C142.521 161.188 142.523 161.194 142.523 161.2C142.523 161.206 142.521 161.212 142.519 161.218C142.543 161.403 142.585 161.585 142.643 161.763C142.718 162.08 142.81 162.392 142.921 162.699C143.092 163.19 143.304 163.665 143.554 164.121C143.627 164.278 143.71 164.431 143.803 164.577C144.689 166.124 145.931 167.437 147.425 168.408C148.92 169.379 150.624 169.979 152.397 170.158C152.77 170.193 153.149 170.223 153.539 170.223C153.794 170.223 154.048 170.223 154.285 170.223C154.427 170.223 154.575 170.223 154.729 170.176C154.958 170.163 155.185 170.133 155.41 170.087C155.699 170.05 155.986 169.994 156.268 169.921C156.712 169.81 157.149 169.672 157.576 169.506C158.834 169.02 159.993 168.309 160.997 167.409C161.399 167.037 161.845 166.715 162.323 166.449C162.62 166.279 162.934 166.138 163.258 166.028C163.748 165.857 164.261 165.766 164.779 165.756H164.998C165.764 165.752 166.527 165.828 167.277 165.981C168.407 166.215 169.439 166.787 170.236 167.622C171.257 168.694 171.826 170.117 171.829 171.598V195.924C171.829 196.102 171.829 196.279 171.829 196.451C171.792 196.803 171.721 197.15 171.616 197.488C171.415 198.137 171.089 198.741 170.657 199.265L170.319 199.633C170.203 199.756 170.076 199.869 169.941 199.97C169.146 200.628 168.177 201.04 167.153 201.155H167.04C166.944 201.162 166.847 201.162 166.75 201.155C166.695 201.161 166.64 201.161 166.585 201.155H142.229C140.912 201.15 139.633 201.601 138.611 202.431C137.588 203.261 136.884 204.42 136.617 205.711C136.458 206.463 136.377 207.229 136.375 207.998V208.199C136.453 209.605 137.025 210.938 137.991 211.962C139.204 213.311 140.066 214.939 140.5 216.701C140.719 217.593 140.83 218.508 140.832 219.427C140.863 220.999 140.565 222.561 139.956 224.011C139.347 225.461 138.442 226.767 137.298 227.845C136.154 228.924 134.797 229.75 133.314 230.271C131.831 230.792 130.256 230.997 128.69 230.871C127.124 230.745 125.601 230.293 124.22 229.542C122.839 228.791 121.631 227.759 120.673 226.512C119.715 225.265 119.029 223.831 118.659 222.303C118.289 220.774 118.243 219.185 118.524 217.637C118.577 217.335 118.636 217.045 118.713 216.731C119.155 214.974 120.011 213.348 121.211 211.991C122.174 210.977 122.742 209.651 122.809 208.253V208.04C122.813 207.272 122.737 206.505 122.584 205.753C122.312 204.462 121.605 203.305 120.581 202.475C119.557 201.646 118.278 201.194 116.961 201.197H92.6937C92.6386 201.202 92.5831 201.202 92.528 201.197C92.4314 201.203 92.3345 201.203 92.238 201.197H92.1255C91.1008 201.082 90.132 200.67 89.3377 200.012C89.1895 199.897 89.0527 199.768 88.9293 199.627C88.8169 199.508 88.6926 199.384 88.5919 199.259C88.5919 199.259 88.5919 199.259 88.5564 199.218C88.2421 198.833 87.9867 198.404 87.7988 197.944C87.7216 197.791 87.662 197.63 87.6212 197.464C87.5162 197.126 87.4449 196.779 87.4082 196.427C87.4082 196.256 87.4082 196.078 87.4082 195.9V171.586C87.4053 170.267 87.8573 168.988 88.6877 167.965C89.5181 166.942 90.676 166.237 91.9657 165.969C92.7154 165.815 93.4791 165.74 94.2444 165.744H94.4575C94.9778 165.753 95.4932 165.845 95.9846 166.017C96.8062 166.305 97.5611 166.756 98.2041 167.344C99.373 168.395 100.754 169.183 102.253 169.654C102.474 169.74 102.701 169.807 102.933 169.856C103.195 169.921 103.459 169.97 103.726 170.004C103.951 170.05 104.178 170.08 104.407 170.093C104.561 170.093 104.709 170.128 104.851 170.14C105.088 170.14 105.342 170.14 105.597 170.14C105.987 170.14 106.366 170.14 106.739 170.075C108.511 169.896 110.215 169.296 111.709 168.326C113.202 167.355 114.443 166.041 115.327 164.494C115.422 164.348 115.507 164.195 115.582 164.038C115.832 163.582 116.044 163.107 116.215 162.616C116.327 162.31 116.417 161.997 116.487 161.68C116.55 161.503 116.594 161.321 116.618 161.135C116.615 161.129 116.614 161.123 116.614 161.117C116.614 161.111 116.615 161.105 116.618 161.099C116.695 160.744 116.742 160.394 116.783 160.039C116.783 159.849 116.819 159.659 116.819 159.446C116.843 159.052 116.843 158.656 116.819 158.261C116.819 158.072 116.819 157.882 116.783 157.669C116.742 157.313 116.695 156.964 116.618 156.608C116.62 156.603 116.622 156.597 116.622 156.591C116.622 156.584 116.62 156.578 116.618 156.573C116.594 156.387 116.55 156.204 116.487 156.028C116.453 155.848 116.403 155.672 116.339 155.5C116.291 155.319 116.232 155.141 116.162 154.967C115.997 154.52 115.8 154.087 115.57 153.67C115.496 153.512 115.411 153.36 115.316 153.214C114.431 151.666 113.191 150.352 111.697 149.382C110.203 148.411 108.499 147.811 106.727 147.633C106.1 147.57 105.468 147.559 104.839 147.597C104.697 147.597 104.549 147.597 104.395 147.644C104.218 147.649 104.041 147.67 103.868 147.71C103.831 147.703 103.793 147.703 103.756 147.71C103.75 147.706 103.742 147.705 103.735 147.705C103.728 147.705 103.721 147.706 103.715 147.71C103.425 147.747 103.139 147.802 102.856 147.876C102.624 147.924 102.397 147.992 102.176 148.077C100.673 148.549 99.289 149.337 98.1154 150.388C97.4766 150.975 96.7256 151.426 95.9076 151.715C95.4158 151.885 94.9008 151.979 94.3806 151.993H94.1675C93.7768 151.993 93.3862 151.963 92.9837 151.94C92.5812 151.916 92.2261 151.839 91.8651 151.762C90.7357 151.527 89.7039 150.955 88.9056 150.121C87.8833 149.046 87.3132 147.618 87.3135 146.134V121.843C87.3135 121.653 87.3135 121.476 87.3135 121.304C87.3502 120.952 87.4215 120.605 87.5265 120.267C87.575 120.103 87.6343 119.943 87.7041 119.787C87.8357 119.469 88.0003 119.165 88.1954 118.881C88.587 118.296 89.0923 117.796 89.681 117.411L90.0598 117.186C90.2137 117.109 90.3617 117.032 90.5156 116.973C90.9891 116.771 91.4896 116.639 92.0012 116.582H92.1137C92.2102 116.575 92.3071 116.575 92.4037 116.582C92.4037 116.582 92.4451 116.582 92.457 116.582C92.4942 116.576 92.5322 116.576 92.5694 116.582H116.837C118.154 116.584 119.432 116.133 120.456 115.303C121.48 114.474 122.188 113.316 122.46 112.026C122.613 111.273 122.689 110.507 122.685 109.739V109.526C122.619 108.129 122.051 106.804 121.086 105.793C119.889 104.434 119.033 102.81 118.589 101.054C118.512 100.746 118.452 100.461 118.399 100.141C118.127 98.4916 118.226 96.8021 118.688 95.1954C119.149 93.5887 119.963 92.1051 121.069 90.8525C122.175 89.5999 123.547 88.6096 125.083 87.9537C126.619 87.2978 128.282 86.9927 129.951 87.0605C131.62 87.1284 133.253 87.5675 134.731 88.346C136.209 89.1244 137.496 90.2227 138.497 91.561C139.498 92.8993 140.189 94.444 140.519 96.0829C140.849 97.7218 140.81 99.4138 140.405 101.036C139.972 102.798 139.109 104.426 137.896 105.775C136.931 106.799 136.358 108.132 136.28 109.538V109.739C136.282 110.508 136.363 111.274 136.523 112.026C136.789 113.317 137.493 114.476 138.516 115.306C139.539 116.137 140.817 116.587 142.134 116.582H166.437C166.478 116.576 166.52 116.576 166.561 116.582H166.602C166.699 116.575 166.796 116.575 166.892 116.582H167.005C167.516 116.639 168.017 116.771 168.49 116.973C168.644 117.032 168.792 117.109 168.946 117.186L169.325 117.411C169.982 117.845 170.536 118.419 170.945 119.092C171.354 119.765 171.61 120.52 171.692 121.304C171.692 121.476 171.692 121.653 171.692 121.843V146.134C171.693 147.618 171.123 149.046 170.1 150.121C169.305 150.958 168.272 151.531 167.141 151.762C166.762 151.839 166.401 151.886 166.022 151.94C165.643 151.993 165.253 151.993 164.839 151.993H164.62C164.101 151.978 163.588 151.885 163.098 151.715C162.28 151.426 161.529 150.975 160.891 150.388C159.88 149.489 158.718 148.779 157.458 148.29C157.03 148.127 156.593 147.989 156.15 147.876C155.867 147.802 155.581 147.747 155.291 147.71C155.278 147.705 155.263 147.705 155.25 147.71C155.213 147.703 155.175 147.703 155.138 147.71C154.965 147.67 154.788 147.649 154.611 147.644C154.457 147.644 154.309 147.609 154.167 147.597C153.537 147.559 152.906 147.57 152.279 147.633C150.506 147.812 148.802 148.412 147.307 149.382C145.812 150.353 144.571 151.666 143.685 153.214C143.591 153.36 143.508 153.512 143.436 153.67C143.206 154.087 143.009 154.52 142.844 154.967C142.774 155.141 142.715 155.319 142.666 155.5C142.604 155.673 142.552 155.849 142.513 156.028C142.454 156.205 142.413 156.388 142.388 156.573C142.386 156.578 142.384 156.584 142.384 156.591C142.384 156.597 142.386 156.603 142.388 156.608C142.311 156.964 142.264 157.313 142.223 157.669C142.329 157.965 142.329 158.155 142.317 158.344Z" fill="#FFC00E" stroke="#C99403" stroke-miterlimit="10"/>
</svg>
