<svg width="271" height="394" viewBox="0 0 271 394" fill="none" xmlns="http://www.w3.org/2000/svg">
<path d="M20.4312 156.812C20.4551 156.425 20.4551 156.038 20.4312 155.651C20.4312 155.465 20.4312 155.279 20.396 155.07C20.355 154.722 20.3081 154.379 20.2319 154.031C20.2293 154.025 20.2279 154.019 20.2279 154.013C20.2279 154.007 20.2293 154.001 20.2319 153.996C20.2077 153.814 20.1664 153.636 20.1088 153.462C20.0347 153.151 19.9428 152.844 19.8332 152.544C19.6639 152.063 19.4541 151.597 19.2059 151.151C19.1342 150.996 19.0519 150.847 18.9596 150.703C18.082 149.187 16.8518 147.9 15.3713 146.948C13.8908 145.997 12.2026 145.409 10.4467 145.233C10.0774 145.199 9.70215 145.17 9.3152 145.17C9.0631 145.17 8.81098 145.17 8.57647 145.17C8.43576 145.17 8.28918 145.17 8.13675 145.216C7.91012 145.228 7.68472 145.257 7.4625 145.303C7.17593 145.339 6.89198 145.394 6.61238 145.466C6.17225 145.574 5.7395 145.71 5.3167 145.872C4.07088 146.349 2.92268 147.045 1.92793 147.928C1.52942 148.292 1.08856 148.608 0.614655 148.868C0.320145 149.035 0.0098877 149.173 -0.311691 149.281C-0.796501 149.448 -1.30509 149.538 -1.81846 149.548H-2.03539C-2.79344 149.551 -3.54982 149.477 -4.29258 149.327C-5.41196 149.098 -6.43445 148.537 -7.22402 147.719C-8.23441 146.668 -8.799 145.273 -8.80118 143.822V119.98C-8.80118 119.805 -8.80118 119.631 -8.80118 119.463C-8.76484 119.118 -8.69408 118.778 -8.59005 118.447C-8.39143 117.81 -8.06875 117.218 -7.64027 116.705L-7.30611 116.345C-7.191 116.224 -7.06544 116.113 -6.93088 116.014C-6.14413 115.369 -5.18442 114.965 -4.16945 114.852H-4.05805C-3.96239 114.846 -3.86643 114.846 -3.77077 114.852C-3.7162 114.847 -3.66121 114.847 -3.60664 114.852H20.5192C21.8236 114.858 23.0897 114.416 24.1027 113.602C25.1157 112.788 25.8133 111.652 26.0772 110.387C26.2349 109.65 26.3155 108.899 26.3176 108.145V107.948C26.24 106.57 25.673 105.264 24.717 104.261C23.5149 102.939 22.661 101.343 22.2311 99.6153C22.0142 98.7411 21.904 97.8443 21.9028 96.9442C21.8719 95.4029 22.1674 93.8723 22.7704 92.451C23.3733 91.0298 24.2703 89.7495 25.4034 88.6926C26.5366 87.6358 27.8808 86.8259 29.3494 86.3152C30.818 85.8044 32.3783 85.6041 33.9298 85.7272C35.4813 85.8504 36.9896 86.2942 38.3573 87.03C39.725 87.7659 40.9219 88.7775 41.8707 89.9995C42.8195 91.2216 43.4992 92.627 43.8659 94.1252C44.2327 95.6234 44.2784 97.181 44 98.6978C43.9473 98.9939 43.8886 99.2785 43.8124 99.5862C43.3747 101.308 42.5263 102.901 41.3383 104.232C40.3837 105.225 39.8219 106.526 39.7553 107.896V108.105C39.7516 108.858 39.8263 109.609 39.9781 110.346C40.2474 111.611 40.9482 112.745 41.9625 113.558C42.9768 114.372 44.2429 114.814 45.5478 114.812H69.5857C69.6403 114.806 69.6953 114.806 69.7498 114.812C69.8455 114.805 69.9415 114.805 70.0371 114.812H70.1485C71.1635 114.924 72.1232 115.328 72.9099 115.973C73.0567 116.086 73.1922 116.212 73.3145 116.35C73.4259 116.467 73.549 116.589 73.6487 116.71C73.6487 116.71 73.6487 116.71 73.6838 116.751C73.9952 117.128 74.2481 117.549 74.4343 118C74.5108 118.149 74.5698 118.307 74.6102 118.47C74.7142 118.801 74.7849 119.141 74.8212 119.486C74.8212 119.655 74.8212 119.829 74.8212 120.003V143.834C74.8241 145.126 74.3764 146.38 73.5538 147.383C72.7313 148.386 71.5843 149.077 70.3068 149.339C69.5641 149.489 68.8077 149.563 68.0496 149.559H67.8385C67.3232 149.551 66.8126 149.46 66.3259 149.292C65.5121 149.01 64.7643 148.567 64.1273 147.992C62.9695 146.961 61.602 146.189 60.1171 145.727C59.8981 145.643 59.6726 145.577 59.4429 145.53C59.1841 145.466 58.9218 145.417 58.6573 145.384C58.435 145.339 58.2096 145.309 57.983 145.297C57.8306 145.297 57.684 145.262 57.5433 145.251C57.3088 145.251 57.0567 145.251 56.8046 145.251C56.4177 145.251 56.0424 145.251 55.673 145.315C53.9178 145.49 52.2302 146.078 50.7506 147.029C49.2709 147.981 48.042 149.268 47.166 150.785C47.0719 150.928 46.9876 151.077 46.9139 151.232C46.6657 151.678 46.4559 152.144 46.2866 152.625C46.1763 152.925 46.0862 153.232 46.0169 153.543C45.9546 153.716 45.9113 153.895 45.8879 154.077C45.8905 154.083 45.8918 154.089 45.8918 154.095C45.8918 154.101 45.8905 154.107 45.8879 154.112C45.8117 154.46 45.7648 154.803 45.7237 155.151C45.7237 155.337 45.6886 155.523 45.6886 155.732C45.6646 156.119 45.6646 156.507 45.6886 156.893C45.6886 157.079 45.6885 157.265 45.7237 157.474C45.7648 157.823 45.8117 158.165 45.8879 158.514C45.8853 158.519 45.8839 158.525 45.8839 158.531C45.8839 158.537 45.8853 158.543 45.8879 158.548C45.9113 158.731 45.9546 158.91 46.0169 159.083C46.0513 159.259 46.1003 159.431 46.1634 159.599C46.2115 159.777 46.2702 159.951 46.3393 160.122C46.5022 160.56 46.6982 160.985 46.9256 161.394C46.9994 161.548 47.0836 161.698 47.1777 161.841C48.0537 163.357 49.2826 164.645 50.7623 165.596C52.2419 166.548 53.9295 167.136 55.6848 167.311C56.3063 167.372 56.9317 167.383 57.555 167.346C57.6957 167.346 57.8423 167.346 57.9947 167.299C58.1704 167.295 58.3452 167.274 58.5166 167.235C58.5534 167.241 58.5911 167.241 58.628 167.235C58.6343 167.238 58.6413 167.24 58.6485 167.24C58.6556 167.24 58.6626 167.238 58.669 167.235C58.9556 167.199 59.2395 167.145 59.5191 167.073C59.7488 167.025 59.9743 166.959 60.1933 166.875C61.6815 166.413 63.0527 165.641 64.2153 164.611C64.848 164.035 65.5919 163.593 66.4021 163.31C66.8893 163.143 67.3994 163.051 67.9147 163.037H68.1258C68.5128 163.037 68.8997 163.066 69.2984 163.089C69.6971 163.112 70.0488 163.188 70.4065 163.263C71.5252 163.494 72.5472 164.055 73.3379 164.872C74.3506 165.926 74.9153 167.325 74.915 168.78V192.588C74.915 192.774 74.915 192.948 74.915 193.116C74.8787 193.461 74.808 193.801 74.704 194.132C74.656 194.293 74.5973 194.45 74.5281 194.603C74.3978 194.915 74.2347 195.213 74.0415 195.491C73.6535 196.064 73.153 196.554 72.5699 196.931L72.1947 197.152C72.0423 197.227 71.8957 197.303 71.7432 197.361C71.2741 197.559 70.7784 197.688 70.2716 197.744H70.1602C70.0646 197.751 69.9686 197.751 69.873 197.744C69.873 197.744 69.8319 197.744 69.8202 197.744C69.7833 197.75 69.7457 197.75 69.7088 197.744H45.6709C44.366 197.742 43.0999 198.184 42.0856 198.997C41.0713 199.811 40.3705 200.945 40.1012 202.21C39.9488 202.947 39.8741 203.698 39.8784 204.451V204.66C39.9437 206.029 40.5059 207.328 41.4614 208.318C42.6471 209.65 43.4953 211.243 43.9356 212.964C44.0118 213.266 44.0704 213.544 44.1232 213.858C44.3926 215.475 44.295 217.131 43.8376 218.706C43.3801 220.28 42.5742 221.734 41.4784 222.962C40.3826 224.19 39.0245 225.16 37.5027 225.803C35.9808 226.446 34.3335 226.745 32.6803 226.679C31.0272 226.612 29.4098 226.182 27.9456 225.419C26.4814 224.656 25.2072 223.579 24.2156 222.268C23.2239 220.956 22.5397 219.442 22.2127 217.836C21.8857 216.229 21.924 214.571 22.325 212.981C22.7548 211.254 23.6087 209.658 24.8108 208.336C25.7669 207.332 26.3338 206.026 26.4114 204.648V204.451C26.4099 203.698 26.3294 202.946 26.171 202.21C25.9072 200.944 25.2095 199.808 24.1965 198.995C23.1835 198.181 21.9174 197.739 20.613 197.744H-3.46006C-3.5009 197.75 -3.54232 197.75 -3.58316 197.744H-3.62421C-3.71986 197.751 -3.81583 197.751 -3.91148 197.744H-4.02287C-4.52962 197.688 -5.02541 197.559 -5.4945 197.361C-5.64693 197.303 -5.79345 197.227 -5.94588 197.152L-6.32112 196.931C-6.97234 196.506 -7.52047 195.944 -7.92597 195.284C-8.33147 194.625 -8.58427 193.884 -8.66628 193.116C-8.66628 192.948 -8.66628 192.774 -8.66628 192.588V168.78C-8.6665 167.325 -8.10185 165.926 -7.08919 164.872C-6.30123 164.051 -5.27805 163.49 -4.15775 163.263C-3.78252 163.188 -3.42487 163.142 -3.04965 163.089C-2.67442 163.037 -2.28748 163.037 -1.87708 163.037H-1.66015C-1.14678 163.051 -0.638649 163.143 -0.153381 163.31C0.656837 163.593 1.40076 164.035 2.03346 164.611C3.03425 165.491 4.18584 166.187 5.43393 166.666C5.85766 166.826 6.29028 166.962 6.72964 167.073C7.00925 167.145 7.2932 167.199 7.57977 167.235C7.593 167.24 7.60758 167.24 7.62081 167.235C7.65769 167.241 7.69533 167.241 7.73221 167.235C7.90357 167.274 8.07838 167.295 8.25401 167.299C8.40645 167.299 8.55302 167.334 8.69373 167.346C9.31709 167.383 9.94247 167.372 10.564 167.311C12.3198 167.135 14.0081 166.547 15.4886 165.596C16.9691 164.645 18.1992 163.357 19.0769 161.841C19.1691 161.698 19.2514 161.548 19.3231 161.394C19.5505 160.985 19.7465 160.56 19.9094 160.122C19.9785 159.951 20.0373 159.777 20.0853 159.599C20.1476 159.431 20.1985 159.258 20.2377 159.083C20.2954 158.909 20.3366 158.73 20.3609 158.548C20.3635 158.543 20.3648 158.537 20.3648 158.531C20.3648 158.525 20.3635 158.519 20.3609 158.514C20.4371 158.165 20.484 157.823 20.525 157.474C20.4195 157.184 20.4195 156.998 20.4312 156.812Z" fill="#FFC00E" stroke="#C99403" stroke-miterlimit="10"/>
<path d="M187.399 156.503C187.423 156.116 187.423 155.728 187.399 155.341C187.399 155.156 187.399 154.97 187.364 154.761C187.323 154.412 187.276 154.07 187.2 153.721C187.198 153.716 187.196 153.71 187.196 153.704C187.196 153.698 187.198 153.692 187.2 153.687C187.176 153.505 187.135 153.326 187.077 153.152C187.003 152.841 186.911 152.535 186.801 152.235C186.632 151.754 186.422 151.288 186.174 150.841C186.102 150.687 186.02 150.537 185.928 150.394C185.05 148.878 183.82 147.59 182.34 146.639C180.859 145.688 179.171 145.1 177.415 144.924C177.046 144.889 176.67 144.86 176.283 144.86C176.031 144.86 175.779 144.86 175.545 144.86C175.404 144.86 175.257 144.86 175.105 144.907C174.878 144.919 174.653 144.948 174.431 144.994C174.144 145.03 173.86 145.084 173.581 145.156C173.141 145.265 172.708 145.4 172.285 145.563C171.039 146.039 169.891 146.736 168.896 147.618C168.498 147.983 168.057 148.298 167.583 148.559C167.288 148.726 166.978 148.864 166.657 148.971C166.172 149.139 165.663 149.229 165.15 149.239H164.933C164.175 149.242 163.418 149.168 162.676 149.018C161.556 148.789 160.534 148.228 159.744 147.409C158.734 146.359 158.169 144.964 158.167 143.513V119.67C158.167 119.496 158.167 119.322 158.167 119.154C158.203 118.809 158.274 118.468 158.378 118.137C158.577 117.501 158.9 116.909 159.328 116.395L159.662 116.035C159.777 115.914 159.903 115.804 160.037 115.704C160.824 115.059 161.784 114.656 162.799 114.543H162.91C163.006 114.537 163.102 114.537 163.197 114.543C163.252 114.537 163.307 114.537 163.362 114.543H187.487C188.792 114.548 190.058 114.106 191.071 113.293C192.084 112.479 192.782 111.343 193.045 110.078C193.203 109.341 193.284 108.589 193.286 107.836V107.639C193.208 106.261 192.641 104.955 191.685 103.951C190.483 102.629 189.629 101.033 189.199 99.3059C188.982 98.4318 188.872 97.535 188.871 96.6348C188.84 95.0936 189.136 93.5629 189.739 92.1417C190.342 90.7205 191.239 89.4401 192.372 88.3833C193.505 87.3265 194.849 86.5166 196.318 86.0058C197.786 85.4951 199.347 85.2948 200.898 85.4179C202.45 85.5411 203.958 85.9848 205.326 86.7207C206.693 87.4565 207.89 88.4681 208.839 89.6902C209.788 90.9122 210.467 92.3177 210.834 93.8159C211.201 95.3141 211.247 96.8717 210.968 98.3885C210.916 98.6846 210.857 98.9692 210.781 99.2769C210.343 100.999 209.495 102.592 208.307 103.922C207.352 104.916 206.79 106.216 206.724 107.586V107.795C206.72 108.548 206.795 109.299 206.946 110.037C207.216 111.302 207.916 112.436 208.931 113.249C209.945 114.062 211.211 114.505 212.516 114.502H236.554C236.609 114.497 236.664 114.497 236.718 114.502C236.814 114.496 236.91 114.496 237.005 114.502H237.117C238.132 114.615 239.091 115.019 239.878 115.664C240.025 115.776 240.16 115.903 240.283 116.041C240.394 116.157 240.517 116.279 240.617 116.401C240.617 116.401 240.617 116.401 240.652 116.442C240.963 116.819 241.216 117.239 241.403 117.69C241.479 117.84 241.538 117.998 241.578 118.161C241.682 118.492 241.753 118.832 241.79 119.177C241.79 119.345 241.79 119.519 241.79 119.694V143.525C241.792 144.817 241.345 146.07 240.522 147.073C239.7 148.076 238.553 148.767 237.275 149.029C236.532 149.18 235.776 149.254 235.018 149.25H234.807C234.291 149.241 233.781 149.151 233.294 148.983C232.48 148.701 231.733 148.258 231.096 147.682C229.938 146.652 228.57 145.88 227.085 145.418C226.866 145.334 226.641 145.268 226.411 145.22C226.152 145.157 225.89 145.108 225.626 145.075C225.403 145.029 225.178 145 224.951 144.988C224.799 144.988 224.652 144.953 224.512 144.942C224.277 144.942 224.025 144.942 223.773 144.942C223.386 144.942 223.011 144.941 222.641 145.005C220.886 145.181 219.198 145.768 217.719 146.72C216.239 147.671 215.01 148.959 214.134 150.475C214.04 150.619 213.956 150.768 213.882 150.922C213.634 151.369 213.424 151.835 213.255 152.316C213.145 152.616 213.054 152.922 212.985 153.234C212.923 153.407 212.88 153.586 212.856 153.768C212.859 153.773 212.86 153.779 212.86 153.785C212.86 153.791 212.859 153.797 212.856 153.803C212.78 154.151 212.733 154.494 212.692 154.842C212.692 155.028 212.657 155.214 212.657 155.423C212.633 155.81 212.633 156.197 212.657 156.584C212.657 156.77 212.657 156.956 212.692 157.165C212.733 157.513 212.78 157.856 212.856 158.204C212.854 158.21 212.852 158.216 212.852 158.222C212.852 158.228 212.854 158.234 212.856 158.239C212.88 158.421 212.923 158.6 212.985 158.773C213.02 158.949 213.069 159.122 213.132 159.29C213.18 159.468 213.238 159.642 213.308 159.813C213.47 160.251 213.666 160.676 213.894 161.084C213.968 161.239 214.052 161.388 214.146 161.532C215.022 163.048 216.251 164.336 217.731 165.287C219.21 166.239 220.898 166.826 222.653 167.001C223.275 167.062 223.9 167.074 224.523 167.036C224.664 167.036 224.811 167.036 224.963 166.99C225.139 166.986 225.313 166.964 225.485 166.926C225.522 166.932 225.559 166.932 225.596 166.926C225.603 166.929 225.61 166.931 225.617 166.931C225.624 166.931 225.631 166.929 225.637 166.926C225.924 166.89 226.208 166.835 226.487 166.763C226.717 166.716 226.943 166.65 227.162 166.566C228.65 166.103 230.021 165.331 231.184 164.301C231.816 163.726 232.56 163.283 233.37 163.001C233.858 162.833 234.368 162.741 234.883 162.728H235.094C235.481 162.728 235.868 162.757 236.267 162.78C236.665 162.803 237.017 162.879 237.375 162.954C238.493 163.185 239.515 163.746 240.306 164.563C241.319 165.617 241.884 167.016 241.883 168.471V192.278C241.883 192.464 241.883 192.638 241.883 192.807C241.847 193.152 241.776 193.492 241.672 193.823C241.624 193.984 241.566 194.141 241.496 194.293C241.366 194.606 241.203 194.903 241.01 195.182C240.622 195.755 240.121 196.245 239.538 196.622L239.163 196.843C239.011 196.918 238.864 196.994 238.711 197.052C238.242 197.25 237.747 197.379 237.24 197.435H237.129C237.033 197.441 236.937 197.441 236.841 197.435C236.841 197.435 236.8 197.435 236.788 197.435C236.752 197.441 236.714 197.441 236.677 197.435H212.639C211.334 197.432 210.068 197.875 209.054 198.688C208.04 199.501 207.339 200.636 207.069 201.9C206.917 202.638 206.842 203.389 206.847 204.142V204.351C206.912 205.719 207.474 207.018 208.43 208.009C209.615 209.341 210.464 210.933 210.904 212.654C210.98 212.956 211.039 213.235 211.091 213.549C211.361 215.165 211.263 216.821 210.806 218.396C210.348 219.971 209.542 221.425 208.447 222.653C207.351 223.88 205.993 224.851 204.471 225.494C202.949 226.137 201.302 226.436 199.649 226.369C197.995 226.303 196.378 225.872 194.914 225.109C193.45 224.346 192.175 223.27 191.184 221.958C190.192 220.647 189.508 219.133 189.181 217.526C188.854 215.92 188.892 214.262 189.293 212.672C189.723 210.944 190.577 209.349 191.779 208.026C192.735 207.023 193.302 205.717 193.38 204.339V204.142C193.378 203.388 193.298 202.637 193.139 201.9C192.875 200.635 192.178 199.499 191.165 198.685C190.152 197.871 188.886 197.43 187.581 197.435H163.508C163.467 197.441 163.426 197.441 163.385 197.435H163.344C163.248 197.441 163.152 197.441 163.057 197.435H162.945C162.439 197.379 161.943 197.25 161.474 197.052C161.321 196.994 161.175 196.918 161.022 196.843L160.647 196.622C159.996 196.197 159.448 195.635 159.042 194.975C158.637 194.315 158.384 193.575 158.302 192.807C158.302 192.638 158.302 192.464 158.302 192.278V168.471C158.302 167.016 158.866 165.617 159.879 164.563C160.667 163.742 161.69 163.181 162.811 162.954C163.186 162.879 163.543 162.832 163.919 162.78C164.294 162.728 164.681 162.728 165.091 162.728H165.308C165.821 162.742 166.33 162.834 166.815 163.001C167.625 163.283 168.369 163.726 169.002 164.301C170.003 165.182 171.154 165.878 172.402 166.357C172.826 166.517 173.259 166.652 173.698 166.763C173.978 166.835 174.261 166.89 174.548 166.926C174.561 166.931 174.576 166.931 174.589 166.926C174.626 166.932 174.664 166.932 174.7 166.926C174.872 166.964 175.047 166.986 175.222 166.99C175.375 166.99 175.521 167.025 175.662 167.036C176.285 167.074 176.911 167.062 177.532 167.001C179.288 166.826 180.976 166.238 182.457 165.287C183.937 164.335 185.167 163.048 186.045 161.532C186.137 161.388 186.22 161.239 186.291 161.084C186.519 160.676 186.715 160.251 186.878 159.813C186.947 159.642 187.006 159.468 187.054 159.29C187.116 159.121 187.167 158.949 187.206 158.773C187.264 158.599 187.305 158.421 187.329 158.239C187.332 158.234 187.333 158.228 187.333 158.222C187.333 158.216 187.332 158.21 187.329 158.204C187.405 157.856 187.452 157.513 187.493 157.165C187.388 156.874 187.388 156.689 187.399 156.503Z" fill="#FFC00E" stroke="#C99403" stroke-miterlimit="10"/>
<g filter="url(#filter0_d_2219_12336)">
<path d="M-25.9129 227.444C-25.0092 227.442 -24.1088 227.553 -23.2317 227.772C-21.5014 228.203 -19.9031 229.058 -18.5788 230.261C-17.5748 231.219 -16.2656 231.785 -14.8856 231.858H-14.6879C-13.9358 231.861 -13.1855 231.787 -12.4487 231.635C-11.1814 231.365 -10.0446 230.664 -9.22916 229.649C-8.41368 228.633 -7.96918 227.365 -7.97031 226.058V201.734C-7.92036 200.655 -7.54153 199.618 -6.88568 198.765C-6.22984 197.912 -5.32895 197.284 -4.30614 196.967C-3.86613 196.814 -3.40475 196.733 -2.93938 196.727H-2.90448C-2.86397 196.732 -2.82284 196.732 -2.78233 196.727H21.0927C22.3872 196.723 23.6433 197.171 24.6481 197.994C25.653 198.818 26.3448 199.967 26.6064 201.246C26.7631 201.989 26.8431 202.747 26.8448 203.506V203.706C26.7714 205.099 26.2085 206.421 25.2571 207.433C24.0689 208.773 23.2224 210.385 22.791 212.129C22.5778 213.015 22.4704 213.924 22.4711 214.835C22.4592 216.383 22.7664 217.916 23.3733 219.337C23.9801 220.758 24.8733 222.036 25.9961 223.089C27.1189 224.143 28.4467 224.95 29.8951 225.457C31.3434 225.965 32.8806 226.163 34.4089 226.039C35.9372 225.915 37.4231 225.471 38.7722 224.736C40.1213 224 41.304 222.99 42.2452 221.768C43.1863 220.547 43.8653 219.141 44.2389 217.64C44.6125 216.139 44.6725 214.576 44.4153 213.051C44.3687 212.746 44.3047 212.464 44.2291 212.147C43.7975 210.405 42.9555 208.794 41.7747 207.451C40.8291 206.446 40.2719 205.132 40.2044 203.747V203.536C40.2033 202.777 40.2773 202.02 40.4254 201.276C40.6924 199.997 41.3873 198.85 42.3934 198.027C43.3995 197.203 44.6556 196.755 45.9507 196.756H69.7966C69.8332 196.762 69.8706 196.762 69.9072 196.756C69.9072 196.756 69.9479 196.756 69.9595 196.756C70.4299 196.77 70.896 196.851 71.3437 196.997C72.3801 197.314 73.2907 197.954 73.9455 198.825C74.6004 199.695 74.966 200.752 74.9904 201.845C74.996 201.892 74.996 201.939 74.9904 201.986V226.058C74.989 227.365 75.4327 228.632 76.247 229.647C77.0614 230.662 78.1968 231.364 79.463 231.635C80.2018 231.786 80.9541 231.861 81.708 231.858H81.9116C83.2915 231.785 84.6007 231.219 85.6048 230.261C86.9284 229.057 88.5269 228.202 90.2576 227.772C91.9808 227.336 93.7828 227.326 95.5107 227.742C97.2387 228.158 98.8418 228.989 100.184 230.163C101.526 231.338 102.568 232.821 103.222 234.489C103.875 236.156 104.12 237.958 103.937 239.741C103.768 241.249 103.298 242.706 102.556 244.026C101.814 245.346 100.816 246.501 99.6207 247.421C98.4256 248.342 97.0584 249.009 95.6014 249.383C94.1443 249.757 92.6273 249.829 91.1417 249.597C90.8451 249.544 90.5601 249.485 90.2519 249.409C88.5259 248.973 86.9298 248.123 85.599 246.932C84.5999 245.97 83.2909 245.403 81.9116 245.335H81.7022C80.9481 245.334 80.1958 245.411 79.4572 245.564C78.1905 245.834 77.0544 246.535 76.2399 247.551C75.4254 248.566 74.9821 249.834 74.9846 251.14V275.207C74.9903 275.281 74.9903 275.356 74.9846 275.43C74.9266 276.752 74.376 278.003 73.4432 278.932C72.5103 279.862 71.264 280.401 69.9537 280.443C69.8996 280.437 69.845 280.437 69.7908 280.443H45.9449C44.6503 280.445 43.3944 279.998 42.3881 279.176C41.3819 278.354 40.6868 277.207 40.4196 275.929C40.2715 275.183 40.1975 274.424 40.1986 273.663V273.452C40.2672 272.068 40.8242 270.754 41.7689 269.748C42.9516 268.406 43.7938 266.795 44.2233 265.052C44.2989 264.753 44.3629 264.465 44.4094 264.154C44.6767 262.52 44.5799 260.846 44.1261 259.254C43.6723 257.662 42.8728 256.192 41.7858 254.951C40.6988 253.71 39.3515 252.729 37.8418 252.079C36.3321 251.429 34.6979 251.127 33.0579 251.194C31.418 251.261 29.8135 251.696 28.361 252.468C26.9085 253.239 25.6445 254.327 24.6608 255.653C23.677 256.979 22.9983 258.509 22.6739 260.133C22.3494 261.757 22.3875 263.433 22.7852 265.04C23.2139 266.786 24.0607 268.398 25.2512 269.736C26.2027 270.749 26.7656 272.07 26.839 273.464V273.663C26.8373 274.425 26.7574 275.184 26.6006 275.929C26.3388 277.208 25.6468 278.356 24.6418 279.179C23.6369 280.002 22.3809 280.448 21.0869 280.443H-2.79397C-2.84616 280.437 -2.8988 280.437 -2.95098 280.443C-3.41579 280.436 -3.87675 280.356 -4.31779 280.208C-5.34142 279.896 -6.24382 279.272 -6.90024 278.42C-7.55665 277.568 -7.93468 276.531 -7.98195 275.453V251.146C-7.97974 249.839 -8.4238 248.571 -9.23945 247.555C-10.0551 246.539 -11.1925 245.838 -12.4603 245.57C-13.1969 245.416 -13.9473 245.339 -14.6995 245.341H-14.9089C-16.2813 245.411 -17.5834 245.976 -18.5788 246.932C-19.9096 248.123 -21.5058 248.973 -23.2317 249.409C-23.5283 249.485 -23.8133 249.544 -24.1273 249.597C-25.6357 249.851 -27.1799 249.787 -28.6624 249.408C-30.1448 249.029 -31.5331 248.344 -32.7396 247.395C-33.946 246.447 -34.9443 245.256 -35.6713 243.898C-36.3982 242.54 -36.838 241.045 -36.9628 239.507C-37.0876 237.968 -36.8947 236.421 -36.3963 234.962C-35.8979 233.502 -35.1048 232.164 -34.0672 231.03C-33.0297 229.896 -31.7703 228.992 -30.3687 228.375C-28.9671 227.757 -27.4538 227.44 -25.9246 227.444H-25.9129Z" fill="#4254A6"/>
<path d="M-25.9129 227.444C-25.0092 227.442 -24.1088 227.553 -23.2317 227.772C-21.5014 228.203 -19.9031 229.058 -18.5788 230.261C-17.5748 231.219 -16.2656 231.785 -14.8856 231.858H-14.6879C-13.9358 231.861 -13.1855 231.787 -12.4487 231.635C-11.1814 231.365 -10.0446 230.664 -9.22916 229.649C-8.41368 228.633 -7.96918 227.365 -7.97031 226.058V201.734C-7.92036 200.655 -7.54153 199.618 -6.88568 198.765C-6.22984 197.912 -5.32895 197.284 -4.30614 196.967C-3.86613 196.814 -3.40475 196.733 -2.93938 196.727H-2.90448C-2.86397 196.732 -2.82284 196.732 -2.78233 196.727H21.0927C22.3872 196.723 23.6433 197.171 24.6481 197.994C25.653 198.818 26.3448 199.967 26.6064 201.246C26.7631 201.989 26.8431 202.747 26.8448 203.506V203.706C26.7714 205.099 26.2085 206.421 25.2571 207.433C24.0689 208.773 23.2224 210.385 22.791 212.129C22.5778 213.015 22.4704 213.924 22.4711 214.835C22.4592 216.383 22.7664 217.916 23.3733 219.337C23.9801 220.758 24.8733 222.036 25.9961 223.089C27.1189 224.143 28.4467 224.95 29.8951 225.457C31.3434 225.965 32.8806 226.163 34.4089 226.039C35.9372 225.915 37.4231 225.471 38.7722 224.736C40.1213 224 41.304 222.99 42.2452 221.768C43.1863 220.547 43.8653 219.141 44.2389 217.64C44.6125 216.139 44.6725 214.576 44.4153 213.051C44.3687 212.746 44.3047 212.464 44.2291 212.147C43.7975 210.405 42.9555 208.794 41.7747 207.451C40.8291 206.446 40.2719 205.132 40.2044 203.747V203.536C40.2033 202.777 40.2773 202.02 40.4254 201.276C40.6924 199.997 41.3873 198.85 42.3934 198.027C43.3995 197.203 44.6556 196.755 45.9507 196.756H69.7966C69.8332 196.762 69.8706 196.762 69.9072 196.756C69.9072 196.756 69.9479 196.756 69.9595 196.756C70.4299 196.77 70.896 196.851 71.3437 196.997C72.3801 197.314 73.2907 197.954 73.9455 198.825C74.6004 199.695 74.966 200.752 74.9904 201.845C74.996 201.892 74.996 201.939 74.9904 201.986V226.058C74.989 227.365 75.4327 228.632 76.247 229.647C77.0614 230.662 78.1968 231.364 79.463 231.635C80.2018 231.786 80.9541 231.861 81.708 231.858H81.9116C83.2915 231.785 84.6007 231.219 85.6048 230.261C86.9284 229.057 88.5269 228.202 90.2576 227.772C91.9808 227.336 93.7828 227.326 95.5107 227.742C97.2387 228.158 98.8418 228.989 100.184 230.163C101.526 231.338 102.568 232.821 103.222 234.489C103.875 236.156 104.12 237.958 103.937 239.741C103.768 241.249 103.298 242.706 102.556 244.026C101.814 245.346 100.816 246.501 99.6207 247.421C98.4256 248.342 97.0584 249.009 95.6014 249.383C94.1443 249.757 92.6273 249.829 91.1417 249.597C90.8451 249.544 90.5601 249.485 90.2519 249.409C88.5259 248.973 86.9298 248.123 85.599 246.932C84.5999 245.97 83.2909 245.403 81.9116 245.335H81.7022C80.9481 245.334 80.1958 245.411 79.4572 245.564C78.1905 245.834 77.0544 246.535 76.2399 247.551C75.4254 248.566 74.9821 249.834 74.9846 251.14V275.207C74.9903 275.281 74.9903 275.356 74.9846 275.43C74.9266 276.752 74.376 278.003 73.4432 278.932C72.5103 279.862 71.264 280.401 69.9537 280.443C69.8996 280.437 69.845 280.437 69.7908 280.443H45.9449C44.6503 280.445 43.3944 279.998 42.3881 279.176C41.3819 278.354 40.6868 277.207 40.4196 275.929C40.2715 275.183 40.1975 274.424 40.1986 273.663V273.452C40.2672 272.068 40.8242 270.754 41.7689 269.748C42.9516 268.406 43.7938 266.795 44.2233 265.052C44.2989 264.753 44.3629 264.465 44.4094 264.154C44.6767 262.52 44.5799 260.846 44.1261 259.254C43.6723 257.662 42.8728 256.192 41.7858 254.951C40.6988 253.71 39.3515 252.729 37.8418 252.079C36.3321 251.429 34.6979 251.127 33.0579 251.194C31.418 251.261 29.8135 251.696 28.361 252.468C26.9085 253.239 25.6445 254.327 24.6608 255.653C23.677 256.979 22.9983 258.509 22.6739 260.133C22.3494 261.757 22.3875 263.433 22.7852 265.04C23.2139 266.786 24.0607 268.398 25.2512 269.736C26.2027 270.749 26.7656 272.07 26.839 273.464V273.663C26.8373 274.425 26.7574 275.184 26.6006 275.929C26.3388 277.208 25.6468 278.356 24.6418 279.179C23.6369 280.002 22.3809 280.448 21.0869 280.443H-2.79397C-2.84616 280.437 -2.8988 280.437 -2.95098 280.443C-3.41579 280.436 -3.87675 280.356 -4.31779 280.208C-5.34142 279.896 -6.24382 279.272 -6.90024 278.42C-7.55665 277.568 -7.93468 276.531 -7.98195 275.453V251.146C-7.97974 249.839 -8.4238 248.571 -9.23945 247.555C-10.0551 246.539 -11.1925 245.838 -12.4603 245.57C-13.1969 245.416 -13.9473 245.339 -14.6995 245.341H-14.9089C-16.2813 245.411 -17.5834 245.976 -18.5788 246.932C-19.9096 248.123 -21.5058 248.973 -23.2317 249.409C-23.5283 249.485 -23.8133 249.544 -24.1273 249.597C-25.6357 249.851 -27.1799 249.787 -28.6624 249.408C-30.1448 249.029 -31.5331 248.344 -32.7396 247.395C-33.946 246.447 -34.9443 245.256 -35.6713 243.898C-36.3982 242.54 -36.838 241.045 -36.9628 239.507C-37.0876 237.968 -36.8947 236.421 -36.3963 234.962C-35.8979 233.502 -35.1048 232.164 -34.0672 231.03C-33.0297 229.896 -31.7703 228.992 -30.3687 228.375C-28.9671 227.757 -27.4538 227.44 -25.9246 227.444H-25.9129Z" stroke="#344383" stroke-miterlimit="10"/>
</g>
<path d="M-25.9129 61.4171C-25.0092 61.4156 -24.1088 61.526 -23.2317 61.7458C-21.5014 62.1762 -19.9031 63.0311 -18.5788 64.2347C-17.5748 65.1927 -16.2656 65.7587 -14.8856 65.8313H-14.6879C-13.9358 65.8347 -13.1855 65.7599 -12.4487 65.6082C-11.1814 65.3387 -10.0446 64.6374 -9.22916 63.622C-8.41368 62.6065 -7.96918 61.3389 -7.97031 60.0318V35.7071C-7.92036 34.6284 -7.54153 33.5917 -6.88568 32.7386C-6.22984 31.8855 -5.32895 31.2576 -4.30614 30.9407C-3.86613 30.7876 -3.40475 30.7064 -2.93938 30.7001H-2.90448C-2.86397 30.7058 -2.82284 30.7058 -2.78233 30.7001H21.0927C22.3872 30.6961 23.6433 31.144 24.6481 31.9677C25.653 32.7914 26.3448 33.9403 26.6064 35.2199C26.7631 35.9628 26.8431 36.7202 26.8448 37.4798V37.6794C26.7714 39.0728 26.2085 40.3942 25.2571 41.4067C24.0689 42.7463 23.2224 44.3582 22.791 46.1026C22.5778 46.9885 22.4704 47.897 22.4711 48.8086C22.4592 50.356 22.7664 51.889 23.3733 53.31C23.9801 54.7311 24.8733 56.0091 25.9961 57.0629C27.1189 58.1166 28.4467 58.9231 29.8951 59.4309C31.3434 59.9387 32.8806 60.1367 34.4089 60.0124C35.9372 59.8882 37.4231 59.4443 38.7722 58.709C40.1213 57.9737 41.304 56.9631 42.2452 55.7415C43.1863 54.5199 43.8653 53.114 44.2389 51.6133C44.6125 50.1125 44.6725 48.5497 44.4153 47.0242C44.3687 46.719 44.3047 46.4372 44.2291 46.1202C43.7975 44.3784 42.9555 42.7674 41.7747 41.4243C40.8291 40.4191 40.2719 39.1049 40.2044 37.7205V37.5091C40.2033 36.7503 40.2773 35.9932 40.4254 35.2492C40.6924 33.9702 41.3873 32.8229 42.3934 31.9999C43.3995 31.1769 44.6556 30.7283 45.9507 30.7294H69.7966C69.8332 30.7355 69.8706 30.7355 69.9072 30.7294C69.9072 30.7294 69.9479 30.7294 69.9595 30.7294C70.4299 30.743 70.896 30.8241 71.3437 30.9701C72.3801 31.2876 73.2907 31.9273 73.9455 32.798C74.6004 33.6686 74.966 34.7258 74.9904 35.8186C74.996 35.8654 74.996 35.9127 74.9904 35.9595V60.0318C74.989 61.3381 75.4327 62.6051 76.247 63.6204C77.0614 64.6357 78.1968 65.3375 79.463 65.6082C80.2018 65.7596 80.9541 65.8344 81.708 65.8313H81.9116C83.2915 65.7587 84.6007 65.1927 85.6048 64.2347C86.9284 63.0301 88.5269 62.1751 90.2576 61.7458C91.9808 61.3097 93.7828 61.2993 95.5107 61.7155C97.2387 62.1317 98.8418 62.9623 100.184 64.1367C101.526 65.3112 102.568 66.7949 103.222 68.4622C103.875 70.1295 104.12 71.9311 103.937 73.7145C103.768 75.2221 103.298 76.6797 102.556 77.9995C101.814 79.3193 100.816 80.4741 99.6207 81.3947C98.4256 82.3152 97.0584 82.9824 95.6014 83.3563C94.1443 83.7301 92.6273 83.8028 91.1417 83.57C90.8451 83.5172 90.5601 83.4585 90.2519 83.3822C88.5259 82.9465 86.9298 82.0967 85.599 80.9051C84.5999 79.943 83.2909 79.3762 81.9116 79.3085H81.7022C80.9481 79.3073 80.1958 79.384 79.4572 79.5374C78.1905 79.8071 77.0544 80.5086 76.2399 81.5242C75.4254 82.5397 74.9821 83.8073 74.9846 85.1138V109.18C74.9903 109.255 74.9903 109.329 74.9846 109.403C74.9266 110.725 74.376 111.976 73.4432 112.905C72.5103 113.835 71.264 114.375 69.9537 114.416C69.8996 114.41 69.845 114.41 69.7908 114.416H45.9449C44.6503 114.419 43.3944 113.971 42.3881 113.149C41.3819 112.327 40.6868 111.181 40.4196 109.902C40.2715 109.156 40.1975 108.397 40.1986 107.637V107.425C40.2672 106.041 40.8242 104.727 41.7689 103.721C42.9516 102.38 43.7938 100.768 44.2233 99.0254C44.2989 98.726 44.3629 98.4384 44.4094 98.1273C44.6767 96.493 44.5799 94.8191 44.1261 93.2272C43.6723 91.6353 42.8728 90.1654 41.7858 88.9244C40.6988 87.6833 39.3515 86.7022 37.8418 86.0523C36.3321 85.4025 34.6979 85.1002 33.0579 85.1674C31.418 85.2346 29.8135 85.6697 28.361 86.4409C26.9085 87.2122 25.6445 88.3004 24.6608 89.6263C23.677 90.9523 22.9983 92.4827 22.6739 94.1065C22.3494 95.7303 22.3875 97.4066 22.7852 99.0137C23.2139 100.759 24.0607 102.372 25.2512 103.71C26.2027 104.722 26.7656 106.044 26.839 107.437V107.637C26.8373 108.398 26.7574 109.157 26.6006 109.902C26.3388 111.181 25.6468 112.329 24.6418 113.152C23.6369 113.975 22.3809 114.422 21.0869 114.416H-2.79397C-2.84616 114.41 -2.8988 114.41 -2.95098 114.416C-3.41579 114.409 -3.87675 114.33 -4.31779 114.181C-5.34142 113.87 -6.24382 113.245 -6.90024 112.393C-7.55665 111.541 -7.93468 110.505 -7.98195 109.427V85.1197C-7.97974 83.8123 -8.4238 82.5441 -9.23945 81.5285C-10.0551 80.5128 -11.1925 79.8118 -12.4603 79.5433C-13.1969 79.3896 -13.9473 79.3129 -14.6995 79.3144H-14.9089C-16.2813 79.3847 -17.5834 79.949 -18.5788 80.9051C-19.9096 82.0967 -21.5058 82.9465 -23.2317 83.3822C-23.5283 83.4585 -23.8133 83.5172 -24.1273 83.57C-25.6357 83.8245 -27.1799 83.7602 -28.6624 83.3812C-30.1448 83.0023 -31.5331 82.3169 -32.7396 81.3685C-33.946 80.4201 -34.9443 79.2293 -35.6713 77.8714C-36.3982 76.5135 -36.838 75.0182 -36.9628 73.48C-37.0876 71.9417 -36.8947 70.3941 -36.3963 68.935C-35.8979 67.4759 -35.1048 66.137 -34.0672 65.0032C-33.0297 63.8694 -31.7703 62.9652 -30.3687 62.3479C-28.9671 61.7306 -27.4538 61.4137 -25.9246 61.4171H-25.9129Z" fill="#C9DA2A" stroke="#9EAC20" stroke-miterlimit="10"/>
<path d="M139.874 61.7728C140.778 61.7714 141.678 61.8818 142.555 62.1016C144.286 62.5319 145.884 63.3868 147.208 64.5904C148.212 65.5485 149.522 66.1144 150.901 66.187H151.099C151.851 66.1904 152.602 66.1157 153.338 65.9639C154.606 65.6944 155.742 64.9931 156.558 63.9777C157.373 62.9623 157.818 61.6946 157.817 60.3875V36.0628C157.867 34.9842 158.246 33.9474 158.901 33.0943C159.557 32.2412 160.458 31.6133 161.481 31.2964C161.921 31.1433 162.382 31.0621 162.848 31.0558H162.883C162.923 31.0616 162.964 31.0616 163.005 31.0558H186.88C188.174 31.0518 189.43 31.4997 190.435 32.3234C191.44 33.1471 192.132 34.296 192.393 35.5756C192.55 36.3185 192.63 37.0759 192.632 37.8355V38.0351C192.558 39.4285 191.996 40.7499 191.044 41.7624C189.856 43.102 189.009 44.7139 188.578 46.4583C188.365 47.3442 188.257 48.2527 188.258 49.1643C188.246 50.7117 188.553 52.2447 189.16 53.6657C189.767 55.0868 190.66 56.3648 191.783 57.4186C192.906 58.4724 194.234 59.2788 195.682 59.7866C197.13 60.2944 198.668 60.4924 200.196 60.3681C201.724 60.2439 203.21 59.8 204.559 59.0647C205.908 58.3294 207.091 57.3189 208.032 56.0973C208.973 54.8757 209.652 53.4697 210.026 51.969C210.4 50.4682 210.46 48.9054 210.202 47.3799C210.156 47.0747 210.092 46.7929 210.016 46.476C209.585 44.7341 208.743 43.1231 207.562 41.7801C206.616 40.7748 206.059 39.4606 205.991 38.0762V37.8648C205.99 37.106 206.064 36.3489 206.212 35.6049C206.48 34.326 207.174 33.1786 208.181 32.3556C209.187 31.5326 210.443 31.084 211.738 31.0851H235.584C235.62 31.0913 235.658 31.0913 235.694 31.0851C235.694 31.0851 235.735 31.0851 235.747 31.0851C236.217 31.0988 236.683 31.1798 237.131 31.3258C238.167 31.6433 239.078 32.283 239.733 33.1537C240.387 34.0244 240.753 35.0815 240.778 36.1743C240.783 36.2211 240.783 36.2684 240.778 36.3152V60.3875C240.776 61.6938 241.22 62.9608 242.034 63.9761C242.848 64.9914 243.984 65.6932 245.25 65.9639C245.989 66.1154 246.741 66.1901 247.495 66.187H247.699C249.079 66.1144 250.388 65.5485 251.392 64.5904C252.715 63.3858 254.314 62.5308 256.045 62.1016C257.768 61.6655 259.57 61.655 261.298 62.0712C263.026 62.4874 264.629 63.318 265.971 64.4924C267.314 65.6669 268.355 67.1506 269.009 68.8179C269.662 70.4852 269.908 72.2868 269.724 74.0702C269.555 75.5779 269.085 77.0354 268.343 78.3552C267.601 79.675 266.603 80.8298 265.408 81.7504C264.213 82.6709 262.846 83.3381 261.388 83.712C259.931 84.0858 258.414 84.1585 256.929 83.9257C256.632 83.8729 256.347 83.8142 256.039 83.7379C254.313 83.3023 252.717 82.4525 251.386 81.2608C250.387 80.2987 249.078 79.732 247.699 79.6642H247.489C246.735 79.663 245.983 79.7397 245.244 79.8931C243.978 80.1628 242.842 80.8644 242.027 81.8799C241.212 82.8954 240.769 84.163 240.772 85.4695V109.536C240.777 109.61 240.777 109.685 240.772 109.759C240.714 111.081 240.163 112.332 239.23 113.261C238.297 114.191 237.051 114.73 235.741 114.772C235.687 114.766 235.632 114.766 235.578 114.772H211.732C210.437 114.774 209.181 114.327 208.175 113.505C207.169 112.683 206.474 111.536 206.207 110.258C206.059 109.512 205.985 108.753 205.986 107.992V107.781C206.054 106.397 206.611 105.083 207.556 104.077C208.739 102.735 209.581 101.124 210.01 99.3811C210.086 99.0818 210.15 98.7941 210.197 98.483C210.464 96.8487 210.367 95.1748 209.913 93.5829C209.459 91.991 208.66 90.5212 207.573 89.2801C206.486 88.039 205.139 87.0579 203.629 86.408C202.119 85.7582 200.485 85.4559 198.845 85.5231C197.205 85.5903 195.601 86.0254 194.148 86.7967C192.696 87.5679 191.432 88.6561 190.448 89.982C189.464 91.308 188.785 92.8384 188.461 94.4622C188.137 96.086 188.175 97.7623 188.572 99.3694C189.001 101.115 189.848 102.727 191.038 104.065C191.99 105.078 192.553 106.399 192.626 107.793V107.992C192.624 108.754 192.545 109.513 192.388 110.258C192.126 111.537 191.434 112.685 190.429 113.508C189.424 114.331 188.168 114.777 186.874 114.772H162.993C162.941 114.766 162.888 114.766 162.836 114.772C162.371 114.765 161.91 114.685 161.469 114.537C160.446 114.226 159.543 113.601 158.887 112.749C158.23 111.897 157.852 110.861 157.805 109.783V85.4754C157.807 84.168 157.363 82.8998 156.548 81.8842C155.732 80.8685 154.595 80.1675 153.327 79.899C152.59 79.7453 151.84 79.6686 151.088 79.6701H150.878C149.506 79.7404 148.204 80.3047 147.208 81.2608C145.877 82.4525 144.281 83.3023 142.555 83.7379C142.259 83.8142 141.974 83.8729 141.66 83.9257C140.151 84.1802 138.607 84.1159 137.125 83.7369C135.642 83.358 134.254 82.6726 133.048 81.7242C131.841 80.7758 130.843 79.585 130.116 78.2271C129.389 76.8693 128.949 75.3739 128.824 73.8357C128.7 72.2974 128.892 70.7498 129.391 69.2907C129.889 67.8316 130.682 66.4927 131.72 65.3589C132.757 64.2251 134.017 63.3209 135.418 62.7036C136.82 62.0864 138.333 61.7694 139.863 61.7728H139.874Z" fill="#D1193D" stroke="#A41330" stroke-miterlimit="10"/>
<path d="M20.4312 322.927C20.4551 322.538 20.4551 322.147 20.4312 321.758C20.4312 321.571 20.4312 321.384 20.396 321.174C20.355 320.823 20.3081 320.479 20.2319 320.128C20.2293 320.123 20.2279 320.117 20.2279 320.111C20.2279 320.104 20.2293 320.099 20.2319 320.093C20.2077 319.91 20.1664 319.73 20.1088 319.555C20.0347 319.243 19.9428 318.934 19.8332 318.632C19.6639 318.148 19.4541 317.679 19.2059 317.23C19.1342 317.075 19.0519 316.924 18.9596 316.78C18.082 315.254 16.8518 313.959 15.3713 313.001C13.8908 312.044 12.2026 311.453 10.4467 311.276C10.0774 311.241 9.70215 311.212 9.3152 311.212C9.0631 311.212 8.81098 311.212 8.57647 311.212C8.43576 311.212 8.28918 311.212 8.13675 311.258C7.91012 311.271 7.68472 311.3 7.4625 311.346C7.17593 311.382 6.89198 311.437 6.61238 311.51C6.17225 311.618 5.7395 311.755 5.3167 311.919C4.07088 312.398 2.92268 313.099 1.92793 313.987C1.52942 314.353 1.08856 314.671 0.614655 314.934C0.320145 315.102 0.0098877 315.241 -0.311691 315.348C-0.796501 315.517 -1.30509 315.608 -1.81846 315.617H-2.03539C-2.79344 315.621 -3.54982 315.546 -4.29258 315.395C-5.41196 315.165 -6.43445 314.6 -7.22402 313.777C-8.23441 312.719 -8.799 311.316 -8.80118 309.856V285.864C-8.80118 285.689 -8.80118 285.514 -8.80118 285.344C-8.76484 284.997 -8.69408 284.655 -8.59005 284.322C-8.39143 283.681 -8.06875 283.086 -7.64027 282.569L-7.30611 282.206C-7.191 282.085 -7.06544 281.973 -6.93088 281.873C-6.14413 281.224 -5.18442 280.818 -4.16945 280.705H-4.05805C-3.96239 280.698 -3.86643 280.698 -3.77077 280.705C-3.7162 280.699 -3.66121 280.699 -3.60664 280.705H20.5192C21.8236 280.71 23.0897 280.266 24.1027 279.447C25.1157 278.628 25.8133 277.485 26.0772 276.211C26.2349 275.47 26.3155 274.714 26.3176 273.956V273.757C26.24 272.371 25.673 271.057 24.717 270.047C23.5149 268.717 22.661 267.111 22.2311 265.373C22.0142 264.493 21.904 263.591 21.9028 262.685C21.8719 261.134 22.1674 259.594 22.7704 258.164C23.3733 256.733 24.2703 255.445 25.4034 254.382C26.5366 253.318 27.8808 252.503 29.3494 251.989C30.818 251.475 32.3783 251.274 33.9298 251.398C35.4813 251.522 36.9896 251.968 38.3573 252.709C39.725 253.449 40.9219 254.467 41.8707 255.697C42.8195 256.926 43.4992 258.341 43.8659 259.848C44.2327 261.356 44.2784 262.923 44 264.449C43.9473 264.747 43.8886 265.034 43.8124 265.343C43.3747 267.076 42.5263 268.679 41.3383 270.018C40.3837 271.018 39.8219 272.326 39.7553 273.705V273.915C39.7516 274.673 39.8263 275.428 39.9781 276.171C40.2474 277.443 40.9482 278.585 41.9625 279.403C42.9768 280.221 44.2429 280.666 45.5478 280.664H69.5857C69.6403 280.658 69.6953 280.658 69.7498 280.664C69.8455 280.658 69.9415 280.658 70.0371 280.664H70.1485C71.1635 280.777 72.1232 281.183 72.9099 281.833C73.0567 281.946 73.1922 282.073 73.3145 282.212C73.4259 282.329 73.549 282.452 73.6487 282.575C73.6487 282.575 73.6487 282.575 73.6838 282.616C73.9952 282.995 74.2481 283.418 74.4343 283.872C74.5108 284.022 74.5698 284.181 74.6102 284.345C74.7142 284.678 74.7849 285.021 74.8212 285.368C74.8212 285.537 74.8212 285.712 74.8212 285.888V309.868C74.8241 311.168 74.3764 312.429 73.5538 313.439C72.7313 314.448 71.5843 315.143 70.3068 315.407C69.5641 315.559 68.8077 315.633 68.0496 315.629H67.8385C67.3232 315.62 66.8126 315.529 66.3259 315.36C65.5121 315.076 64.7643 314.631 64.1273 314.051C62.9695 313.015 61.602 312.238 60.1171 311.772C59.8981 311.688 59.6726 311.622 59.4429 311.574C59.1841 311.51 58.9218 311.461 58.6573 311.428C58.435 311.382 58.2096 311.352 57.983 311.34C57.8306 311.34 57.684 311.305 57.5433 311.293C57.3088 311.293 57.0567 311.293 56.8046 311.293C56.4177 311.293 56.0424 311.293 55.673 311.358C53.9178 311.534 52.2302 312.125 50.7506 313.083C49.2709 314.04 48.042 315.336 47.166 316.862C47.0719 317.006 46.9876 317.156 46.9139 317.312C46.6657 317.761 46.4559 318.23 46.2866 318.714C46.1763 319.015 46.0862 319.324 46.0169 319.637C45.9546 319.811 45.9113 319.992 45.8879 320.175C45.8905 320.18 45.8918 320.186 45.8918 320.192C45.8918 320.198 45.8905 320.204 45.8879 320.21C45.8117 320.56 45.7648 320.905 45.7237 321.256C45.7237 321.443 45.6886 321.63 45.6886 321.84C45.6646 322.229 45.6646 322.62 45.6886 323.009C45.6886 323.196 45.6885 323.383 45.7237 323.593C45.7648 323.944 45.8117 324.288 45.8879 324.639C45.8853 324.644 45.8839 324.65 45.8839 324.656C45.8839 324.663 45.8853 324.669 45.8879 324.674C45.9113 324.857 45.9546 325.038 46.0169 325.212C46.0513 325.389 46.1003 325.563 46.1634 325.732C46.2115 325.91 46.2702 326.086 46.3393 326.257C46.5022 326.698 46.6982 327.126 46.9256 327.537C46.9994 327.693 47.0836 327.843 47.1777 327.987C48.0537 329.513 49.2826 330.809 50.7623 331.766C52.2419 332.723 53.9295 333.315 55.6848 333.491C56.3063 333.553 56.9317 333.564 57.555 333.526C57.6957 333.526 57.8423 333.526 57.9947 333.48C58.1704 333.475 58.3452 333.454 58.5166 333.415C58.5534 333.421 58.5911 333.421 58.628 333.415C58.6343 333.418 58.6413 333.42 58.6485 333.42C58.6556 333.42 58.6626 333.418 58.669 333.415C58.9556 333.379 59.2395 333.324 59.5191 333.252C59.7488 333.204 59.9743 333.137 60.1933 333.053C61.6815 332.587 63.0527 331.811 64.2153 330.774C64.848 330.195 65.5919 329.75 66.4021 329.465C66.8893 329.297 67.3994 329.205 67.9147 329.191H68.1258C68.5128 329.191 68.8997 329.22 69.2984 329.243C69.6971 329.267 70.0488 329.343 70.4065 329.419C71.5252 329.651 72.5472 330.215 73.3379 331.037C74.3506 332.098 74.9153 333.506 74.915 334.97V358.926C74.915 359.113 74.915 359.288 74.915 359.458C74.8787 359.805 74.808 360.147 74.704 360.48C74.656 360.642 74.5973 360.8 74.5281 360.954C74.3978 361.268 74.2347 361.568 74.0415 361.848C73.6535 362.424 73.153 362.917 72.5699 363.297L72.1947 363.519C72.0423 363.595 71.8957 363.671 71.7432 363.729C71.2741 363.928 70.7784 364.058 70.2716 364.115H70.1602C70.0646 364.121 69.9686 364.121 69.873 364.115C69.873 364.115 69.8319 364.115 69.8202 364.115C69.7833 364.121 69.7457 364.121 69.7088 364.115H45.6709C44.366 364.112 43.0999 364.558 42.0856 365.376C41.0713 366.194 40.3705 367.336 40.1012 368.608C39.9488 369.35 39.8741 370.106 39.8784 370.864V371.074C39.9437 372.451 40.5059 373.758 41.4614 374.755C42.6471 376.095 43.4953 377.698 43.9356 379.43C44.0118 379.733 44.0704 380.014 44.1232 380.329C44.3926 381.956 44.295 383.623 43.8376 385.207C43.3801 386.792 42.5742 388.255 41.4784 389.49C40.3826 390.726 39.0245 391.702 37.5027 392.349C35.9808 392.996 34.3335 393.297 32.6803 393.23C31.0272 393.163 29.4098 392.73 27.9456 391.962C26.4814 391.195 25.2072 390.111 24.2156 388.792C23.2239 387.472 22.5397 385.948 22.2127 384.332C21.8857 382.715 21.924 381.047 22.325 379.447C22.7548 377.709 23.6087 376.103 24.8108 374.773C25.7669 373.763 26.3338 372.448 26.4114 371.062V370.864C26.4099 370.105 26.3294 369.35 26.171 368.608C25.9072 367.335 25.2095 366.192 24.1965 365.373C23.1835 364.554 21.9174 364.11 20.613 364.115H-3.46006C-3.5009 364.121 -3.54232 364.121 -3.58316 364.115H-3.62421C-3.71986 364.121 -3.81583 364.121 -3.91148 364.115H-4.02287C-4.52962 364.058 -5.02541 363.928 -5.4945 363.729C-5.64693 363.671 -5.79345 363.595 -5.94588 363.519L-6.32112 363.297C-6.97234 362.869 -7.52047 362.303 -7.92597 361.64C-8.33147 360.976 -8.58427 360.231 -8.66628 359.458C-8.66628 359.288 -8.66628 359.113 -8.66628 358.926V334.97C-8.6665 333.506 -8.10185 332.098 -7.08919 331.037C-6.30123 330.211 -5.27805 329.646 -4.15775 329.419C-3.78252 329.343 -3.42487 329.296 -3.04965 329.243C-2.67442 329.191 -2.28748 329.191 -1.87708 329.191H-1.66015C-1.14678 329.205 -0.638649 329.298 -0.153381 329.465C0.656837 329.75 1.40076 330.195 2.03346 330.774C3.03425 331.66 4.18584 332.361 5.43393 332.843C5.85766 333.003 6.29028 333.14 6.72964 333.252C7.00925 333.324 7.2932 333.379 7.57977 333.415C7.593 333.42 7.60758 333.42 7.62081 333.415C7.65769 333.421 7.69533 333.421 7.73221 333.415C7.90357 333.454 8.07838 333.475 8.25401 333.48C8.40645 333.48 8.55302 333.515 8.69373 333.526C9.31709 333.564 9.94247 333.553 10.564 333.491C12.3198 333.314 14.0081 332.723 15.4886 331.766C16.9691 330.808 18.1992 329.513 19.0769 327.987C19.1691 327.843 19.2514 327.692 19.3231 327.537C19.5505 327.126 19.7465 326.698 19.9094 326.257C19.9785 326.086 20.0373 325.91 20.0853 325.732C20.1476 325.562 20.1985 325.388 20.2377 325.212C20.2954 325.037 20.3366 324.857 20.3609 324.674C20.3635 324.669 20.3648 324.663 20.3648 324.656C20.3648 324.65 20.3635 324.644 20.3609 324.639C20.4371 324.288 20.484 323.944 20.525 323.593C20.4195 323.301 20.4195 323.114 20.4312 322.927Z" fill="#01B8C6" stroke="#01858E" stroke-miterlimit="10"/>
<path d="M104.148 239.655C104.172 239.264 104.172 238.871 104.148 238.48C104.148 238.291 104.148 238.103 104.113 237.892C104.072 237.539 104.025 237.192 103.948 236.839C103.946 236.834 103.944 236.828 103.944 236.822C103.944 236.816 103.946 236.81 103.948 236.804C103.924 236.62 103.883 236.439 103.825 236.263C103.751 235.948 103.659 235.638 103.55 235.334C103.38 234.847 103.171 234.375 102.922 233.923C102.851 233.767 102.768 233.615 102.676 233.47C101.799 231.935 100.568 230.632 99.0879 229.668C97.6074 228.705 95.9191 228.11 94.1633 227.932C93.7939 227.897 93.4187 227.867 93.0318 227.867C92.7796 227.867 92.5275 227.867 92.293 227.867C92.1523 227.867 92.0057 227.867 91.8533 227.914C91.6267 227.927 91.4013 227.956 91.1791 228.003C90.8925 228.039 90.6085 228.094 90.3289 228.167C89.8888 228.277 89.4561 228.414 89.0333 228.579C87.7874 229.061 86.6392 229.766 85.6445 230.66C85.246 231.029 84.8051 231.348 84.3312 231.613C84.0367 231.782 83.7264 231.921 83.4049 232.03C82.9201 232.2 82.4115 232.291 81.8981 232.3H81.6812C80.9231 232.304 80.1667 232.229 79.424 232.077C78.3046 231.845 77.2821 231.277 76.4925 230.448C75.4821 229.385 74.9176 227.972 74.9154 226.503V202.363C74.9154 202.186 74.9154 202.01 74.9154 201.839C74.9517 201.49 75.0225 201.146 75.1265 200.81C75.3251 200.166 75.6478 199.567 76.0763 199.047L76.4104 198.682C76.5256 198.56 76.6511 198.448 76.7857 198.347C77.5724 197.694 78.5321 197.285 79.5471 197.171H79.6585C79.7542 197.165 79.8501 197.165 79.9458 197.171C80.0004 197.166 80.0553 197.166 80.1099 197.171H104.236C105.54 197.176 106.806 196.729 107.819 195.905C108.832 195.081 109.53 193.931 109.794 192.65C109.951 191.904 110.032 191.143 110.034 190.38V190.181C109.957 188.786 109.39 187.463 108.434 186.447C107.231 185.108 106.378 183.493 105.948 181.744C105.731 180.859 105.621 179.951 105.619 179.039C105.588 177.479 105.884 175.929 106.487 174.49C107.09 173.051 107.987 171.755 109.12 170.684C110.253 169.614 111.597 168.794 113.066 168.277C114.535 167.76 116.095 167.557 117.646 167.682C119.198 167.807 120.706 168.256 122.074 169.001C123.442 169.746 124.638 170.77 125.587 172.008C126.536 173.245 127.216 174.668 127.582 176.185C127.949 177.702 127.995 179.279 127.717 180.815C127.664 181.115 127.605 181.403 127.529 181.714C127.091 183.458 126.243 185.071 125.055 186.418C124.1 187.424 123.538 188.741 123.472 190.128V190.339C123.468 191.101 123.543 191.862 123.695 192.609C123.964 193.889 124.665 195.038 125.679 195.861C126.693 196.684 127.959 197.132 129.264 197.13H153.302C153.357 197.124 153.412 197.124 153.466 197.13C153.562 197.124 153.658 197.124 153.754 197.13H153.865C154.88 197.244 155.84 197.653 156.626 198.306C156.773 198.42 156.909 198.548 157.031 198.688C157.142 198.806 157.266 198.929 157.365 199.053C157.365 199.053 157.365 199.053 157.4 199.094C157.712 199.475 157.965 199.901 158.151 200.358C158.227 200.509 158.286 200.669 158.327 200.834C158.431 201.169 158.501 201.514 158.538 201.863C158.538 202.033 158.538 202.21 158.538 202.386V226.515C158.541 227.823 158.093 229.093 157.27 230.108C156.448 231.124 155.301 231.823 154.023 232.089C153.281 232.241 152.524 232.316 151.766 232.312H151.555C151.04 232.303 150.529 232.212 150.042 232.042C149.229 231.756 148.481 231.308 147.844 230.725C146.686 229.682 145.319 228.9 143.834 228.432C143.615 228.347 143.389 228.28 143.159 228.232C142.901 228.167 142.638 228.118 142.374 228.085C142.152 228.039 141.926 228.009 141.7 227.997C141.547 227.997 141.401 227.961 141.26 227.95C141.025 227.95 140.773 227.95 140.521 227.95C140.134 227.95 139.759 227.95 139.39 228.014C137.634 228.192 135.947 228.787 134.467 229.75C132.987 230.713 131.759 232.017 130.883 233.553C130.788 233.698 130.704 233.849 130.63 234.005C130.382 234.457 130.172 234.929 130.003 235.416C129.893 235.72 129.803 236.03 129.733 236.345C129.671 236.521 129.628 236.702 129.604 236.886C129.607 236.892 129.608 236.898 129.608 236.904C129.608 236.91 129.607 236.916 129.604 236.922C129.528 237.274 129.481 237.621 129.44 237.974C129.44 238.162 129.405 238.35 129.405 238.562C129.381 238.954 129.381 239.346 129.405 239.738C129.405 239.926 129.405 240.114 129.44 240.326C129.481 240.679 129.528 241.025 129.604 241.378C129.602 241.384 129.6 241.39 129.6 241.396C129.6 241.402 129.602 241.408 129.604 241.413C129.628 241.598 129.671 241.779 129.733 241.954C129.768 242.133 129.817 242.308 129.88 242.478C129.928 242.657 129.987 242.834 130.056 243.007C130.219 243.45 130.415 243.881 130.642 244.294C130.716 244.451 130.8 244.602 130.894 244.747C131.77 246.283 132.999 247.586 134.479 248.55C135.958 249.513 137.646 250.108 139.401 250.285C140.023 250.347 140.648 250.359 141.272 250.321C141.412 250.321 141.559 250.321 141.711 250.274C141.887 250.27 142.062 250.248 142.233 250.209C142.27 250.215 142.308 250.215 142.345 250.209C142.351 250.212 142.358 250.214 142.365 250.214C142.372 250.214 142.379 250.212 142.386 250.209C142.672 250.172 142.956 250.117 143.236 250.044C143.465 249.996 143.691 249.929 143.91 249.844C145.398 249.376 146.769 248.594 147.932 247.551C148.565 246.969 149.308 246.521 150.119 246.235C150.606 246.065 151.116 245.972 151.631 245.958H151.842C152.229 245.958 152.616 245.988 153.015 246.011C153.414 246.035 153.765 246.111 154.123 246.187C155.242 246.421 156.264 246.989 157.054 247.816C158.067 248.883 158.632 250.3 158.632 251.773V275.878C158.632 276.066 158.632 276.243 158.632 276.413C158.595 276.762 158.525 277.107 158.421 277.442C158.373 277.605 158.314 277.764 158.245 277.918C158.114 278.235 157.951 278.536 157.758 278.818C157.37 279.398 156.87 279.894 156.286 280.276L155.911 280.499C155.759 280.576 155.612 280.652 155.46 280.711C154.991 280.912 154.495 281.042 153.988 281.099H153.877C153.781 281.106 153.685 281.106 153.59 281.099C153.59 281.099 153.548 281.099 153.537 281.099C153.5 281.105 153.462 281.105 153.425 281.099H129.387C128.083 281.097 126.816 281.545 125.802 282.368C124.788 283.192 124.087 284.34 123.818 285.62C123.665 286.367 123.591 287.128 123.595 287.89V288.102C123.66 289.487 124.222 290.802 125.178 291.806C126.364 293.154 127.212 294.766 127.652 296.509C127.728 296.815 127.787 297.097 127.84 297.414C128.109 299.051 128.012 300.728 127.554 302.323C127.097 303.917 126.291 305.389 125.195 306.632C124.099 307.875 122.741 308.858 121.219 309.509C119.697 310.16 118.05 310.463 116.397 310.395C114.744 310.328 113.126 309.892 111.662 309.12C110.198 308.347 108.924 307.257 107.932 305.929C106.94 304.601 106.256 303.068 105.929 301.442C105.602 299.815 105.641 298.136 106.042 296.527C106.471 294.778 107.325 293.162 108.527 291.823C109.483 290.807 110.05 289.485 110.128 288.09V287.89C110.126 287.127 110.046 286.366 109.888 285.62C109.624 284.339 108.926 283.189 107.913 282.365C106.9 281.541 105.634 281.094 104.33 281.099H80.2565C80.2157 281.105 80.1742 281.105 80.1334 281.099H80.0923C79.9967 281.106 79.9007 281.106 79.8051 281.099H79.6937C79.1869 281.042 78.6911 280.912 78.2221 280.711C78.0696 280.652 77.9231 280.576 77.7707 280.499L77.3954 280.276C76.7442 279.846 76.1961 279.277 75.7906 278.609C75.3851 277.941 75.1323 277.191 75.0503 276.413C75.0503 276.243 75.0503 276.066 75.0503 275.878V251.773C75.0501 250.3 75.6147 248.883 76.6274 247.816C77.4153 246.985 78.4385 246.417 79.5588 246.187C79.934 246.111 80.2917 246.064 80.6669 246.011C81.0421 245.958 81.4291 245.958 81.8395 245.958H82.0564C82.5698 245.973 83.0779 246.066 83.5632 246.235C84.3734 246.521 85.1173 246.969 85.75 247.551C86.7508 248.443 87.9024 249.148 89.1505 249.633C89.5742 249.795 90.0068 249.932 90.4462 250.044C90.7258 250.117 91.0098 250.172 91.2963 250.209C91.3096 250.214 91.3241 250.214 91.3374 250.209C91.3742 250.215 91.4119 250.215 91.4488 250.209C91.6201 250.248 91.7949 250.27 91.9706 250.274C92.123 250.274 92.2696 250.309 92.4103 250.321C93.0336 250.359 93.659 250.347 94.2805 250.285C96.0364 250.107 97.7246 249.512 99.2051 248.549C100.686 247.586 101.916 246.282 102.793 244.747C102.886 244.602 102.968 244.451 103.04 244.294C103.267 243.881 103.463 243.45 103.626 243.007C103.695 242.834 103.754 242.657 103.802 242.478C103.864 242.307 103.915 242.132 103.954 241.954C104.012 241.778 104.053 241.597 104.077 241.413C104.08 241.408 104.081 241.402 104.081 241.396C104.081 241.39 104.08 241.384 104.077 241.378C104.154 241.025 104.201 240.679 104.242 240.326C104.136 240.032 104.136 239.844 104.148 239.655Z" fill="#C9DA2A" stroke="#9EAC20" stroke-miterlimit="10"/>
<path d="M103.159 73.0092C103.183 72.6177 103.183 72.225 103.159 71.8334C103.159 71.6452 103.159 71.4571 103.124 71.2454C103.083 70.8927 103.036 70.5458 102.96 70.193C102.957 70.1875 102.956 70.1815 102.956 70.1754C102.956 70.1693 102.957 70.1633 102.96 70.1578C102.935 69.974 102.894 69.7929 102.837 69.6168C102.763 69.3021 102.671 68.992 102.561 68.6879C102.392 68.2008 102.182 67.7288 101.934 67.2769C101.862 67.1205 101.78 66.9692 101.687 66.8241C100.81 65.2887 99.5796 63.9854 98.0991 63.0222C96.6186 62.059 94.9304 61.4637 93.1745 61.2858C92.8052 61.2505 92.4299 61.2211 92.043 61.2211C91.7909 61.2211 91.5388 61.2211 91.3043 61.2211C91.1635 61.2211 91.017 61.2211 90.8645 61.2682C90.6379 61.2805 90.4125 61.31 90.1903 61.3563C89.9037 61.3931 89.6198 61.4481 89.3402 61.521C88.9 61.6306 88.4673 61.7681 88.0445 61.9325C86.7987 62.415 85.6505 63.1202 84.6557 64.0138C84.2572 64.3824 83.8163 64.7022 83.3424 64.9663C83.0479 65.1353 82.7377 65.2751 82.4161 65.3837C81.9313 65.5533 81.4227 65.6446 80.9093 65.6541H80.6924C79.9343 65.6576 79.178 65.5827 78.4352 65.4307C77.3158 65.199 76.2933 64.6309 75.5038 63.8022C74.4934 62.7384 73.9288 61.3262 73.9266 59.8571V35.7164C73.9266 35.54 73.9266 35.3636 73.9266 35.1931C73.9629 34.844 74.0337 34.4994 74.1377 34.1642C74.3364 33.5197 74.659 32.9205 75.0875 32.4004L75.4217 32.0359C75.5368 31.9135 75.6623 31.8013 75.7969 31.7008C76.5836 31.0477 77.5434 30.639 78.5583 30.5249H78.6697C78.7654 30.5185 78.8614 30.5185 78.957 30.5249C79.0116 30.5193 79.0666 30.5193 79.1211 30.5249H103.247C104.551 30.5302 105.817 30.0829 106.83 29.2589C107.844 28.4348 108.541 27.2847 108.805 26.0037C108.963 25.2575 109.043 24.497 109.045 23.7342V23.5343C108.968 22.1395 108.401 20.817 107.445 19.8009C106.243 18.4622 105.389 16.8466 104.959 15.0974C104.742 14.2123 104.632 13.3044 104.631 12.3929C104.6 10.8324 104.895 9.28262 105.498 7.84363C106.101 6.40463 106.998 5.10831 108.131 4.03825C109.264 2.9682 110.609 2.14821 112.077 1.63106C113.546 1.11392 115.106 0.911133 116.658 1.0358C118.209 1.16048 119.717 1.60982 121.085 2.35486C122.453 3.0999 123.65 4.12413 124.598 5.36147C125.547 6.59882 126.227 8.0218 126.594 9.53871C126.96 11.0556 127.006 12.6328 126.728 14.1685C126.675 14.4683 126.616 14.7564 126.54 15.068C126.102 16.8117 125.254 18.4247 124.066 19.7715C123.112 20.7776 122.55 22.0943 122.483 23.4814V23.6931C122.479 24.4552 122.554 25.2157 122.706 25.9625C122.975 27.243 123.676 28.3914 124.69 29.2148C125.705 30.0382 126.971 30.4863 128.276 30.4837H152.313C152.368 30.4781 152.423 30.4781 152.478 30.4837C152.573 30.4773 152.669 30.4773 152.765 30.4837H152.876C153.891 30.5978 154.851 31.0065 155.638 31.6596C155.785 31.7736 155.92 31.9016 156.042 32.0418C156.154 32.1594 156.277 32.2828 156.376 32.4063C156.376 32.4063 156.376 32.4063 156.412 32.4475C156.723 32.8291 156.976 33.2551 157.162 33.7115C157.239 33.8631 157.298 34.0228 157.338 34.1878C157.442 34.5229 157.513 34.8676 157.549 35.2167C157.549 35.3872 157.549 35.5635 157.549 35.7399V59.8689C157.552 61.1772 157.104 62.4464 156.282 63.4619C155.459 64.4774 154.312 65.177 153.035 65.4425C152.292 65.5951 151.535 65.6699 150.777 65.6659H150.566C150.051 65.6569 149.54 65.5656 149.054 65.3955C148.24 65.1094 147.492 64.6615 146.855 64.0785C145.697 63.0353 144.33 62.2535 142.845 61.7855C142.626 61.7009 142.4 61.634 142.171 61.5856C141.912 61.5212 141.65 61.4722 141.385 61.4386C141.163 61.3923 140.937 61.3628 140.711 61.3504C140.558 61.3504 140.412 61.3152 140.271 61.3034C140.037 61.3034 139.784 61.3034 139.532 61.3034C139.145 61.3034 138.77 61.3034 138.401 61.3681C136.646 61.5455 134.958 62.1406 133.478 63.1039C131.999 64.0672 130.77 65.3709 129.894 66.9065C129.8 67.0515 129.715 67.2027 129.642 67.3592C129.393 67.8111 129.184 68.2831 129.014 68.7702C128.904 69.0735 128.814 69.3839 128.745 69.6992C128.682 69.8743 128.639 70.0556 128.616 70.2401C128.618 70.2456 128.62 70.2516 128.62 70.2577C128.62 70.2638 128.618 70.2699 128.616 70.2754C128.539 70.6281 128.493 70.975 128.452 71.3278C128.452 71.5159 128.416 71.704 128.416 71.9157C128.392 72.3073 128.392 72.7 128.416 73.0916C128.416 73.2797 128.416 73.4678 128.452 73.6795C128.493 74.0323 128.539 74.3791 128.616 74.7319C128.613 74.7374 128.612 74.7435 128.612 74.7496C128.612 74.7557 128.613 74.7617 128.616 74.7672C128.639 74.9516 128.682 75.133 128.745 75.3081C128.779 75.4863 128.828 75.6613 128.891 75.8313C128.939 76.0111 128.998 76.1878 129.067 76.3605C129.23 76.8038 129.426 77.2343 129.653 77.6481C129.727 77.8045 129.811 77.9558 129.905 78.1008C130.781 79.6364 132.01 80.94 133.49 81.9033C134.97 82.8666 136.657 83.4618 138.413 83.6392C139.034 83.7009 139.659 83.7126 140.283 83.6744C140.424 83.6744 140.57 83.6744 140.723 83.6274C140.898 83.6233 141.073 83.6016 141.244 83.5627C141.281 83.5689 141.319 83.5689 141.356 83.5627C141.362 83.5658 141.369 83.5675 141.376 83.5675C141.383 83.5675 141.39 83.5658 141.397 83.5627C141.683 83.526 141.967 83.471 142.247 83.3981C142.477 83.3497 142.702 83.2829 142.921 83.1982C144.409 82.7298 145.781 81.948 146.943 80.9052C147.576 80.3225 148.32 79.8745 149.13 79.5883C149.617 79.4191 150.127 79.3259 150.643 79.312H150.854C151.241 79.312 151.628 79.3413 152.026 79.3648C152.425 79.3884 152.777 79.4648 153.134 79.5412C154.253 79.7748 155.275 80.3425 156.066 81.1698C157.078 82.2369 157.643 83.6536 157.643 85.1266V109.232C157.643 109.42 157.643 109.597 157.643 109.767C157.606 110.116 157.536 110.461 157.432 110.796C157.384 110.958 157.325 111.118 157.256 111.272C157.126 111.588 156.962 111.89 156.769 112.172C156.381 112.752 155.881 113.248 155.298 113.63L154.922 113.853C154.77 113.93 154.623 114.006 154.471 114.065C154.002 114.265 153.506 114.396 152.999 114.453H152.888C152.792 114.459 152.696 114.459 152.601 114.453C152.601 114.453 152.56 114.453 152.548 114.453C152.511 114.459 152.473 114.459 152.437 114.453H128.399C127.094 114.45 125.828 114.899 124.813 115.722C123.799 116.545 123.098 117.694 122.829 118.974C122.677 119.721 122.602 120.481 122.606 121.244V121.455C122.672 122.841 123.234 124.156 124.189 125.159C125.375 126.508 126.223 128.12 126.663 129.863C126.74 130.169 126.798 130.451 126.851 130.768C127.12 132.405 127.023 134.082 126.565 135.676C126.108 137.271 125.302 138.743 124.206 139.986C123.11 141.229 121.752 142.212 120.23 142.863C118.709 143.514 117.061 143.816 115.408 143.749C113.755 143.682 112.138 143.246 110.673 142.473C109.209 141.701 107.935 140.611 106.943 139.283C105.952 137.955 105.268 136.422 104.94 134.796C104.613 133.169 104.652 131.49 105.053 129.88C105.483 128.131 106.336 126.516 107.539 125.177C108.495 124.161 109.062 122.838 109.139 121.444V121.244C109.138 120.481 109.057 119.72 108.899 118.974C108.635 117.693 107.937 116.543 106.924 115.719C105.911 114.895 104.645 114.448 103.341 114.453H79.2677C79.2269 114.459 79.1855 114.459 79.1446 114.453H79.1036C79.0079 114.459 78.912 114.459 78.8163 114.453H78.7049C78.1982 114.396 77.7024 114.265 77.2333 114.065C77.0808 114.006 76.9343 113.93 76.7819 113.853L76.4067 113.63C75.7554 113.2 75.2073 112.63 74.8018 111.962C74.3963 111.294 74.1435 110.545 74.0615 109.767C74.0615 109.597 74.0615 109.42 74.0615 109.232V85.1266C74.0613 83.6536 74.6259 82.2369 75.6386 81.1698C76.4266 80.339 77.4497 79.7705 78.57 79.5412C78.9453 79.4648 79.3029 79.4178 79.6781 79.3648C80.0534 79.3119 80.4403 79.312 80.8507 79.312H81.0676C81.581 79.3265 82.0891 79.4197 82.5744 79.5883C83.3846 79.8745 84.1285 80.3225 84.7612 80.9052C85.762 81.7966 86.9136 82.5015 88.1617 82.9866C88.5854 83.1484 89.0181 83.2858 89.4574 83.3981C89.737 83.471 90.021 83.526 90.3076 83.5627C90.3208 83.5677 90.3354 83.5677 90.3486 83.5627C90.3855 83.5689 90.4231 83.5689 90.46 83.5627C90.6314 83.6016 90.8062 83.6233 90.9818 83.6274C91.1342 83.6274 91.2808 83.6627 91.4215 83.6744C92.0449 83.7126 92.6703 83.7009 93.2917 83.6392C95.0476 83.4612 96.7358 82.866 98.2164 81.9028C99.6969 80.9396 100.927 79.6362 101.805 78.1008C101.897 77.9557 101.979 77.8044 102.051 77.6481C102.278 77.2343 102.474 76.8038 102.637 76.3605C102.706 76.1878 102.765 76.0111 102.813 75.8313C102.875 75.6605 102.926 75.4857 102.966 75.3081C103.023 75.132 103.064 74.9509 103.089 74.7672C103.091 74.7617 103.093 74.7557 103.093 74.7496C103.093 74.7435 103.091 74.7374 103.089 74.7319C103.165 74.3791 103.212 74.0323 103.253 73.6795C103.147 73.3855 103.147 73.1974 103.159 73.0092Z" fill="#01B8C6" stroke="#01858E" stroke-miterlimit="10"/>
<path d="M56.0802 144.51C56.9952 144.508 57.9069 144.619 58.7949 144.838C60.5468 145.269 62.1651 146.124 63.5059 147.327C64.5225 148.285 65.8481 148.851 67.2453 148.924H67.4456C68.207 148.927 68.9667 148.852 69.7127 148.701C70.9958 148.431 72.1468 147.73 72.9725 146.714C73.7982 145.699 74.2482 144.431 74.2471 143.124V118.8C74.2976 117.721 74.6812 116.684 75.3453 115.831C76.0093 114.978 76.9214 114.35 77.957 114.033C78.4025 113.88 78.8697 113.799 79.3409 113.793H79.3762C79.4172 113.798 79.4589 113.798 79.4999 113.793H103.673C104.984 113.789 106.256 114.236 107.273 115.06C108.291 115.884 108.991 117.033 109.256 118.312C109.415 119.055 109.496 119.813 109.497 120.572V120.772C109.423 122.165 108.853 123.487 107.89 124.499C106.687 125.839 105.83 127.451 105.393 129.195C105.177 130.081 105.068 130.989 105.069 131.901C105.057 133.449 105.368 134.981 105.982 136.403C106.597 137.824 107.501 139.102 108.638 140.155C109.775 141.209 111.119 142.016 112.586 142.523C114.052 143.031 115.609 143.229 117.156 143.105C118.703 142.981 120.208 142.537 121.574 141.802C122.94 141.066 124.137 140.056 125.09 138.834C126.043 137.612 126.731 136.207 127.109 134.706C127.487 133.205 127.548 131.642 127.287 130.117C127.24 129.811 127.176 129.53 127.099 129.213C126.662 127.471 125.809 125.86 124.614 124.517C123.656 123.512 123.092 122.197 123.024 120.813V120.602C123.023 119.843 123.098 119.086 123.248 118.342C123.518 117.063 124.222 115.915 125.24 115.092C126.259 114.269 127.531 113.821 128.842 113.822H152.986C153.023 113.828 153.061 113.828 153.098 113.822C153.098 113.822 153.139 113.822 153.151 113.822C153.627 113.836 154.099 113.917 154.553 114.063C155.602 114.38 156.524 115.02 157.187 115.891C157.85 116.761 158.22 117.818 158.245 118.911C158.25 118.958 158.25 119.005 158.245 119.052V143.124C158.243 144.431 158.693 145.698 159.517 146.713C160.342 147.728 161.491 148.43 162.773 148.701C163.521 148.852 164.283 148.927 165.046 148.924H165.252C166.65 148.851 167.975 148.285 168.992 147.327C170.332 146.123 171.95 145.268 173.703 144.838C175.448 144.402 177.272 144.392 179.022 144.808C180.771 145.224 182.394 146.055 183.753 147.229C185.112 148.404 186.167 149.887 186.829 151.555C187.49 153.222 187.739 155.024 187.553 156.807C187.382 158.315 186.906 159.772 186.155 161.092C185.404 162.412 184.393 163.567 183.183 164.487C181.973 165.408 180.589 166.075 179.113 166.449C177.638 166.823 176.102 166.895 174.598 166.663C174.298 166.61 174.009 166.551 173.697 166.475C171.95 166.039 170.333 165.189 168.986 163.998C167.974 163.036 166.649 162.469 165.252 162.401H165.04C164.277 162.4 163.515 162.477 162.767 162.63C161.485 162.9 160.335 163.601 159.51 164.617C158.685 165.632 158.236 166.9 158.239 168.206V192.273C158.245 192.347 158.245 192.422 158.239 192.496C158.18 193.818 157.623 195.068 156.678 195.998C155.734 196.928 154.472 197.467 153.145 197.509C153.09 197.503 153.035 197.503 152.98 197.509H128.836C127.525 197.511 126.254 197.064 125.235 196.242C124.216 195.42 123.512 194.273 123.242 192.995C123.092 192.249 123.017 191.49 123.018 190.729V190.518C123.088 189.133 123.651 187.82 124.608 186.814C125.805 185.472 126.658 183.861 127.093 182.118C127.17 181.819 127.234 181.531 127.282 181.22C127.552 179.585 127.454 177.912 126.995 176.32C126.535 174.728 125.726 173.258 124.625 172.017C123.524 170.776 122.16 169.795 120.632 169.145C119.103 168.495 117.449 168.193 115.788 168.26C114.128 168.327 112.503 168.762 111.033 169.533C109.562 170.305 108.282 171.393 107.286 172.719C106.29 174.045 105.603 175.575 105.274 177.199C104.946 178.823 104.984 180.499 105.387 182.106C105.821 183.852 106.678 185.464 107.884 186.802C108.847 187.815 109.417 189.136 109.492 190.529V190.729C109.49 191.491 109.409 192.25 109.25 192.995C108.985 194.274 108.284 195.422 107.267 196.245C106.249 197.067 104.978 197.514 103.667 197.509H79.4881C79.4353 197.503 79.382 197.503 79.3291 197.509C78.8585 197.501 78.3918 197.422 77.9453 197.274C76.9088 196.962 75.9951 196.337 75.3305 195.486C74.6659 194.634 74.2831 193.597 74.2353 192.519V168.212C74.2375 166.905 73.7879 165.637 72.9621 164.621C72.1362 163.605 70.9846 162.904 69.7009 162.636C68.9551 162.482 68.1954 162.405 67.4338 162.407H67.2218C65.8322 162.477 64.5139 163.042 63.5059 163.998C62.1585 165.189 60.5424 166.039 58.7949 166.475C58.4946 166.551 58.2061 166.61 57.8881 166.663C56.3609 166.917 54.7973 166.853 53.2964 166.474C51.7954 166.095 50.3897 165.409 49.1682 164.461C47.9466 163.513 46.9359 162.322 46.1998 160.964C45.4638 159.606 45.0185 158.111 44.8922 156.572C44.7658 155.034 44.9611 153.487 45.4658 152.028C45.9704 150.568 46.7734 149.23 47.8239 148.096C48.8744 146.962 50.1496 146.058 51.5687 145.44C52.9878 144.823 54.52 144.506 56.0684 144.51H56.0802Z" fill="#912891" stroke="#601A60" stroke-miterlimit="10"/>
<defs>
<filter id="filter0_d_2219_12336" x="-51.4998" y="186.227" width="169.996" height="112.717" filterUnits="userSpaceOnUse" color-interpolation-filters="sRGB">
<feFlood flood-opacity="0" result="BackgroundImageFix"/>
<feColorMatrix in="SourceAlpha" type="matrix" values="0 0 0 0 0 0 0 0 0 0 0 0 0 0 0 0 0 0 127 0" result="hardAlpha"/>
<feOffset dy="4"/>
<feGaussianBlur stdDeviation="7"/>
<feComposite in2="hardAlpha" operator="out"/>
<feColorMatrix type="matrix" values="0 0 0 0 0 0 0 0 0 0 0 0 0 0 0 0 0 0 0.15 0"/>
<feBlend mode="normal" in2="BackgroundImageFix" result="effect1_dropShadow_2219_12336"/>
<feBlend mode="normal" in="SourceGraphic" in2="effect1_dropShadow_2219_12336" result="shape"/>
</filter>
</defs>
</svg>
