<svg width="280" height="371" viewBox="0 0 280 371" fill="none" xmlns="http://www.w3.org/2000/svg">
<g filter="url(#filter0_d_2070_17303)">
<path d="M158.992 181.16C159.019 181.593 159.019 182.026 158.992 182.459C158.992 182.666 158.992 182.874 158.953 183.108C158.907 183.497 158.855 183.88 158.771 184.27C158.768 184.276 158.766 184.283 158.766 184.29C158.766 184.296 158.768 184.303 158.771 184.309C158.744 184.512 158.698 184.712 158.634 184.906C158.551 185.254 158.449 185.596 158.328 185.932C158.139 186.47 157.906 186.991 157.631 187.49C157.551 187.663 157.459 187.83 157.357 187.99C156.382 189.686 155.015 191.125 153.37 192.188C151.725 193.252 149.849 193.909 147.898 194.106C147.488 194.145 147.071 194.177 146.641 194.177C146.361 194.177 146.081 194.177 145.82 194.177C145.664 194.177 145.501 194.177 145.332 194.125C145.08 194.111 144.829 194.079 144.583 194.028C144.264 193.987 143.949 193.927 143.638 193.846C143.149 193.725 142.668 193.573 142.198 193.392C140.814 192.859 139.538 192.08 138.433 191.093C137.99 190.686 137.501 190.333 136.974 190.042C136.647 189.855 136.302 189.701 135.945 189.581C135.406 189.393 134.841 189.293 134.271 189.282H134.03C133.187 189.278 132.347 189.361 131.522 189.529C130.278 189.785 129.142 190.412 128.265 191.327C127.142 192.502 126.515 194.061 126.512 195.683V222.34C126.512 222.535 126.512 222.73 126.512 222.918C126.553 223.304 126.631 223.684 126.747 224.054C126.967 224.766 127.326 225.428 127.802 226.002L128.173 226.404C128.301 226.54 128.441 226.663 128.59 226.774C129.464 227.496 130.531 227.947 131.658 228.073H131.782C131.888 228.08 131.995 228.08 132.101 228.073C132.162 228.079 132.223 228.079 132.284 228.073H159.09C160.539 228.067 161.946 228.561 163.071 229.471C164.197 230.381 164.972 231.651 165.265 233.065C165.44 233.889 165.53 234.729 165.532 235.571V235.792C165.446 237.332 164.816 238.793 163.754 239.915C162.418 241.393 161.469 243.177 160.992 245.108C160.751 246.086 160.628 247.088 160.627 248.095C160.593 249.818 160.921 251.529 161.591 253.118C162.261 254.707 163.257 256.139 164.517 257.32C165.776 258.502 167.269 259.407 168.901 259.978C170.533 260.549 172.266 260.773 173.99 260.636C175.714 260.498 177.39 260.002 178.909 259.179C180.429 258.356 181.759 257.225 182.813 255.859C183.867 254.493 184.623 252.921 185.03 251.246C185.438 249.571 185.488 247.83 185.179 246.134C185.12 245.803 185.055 245.485 184.971 245.141C184.484 243.215 183.542 241.434 182.222 239.947C181.161 238.836 180.537 237.382 180.463 235.85V235.617C180.459 234.775 180.542 233.935 180.71 233.111C181.01 231.697 181.788 230.429 182.915 229.519C184.042 228.61 185.449 228.115 186.899 228.118H213.607C213.668 228.124 213.729 228.124 213.789 228.118C213.896 228.125 214.002 228.125 214.109 228.118H214.232C215.36 227.992 216.426 227.541 217.301 226.82C217.464 226.694 217.614 226.553 217.75 226.398C217.874 226.268 218.011 226.132 218.121 225.995C218.121 225.995 218.121 225.995 218.16 225.95C218.506 225.528 218.787 225.058 218.994 224.554C219.079 224.387 219.145 224.21 219.19 224.028C219.305 223.658 219.384 223.278 219.424 222.892C219.424 222.704 219.424 222.509 219.424 222.314V195.67C219.427 194.226 218.93 192.824 218.016 191.703C217.102 190.581 215.828 189.809 214.408 189.516C213.583 189.347 212.743 189.265 211.9 189.269H211.666C211.093 189.279 210.526 189.38 209.985 189.568C209.081 189.884 208.25 190.378 207.542 191.022C206.256 192.174 204.736 193.037 203.087 193.554C202.843 193.647 202.593 193.721 202.337 193.775C202.05 193.846 201.758 193.9 201.465 193.937C201.218 193.988 200.967 194.021 200.715 194.034C200.546 194.034 200.383 194.073 200.227 194.086C199.966 194.086 199.686 194.086 199.406 194.086C198.976 194.086 198.559 194.086 198.149 194.015C196.199 193.819 194.323 193.162 192.679 192.098C191.035 191.034 189.67 189.595 188.697 187.899C188.592 187.739 188.499 187.572 188.417 187.399C188.141 186.9 187.908 186.379 187.72 185.841C187.597 185.506 187.497 185.164 187.42 184.815C187.351 184.622 187.303 184.422 187.277 184.218C187.279 184.212 187.281 184.205 187.281 184.199C187.281 184.192 187.279 184.185 187.277 184.179C187.192 183.79 187.14 183.407 187.094 183.017C187.094 182.809 187.055 182.602 187.055 182.368C187.029 181.935 187.029 181.502 187.055 181.069C187.055 180.862 187.055 180.654 187.094 180.42C187.14 180.031 187.192 179.648 187.277 179.258C187.274 179.252 187.272 179.245 187.272 179.239C187.272 179.232 187.274 179.225 187.277 179.219C187.303 179.015 187.351 178.815 187.42 178.622C187.458 178.425 187.513 178.232 187.583 178.044C187.636 177.846 187.701 177.65 187.778 177.46C187.959 176.97 188.177 176.495 188.43 176.038C188.512 175.865 188.605 175.698 188.71 175.538C189.683 173.842 191.048 172.403 192.692 171.339C194.336 170.275 196.212 169.618 198.162 169.422C198.852 169.354 199.547 169.341 200.24 169.383C200.396 169.383 200.559 169.383 200.728 169.435C200.924 169.44 201.118 169.464 201.308 169.507C201.349 169.5 201.391 169.5 201.432 169.507C201.439 169.503 201.447 169.502 201.455 169.502C201.463 169.502 201.47 169.503 201.478 169.507C201.796 169.547 202.111 169.608 202.422 169.689C202.677 169.742 202.928 169.816 203.171 169.909C204.825 170.427 206.348 171.29 207.64 172.441C208.343 173.085 209.17 173.579 210.07 173.896C210.611 174.082 211.178 174.185 211.75 174.201H211.985C212.415 174.201 212.845 174.168 213.288 174.142C213.731 174.116 214.122 174.032 214.519 173.947C215.762 173.69 216.897 173.063 217.776 172.149C218.901 170.971 219.529 169.406 219.528 167.78V141.162C219.528 140.954 219.528 140.759 219.528 140.571C219.488 140.186 219.409 139.805 219.294 139.435C219.241 139.256 219.175 139.08 219.098 138.909C218.954 138.56 218.772 138.227 218.558 137.916C218.127 137.275 217.571 136.728 216.923 136.306L216.506 136.059C216.336 135.975 216.174 135.89 216.004 135.825C215.483 135.604 214.932 135.46 214.369 135.397H214.245C214.139 135.39 214.032 135.39 213.926 135.397C213.926 135.397 213.881 135.397 213.868 135.397C213.827 135.391 213.785 135.391 213.744 135.397H187.036C185.586 135.4 184.179 134.905 183.052 133.996C181.925 133.086 181.146 131.818 180.847 130.404C180.678 129.58 180.595 128.74 180.6 127.898V127.665C180.672 126.135 181.297 124.682 182.358 123.575C183.676 122.086 184.618 120.305 185.107 118.381C185.192 118.043 185.257 117.732 185.316 117.381C185.615 115.573 185.507 113.722 184.999 111.961C184.49 110.201 183.595 108.575 182.377 107.202C181.16 105.83 179.651 104.745 177.96 104.026C176.269 103.307 174.439 102.973 172.602 103.047C170.765 103.121 168.968 103.603 167.341 104.456C165.714 105.309 164.299 106.512 163.197 107.979C162.095 109.445 161.335 111.138 160.971 112.934C160.608 114.73 160.651 116.584 161.096 118.361C161.574 120.293 162.522 122.077 163.858 123.555C164.92 124.677 165.55 126.137 165.636 127.678V127.898C165.635 128.741 165.545 129.581 165.369 130.404C165.076 131.819 164.301 133.089 163.176 133.999C162.05 134.909 160.643 135.403 159.194 135.397H132.447C132.401 135.39 132.355 135.39 132.31 135.397H132.264C132.158 135.39 132.051 135.39 131.945 135.397H131.821C131.258 135.46 130.707 135.604 130.186 135.825C130.017 135.89 129.854 135.975 129.685 136.059L129.268 136.306C128.544 136.781 127.935 137.41 127.485 138.147C127.034 138.885 126.753 139.712 126.662 140.571C126.662 140.759 126.662 140.954 126.662 141.162V167.78C126.662 169.406 127.289 170.971 128.414 172.149C129.29 173.067 130.427 173.694 131.671 173.947C132.088 174.032 132.486 174.084 132.903 174.142C133.32 174.201 133.749 174.201 134.205 174.201H134.446C135.017 174.185 135.581 174.082 136.121 173.896C137.021 173.579 137.847 173.085 138.55 172.441C139.662 171.457 140.942 170.679 142.329 170.143C142.799 169.964 143.28 169.813 143.768 169.689C144.079 169.608 144.394 169.547 144.713 169.507C144.728 169.501 144.744 169.501 144.758 169.507C144.799 169.5 144.841 169.5 144.882 169.507C145.073 169.464 145.267 169.44 145.462 169.435C145.631 169.435 145.794 169.396 145.951 169.383C146.643 169.341 147.338 169.354 148.029 169.422C149.979 169.619 151.855 170.276 153.5 171.34C155.145 172.403 156.512 173.843 157.487 175.538C157.59 175.698 157.681 175.865 157.761 176.038C158.013 176.495 158.231 176.97 158.412 177.46C158.489 177.65 158.554 177.846 158.608 178.044C158.677 178.233 158.733 178.426 158.777 178.622C158.841 178.816 158.887 179.016 158.914 179.219C158.917 179.225 158.918 179.232 158.918 179.239C158.918 179.245 158.917 179.252 158.914 179.258C158.998 179.648 159.051 180.031 159.096 180.42C158.979 180.745 158.979 180.953 158.992 181.16Z" fill="#4254A6"/>
<path d="M158.992 181.16C159.019 181.593 159.019 182.026 158.992 182.459C158.992 182.666 158.992 182.874 158.953 183.108C158.907 183.497 158.855 183.88 158.771 184.27C158.768 184.276 158.766 184.283 158.766 184.29C158.766 184.296 158.768 184.303 158.771 184.309C158.744 184.512 158.698 184.712 158.634 184.906C158.551 185.254 158.449 185.596 158.328 185.932C158.139 186.47 157.906 186.991 157.631 187.49C157.551 187.663 157.459 187.83 157.357 187.99C156.382 189.686 155.015 191.125 153.37 192.188C151.725 193.252 149.849 193.909 147.898 194.106C147.488 194.145 147.071 194.177 146.641 194.177C146.361 194.177 146.081 194.177 145.82 194.177C145.664 194.177 145.501 194.177 145.332 194.125C145.08 194.111 144.829 194.079 144.583 194.028C144.264 193.987 143.949 193.927 143.638 193.846C143.149 193.725 142.668 193.573 142.198 193.392C140.814 192.859 139.538 192.08 138.433 191.093C137.99 190.686 137.501 190.333 136.974 190.042C136.647 189.855 136.302 189.701 135.945 189.581C135.406 189.393 134.841 189.293 134.271 189.282H134.03C133.187 189.278 132.347 189.361 131.522 189.529C130.278 189.785 129.142 190.412 128.265 191.327C127.142 192.502 126.515 194.061 126.512 195.683V222.34C126.512 222.535 126.512 222.73 126.512 222.918C126.553 223.304 126.631 223.684 126.747 224.054C126.967 224.766 127.326 225.428 127.802 226.002L128.173 226.404C128.301 226.54 128.441 226.663 128.59 226.774C129.464 227.496 130.531 227.947 131.658 228.073H131.782C131.888 228.08 131.995 228.08 132.101 228.073C132.162 228.079 132.223 228.079 132.284 228.073H159.09C160.539 228.067 161.946 228.561 163.071 229.471C164.197 230.381 164.972 231.651 165.265 233.065C165.44 233.889 165.53 234.729 165.532 235.571V235.792C165.446 237.332 164.816 238.793 163.754 239.915C162.418 241.393 161.469 243.177 160.992 245.108C160.751 246.086 160.628 247.088 160.627 248.095C160.593 249.818 160.921 251.529 161.591 253.118C162.261 254.707 163.257 256.139 164.517 257.32C165.776 258.502 167.269 259.407 168.901 259.978C170.533 260.549 172.266 260.773 173.99 260.636C175.714 260.498 177.39 260.002 178.909 259.179C180.429 258.356 181.759 257.225 182.813 255.859C183.867 254.493 184.623 252.921 185.03 251.246C185.438 249.571 185.488 247.83 185.179 246.134C185.12 245.803 185.055 245.485 184.971 245.141C184.484 243.215 183.542 241.434 182.222 239.947C181.161 238.836 180.537 237.382 180.463 235.85V235.617C180.459 234.775 180.542 233.935 180.71 233.111C181.01 231.697 181.788 230.429 182.915 229.519C184.042 228.61 185.449 228.115 186.899 228.118H213.607C213.668 228.124 213.729 228.124 213.789 228.118C213.896 228.125 214.002 228.125 214.109 228.118H214.232C215.36 227.992 216.426 227.541 217.301 226.82C217.464 226.694 217.614 226.553 217.75 226.398C217.874 226.268 218.011 226.132 218.121 225.995C218.121 225.995 218.121 225.995 218.16 225.95C218.506 225.528 218.787 225.058 218.994 224.554C219.079 224.387 219.145 224.21 219.19 224.028C219.305 223.658 219.384 223.278 219.424 222.892C219.424 222.704 219.424 222.509 219.424 222.314V195.67C219.427 194.226 218.93 192.824 218.016 191.703C217.102 190.581 215.828 189.809 214.408 189.516C213.583 189.347 212.743 189.265 211.9 189.269H211.666C211.093 189.279 210.526 189.38 209.985 189.568C209.081 189.884 208.25 190.378 207.542 191.022C206.256 192.174 204.736 193.037 203.087 193.554C202.843 193.647 202.593 193.721 202.337 193.775C202.05 193.846 201.758 193.9 201.465 193.937C201.218 193.988 200.967 194.021 200.715 194.034C200.546 194.034 200.383 194.073 200.227 194.086C199.966 194.086 199.686 194.086 199.406 194.086C198.976 194.086 198.559 194.086 198.149 194.015C196.199 193.819 194.323 193.162 192.679 192.098C191.035 191.034 189.67 189.595 188.697 187.899C188.592 187.739 188.499 187.572 188.417 187.399C188.141 186.9 187.908 186.379 187.72 185.841C187.597 185.506 187.497 185.164 187.42 184.815C187.351 184.622 187.303 184.422 187.277 184.218C187.279 184.212 187.281 184.205 187.281 184.199C187.281 184.192 187.279 184.185 187.277 184.179C187.192 183.79 187.14 183.407 187.094 183.017C187.094 182.809 187.055 182.602 187.055 182.368C187.029 181.935 187.029 181.502 187.055 181.069C187.055 180.862 187.055 180.654 187.094 180.42C187.14 180.031 187.192 179.648 187.277 179.258C187.274 179.252 187.272 179.245 187.272 179.239C187.272 179.232 187.274 179.225 187.277 179.219C187.303 179.015 187.351 178.815 187.42 178.622C187.458 178.425 187.513 178.232 187.583 178.044C187.636 177.846 187.701 177.65 187.778 177.46C187.959 176.97 188.177 176.495 188.43 176.038C188.512 175.865 188.605 175.698 188.71 175.538C189.683 173.842 191.048 172.403 192.692 171.339C194.336 170.275 196.212 169.618 198.162 169.422C198.852 169.354 199.547 169.341 200.24 169.383C200.396 169.383 200.559 169.383 200.728 169.435C200.924 169.44 201.118 169.464 201.308 169.507C201.349 169.5 201.391 169.5 201.432 169.507C201.439 169.503 201.447 169.502 201.455 169.502C201.463 169.502 201.47 169.503 201.478 169.507C201.796 169.547 202.111 169.608 202.422 169.689C202.677 169.742 202.928 169.816 203.171 169.909C204.825 170.427 206.348 171.29 207.64 172.441C208.343 173.085 209.17 173.579 210.07 173.896C210.611 174.082 211.178 174.185 211.75 174.201H211.985C212.415 174.201 212.845 174.168 213.288 174.142C213.731 174.116 214.122 174.032 214.519 173.947C215.762 173.69 216.897 173.063 217.776 172.149C218.901 170.971 219.529 169.406 219.528 167.78V141.162C219.528 140.954 219.528 140.759 219.528 140.571C219.488 140.186 219.409 139.805 219.294 139.435C219.241 139.256 219.175 139.08 219.098 138.909C218.954 138.56 218.772 138.227 218.558 137.916C218.127 137.275 217.571 136.728 216.923 136.306L216.506 136.059C216.336 135.975 216.174 135.89 216.004 135.825C215.483 135.604 214.932 135.46 214.369 135.397H214.245C214.139 135.39 214.032 135.39 213.926 135.397C213.926 135.397 213.881 135.397 213.868 135.397C213.827 135.391 213.785 135.391 213.744 135.397H187.036C185.586 135.4 184.179 134.905 183.052 133.996C181.925 133.086 181.146 131.818 180.847 130.404C180.678 129.58 180.595 128.74 180.6 127.898V127.665C180.672 126.135 181.297 124.682 182.358 123.575C183.676 122.086 184.618 120.305 185.107 118.381C185.192 118.043 185.257 117.732 185.316 117.381C185.615 115.573 185.507 113.722 184.999 111.961C184.49 110.201 183.595 108.575 182.377 107.202C181.16 105.83 179.651 104.745 177.96 104.026C176.269 103.307 174.439 102.973 172.602 103.047C170.765 103.121 168.968 103.603 167.341 104.456C165.714 105.309 164.299 106.512 163.197 107.979C162.095 109.445 161.335 111.138 160.971 112.934C160.608 114.73 160.651 116.584 161.096 118.361C161.574 120.293 162.522 122.077 163.858 123.555C164.92 124.677 165.55 126.137 165.636 127.678V127.898C165.635 128.741 165.545 129.581 165.369 130.404C165.076 131.819 164.301 133.089 163.176 133.999C162.05 134.909 160.643 135.403 159.194 135.397H132.447C132.401 135.39 132.355 135.39 132.31 135.397H132.264C132.158 135.39 132.051 135.39 131.945 135.397H131.821C131.258 135.46 130.707 135.604 130.186 135.825C130.017 135.89 129.854 135.975 129.685 136.059L129.268 136.306C128.544 136.781 127.935 137.41 127.485 138.147C127.034 138.885 126.753 139.712 126.662 140.571C126.662 140.759 126.662 140.954 126.662 141.162V167.78C126.662 169.406 127.289 170.971 128.414 172.149C129.29 173.067 130.427 173.694 131.671 173.947C132.088 174.032 132.486 174.084 132.903 174.142C133.32 174.201 133.749 174.201 134.205 174.201H134.446C135.017 174.185 135.581 174.082 136.121 173.896C137.021 173.579 137.847 173.085 138.55 172.441C139.662 171.457 140.942 170.679 142.329 170.143C142.799 169.964 143.28 169.813 143.768 169.689C144.079 169.608 144.394 169.547 144.713 169.507C144.728 169.501 144.744 169.501 144.758 169.507C144.799 169.5 144.841 169.5 144.882 169.507C145.073 169.464 145.267 169.44 145.462 169.435C145.631 169.435 145.794 169.396 145.951 169.383C146.643 169.341 147.338 169.354 148.029 169.422C149.979 169.619 151.855 170.276 153.5 171.34C155.145 172.403 156.512 173.843 157.487 175.538C157.59 175.698 157.681 175.865 157.761 176.038C158.013 176.495 158.231 176.97 158.412 177.46C158.489 177.65 158.554 177.846 158.608 178.044C158.677 178.233 158.733 178.426 158.777 178.622C158.841 178.816 158.887 179.016 158.914 179.219C158.917 179.225 158.918 179.232 158.918 179.239C158.918 179.245 158.917 179.252 158.914 179.258C158.998 179.648 159.051 180.031 159.096 180.42C158.979 180.745 158.979 180.953 158.992 181.16Z" stroke="#344383" stroke-miterlimit="10"/>
</g>
<path d="M106.596 101.219C107.606 101.22 108.613 101.098 109.594 100.854C111.528 100.375 113.315 99.4255 114.796 98.0883C115.918 97.0238 117.382 96.3949 118.925 96.3143H119.146C119.987 96.3105 120.826 96.3936 121.649 96.5622C123.066 96.8616 124.337 97.6408 125.249 98.7691C126.161 99.8973 126.658 101.306 126.656 102.758V129.785C126.712 130.983 127.136 132.135 127.869 133.083C128.602 134.031 129.61 134.729 130.753 135.081C131.245 135.251 131.761 135.341 132.281 135.348H132.32C132.365 135.342 132.411 135.342 132.457 135.348H159.15C160.597 135.353 162.001 134.855 163.125 133.94C164.248 133.025 165.022 131.748 165.314 130.326C165.49 129.501 165.579 128.659 165.581 127.815V127.594C165.499 126.045 164.869 124.577 163.806 123.452C162.477 121.964 161.531 120.173 161.049 118.235C160.81 117.25 160.69 116.241 160.691 115.228C160.678 113.509 161.021 111.805 161.7 110.227C162.378 108.648 163.377 107.228 164.632 106.057C165.887 104.886 167.372 103.99 168.991 103.426C170.61 102.862 172.329 102.641 174.038 102.78C175.746 102.918 177.408 103.411 178.916 104.228C180.424 105.045 181.747 106.168 182.799 107.525C183.851 108.882 184.61 110.444 185.028 112.112C185.446 113.779 185.513 115.516 185.225 117.211C185.173 117.55 185.102 117.863 185.017 118.215C184.535 120.15 183.593 121.94 182.273 123.433C181.216 124.55 180.593 126.01 180.517 127.548V127.783C180.516 128.626 180.599 129.467 180.764 130.294C181.063 131.715 181.84 132.99 182.965 133.904C184.09 134.818 185.494 135.317 186.942 135.316H213.602C213.643 135.309 213.685 135.309 213.726 135.316C213.726 135.316 213.772 135.316 213.785 135.316C214.31 135.3 214.832 135.21 215.332 135.048C216.491 134.695 217.509 133.985 218.241 133.017C218.973 132.05 219.382 130.875 219.409 129.661C219.416 129.609 219.416 129.557 219.409 129.505V102.758C219.408 101.307 219.904 99.8989 220.814 98.7708C221.725 97.6427 222.994 96.8629 224.41 96.5622C225.236 96.3939 226.077 96.3108 226.92 96.3143H227.147C228.69 96.3949 230.154 97.0238 231.276 98.0883C232.756 99.4266 234.544 100.377 236.479 100.854C238.405 101.338 240.42 101.35 242.352 100.887C244.284 100.425 246.076 99.502 247.577 98.1971C249.077 96.8922 250.242 95.2437 250.973 93.3911C251.703 91.5386 251.978 89.5368 251.773 87.5553C251.583 85.8802 251.058 84.2608 250.229 82.7944C249.399 81.3279 248.283 80.0448 246.947 79.022C245.611 77.9992 244.082 77.2578 242.453 76.8425C240.824 76.4271 239.128 76.3463 237.467 76.605C237.135 76.6637 236.817 76.7289 236.472 76.8137C234.542 77.2977 232.758 78.2419 231.27 79.5659C230.153 80.6349 228.689 81.2646 227.147 81.3399H226.913C226.07 81.3412 225.229 81.256 224.403 81.0855C222.987 80.7859 221.717 80.0064 220.806 78.8781C219.896 77.7497 219.4 76.3414 219.403 74.8897V48.1497C219.409 48.0672 219.409 47.9843 219.403 47.9018C219.338 46.4333 218.722 45.0434 217.679 44.0107C216.636 42.9779 215.243 42.3783 213.778 42.3321C213.718 42.3386 213.656 42.3386 213.596 42.3321H186.935C185.488 42.3293 184.084 42.8264 182.959 43.7397C181.834 44.6531 181.057 45.927 180.758 47.3475C180.592 48.1763 180.51 49.0196 180.511 49.8649V50.0997C180.588 51.6377 181.21 53.0975 182.266 54.2151C183.589 55.7059 184.53 57.4963 185.011 59.4327C185.095 59.7653 185.167 60.0848 185.219 60.4305C185.518 62.2464 185.409 64.1063 184.902 65.875C184.395 67.6437 183.501 69.2769 182.285 70.6558C181.07 72.0347 179.564 73.1248 177.876 73.8469C176.188 74.569 174.361 74.9048 172.527 74.8301C170.694 74.7554 168.9 74.2721 167.276 73.4151C165.652 72.5581 164.239 71.3491 163.139 69.8759C162.039 68.4026 161.28 66.7022 160.918 64.898C160.555 63.0939 160.597 61.2313 161.042 59.4457C161.521 57.5063 162.468 55.7147 163.799 54.2281C164.863 53.1032 165.492 51.6349 165.574 50.0867V49.8649C165.572 49.0188 165.483 48.1751 165.308 47.3475C165.015 45.9264 164.241 44.6506 163.118 43.7365C161.994 42.8224 160.59 42.3262 159.143 42.3321H132.444C132.385 42.3385 132.326 42.3385 132.268 42.3321C131.748 42.3402 131.233 42.4282 130.74 42.593C129.596 42.9392 128.587 43.6335 127.853 44.5799C127.119 45.5263 126.696 46.678 126.643 47.8757V74.8831C126.646 76.3357 126.149 77.7448 125.237 78.8733C124.326 80.0018 123.054 80.7807 121.636 81.079C120.813 81.2498 119.974 81.335 119.133 81.3334H118.899C117.364 81.2553 115.909 80.6282 114.796 79.5659C113.308 78.2419 111.523 77.2977 109.594 76.8137C109.262 76.7289 108.943 76.6637 108.592 76.605C106.906 76.3223 105.179 76.3937 103.522 76.8147C101.865 77.2358 100.312 77.9973 98.9635 79.051C97.6146 80.1048 96.4985 81.4279 95.6858 82.9366C94.873 84.4453 94.3813 86.1068 94.2418 87.8159C94.1023 89.525 94.3179 91.2446 94.8752 92.8658C95.4324 94.487 96.3191 95.9746 97.4791 97.2344C98.6391 98.4942 100.047 99.4988 101.614 100.185C103.181 100.87 104.873 101.223 106.583 101.219H106.596Z" fill="#01B8C6" stroke="#01858E" stroke-miterlimit="10"/>
<path d="M13.3953 194.528C14.4057 194.529 15.4124 194.407 16.393 194.162C18.3276 193.684 20.1145 192.734 21.5951 191.397C22.7177 190.332 24.1814 189.704 25.7242 189.623H25.9454C26.7861 189.619 27.625 189.702 28.4488 189.871C29.8657 190.17 31.1366 190.95 32.0484 192.078C32.9601 193.206 33.457 194.614 33.4558 196.067V223.094C33.5116 224.292 33.9352 225.444 34.6684 226.392C35.4017 227.34 36.4089 228.038 37.5525 228.39C38.0444 228.56 38.5602 228.65 39.0805 228.657H39.1196C39.1648 228.651 39.2108 228.651 39.2561 228.657H65.9492C67.3966 228.661 68.8009 228.164 69.9243 227.249C71.0478 226.333 71.8212 225.057 72.1137 223.635C72.289 222.81 72.3783 221.968 72.3803 221.124V220.902C72.2982 219.354 71.6688 217.886 70.6051 216.761C69.2766 215.272 68.3302 213.482 67.848 211.543C67.6096 210.559 67.4895 209.55 67.4903 208.537C67.477 206.817 67.8204 205.114 68.4989 203.535C69.1774 201.956 70.1761 200.536 71.4314 199.365C72.6867 198.195 74.1712 197.299 75.7905 196.734C77.4098 196.17 79.1285 195.95 80.8371 196.088C82.5458 196.226 84.2071 196.72 85.7155 197.537C87.2238 198.353 88.5461 199.476 89.5984 200.834C90.6506 202.191 91.4097 203.753 91.8274 205.421C92.2451 207.088 92.3123 208.824 92.0246 210.519C91.9726 210.859 91.9011 211.172 91.8165 211.524C91.3339 213.459 90.3925 215.249 89.0724 216.741C88.0152 217.858 87.3922 219.318 87.3167 220.857V221.091C87.3155 221.935 87.3983 222.776 87.5638 223.602C87.8624 225.023 88.6393 226.298 89.7641 227.213C90.889 228.127 92.2933 228.626 93.7413 228.624H120.402C120.443 228.618 120.485 228.618 120.525 228.624C120.525 228.624 120.571 228.624 120.584 228.624C121.11 228.609 121.631 228.519 122.132 228.357C123.29 228.004 124.308 227.293 125.04 226.326C125.773 225.359 126.181 224.184 126.209 222.97C126.215 222.918 126.215 222.865 126.209 222.813V196.067C126.207 194.615 126.703 193.208 127.614 192.079C128.524 190.951 129.794 190.172 131.209 189.871C132.035 189.703 132.876 189.62 133.719 189.623H133.947C135.49 189.704 136.953 190.332 138.076 191.397C139.556 192.735 141.343 193.685 143.278 194.162C145.204 194.647 147.219 194.658 149.151 194.196C151.083 193.734 152.875 192.811 154.376 191.506C155.877 190.201 157.042 188.552 157.772 186.7C158.503 184.847 158.777 182.846 158.572 180.864C158.382 179.189 157.857 177.569 157.028 176.103C156.199 174.637 155.082 173.354 153.746 172.331C152.41 171.308 150.881 170.567 149.252 170.151C147.623 169.736 145.927 169.655 144.266 169.914C143.935 169.972 143.616 170.038 143.271 170.122C141.342 170.606 139.557 171.551 138.069 172.875C136.952 173.944 135.489 174.573 133.947 174.649H133.713C132.87 174.65 132.029 174.565 131.203 174.394C129.786 174.095 128.516 173.315 127.606 172.187C126.695 171.058 126.199 169.65 126.202 168.198V141.458C126.209 141.376 126.209 141.293 126.202 141.211C126.137 139.742 125.522 138.352 124.479 137.319C123.436 136.287 122.042 135.687 120.577 135.641C120.517 135.647 120.456 135.647 120.395 135.641H93.7348C92.2874 135.638 90.8832 136.135 89.7582 137.048C88.6332 137.962 87.856 139.236 87.5573 140.656C87.3918 141.485 87.309 142.328 87.3102 143.174V143.408C87.3869 144.946 88.0096 146.406 89.0659 147.524C90.3882 149.015 91.3298 150.805 91.81 152.741C91.8945 153.074 91.9661 153.394 92.0181 153.739C92.317 155.555 92.2087 157.415 91.7013 159.184C91.194 160.952 90.3001 162.586 89.0848 163.965C87.8695 165.343 86.3631 166.434 84.6752 167.156C82.9873 167.878 81.1602 168.214 79.3268 168.139C77.4933 168.064 75.6994 167.581 74.0754 166.724C72.4515 165.867 71.0383 164.658 69.9384 163.185C68.8386 161.711 68.0797 160.011 67.717 158.207C67.3543 156.403 67.3968 154.54 67.8415 152.754C68.3208 150.815 69.2675 149.023 70.5986 147.537C71.6623 146.412 72.2917 144.944 72.3738 143.395V143.174C72.3719 142.328 72.2825 141.484 72.1072 140.656C71.8146 139.235 71.0408 137.959 69.9173 137.045C68.7937 136.131 67.3895 135.635 65.9427 135.641H39.2431C39.1848 135.647 39.1259 135.647 39.0676 135.641C38.5479 135.649 38.0325 135.737 37.5394 135.902C36.395 136.248 35.3861 136.942 34.6522 137.889C33.9183 138.835 33.4956 139.987 33.4428 141.184V168.192C33.4452 169.644 32.9488 171.054 32.0368 172.182C31.1249 173.31 29.8532 174.089 28.4358 174.388C27.6122 174.559 26.7733 174.644 25.9323 174.642H25.6983C24.1638 174.564 22.7081 173.937 21.5951 172.875C20.1072 171.551 18.3226 170.606 16.393 170.122C16.0614 170.038 15.7428 169.972 15.3917 169.914C13.7053 169.631 11.9788 169.702 10.3214 170.123C8.66396 170.545 7.11176 171.306 5.76289 172.36C4.41403 173.414 3.29791 174.737 2.48517 176.245C1.67242 177.754 1.18074 179.416 1.04121 181.125C0.901688 182.834 1.11732 184.553 1.67456 186.175C2.23181 187.796 3.11855 189.283 4.27853 190.543C5.43854 191.803 6.84656 192.807 8.41362 193.493C9.98067 194.179 11.6726 194.531 13.3823 194.528H13.3953Z" fill="#912891" stroke="#601A60" stroke-miterlimit="10"/>
<path d="M106.596 285.652C107.606 285.654 108.613 285.532 109.594 285.291C111.528 284.817 113.315 283.878 114.796 282.554C115.918 281.501 117.382 280.879 118.925 280.799H119.146C119.987 280.795 120.826 280.877 121.649 281.044C123.066 281.341 124.337 282.112 125.249 283.228C126.161 284.344 126.658 285.738 126.656 287.175V313.917C126.712 315.103 127.136 316.243 127.869 317.181C128.602 318.119 129.61 318.809 130.753 319.157C131.245 319.326 131.761 319.415 132.281 319.422H132.32C132.365 319.416 132.411 319.416 132.457 319.422H159.15C160.597 319.426 162.001 318.934 163.125 318.028C164.248 317.123 165.022 315.86 165.314 314.453C165.49 313.636 165.579 312.804 165.581 311.969V311.749C165.499 310.217 164.869 308.764 163.806 307.651C162.477 306.179 161.531 304.406 161.049 302.489C160.81 301.515 160.69 300.516 160.691 299.514C160.678 297.812 161.021 296.127 161.7 294.565C162.378 293.003 163.377 291.597 164.632 290.439C165.887 289.28 167.372 288.394 168.991 287.836C170.61 287.277 172.329 287.06 174.038 287.196C175.746 287.333 177.408 287.821 178.916 288.629C180.424 289.438 181.747 290.549 182.799 291.892C183.851 293.235 184.61 294.78 185.028 296.43C185.446 298.08 185.513 299.798 185.225 301.475C185.173 301.811 185.102 302.121 185.017 302.469C184.535 304.384 183.593 306.155 182.273 307.632C181.216 308.737 180.593 310.182 180.517 311.704V311.936C180.516 312.771 180.599 313.603 180.764 314.421C181.063 315.827 181.84 317.088 182.965 317.993C184.09 318.898 185.494 319.391 186.942 319.39H213.602C213.643 319.383 213.685 319.383 213.726 319.39C213.726 319.39 213.772 319.39 213.785 319.39C214.31 319.375 214.832 319.286 215.332 319.125C216.491 318.776 217.509 318.073 218.241 317.116C218.973 316.158 219.382 314.996 219.409 313.795C219.416 313.743 219.416 313.691 219.409 313.64V287.175C219.408 285.739 219.904 284.346 220.814 283.23C221.725 282.113 222.994 281.342 224.41 281.044C225.236 280.878 226.077 280.796 226.92 280.799H227.147C228.69 280.879 230.154 281.501 231.276 282.554C232.756 283.879 234.544 284.819 236.479 285.291C238.405 285.77 240.42 285.781 242.352 285.324C244.284 284.866 246.076 283.953 247.577 282.662C249.077 281.371 250.242 279.74 250.973 277.907C251.703 276.074 251.978 274.093 251.773 272.132C251.583 270.475 251.058 268.872 250.229 267.421C249.399 265.97 248.283 264.701 246.947 263.689C245.611 262.677 244.082 261.943 242.453 261.532C240.824 261.121 239.128 261.041 237.467 261.297C237.135 261.355 236.817 261.42 236.472 261.504C234.542 261.983 232.758 262.917 231.27 264.227C230.153 265.285 228.689 265.908 227.147 265.982H226.913C226.07 265.984 225.229 265.899 224.403 265.731C222.987 265.434 221.717 264.663 220.806 263.546C219.896 262.43 219.4 261.036 219.403 259.6V233.141C219.409 233.06 219.409 232.978 219.403 232.896C219.338 231.443 218.722 230.068 217.679 229.046C216.636 228.024 215.243 227.431 213.778 227.385C213.718 227.391 213.656 227.391 213.596 227.385H186.935C185.488 227.382 184.084 227.874 182.959 228.778C181.834 229.682 181.057 230.942 180.758 232.348C180.592 233.168 180.51 234.002 180.511 234.839V235.071C180.588 236.593 181.21 238.037 182.266 239.143C183.589 240.618 184.53 242.39 185.011 244.306C185.095 244.635 185.167 244.951 185.219 245.293C185.518 247.09 185.409 248.93 184.902 250.68C184.395 252.43 183.501 254.046 182.285 255.411C181.07 256.775 179.564 257.854 177.876 258.568C176.188 259.283 174.361 259.615 172.527 259.541C170.694 259.467 168.9 258.989 167.276 258.141C165.652 257.293 164.239 256.097 163.139 254.639C162.039 253.181 161.28 251.499 160.918 249.713C160.555 247.928 160.597 246.085 161.042 244.319C161.521 242.4 162.468 240.627 163.799 239.156C164.863 238.043 165.492 236.59 165.574 235.058V234.839C165.572 234.001 165.483 233.167 165.308 232.348C165.015 230.942 164.241 229.679 163.118 228.775C161.994 227.87 160.59 227.379 159.143 227.385H132.444C132.385 227.391 132.326 227.391 132.268 227.385C131.748 227.393 131.233 227.48 130.74 227.643C129.596 227.986 128.587 228.673 127.853 229.609C127.119 230.546 126.696 231.685 126.643 232.87V259.593C126.646 261.031 126.149 262.425 125.237 263.542C124.326 264.658 123.054 265.429 121.636 265.724C120.813 265.893 119.974 265.977 119.133 265.976H118.899C117.364 265.899 115.909 265.278 114.796 264.227C113.308 262.917 111.523 261.983 109.594 261.504C109.262 261.42 108.943 261.355 108.592 261.297C106.906 261.017 105.179 261.088 103.522 261.505C101.865 261.921 100.312 262.675 98.9635 263.718C97.6146 264.76 96.4985 266.069 95.6858 267.562C94.873 269.055 94.3813 270.699 94.2418 272.39C94.1023 274.081 94.3179 275.783 94.8752 277.387C95.4324 278.991 96.3191 280.463 97.4791 281.709C98.6391 282.956 100.047 283.95 101.614 284.629C103.181 285.307 104.873 285.656 106.583 285.652H106.596Z" fill="#FFC00E" stroke="#C99403" stroke-miterlimit="10"/>
<path d="M199.69 194.235C200.706 194.236 201.719 194.114 202.706 193.87C204.653 193.391 206.451 192.442 207.941 191.104C209.07 190.04 210.543 189.411 212.095 189.33H212.318C213.164 189.326 214.008 189.41 214.837 189.578C216.262 189.878 217.541 190.657 218.459 191.785C219.376 192.913 219.876 194.322 219.875 195.774V222.801C219.931 223.999 220.357 225.151 221.095 226.099C221.833 227.047 222.846 227.745 223.997 228.097C224.492 228.267 225.011 228.357 225.535 228.364H225.574C225.619 228.358 225.666 228.358 225.711 228.364H252.57C254.026 228.369 255.439 227.871 256.57 226.956C257.7 226.041 258.479 224.764 258.773 223.342C258.949 222.517 259.039 221.675 259.041 220.831V220.61C258.959 219.061 258.325 217.593 257.255 216.468C255.918 214.98 254.966 213.189 254.481 211.251C254.241 210.266 254.12 209.257 254.121 208.244C254.107 206.525 254.453 204.821 255.136 203.243C255.818 201.664 256.823 200.244 258.086 199.073C259.349 197.902 260.843 197.006 262.473 196.442C264.102 195.878 265.831 195.657 267.551 195.796C269.27 195.934 270.941 196.427 272.459 197.244C273.977 198.061 275.307 199.184 276.366 200.541C277.425 201.898 278.189 203.46 278.609 205.128C279.029 206.795 279.097 208.532 278.807 210.227C278.755 210.566 278.683 210.879 278.598 211.231C278.112 213.166 277.165 214.956 275.837 216.449C274.773 217.566 274.146 219.026 274.07 220.564V220.799C274.069 221.642 274.152 222.483 274.319 223.31C274.619 224.731 275.401 226.006 276.533 226.92C277.665 227.834 279.078 228.333 280.535 228.332H307.361C307.402 228.325 307.444 228.325 307.485 228.332C307.485 228.332 307.531 228.332 307.544 228.332C308.073 228.316 308.598 228.226 309.101 228.064C310.267 227.711 311.292 227.001 312.028 226.033C312.765 225.066 313.176 223.891 313.204 222.677C313.21 222.625 313.21 222.573 313.204 222.521V195.774C313.202 194.323 313.701 192.915 314.618 191.787C315.534 190.659 316.811 189.879 318.235 189.578C319.067 189.41 319.913 189.327 320.761 189.33H320.99C322.542 189.411 324.015 190.04 325.145 191.104C326.634 192.443 328.432 193.393 330.379 193.87C332.318 194.354 334.345 194.366 336.289 193.903C338.233 193.441 340.036 192.518 341.546 191.213C343.056 189.908 344.228 188.26 344.963 186.407C345.698 184.555 345.974 182.553 345.768 180.571C345.577 178.896 345.049 177.277 344.215 175.81C343.38 174.344 342.257 173.061 340.912 172.038C339.568 171.015 338.03 170.274 336.391 169.858C334.752 169.443 333.045 169.362 331.374 169.621C331.04 169.68 330.719 169.745 330.373 169.83C328.431 170.314 326.635 171.258 325.138 172.582C324.014 173.651 322.542 174.281 320.99 174.356H320.754C319.906 174.357 319.06 174.272 318.229 174.102C316.804 173.802 315.526 173.022 314.609 171.894C313.693 170.766 313.195 169.357 313.197 167.906V141.166C313.204 141.083 313.204 141 313.197 140.918C313.132 139.449 312.513 138.059 311.463 137.027C310.414 135.994 309.012 135.394 307.538 135.348C307.477 135.355 307.415 135.355 307.354 135.348H280.528C279.072 135.345 277.659 135.842 276.527 136.756C275.395 137.669 274.613 138.943 274.312 140.363C274.146 141.192 274.063 142.036 274.064 142.881V143.116C274.141 144.654 274.768 146.113 275.83 147.231C277.161 148.722 278.108 150.512 278.592 152.449C278.677 152.781 278.749 153.101 278.801 153.447C279.102 155.262 278.993 157.122 278.482 158.891C277.972 160.66 277.072 162.293 275.849 163.672C274.627 165.051 273.111 166.141 271.412 166.863C269.714 167.585 267.876 167.921 266.031 167.846C264.186 167.771 262.381 167.288 260.747 166.431C259.113 165.574 257.691 164.365 256.584 162.892C255.477 161.419 254.714 159.718 254.349 157.914C253.984 156.11 254.027 154.247 254.474 152.462C254.956 150.522 255.909 148.731 257.248 147.244C258.319 146.119 258.952 144.651 259.035 143.103V142.881C259.033 142.035 258.943 141.191 258.766 140.363C258.472 138.942 257.693 137.667 256.563 136.752C255.432 135.838 254.019 135.342 252.564 135.348H225.698C225.639 135.355 225.58 135.355 225.522 135.348C224.999 135.356 224.48 135.444 223.984 135.609C222.832 135.955 221.817 136.649 221.079 137.596C220.34 138.542 219.915 139.694 219.862 140.892V167.899C219.864 169.352 219.365 170.761 218.447 171.889C217.53 173.018 216.25 173.797 214.824 174.095C213.995 174.266 213.151 174.351 212.305 174.349H212.069C210.525 174.271 209.06 173.644 207.941 172.582C206.443 171.258 204.648 170.314 202.706 169.83C202.372 169.745 202.052 169.68 201.699 169.621C200.002 169.338 198.264 169.41 196.597 169.831C194.929 170.252 193.367 171.013 192.01 172.067C190.653 173.121 189.53 174.444 188.712 175.953C187.894 177.461 187.399 179.123 187.259 180.832C187.119 182.541 187.336 184.261 187.896 185.882C188.457 187.503 189.349 188.991 190.516 190.25C191.684 191.51 193.1 192.515 194.677 193.201C196.254 193.886 197.956 194.239 199.677 194.235H199.69Z" fill="#C9DA2A" stroke="#9EAC20" stroke-miterlimit="10"/>
<g filter="url(#filter1_d_2070_17303)">
<path d="M65.9751 272.712C66.0017 273.142 66.0017 273.573 65.9751 274.002C65.9751 274.209 65.9751 274.415 65.936 274.647C65.8904 275.035 65.8383 275.415 65.7536 275.802C65.7507 275.808 65.7492 275.815 65.7492 275.822C65.7492 275.828 65.7507 275.835 65.7536 275.841C65.7267 276.043 65.6809 276.241 65.6168 276.435C65.5346 276.78 65.4324 277.12 65.3107 277.454C65.1225 277.989 64.8894 278.507 64.6136 279.002C64.534 279.174 64.4425 279.34 64.34 279.499C63.3649 281.184 61.9981 282.614 60.3531 283.671C58.7081 284.728 56.8323 285.382 54.8814 285.577C54.471 285.616 54.0541 285.648 53.6242 285.648C53.3441 285.648 53.064 285.648 52.8034 285.648C52.647 285.648 52.4842 285.648 52.3148 285.596C52.063 285.583 51.8126 285.55 51.5657 285.499C51.2473 285.459 50.9318 285.399 50.6211 285.319C50.1321 285.199 49.6513 285.048 49.1815 284.867C47.7973 284.338 46.5215 283.564 45.4163 282.583C44.9735 282.179 44.4837 281.828 43.9571 281.538C43.6299 281.353 43.2852 281.199 42.9279 281.08C42.3892 280.894 41.8241 280.794 41.2537 280.783H41.0127C40.1704 280.779 39.33 280.862 38.5047 281.028C37.261 281.283 36.1249 281.906 35.2476 282.815C34.125 283.983 33.4977 285.533 33.4953 287.145V313.636C33.4953 313.83 33.4953 314.023 33.4953 314.21C33.5357 314.593 33.6143 314.972 33.7299 315.339C33.9505 316.047 34.3091 316.704 34.7851 317.275L35.1564 317.675C35.2843 317.809 35.4238 317.932 35.5733 318.043C36.4475 318.759 37.5138 319.208 38.6415 319.333H38.7653C38.8716 319.34 38.9782 319.34 39.0845 319.333C39.1451 319.339 39.2062 319.339 39.2669 319.333H66.0728C67.5221 319.327 68.9289 319.818 70.0544 320.722C71.18 321.627 71.9551 322.889 72.2482 324.295C72.4235 325.113 72.513 325.948 72.5154 326.785V327.004C72.4292 328.535 71.7992 329.986 70.7369 331.101C69.4013 332.57 68.4526 334.343 67.9749 336.263C67.7339 337.234 67.6115 338.23 67.6101 339.231C67.5758 340.943 67.9041 342.644 68.5741 344.223C69.244 345.802 70.2406 347.225 71.4997 348.399C72.7587 349.573 74.2523 350.473 75.884 351.04C77.5157 351.608 79.2494 351.83 80.9732 351.694C82.6971 351.557 84.3729 351.064 85.8925 350.246C87.4122 349.428 88.742 348.305 89.7962 346.947C90.8504 345.589 91.6056 344.027 92.0131 342.363C92.4206 340.698 92.4714 338.967 92.1621 337.282C92.1035 336.953 92.0384 336.637 91.9537 336.295C91.4673 334.381 90.5246 332.611 89.2047 331.133C88.1441 330.029 87.5198 328.585 87.4459 327.062V326.83C87.4417 325.994 87.5247 325.159 87.6934 324.34C87.9927 322.935 88.7712 321.674 89.8982 320.771C91.0252 319.867 92.4319 319.375 93.8819 319.378H120.59C120.651 319.384 120.712 319.384 120.772 319.378C120.879 319.385 120.985 319.385 121.092 319.378H121.215C122.343 319.253 123.409 318.805 124.284 318.088C124.447 317.963 124.597 317.822 124.733 317.668C124.857 317.539 124.994 317.404 125.104 317.268C125.104 317.268 125.104 317.268 125.144 317.223C125.489 316.804 125.77 316.337 125.977 315.836C126.062 315.67 126.128 315.495 126.173 315.314C126.288 314.946 126.367 314.568 126.407 314.184C126.407 313.997 126.407 313.804 126.407 313.61V287.132C126.41 285.696 125.913 284.303 124.999 283.189C124.085 282.074 122.811 281.307 121.391 281.015C120.566 280.848 119.726 280.766 118.883 280.77H118.649C118.076 280.78 117.509 280.88 116.968 281.067C116.064 281.381 115.233 281.873 114.525 282.512C113.239 283.657 111.719 284.515 110.07 285.028C109.826 285.121 109.576 285.195 109.321 285.248C109.033 285.319 108.742 285.372 108.448 285.409C108.201 285.46 107.95 285.492 107.698 285.506C107.529 285.506 107.366 285.545 107.21 285.558C106.949 285.558 106.669 285.558 106.389 285.558C105.959 285.558 105.542 285.558 105.132 285.487C103.182 285.292 101.307 284.639 99.6626 283.582C98.0185 282.525 96.6531 281.094 95.6798 279.409C95.5752 279.25 95.4816 279.084 95.3997 278.912C95.1239 278.416 94.8908 277.898 94.7027 277.364C94.5801 277.031 94.48 276.69 94.403 276.344C94.3338 276.152 94.2857 275.953 94.2597 275.751C94.2626 275.745 94.2641 275.738 94.2641 275.731C94.2641 275.725 94.2626 275.718 94.2597 275.712C94.175 275.325 94.1229 274.944 94.0773 274.557C94.0773 274.351 94.0382 274.144 94.0382 273.912C94.0116 273.482 94.0116 273.051 94.0382 272.622C94.0382 272.415 94.0382 272.209 94.0773 271.976C94.1229 271.589 94.175 271.209 94.2597 270.822C94.2568 270.815 94.2553 270.809 94.2553 270.802C94.2553 270.795 94.2568 270.789 94.2597 270.783C94.2857 270.58 94.3338 270.381 94.403 270.189C94.4413 269.994 94.4957 269.802 94.5659 269.615C94.6192 269.418 94.6845 269.224 94.7613 269.034C94.9423 268.548 95.1601 268.075 95.4127 267.621C95.4947 267.45 95.5882 267.284 95.6928 267.125C96.6661 265.439 98.0315 264.009 99.6756 262.952C101.32 261.895 103.195 261.242 105.145 261.047C105.835 260.979 106.53 260.966 107.223 261.008C107.379 261.008 107.542 261.008 107.712 261.06C107.907 261.064 108.101 261.088 108.291 261.131C108.332 261.124 108.374 261.124 108.415 261.131C108.422 261.127 108.43 261.126 108.438 261.126C108.446 261.126 108.454 261.127 108.461 261.131C108.779 261.171 109.095 261.231 109.405 261.311C109.66 261.365 109.911 261.438 110.154 261.531C111.808 262.045 113.331 262.903 114.623 264.047C115.326 264.686 116.153 265.178 117.053 265.492C117.594 265.678 118.161 265.78 118.734 265.795H118.968C119.398 265.795 119.828 265.763 120.271 265.737C120.714 265.712 121.105 265.628 121.502 265.544C122.745 265.288 123.881 264.665 124.759 263.757C125.884 262.586 126.512 261.031 126.511 259.415V232.962C126.511 232.756 126.511 232.562 126.511 232.375C126.471 231.992 126.393 231.614 126.277 231.246C126.224 231.067 126.158 230.893 126.082 230.723C125.937 230.376 125.756 230.045 125.541 229.736C125.11 229.099 124.554 228.555 123.906 228.136L123.489 227.891C123.32 227.807 123.157 227.723 122.987 227.659C122.466 227.439 121.915 227.295 121.352 227.233H121.228C121.122 227.226 121.016 227.226 120.909 227.233C120.909 227.233 120.864 227.233 120.851 227.233C120.81 227.226 120.768 227.226 120.727 227.233H94.0187C92.5687 227.235 91.162 226.744 90.035 225.84C88.9081 224.937 88.1295 223.676 87.8302 222.271C87.6608 221.452 87.5779 220.617 87.5826 219.781V219.549C87.6552 218.028 88.2798 216.585 89.3415 215.484C90.6589 214.004 91.6013 212.235 92.0905 210.322C92.1752 209.987 92.2403 209.677 92.299 209.329C92.5983 207.532 92.4899 205.693 91.9816 203.943C91.4733 202.193 90.5779 200.578 89.3604 199.213C88.1429 197.849 86.6339 196.771 84.943 196.057C83.2521 195.342 81.4217 195.01 79.5849 195.084C77.7482 195.158 75.9511 195.636 74.3242 196.484C72.6974 197.332 71.2817 198.528 70.1798 199.985C69.078 201.442 68.3178 203.125 67.9545 204.909C67.5911 206.694 67.6337 208.537 68.0792 210.303C68.5568 212.223 69.5056 213.995 70.8412 215.465C71.9035 216.58 72.5334 218.031 72.6196 219.561V219.781C72.618 220.618 72.5285 221.453 72.3525 222.271C72.0593 223.677 71.2842 224.939 70.1586 225.843C69.0331 226.748 67.6263 227.239 66.177 227.233H39.4297C39.3844 227.226 39.3383 227.226 39.293 227.233H39.2474C39.1411 227.226 39.0344 227.226 38.9282 227.233H38.8044C38.2414 227.295 37.6905 227.439 37.1693 227.659C36.9999 227.723 36.8371 227.807 36.6678 227.891L36.2508 228.136C35.5273 228.608 34.9183 229.233 34.4677 229.966C34.0172 230.699 33.7363 231.522 33.6452 232.375C33.6452 232.562 33.6452 232.756 33.6452 232.962V259.415C33.6449 261.031 34.2723 262.586 35.3974 263.757C36.2729 264.668 37.4098 265.292 38.6545 265.544C39.0714 265.628 39.4688 265.679 39.8857 265.737C40.3026 265.796 40.7326 265.795 41.1886 265.795H41.4296C42 265.78 42.5646 265.677 43.1038 265.492C44.004 265.178 44.8305 264.686 45.5335 264.047C46.6455 263.069 47.925 262.295 49.3118 261.763C49.7826 261.585 50.2632 261.435 50.7514 261.311C51.0621 261.231 51.3776 261.171 51.696 261.131C51.7107 261.125 51.7269 261.125 51.7416 261.131C51.7826 261.124 51.8244 261.124 51.8653 261.131C52.0557 261.088 52.25 261.064 52.4451 261.06C52.6145 261.06 52.7773 261.021 52.9337 261.008C53.6263 260.966 54.3211 260.979 55.0117 261.047C56.9626 261.242 58.8384 261.895 60.4834 262.952C62.1284 264.009 63.4951 265.44 64.4703 267.125C64.5728 267.284 64.6642 267.45 64.7439 267.621C64.9965 268.075 65.2143 268.548 65.3953 269.034C65.4721 269.224 65.5374 269.418 65.5908 269.615C65.66 269.802 65.7165 269.994 65.7601 270.189C65.8242 270.382 65.87 270.581 65.8969 270.783C65.8998 270.789 65.9013 270.795 65.9013 270.802C65.9013 270.809 65.8998 270.815 65.8969 270.822C65.9816 271.209 66.0337 271.589 66.0793 271.976C65.9621 272.299 65.962 272.505 65.9751 272.712Z" fill="#D1193D"/>
<path d="M65.9751 272.712C66.0017 273.142 66.0017 273.573 65.9751 274.002C65.9751 274.209 65.9751 274.415 65.936 274.647C65.8904 275.035 65.8383 275.415 65.7536 275.802C65.7507 275.808 65.7492 275.815 65.7492 275.822C65.7492 275.828 65.7507 275.835 65.7536 275.841C65.7267 276.043 65.6809 276.241 65.6168 276.435C65.5346 276.78 65.4324 277.12 65.3107 277.454C65.1225 277.989 64.8894 278.507 64.6136 279.002C64.534 279.174 64.4425 279.34 64.34 279.499C63.3649 281.184 61.9981 282.614 60.3531 283.671C58.7081 284.728 56.8323 285.382 54.8814 285.577C54.471 285.616 54.0541 285.648 53.6242 285.648C53.3441 285.648 53.064 285.648 52.8034 285.648C52.647 285.648 52.4842 285.648 52.3148 285.596C52.063 285.583 51.8126 285.55 51.5657 285.499C51.2473 285.459 50.9318 285.399 50.6211 285.319C50.1321 285.199 49.6513 285.048 49.1815 284.867C47.7973 284.338 46.5215 283.564 45.4163 282.583C44.9735 282.179 44.4837 281.828 43.9571 281.538C43.6299 281.353 43.2852 281.199 42.9279 281.08C42.3892 280.894 41.8241 280.794 41.2537 280.783H41.0127C40.1704 280.779 39.33 280.862 38.5047 281.028C37.261 281.283 36.1249 281.906 35.2476 282.815C34.125 283.983 33.4977 285.533 33.4953 287.145V313.636C33.4953 313.83 33.4953 314.023 33.4953 314.21C33.5357 314.593 33.6143 314.972 33.7299 315.339C33.9505 316.047 34.3091 316.704 34.7851 317.275L35.1564 317.675C35.2843 317.809 35.4238 317.932 35.5733 318.043C36.4475 318.759 37.5138 319.208 38.6415 319.333H38.7653C38.8716 319.34 38.9782 319.34 39.0845 319.333C39.1451 319.339 39.2062 319.339 39.2669 319.333H66.0728C67.5221 319.327 68.9289 319.818 70.0544 320.722C71.18 321.627 71.9551 322.889 72.2482 324.295C72.4235 325.113 72.513 325.948 72.5154 326.785V327.004C72.4292 328.535 71.7992 329.986 70.7369 331.101C69.4013 332.57 68.4526 334.343 67.9749 336.263C67.7339 337.234 67.6115 338.23 67.6101 339.231C67.5758 340.943 67.9041 342.644 68.5741 344.223C69.244 345.802 70.2406 347.225 71.4997 348.399C72.7587 349.573 74.2523 350.473 75.884 351.04C77.5157 351.608 79.2494 351.83 80.9732 351.694C82.6971 351.557 84.3729 351.064 85.8925 350.246C87.4122 349.428 88.742 348.305 89.7962 346.947C90.8504 345.589 91.6056 344.027 92.0131 342.363C92.4206 340.698 92.4714 338.967 92.1621 337.282C92.1035 336.953 92.0384 336.637 91.9537 336.295C91.4673 334.381 90.5246 332.611 89.2047 331.133C88.1441 330.029 87.5198 328.585 87.4459 327.062V326.83C87.4417 325.994 87.5247 325.159 87.6934 324.34C87.9927 322.935 88.7712 321.674 89.8982 320.771C91.0252 319.867 92.4319 319.375 93.8819 319.378H120.59C120.651 319.384 120.712 319.384 120.772 319.378C120.879 319.385 120.985 319.385 121.092 319.378H121.215C122.343 319.253 123.409 318.805 124.284 318.088C124.447 317.963 124.597 317.822 124.733 317.668C124.857 317.539 124.994 317.404 125.104 317.268C125.104 317.268 125.104 317.268 125.144 317.223C125.489 316.804 125.77 316.337 125.977 315.836C126.062 315.67 126.128 315.495 126.173 315.314C126.288 314.946 126.367 314.568 126.407 314.184C126.407 313.997 126.407 313.804 126.407 313.61V287.132C126.41 285.696 125.913 284.303 124.999 283.189C124.085 282.074 122.811 281.307 121.391 281.015C120.566 280.848 119.726 280.766 118.883 280.77H118.649C118.076 280.78 117.509 280.88 116.968 281.067C116.064 281.381 115.233 281.873 114.525 282.512C113.239 283.657 111.719 284.515 110.07 285.028C109.826 285.121 109.576 285.195 109.321 285.248C109.033 285.319 108.742 285.372 108.448 285.409C108.201 285.46 107.95 285.492 107.698 285.506C107.529 285.506 107.366 285.545 107.21 285.558C106.949 285.558 106.669 285.558 106.389 285.558C105.959 285.558 105.542 285.558 105.132 285.487C103.182 285.292 101.307 284.639 99.6626 283.582C98.0185 282.525 96.6531 281.094 95.6798 279.409C95.5752 279.25 95.4816 279.084 95.3997 278.912C95.1239 278.416 94.8908 277.898 94.7027 277.364C94.5801 277.031 94.48 276.69 94.403 276.344C94.3338 276.152 94.2857 275.953 94.2597 275.751C94.2626 275.745 94.2641 275.738 94.2641 275.731C94.2641 275.725 94.2626 275.718 94.2597 275.712C94.175 275.325 94.1229 274.944 94.0773 274.557C94.0773 274.351 94.0382 274.144 94.0382 273.912C94.0116 273.482 94.0116 273.051 94.0382 272.622C94.0382 272.415 94.0382 272.209 94.0773 271.976C94.1229 271.589 94.175 271.209 94.2597 270.822C94.2568 270.815 94.2553 270.809 94.2553 270.802C94.2553 270.795 94.2568 270.789 94.2597 270.783C94.2857 270.58 94.3338 270.381 94.403 270.189C94.4413 269.994 94.4957 269.802 94.5659 269.615C94.6192 269.418 94.6845 269.224 94.7613 269.034C94.9423 268.548 95.1601 268.075 95.4127 267.621C95.4947 267.45 95.5882 267.284 95.6928 267.125C96.6661 265.439 98.0315 264.009 99.6756 262.952C101.32 261.895 103.195 261.242 105.145 261.047C105.835 260.979 106.53 260.966 107.223 261.008C107.379 261.008 107.542 261.008 107.712 261.06C107.907 261.064 108.101 261.088 108.291 261.131C108.332 261.124 108.374 261.124 108.415 261.131C108.422 261.127 108.43 261.126 108.438 261.126C108.446 261.126 108.454 261.127 108.461 261.131C108.779 261.171 109.095 261.231 109.405 261.311C109.66 261.365 109.911 261.438 110.154 261.531C111.808 262.045 113.331 262.903 114.623 264.047C115.326 264.686 116.153 265.178 117.053 265.492C117.594 265.678 118.161 265.78 118.734 265.795H118.968C119.398 265.795 119.828 265.763 120.271 265.737C120.714 265.712 121.105 265.628 121.502 265.544C122.745 265.288 123.881 264.665 124.759 263.757C125.884 262.586 126.512 261.031 126.511 259.415V232.962C126.511 232.756 126.511 232.562 126.511 232.375C126.471 231.992 126.393 231.614 126.277 231.246C126.224 231.067 126.158 230.893 126.082 230.723C125.937 230.376 125.756 230.045 125.541 229.736C125.11 229.099 124.554 228.555 123.906 228.136L123.489 227.891C123.32 227.807 123.157 227.723 122.987 227.659C122.466 227.439 121.915 227.295 121.352 227.233H121.228C121.122 227.226 121.016 227.226 120.909 227.233C120.909 227.233 120.864 227.233 120.851 227.233C120.81 227.226 120.768 227.226 120.727 227.233H94.0187C92.5687 227.235 91.162 226.744 90.035 225.84C88.9081 224.937 88.1295 223.676 87.8302 222.271C87.6608 221.452 87.5779 220.617 87.5826 219.781V219.549C87.6552 218.028 88.2798 216.585 89.3415 215.484C90.6589 214.004 91.6013 212.235 92.0905 210.322C92.1752 209.987 92.2403 209.677 92.299 209.329C92.5983 207.532 92.4899 205.693 91.9816 203.943C91.4733 202.193 90.5779 200.578 89.3604 199.213C88.1429 197.849 86.6339 196.771 84.943 196.057C83.2521 195.342 81.4217 195.01 79.5849 195.084C77.7482 195.158 75.9511 195.636 74.3242 196.484C72.6974 197.332 71.2817 198.528 70.1798 199.985C69.078 201.442 68.3178 203.125 67.9545 204.909C67.5911 206.694 67.6337 208.537 68.0792 210.303C68.5568 212.223 69.5056 213.995 70.8412 215.465C71.9035 216.58 72.5334 218.031 72.6196 219.561V219.781C72.618 220.618 72.5285 221.453 72.3525 222.271C72.0593 223.677 71.2842 224.939 70.1586 225.843C69.0331 226.748 67.6263 227.239 66.177 227.233H39.4297C39.3844 227.226 39.3383 227.226 39.293 227.233H39.2474C39.1411 227.226 39.0344 227.226 38.9282 227.233H38.8044C38.2414 227.295 37.6905 227.439 37.1693 227.659C36.9999 227.723 36.8371 227.807 36.6678 227.891L36.2508 228.136C35.5273 228.608 34.9183 229.233 34.4677 229.966C34.0172 230.699 33.7363 231.522 33.6452 232.375C33.6452 232.562 33.6452 232.756 33.6452 232.962V259.415C33.6449 261.031 34.2723 262.586 35.3974 263.757C36.2729 264.668 37.4098 265.292 38.6545 265.544C39.0714 265.628 39.4688 265.679 39.8857 265.737C40.3026 265.796 40.7326 265.795 41.1886 265.795H41.4296C42 265.78 42.5646 265.677 43.1038 265.492C44.004 265.178 44.8305 264.686 45.5335 264.047C46.6455 263.069 47.925 262.295 49.3118 261.763C49.7826 261.585 50.2632 261.435 50.7514 261.311C51.0621 261.231 51.3776 261.171 51.696 261.131C51.7107 261.125 51.7269 261.125 51.7416 261.131C51.7826 261.124 51.8244 261.124 51.8653 261.131C52.0557 261.088 52.25 261.064 52.4451 261.06C52.6145 261.06 52.7773 261.021 52.9337 261.008C53.6263 260.966 54.3211 260.979 55.0117 261.047C56.9626 261.242 58.8384 261.895 60.4834 262.952C62.1284 264.009 63.4951 265.44 64.4703 267.125C64.5728 267.284 64.6642 267.45 64.7439 267.621C64.9965 268.075 65.2143 268.548 65.3953 269.034C65.4721 269.224 65.5374 269.418 65.5908 269.615C65.66 269.802 65.7165 269.994 65.7601 270.189C65.8242 270.382 65.87 270.581 65.8969 270.783C65.8998 270.789 65.9013 270.795 65.9013 270.802C65.9013 270.809 65.8998 270.815 65.8969 270.822C65.9816 271.209 66.0337 271.589 66.0793 271.976C65.9621 272.299 65.962 272.505 65.9751 272.712Z" stroke="#A41330" stroke-miterlimit="10"/>
</g>
<g filter="url(#filter2_d_2070_17303)">
<path d="M252.007 88.638C252.034 89.0678 252.034 89.4987 252.007 89.9284C252.007 90.1349 252.007 90.3413 251.968 90.5736C251.922 90.9607 251.87 91.3414 251.786 91.7285C251.783 91.7345 251.781 91.7411 251.781 91.7478C251.781 91.7545 251.783 91.7611 251.786 91.7672C251.759 91.9688 251.713 92.1676 251.649 92.3608C251.567 92.7061 251.464 93.0464 251.343 93.3801C251.155 93.9147 250.921 94.4327 250.646 94.9286C250.566 95.1002 250.475 95.2662 250.372 95.4254C249.397 97.1103 248.03 98.5406 246.385 99.5976C244.74 100.655 242.864 101.308 240.913 101.503C240.503 101.542 240.086 101.574 239.656 101.574C239.376 101.574 239.096 101.574 238.835 101.574C238.679 101.574 238.516 101.574 238.347 101.522C238.095 101.509 237.845 101.476 237.598 101.426C237.279 101.385 236.964 101.325 236.653 101.245C236.164 101.125 235.683 100.974 235.214 100.793C233.829 100.264 232.554 99.49 231.448 98.5094C231.006 98.1049 230.516 97.754 229.989 97.4642C229.662 97.2787 229.317 97.1253 228.96 97.0061C228.421 96.82 227.856 96.7198 227.286 96.7093H227.045C226.202 96.7056 225.362 96.7877 224.537 96.9545C223.293 97.2088 222.157 97.8322 221.28 98.7416C220.157 99.909 219.53 101.459 219.527 103.071V129.562C219.527 129.756 219.527 129.949 219.527 130.136C219.568 130.52 219.646 130.898 219.762 131.265C219.983 131.973 220.341 132.63 220.817 133.201L221.188 133.601C221.316 133.735 221.456 133.858 221.605 133.969C222.48 134.686 223.546 135.134 224.674 135.259H224.797C224.904 135.266 225.01 135.266 225.117 135.259C225.177 135.265 225.238 135.265 225.299 135.259H252.105C253.554 135.253 254.961 135.744 256.086 136.648C257.212 137.553 257.987 138.815 258.28 140.221C258.456 141.04 258.545 141.874 258.547 142.711V142.93C258.461 144.461 257.831 145.912 256.769 147.027C255.433 148.496 254.485 150.269 254.007 152.189C253.766 153.16 253.644 154.157 253.642 155.157C253.608 156.869 253.936 158.57 254.606 160.149C255.276 161.728 256.273 163.151 257.532 164.325C258.791 165.499 260.284 166.399 261.916 166.966C263.548 167.534 265.281 167.757 267.005 167.62C268.729 167.483 270.405 166.99 271.925 166.172C273.444 165.355 274.774 164.231 275.828 162.873C276.882 161.515 277.638 159.953 278.045 158.289C278.453 156.624 278.503 154.894 278.194 153.208C278.136 152.879 278.07 152.563 277.986 152.221C277.499 150.308 276.557 148.538 275.237 147.06C274.176 145.956 273.552 144.511 273.478 142.989V142.756C273.474 141.92 273.557 141.085 273.725 140.266C274.025 138.861 274.803 137.6 275.93 136.697C277.057 135.793 278.464 135.302 279.914 135.304H306.622C306.683 135.311 306.744 135.311 306.805 135.304C306.911 135.311 307.017 135.311 307.124 135.304H307.247C308.375 135.179 309.442 134.731 310.316 134.014C310.479 133.889 310.629 133.748 310.765 133.595C310.889 133.466 311.026 133.33 311.136 133.195C311.136 133.195 311.136 133.195 311.176 133.149C311.522 132.731 311.803 132.263 312.009 131.762C312.094 131.596 312.16 131.421 312.205 131.24C312.32 130.872 312.399 130.494 312.439 130.111C312.439 129.923 312.439 129.73 312.439 129.536V103.058C312.442 101.622 311.945 100.229 311.031 99.115C310.117 98.0006 308.843 97.2329 307.423 96.9416C306.598 96.7742 305.758 96.692 304.915 96.6964H304.681C304.108 96.7064 303.541 96.8065 303 96.9932C302.096 97.3071 301.265 97.7987 300.557 98.4384C299.271 99.5831 297.752 100.441 296.102 100.955C295.858 101.048 295.608 101.121 295.353 101.174C295.065 101.245 294.774 101.299 294.48 101.335C294.233 101.386 293.982 101.419 293.731 101.432C293.561 101.432 293.398 101.471 293.242 101.484C292.981 101.484 292.701 101.484 292.421 101.484C291.991 101.484 291.574 101.484 291.164 101.413C289.214 101.218 287.339 100.565 285.695 99.5079C284.051 98.4508 282.685 97.0202 281.712 95.3351C281.607 95.1759 281.514 95.0099 281.432 94.8383C281.156 94.3424 280.923 93.8244 280.735 93.2898C280.612 92.957 280.512 92.6164 280.435 92.2704C280.366 92.0783 280.318 91.8793 280.292 91.6769C280.295 91.6708 280.296 91.6642 280.296 91.6575C280.296 91.6508 280.295 91.6442 280.292 91.6381C280.207 91.251 280.155 90.8704 280.109 90.4833C280.109 90.2768 280.07 90.0704 280.07 89.8381C280.044 89.4084 280.044 88.9774 280.07 88.5477C280.07 88.3412 280.07 88.1348 280.109 87.9025C280.155 87.5154 280.207 87.1348 280.292 86.7477C280.289 86.7416 280.287 86.735 280.287 86.7283C280.287 86.7216 280.289 86.715 280.292 86.7089C280.318 86.5066 280.366 86.3075 280.435 86.1153C280.473 85.9198 280.528 85.7278 280.598 85.5412C280.651 85.3439 280.717 85.15 280.793 84.9605C280.974 84.474 281.192 84.0016 281.445 83.5475C281.527 83.3758 281.62 83.2099 281.725 83.0507C282.698 81.3656 284.064 79.935 285.708 78.8779C287.352 77.8208 289.227 77.1678 291.177 76.9731C291.868 76.9054 292.562 76.8924 293.255 76.9344C293.411 76.9344 293.574 76.9344 293.744 76.986C293.939 76.9905 294.133 77.0143 294.323 77.0569C294.364 77.0502 294.406 77.0502 294.447 77.0569C294.454 77.0535 294.462 77.0518 294.47 77.0518C294.478 77.0518 294.486 77.0535 294.493 77.0569C294.811 77.0973 295.127 77.1576 295.437 77.2376C295.692 77.2907 295.943 77.3641 296.186 77.457C297.84 77.971 299.363 78.8289 300.655 79.9732C301.358 80.6126 302.185 81.1043 303.085 81.4184C303.626 81.6041 304.193 81.7063 304.766 81.7216H305C305.43 81.7216 305.86 81.6894 306.303 81.6636C306.746 81.6378 307.137 81.5539 307.534 81.47C308.777 81.2138 309.913 80.5907 310.791 79.6829C311.916 78.5119 312.544 76.9572 312.544 75.3408V48.8881C312.544 48.6817 312.544 48.4881 312.544 48.301C312.503 47.9179 312.425 47.5397 312.309 47.1719C312.256 46.9936 312.19 46.819 312.114 46.6493C311.969 46.3024 311.788 45.9716 311.573 45.6622C311.142 45.0255 310.586 44.4814 309.938 44.0621L309.521 43.817C309.352 43.7331 309.189 43.6492 309.019 43.5847C308.498 43.3647 307.947 43.2213 307.384 43.1589H307.261C307.154 43.1519 307.048 43.1519 306.941 43.1589C306.941 43.1589 306.896 43.1589 306.883 43.1589C306.842 43.1526 306.8 43.1526 306.759 43.1589H280.051C278.601 43.1616 277.194 42.6699 276.067 41.7664C274.94 40.8628 274.161 39.6026 273.862 38.1974C273.693 37.378 273.61 36.5434 273.615 35.707V35.4747C273.687 33.9542 274.312 32.5107 275.374 31.41C276.691 29.9303 277.633 28.1609 278.123 26.2485C278.207 25.913 278.272 25.6034 278.331 25.255C278.63 23.4586 278.522 21.6187 278.014 19.869C277.505 18.1193 276.61 16.5037 275.392 15.1396C274.175 13.7754 272.666 12.6971 270.975 11.9828C269.284 11.2685 267.454 10.9362 265.617 11.0101C263.78 11.084 261.983 11.5622 260.356 12.4099C258.729 13.2577 257.314 14.4537 256.212 15.9111C255.11 17.3685 254.35 19.0507 253.987 20.8355C253.623 22.6203 253.666 24.4628 254.111 26.2292C254.589 28.1487 255.538 29.9216 256.873 31.3907C257.936 32.5057 258.565 33.9569 258.652 35.4876V35.707C258.65 36.544 258.561 37.3787 258.385 38.1974C258.091 39.6032 257.316 40.8652 256.191 41.7696C255.065 42.6739 253.658 43.1647 252.209 43.1589H225.462C225.416 43.1525 225.37 43.1525 225.325 43.1589H225.279C225.173 43.1519 225.066 43.1519 224.96 43.1589H224.836C224.273 43.2213 223.723 43.3647 223.201 43.5847C223.032 43.6492 222.869 43.7331 222.7 43.817L222.283 44.0621C221.559 44.5341 220.95 45.159 220.5 45.892C220.049 46.6249 219.768 47.4477 219.677 48.301C219.677 48.4881 219.677 48.6817 219.677 48.8881V75.3408C219.677 76.9572 220.304 78.5119 221.429 79.6829C222.305 80.5946 223.442 81.2184 224.687 81.47C225.103 81.5539 225.501 81.6055 225.918 81.6636C226.335 81.7217 226.765 81.7216 227.221 81.7216H227.462C228.032 81.7057 228.597 81.6034 229.136 81.4184C230.036 81.1043 230.863 80.6126 231.566 79.9732C232.678 78.995 233.957 78.2215 235.344 77.6892C235.815 77.5116 236.295 77.3609 236.783 77.2376C237.094 77.1576 237.41 77.0973 237.728 77.0569C237.743 77.0515 237.759 77.0515 237.774 77.0569C237.815 77.0502 237.856 77.0502 237.897 77.0569C238.088 77.0143 238.282 76.9905 238.477 76.986C238.647 76.986 238.809 76.9473 238.966 76.9344C239.658 76.8924 240.353 76.9054 241.044 76.9731C242.995 77.1683 244.87 77.8215 246.515 78.8785C248.16 79.9355 249.527 81.3658 250.502 83.0507C250.605 83.21 250.696 83.3759 250.776 83.5475C251.029 84.0016 251.246 84.474 251.427 84.9605C251.504 85.15 251.569 85.3439 251.623 85.5412C251.692 85.7286 251.749 85.9204 251.792 86.1153C251.856 86.3086 251.902 86.5073 251.929 86.7089C251.932 86.715 251.933 86.7216 251.933 86.7283C251.933 86.735 251.932 86.7416 251.929 86.7477C252.014 87.1348 252.066 87.5154 252.111 87.9025C251.994 88.2251 251.994 88.4316 252.007 88.638Z" fill="#F06522"/>
<path d="M252.007 88.638C252.034 89.0678 252.034 89.4987 252.007 89.9284C252.007 90.1349 252.007 90.3413 251.968 90.5736C251.922 90.9607 251.87 91.3414 251.786 91.7285C251.783 91.7345 251.781 91.7411 251.781 91.7478C251.781 91.7545 251.783 91.7611 251.786 91.7672C251.759 91.9688 251.713 92.1676 251.649 92.3608C251.567 92.7061 251.464 93.0464 251.343 93.3801C251.155 93.9147 250.921 94.4327 250.646 94.9286C250.566 95.1002 250.475 95.2662 250.372 95.4254C249.397 97.1103 248.03 98.5406 246.385 99.5976C244.74 100.655 242.864 101.308 240.913 101.503C240.503 101.542 240.086 101.574 239.656 101.574C239.376 101.574 239.096 101.574 238.835 101.574C238.679 101.574 238.516 101.574 238.347 101.522C238.095 101.509 237.845 101.476 237.598 101.426C237.279 101.385 236.964 101.325 236.653 101.245C236.164 101.125 235.683 100.974 235.214 100.793C233.829 100.264 232.554 99.49 231.448 98.5094C231.006 98.1049 230.516 97.754 229.989 97.4642C229.662 97.2787 229.317 97.1253 228.96 97.0061C228.421 96.82 227.856 96.7198 227.286 96.7093H227.045C226.202 96.7056 225.362 96.7877 224.537 96.9545C223.293 97.2088 222.157 97.8322 221.28 98.7416C220.157 99.909 219.53 101.459 219.527 103.071V129.562C219.527 129.756 219.527 129.949 219.527 130.136C219.568 130.52 219.646 130.898 219.762 131.265C219.983 131.973 220.341 132.63 220.817 133.201L221.188 133.601C221.316 133.735 221.456 133.858 221.605 133.969C222.48 134.686 223.546 135.134 224.674 135.259H224.797C224.904 135.266 225.01 135.266 225.117 135.259C225.177 135.265 225.238 135.265 225.299 135.259H252.105C253.554 135.253 254.961 135.744 256.086 136.648C257.212 137.553 257.987 138.815 258.28 140.221C258.456 141.04 258.545 141.874 258.547 142.711V142.93C258.461 144.461 257.831 145.912 256.769 147.027C255.433 148.496 254.485 150.269 254.007 152.189C253.766 153.16 253.644 154.157 253.642 155.157C253.608 156.869 253.936 158.57 254.606 160.149C255.276 161.728 256.273 163.151 257.532 164.325C258.791 165.499 260.284 166.399 261.916 166.966C263.548 167.534 265.281 167.757 267.005 167.62C268.729 167.483 270.405 166.99 271.925 166.172C273.444 165.355 274.774 164.231 275.828 162.873C276.882 161.515 277.638 159.953 278.045 158.289C278.453 156.624 278.503 154.894 278.194 153.208C278.136 152.879 278.07 152.563 277.986 152.221C277.499 150.308 276.557 148.538 275.237 147.06C274.176 145.956 273.552 144.511 273.478 142.989V142.756C273.474 141.92 273.557 141.085 273.725 140.266C274.025 138.861 274.803 137.6 275.93 136.697C277.057 135.793 278.464 135.302 279.914 135.304H306.622C306.683 135.311 306.744 135.311 306.805 135.304C306.911 135.311 307.017 135.311 307.124 135.304H307.247C308.375 135.179 309.442 134.731 310.316 134.014C310.479 133.889 310.629 133.748 310.765 133.595C310.889 133.466 311.026 133.33 311.136 133.195C311.136 133.195 311.136 133.195 311.176 133.149C311.522 132.731 311.803 132.263 312.009 131.762C312.094 131.596 312.16 131.421 312.205 131.24C312.32 130.872 312.399 130.494 312.439 130.111C312.439 129.923 312.439 129.73 312.439 129.536V103.058C312.442 101.622 311.945 100.229 311.031 99.115C310.117 98.0006 308.843 97.2329 307.423 96.9416C306.598 96.7742 305.758 96.692 304.915 96.6964H304.681C304.108 96.7064 303.541 96.8065 303 96.9932C302.096 97.3071 301.265 97.7987 300.557 98.4384C299.271 99.5831 297.752 100.441 296.102 100.955C295.858 101.048 295.608 101.121 295.353 101.174C295.065 101.245 294.774 101.299 294.48 101.335C294.233 101.386 293.982 101.419 293.731 101.432C293.561 101.432 293.398 101.471 293.242 101.484C292.981 101.484 292.701 101.484 292.421 101.484C291.991 101.484 291.574 101.484 291.164 101.413C289.214 101.218 287.339 100.565 285.695 99.5079C284.051 98.4508 282.685 97.0202 281.712 95.3351C281.607 95.1759 281.514 95.0099 281.432 94.8383C281.156 94.3424 280.923 93.8244 280.735 93.2898C280.612 92.957 280.512 92.6164 280.435 92.2704C280.366 92.0783 280.318 91.8793 280.292 91.6769C280.295 91.6708 280.296 91.6642 280.296 91.6575C280.296 91.6508 280.295 91.6442 280.292 91.6381C280.207 91.251 280.155 90.8704 280.109 90.4833C280.109 90.2768 280.07 90.0704 280.07 89.8381C280.044 89.4084 280.044 88.9774 280.07 88.5477C280.07 88.3412 280.07 88.1348 280.109 87.9025C280.155 87.5154 280.207 87.1348 280.292 86.7477C280.289 86.7416 280.287 86.735 280.287 86.7283C280.287 86.7216 280.289 86.715 280.292 86.7089C280.318 86.5066 280.366 86.3075 280.435 86.1153C280.473 85.9198 280.528 85.7278 280.598 85.5412C280.651 85.3439 280.717 85.15 280.793 84.9605C280.974 84.474 281.192 84.0016 281.445 83.5475C281.527 83.3758 281.62 83.2099 281.725 83.0507C282.698 81.3656 284.064 79.935 285.708 78.8779C287.352 77.8208 289.227 77.1678 291.177 76.9731C291.868 76.9054 292.562 76.8924 293.255 76.9344C293.411 76.9344 293.574 76.9344 293.744 76.986C293.939 76.9905 294.133 77.0143 294.323 77.0569C294.364 77.0502 294.406 77.0502 294.447 77.0569C294.454 77.0535 294.462 77.0518 294.47 77.0518C294.478 77.0518 294.486 77.0535 294.493 77.0569C294.811 77.0973 295.127 77.1576 295.437 77.2376C295.692 77.2907 295.943 77.3641 296.186 77.457C297.84 77.971 299.363 78.8289 300.655 79.9732C301.358 80.6126 302.185 81.1043 303.085 81.4184C303.626 81.6041 304.193 81.7063 304.766 81.7216H305C305.43 81.7216 305.86 81.6894 306.303 81.6636C306.746 81.6378 307.137 81.5539 307.534 81.47C308.777 81.2138 309.913 80.5907 310.791 79.6829C311.916 78.5119 312.544 76.9572 312.544 75.3408V48.8881C312.544 48.6817 312.544 48.4881 312.544 48.301C312.503 47.9179 312.425 47.5397 312.309 47.1719C312.256 46.9936 312.19 46.819 312.114 46.6493C311.969 46.3024 311.788 45.9716 311.573 45.6622C311.142 45.0255 310.586 44.4814 309.938 44.0621L309.521 43.817C309.352 43.7331 309.189 43.6492 309.019 43.5847C308.498 43.3647 307.947 43.2213 307.384 43.1589H307.261C307.154 43.1519 307.048 43.1519 306.941 43.1589C306.941 43.1589 306.896 43.1589 306.883 43.1589C306.842 43.1526 306.8 43.1526 306.759 43.1589H280.051C278.601 43.1616 277.194 42.6699 276.067 41.7664C274.94 40.8628 274.161 39.6026 273.862 38.1974C273.693 37.378 273.61 36.5434 273.615 35.707V35.4747C273.687 33.9542 274.312 32.5107 275.374 31.41C276.691 29.9303 277.633 28.1609 278.123 26.2485C278.207 25.913 278.272 25.6034 278.331 25.255C278.63 23.4586 278.522 21.6187 278.014 19.869C277.505 18.1193 276.61 16.5037 275.392 15.1396C274.175 13.7754 272.666 12.6971 270.975 11.9828C269.284 11.2685 267.454 10.9362 265.617 11.0101C263.78 11.084 261.983 11.5622 260.356 12.4099C258.729 13.2577 257.314 14.4537 256.212 15.9111C255.11 17.3685 254.35 19.0507 253.987 20.8355C253.623 22.6203 253.666 24.4628 254.111 26.2292C254.589 28.1487 255.538 29.9216 256.873 31.3907C257.936 32.5057 258.565 33.9569 258.652 35.4876V35.707C258.65 36.544 258.561 37.3787 258.385 38.1974C258.091 39.6032 257.316 40.8652 256.191 41.7696C255.065 42.6739 253.658 43.1647 252.209 43.1589H225.462C225.416 43.1525 225.37 43.1525 225.325 43.1589H225.279C225.173 43.1519 225.066 43.1519 224.96 43.1589H224.836C224.273 43.2213 223.723 43.3647 223.201 43.5847C223.032 43.6492 222.869 43.7331 222.7 43.817L222.283 44.0621C221.559 44.5341 220.95 45.159 220.5 45.892C220.049 46.6249 219.768 47.4477 219.677 48.301C219.677 48.4881 219.677 48.6817 219.677 48.8881V75.3408C219.677 76.9572 220.304 78.5119 221.429 79.6829C222.305 80.5946 223.442 81.2184 224.687 81.47C225.103 81.5539 225.501 81.6055 225.918 81.6636C226.335 81.7217 226.765 81.7216 227.221 81.7216H227.462C228.032 81.7057 228.597 81.6034 229.136 81.4184C230.036 81.1043 230.863 80.6126 231.566 79.9732C232.678 78.995 233.957 78.2215 235.344 77.6892C235.815 77.5116 236.295 77.3609 236.783 77.2376C237.094 77.1576 237.41 77.0973 237.728 77.0569C237.743 77.0515 237.759 77.0515 237.774 77.0569C237.815 77.0502 237.856 77.0502 237.897 77.0569C238.088 77.0143 238.282 76.9905 238.477 76.986C238.647 76.986 238.809 76.9473 238.966 76.9344C239.658 76.8924 240.353 76.9054 241.044 76.9731C242.995 77.1683 244.87 77.8215 246.515 78.8785C248.16 79.9355 249.527 81.3658 250.502 83.0507C250.605 83.21 250.696 83.3759 250.776 83.5475C251.029 84.0016 251.246 84.474 251.427 84.9605C251.504 85.15 251.569 85.3439 251.623 85.5412C251.692 85.7286 251.749 85.9204 251.792 86.1153C251.856 86.3086 251.902 86.5073 251.929 86.7089C251.932 86.715 251.933 86.7216 251.933 86.7283C251.933 86.735 251.932 86.7416 251.929 86.7477C252.014 87.1348 252.066 87.5154 252.111 87.9025C251.994 88.2251 251.994 88.4316 252.007 88.638Z" stroke="#D05011" stroke-miterlimit="10"/>
</g>
<defs>
<filter id="filter0_d_2070_17303" x="112.012" y="92.537" width="122.016" height="186.638" filterUnits="userSpaceOnUse" color-interpolation-filters="sRGB">
<feFlood flood-opacity="0" result="BackgroundImageFix"/>
<feColorMatrix in="SourceAlpha" type="matrix" values="0 0 0 0 0 0 0 0 0 0 0 0 0 0 0 0 0 0 127 0" result="hardAlpha"/>
<feOffset dy="4"/>
<feGaussianBlur stdDeviation="7"/>
<feComposite in2="hardAlpha" operator="out"/>
<feColorMatrix type="matrix" values="0 0 0 0 0 0 0 0 0 0 0 0 0 0 0 0 0 0 0.15 0"/>
<feBlend mode="normal" in2="BackgroundImageFix" result="effect1_dropShadow_2070_17303"/>
<feBlend mode="normal" in="SourceGraphic" in2="effect1_dropShadow_2070_17303" result="shape"/>
</filter>
<filter id="filter1_d_2070_17303" x="18.9953" y="184.574" width="122.016" height="185.659" filterUnits="userSpaceOnUse" color-interpolation-filters="sRGB">
<feFlood flood-opacity="0" result="BackgroundImageFix"/>
<feColorMatrix in="SourceAlpha" type="matrix" values="0 0 0 0 0 0 0 0 0 0 0 0 0 0 0 0 0 0 127 0" result="hardAlpha"/>
<feOffset dy="4"/>
<feGaussianBlur stdDeviation="7"/>
<feComposite in2="hardAlpha" operator="out"/>
<feColorMatrix type="matrix" values="0 0 0 0 0 0 0 0 0 0 0 0 0 0 0 0 0 0 0.15 0"/>
<feBlend mode="normal" in2="BackgroundImageFix" result="effect1_dropShadow_2070_17303"/>
<feBlend mode="normal" in="SourceGraphic" in2="effect1_dropShadow_2070_17303" result="shape"/>
</filter>
<filter id="filter2_d_2070_17303" x="197.027" y="0.5" width="138.016" height="201.659" filterUnits="userSpaceOnUse" color-interpolation-filters="sRGB">
<feFlood flood-opacity="0" result="BackgroundImageFix"/>
<feColorMatrix in="SourceAlpha" type="matrix" values="0 0 0 0 0 0 0 0 0 0 0 0 0 0 0 0 0 0 127 0" result="hardAlpha"/>
<feOffset dy="12"/>
<feGaussianBlur stdDeviation="11"/>
<feComposite in2="hardAlpha" operator="out"/>
<feColorMatrix type="matrix" values="0 0 0 0 0 0 0 0 0 0 0 0 0 0 0 0 0 0 0.15 0"/>
<feBlend mode="normal" in2="BackgroundImageFix" result="effect1_dropShadow_2070_17303"/>
<feBlend mode="normal" in="SourceGraphic" in2="effect1_dropShadow_2070_17303" result="shape"/>
</filter>
</defs>
</svg>
