<svg width="199" height="343" viewBox="0 0 199 343" fill="none" xmlns="http://www.w3.org/2000/svg">
<path d="M231.995 277.888C231.567 277.862 231.138 277.862 230.71 277.888C230.504 277.888 230.299 277.888 230.068 277.927C229.682 277.972 229.303 278.024 228.918 278.109C228.912 278.111 228.905 278.113 228.898 278.113C228.892 278.113 228.885 278.111 228.879 278.109C228.678 278.135 228.481 278.181 228.288 278.245C227.944 278.327 227.605 278.428 227.273 278.55C226.741 278.737 226.225 278.969 225.731 279.244C225.561 279.323 225.395 279.414 225.237 279.516C223.559 280.487 222.135 281.848 221.083 283.486C220.03 285.124 219.38 286.991 219.185 288.934C219.147 289.343 219.115 289.758 219.115 290.186C219.115 290.465 219.115 290.744 219.115 291.003C219.115 291.159 219.115 291.321 219.166 291.489C219.18 291.74 219.212 291.99 219.262 292.235C219.302 292.552 219.363 292.867 219.442 293.176C219.562 293.663 219.712 294.142 219.892 294.609C220.419 295.988 221.19 297.258 222.166 298.358C222.569 298.799 222.918 299.287 223.207 299.811C223.391 300.137 223.544 300.48 223.663 300.836C223.848 301.372 223.948 301.935 223.958 302.503L223.958 302.743C223.962 303.582 223.88 304.418 223.714 305.24C223.461 306.478 222.84 307.61 221.935 308.483C220.772 309.601 219.229 310.226 217.624 310.228L191.247 310.228C191.054 310.228 190.862 310.228 190.675 310.228C190.294 310.188 189.917 310.109 189.551 309.994C188.847 309.775 188.192 309.418 187.624 308.944L187.226 308.574C187.092 308.447 186.969 308.308 186.859 308.159C186.146 307.288 185.699 306.227 185.575 305.104L185.575 304.981C185.568 304.875 185.568 304.769 185.575 304.663C185.568 304.602 185.568 304.542 185.575 304.481L185.575 277.791C185.58 276.348 185.092 274.947 184.191 273.826C183.291 272.706 182.034 271.934 180.634 271.642C179.819 271.467 178.988 271.378 178.155 271.376L177.936 271.376C176.412 271.462 174.967 272.089 173.857 273.147C172.394 274.477 170.629 275.421 168.718 275.897C167.751 276.137 166.759 276.259 165.763 276.26C164.058 276.294 162.364 275.967 160.792 275.3C159.22 274.633 157.803 273.641 156.634 272.387C155.465 271.134 154.569 269.647 154.004 268.022C153.439 266.397 153.217 264.671 153.353 262.955C153.49 261.238 153.981 259.57 154.795 258.056C155.609 256.543 156.728 255.219 158.08 254.17C159.432 253.12 160.987 252.368 162.644 251.962C164.302 251.556 166.025 251.506 167.703 251.814C168.03 251.872 168.345 251.937 168.686 252.021C170.591 252.506 172.353 253.444 173.825 254.759C174.924 255.815 176.363 256.436 177.879 256.51L178.11 256.51C178.943 256.514 179.774 256.431 180.589 256.263C181.989 255.965 183.243 255.19 184.143 254.068C185.043 252.946 185.532 251.545 185.53 250.102L185.53 223.508C185.523 223.448 185.523 223.387 185.53 223.327C185.523 223.221 185.523 223.115 185.53 223.009L185.53 222.886C185.654 221.763 186.101 220.701 186.814 219.831C186.939 219.668 187.079 219.519 187.232 219.383C187.36 219.26 187.495 219.124 187.63 219.014C187.63 219.014 187.63 219.014 187.675 218.975C188.092 218.63 188.558 218.35 189.056 218.144C189.222 218.06 189.397 217.994 189.577 217.95C189.943 217.835 190.32 217.757 190.701 217.716C190.887 217.716 191.08 217.716 191.273 217.716L217.637 217.716C219.067 217.713 220.453 218.208 221.563 219.118C222.673 220.028 223.437 221.297 223.727 222.711C223.894 223.532 223.976 224.369 223.971 225.208L223.971 225.441C223.961 226.011 223.862 226.576 223.676 227.115C223.363 228.015 222.874 228.842 222.237 229.547C221.097 230.828 220.243 232.341 219.731 233.984C219.639 234.226 219.566 234.475 219.513 234.729C219.443 235.016 219.389 235.306 219.352 235.599C219.302 235.844 219.269 236.094 219.256 236.344C219.256 236.513 219.217 236.675 219.205 236.831C219.205 237.09 219.205 237.369 219.205 237.648C219.205 238.076 219.205 238.491 219.275 238.9C219.469 240.842 220.119 242.709 221.172 244.346C222.224 245.983 223.649 247.342 225.327 248.311C225.485 248.415 225.65 248.509 225.821 248.59C226.315 248.865 226.831 249.097 227.363 249.284C227.694 249.406 228.034 249.506 228.378 249.583C228.569 249.652 228.768 249.699 228.969 249.725C228.975 249.722 228.982 249.721 228.988 249.721C228.995 249.721 229.002 249.722 229.008 249.725C229.393 249.81 229.772 249.862 230.158 249.907C230.363 249.907 230.569 249.946 230.8 249.946C231.228 249.972 231.657 249.972 232.085 249.946C232.29 249.946 232.496 249.946 232.727 249.907C233.113 249.862 233.492 249.81 233.877 249.725C233.883 249.728 233.89 249.73 233.896 249.73C233.903 249.73 233.91 249.728 233.916 249.725C234.117 249.699 234.315 249.652 234.507 249.583C234.701 249.545 234.893 249.49 235.078 249.42C235.275 249.367 235.468 249.302 235.657 249.226C236.141 249.046 236.611 248.829 237.063 248.577C237.234 248.496 237.4 248.403 237.558 248.298C239.236 247.329 240.66 245.97 241.713 244.333C242.765 242.696 243.416 240.829 243.61 238.887C243.677 238.199 243.69 237.508 243.648 236.818C243.648 236.662 243.648 236.5 243.597 236.331C243.592 236.137 243.569 235.944 243.526 235.754C243.533 235.713 243.533 235.672 243.526 235.631C243.529 235.624 243.531 235.616 243.531 235.608C243.531 235.6 243.529 235.593 243.526 235.586C243.486 235.269 243.426 234.954 243.346 234.645C243.293 234.391 243.22 234.142 243.128 233.899C242.616 232.253 241.762 230.736 240.622 229.45C239.986 228.75 239.496 227.927 239.183 227.03C238.998 226.491 238.897 225.927 238.881 225.357L238.881 225.123C238.881 224.695 238.914 224.267 238.939 223.826C238.965 223.385 239.048 222.996 239.132 222.6C239.387 221.363 240.008 220.232 240.911 219.357C242.077 218.237 243.625 217.612 245.235 217.613L271.573 217.613C271.779 217.613 271.972 217.613 272.158 217.613C272.54 217.653 272.916 217.731 273.282 217.846C273.46 217.899 273.634 217.964 273.803 218.041C274.148 218.185 274.477 218.365 274.786 218.579C275.419 219.008 275.961 219.562 276.379 220.207L276.623 220.622C276.706 220.791 276.79 220.953 276.854 221.122C277.073 221.64 277.216 222.189 277.278 222.75L277.278 222.873C277.285 222.979 277.285 223.085 277.278 223.191C277.278 223.191 277.278 223.236 277.278 223.249C277.284 223.29 277.284 223.331 277.278 223.372L277.278 249.965C277.275 251.409 277.765 252.81 278.665 253.932C279.564 255.054 280.819 255.829 282.218 256.127C283.034 256.296 283.865 256.378 284.698 256.374L284.929 256.374C286.443 256.301 287.88 255.679 288.976 254.622C290.45 253.311 292.211 252.372 294.115 251.885C294.45 251.801 294.758 251.736 295.105 251.678C296.893 251.38 298.725 251.487 300.468 251.994C302.21 252.5 303.818 253.391 305.177 254.604C306.535 255.816 307.609 257.318 308.32 259.002C309.031 260.686 309.362 262.508 309.288 264.337C309.215 266.166 308.739 267.955 307.894 269.575C307.05 271.195 305.86 272.604 304.408 273.701C302.957 274.799 301.282 275.555 299.505 275.917C297.728 276.279 295.894 276.237 294.135 275.793C292.224 275.317 290.458 274.373 288.996 273.043C287.885 271.985 286.44 271.358 284.916 271.272L284.698 271.272C283.864 271.274 283.033 271.363 282.218 271.538C280.818 271.83 279.562 272.602 278.661 273.723C277.761 274.843 277.272 276.244 277.278 277.687L277.278 304.319C277.284 304.364 277.284 304.41 277.278 304.455L277.278 304.501C277.285 304.606 277.285 304.713 277.278 304.818L277.278 304.942C277.216 305.502 277.073 306.051 276.854 306.57C276.79 306.738 276.706 306.9 276.623 307.069L276.379 307.484C275.909 308.205 275.286 308.811 274.557 309.26C273.827 309.708 273.008 309.988 272.158 310.079C271.972 310.079 271.779 310.079 271.573 310.079L245.235 310.079C243.625 310.079 242.077 309.454 240.911 308.334C240.004 307.462 239.382 306.33 239.132 305.091C239.048 304.676 238.997 304.28 238.939 303.865C238.881 303.45 238.881 303.022 238.881 302.568L238.881 302.328C238.897 301.76 238.999 301.198 239.183 300.661C239.496 299.765 239.986 298.942 240.622 298.242C241.596 297.134 242.366 295.86 242.896 294.48C243.073 294.011 243.223 293.532 243.346 293.046C243.426 292.737 243.486 292.423 243.526 292.106C243.531 292.091 243.531 292.075 243.526 292.06C243.533 292.019 243.533 291.978 243.526 291.937C243.569 291.747 243.592 291.554 243.597 291.36C243.597 291.191 243.635 291.029 243.648 290.873C243.69 290.184 243.677 289.492 243.61 288.804C243.415 286.862 242.765 284.994 241.712 283.356C240.66 281.718 239.236 280.357 237.558 279.386C237.4 279.284 237.234 279.193 237.063 279.114C236.611 278.862 236.141 278.646 235.657 278.465C235.468 278.389 235.275 278.324 235.078 278.271C234.892 278.202 234.701 278.146 234.507 278.102C234.314 278.038 234.116 277.993 233.916 277.966C233.91 277.963 233.903 277.962 233.896 277.962C233.89 277.962 233.883 277.963 233.877 277.966C233.492 277.882 233.113 277.83 232.727 277.784C232.406 277.901 232.2 277.901 231.995 277.888Z" fill="#D1193D" stroke="#A41330" stroke-miterlimit="10"/>
<path d="M126.621 330.136C126.62 329.136 126.742 328.14 126.985 327.17C127.461 325.256 128.407 323.488 129.738 322.023C130.798 320.912 131.424 319.463 131.505 317.937L131.505 317.718C131.509 316.886 131.426 316.056 131.258 315.241C130.96 313.839 130.184 312.581 129.061 311.679C127.937 310.777 126.535 310.285 125.089 310.286L98.1783 310.286C96.985 310.231 95.8381 309.812 94.8943 309.086C93.9504 308.361 93.2558 307.364 92.9053 306.233C92.7359 305.746 92.646 305.235 92.639 304.721L92.639 304.682C92.6454 304.637 92.6454 304.592 92.639 304.547L92.639 278.134C92.6347 276.702 93.1301 275.312 94.0414 274.2C94.9526 273.089 96.2237 272.323 97.6393 272.034C98.4612 271.861 99.2991 271.772 100.139 271.77L100.36 271.77C101.902 271.851 103.364 272.474 104.484 273.527C105.966 274.841 107.749 275.778 109.679 276.255C110.659 276.491 111.664 276.61 112.673 276.609C114.384 276.622 116.08 276.282 117.652 275.611C119.225 274.939 120.638 273.951 121.804 272.709C122.97 271.467 123.862 269.998 124.424 268.396C124.986 266.793 125.205 265.093 125.067 263.402C124.93 261.711 124.439 260.067 123.625 258.575C122.812 257.082 121.694 255.774 120.342 254.733C118.991 253.692 117.436 252.941 115.775 252.527C114.115 252.114 112.386 252.047 110.698 252.332C110.361 252.384 110.049 252.454 109.698 252.538C107.771 253.015 105.989 253.947 104.503 255.253C103.391 256.299 101.937 256.916 100.406 256.991L100.172 256.991C99.3324 256.992 98.4949 256.91 97.6718 256.746C96.2568 256.451 94.9876 255.682 94.0771 254.569C93.1665 253.456 92.6702 252.066 92.6715 250.633L92.6715 224.253C92.6783 224.212 92.6783 224.171 92.6715 224.13C92.6715 224.13 92.6715 224.085 92.6715 224.072C92.6866 223.552 92.7763 223.036 92.9378 222.541C93.289 221.394 93.9968 220.387 94.96 219.663C95.9232 218.938 97.0927 218.534 98.3017 218.507C98.3534 218.501 98.4058 218.501 98.4575 218.507L125.089 218.507C126.534 218.508 127.936 218.017 129.059 217.117C130.182 216.216 130.959 214.959 131.258 213.559C131.426 212.741 131.508 211.909 131.505 211.075L131.505 210.85C131.424 209.323 130.798 207.875 129.738 206.764C128.406 205.3 127.46 203.531 126.985 201.617C126.503 199.71 126.491 197.717 126.952 195.805C127.412 193.893 128.331 192.12 129.63 190.635C130.929 189.15 132.571 187.997 134.415 187.274C136.26 186.552 138.253 186.28 140.226 186.483C141.894 186.67 143.506 187.19 144.966 188.011C146.427 188.831 147.704 189.936 148.723 191.258C149.741 192.58 150.479 194.093 150.893 195.705C151.306 197.317 151.387 198.995 151.129 200.638C151.071 200.967 151.006 201.282 150.921 201.623C150.439 203.532 149.499 205.298 148.181 206.77C147.117 207.876 146.49 209.324 146.415 210.85L146.415 211.081C146.413 211.916 146.498 212.748 146.668 213.565C146.966 214.966 147.742 216.223 148.866 217.124C149.989 218.025 151.392 218.516 152.837 218.513L179.462 218.513C179.544 218.507 179.626 218.507 179.709 218.513C181.171 218.577 182.555 219.186 183.583 220.218C184.611 221.25 185.208 222.629 185.254 224.079C185.248 224.139 185.248 224.199 185.254 224.259L185.254 250.64C185.257 252.072 184.762 253.461 183.853 254.575C182.943 255.688 181.675 256.457 180.261 256.752C179.435 256.916 178.596 256.998 177.754 256.997L177.52 256.997C175.989 256.921 174.535 256.305 173.423 255.26C171.938 253.951 170.155 253.02 168.227 252.544C167.896 252.461 167.578 252.39 167.234 252.338C165.426 252.043 163.574 252.15 161.813 252.652C160.052 253.154 158.426 254.038 157.053 255.241C155.68 256.444 154.594 257.934 153.875 259.604C153.156 261.274 152.822 263.082 152.896 264.897C152.971 266.711 153.452 268.486 154.305 270.093C155.159 271.7 156.362 273.098 157.829 274.186C159.296 275.275 160.989 276.026 162.786 276.385C164.582 276.744 166.437 276.701 168.214 276.261C170.145 275.787 171.929 274.85 173.41 273.533C174.53 272.481 175.992 271.858 177.533 271.777L177.754 271.777C178.596 271.779 179.436 271.867 180.261 272.04C181.676 272.33 182.946 273.096 183.856 274.207C184.766 275.319 185.26 276.709 185.254 278.14L185.254 304.56C185.248 304.617 185.248 304.676 185.254 304.733C185.246 305.248 185.159 305.758 184.995 306.245C184.65 307.378 183.959 308.376 183.016 309.102C182.074 309.829 180.927 310.247 179.735 310.299L152.844 310.299C151.397 310.297 149.994 310.788 148.871 311.69C147.747 312.593 146.971 313.851 146.674 315.254C146.504 316.069 146.419 316.899 146.421 317.731L146.421 317.962C146.499 319.481 147.123 320.921 148.181 322.023C149.499 323.495 150.439 325.261 150.921 327.17C151.006 327.498 151.071 327.813 151.129 328.161C151.411 329.83 151.34 331.538 150.92 333.178C150.501 334.818 149.743 336.354 148.694 337.689C147.644 339.023 146.327 340.128 144.825 340.932C143.323 341.736 141.668 342.223 139.967 342.361C138.265 342.499 136.553 342.285 134.938 341.734C133.324 341.183 131.843 340.305 130.589 339.157C129.334 338.01 128.334 336.616 127.651 335.066C126.968 333.515 126.618 331.841 126.621 330.149L126.621 330.136Z" fill="#F06522" stroke="#D05011" stroke-miterlimit="10"/>
<path d="M126.621 144.719C126.62 143.719 126.742 142.723 126.985 141.752C127.461 139.838 128.407 138.07 129.738 136.605C130.798 135.494 131.424 134.046 131.505 132.519L131.505 132.3C131.509 131.468 131.426 130.638 131.258 129.823C130.96 128.421 130.184 127.163 129.061 126.261C127.937 125.359 126.535 124.867 125.089 124.869L98.1783 124.869C96.985 124.813 95.8381 124.394 94.8943 123.669C93.9504 122.943 93.2558 121.946 92.9053 120.815C92.7359 120.328 92.646 119.818 92.639 119.303L92.639 119.264C92.6454 119.219 92.6454 119.174 92.639 119.129L92.639 92.7161C92.6347 91.284 93.1301 89.8944 94.0414 88.7828C94.9526 87.6711 96.2237 86.9058 97.6393 86.6164C98.4612 86.4429 99.2991 86.3545 100.139 86.3526L100.36 86.3526C101.902 86.4338 103.364 87.0566 104.484 88.1091C105.966 89.4236 107.749 90.3601 109.679 90.8373C110.659 91.0732 111.664 91.192 112.673 91.1912C114.384 91.2045 116.08 90.8646 117.652 90.1932C119.225 89.5218 120.638 88.5336 121.804 87.2915C122.97 86.0493 123.862 84.5804 124.424 82.9781C124.986 81.3758 125.205 79.6752 125.067 77.9845C124.93 76.2937 124.439 74.6498 123.625 73.1573C122.812 71.6648 121.694 70.3564 120.342 69.3152C118.991 68.274 117.436 67.5228 115.775 67.1095C114.115 66.6962 112.386 66.6297 110.698 66.9144C110.361 66.9659 110.049 67.0366 109.698 67.1203C107.771 67.5978 105.989 68.5293 104.503 69.8356C103.391 70.8817 101.937 71.4981 100.406 71.5729L100.172 71.5729C99.3324 71.5741 98.4949 71.4922 97.6718 71.3284C96.2568 71.033 94.9876 70.2642 94.0771 69.1511C93.1665 68.0381 92.6702 66.6485 92.6715 65.2157L92.6715 38.8349C92.6783 38.7944 92.6783 38.7531 92.6715 38.7127C92.6715 38.7127 92.6715 38.6676 92.6715 38.6547C92.6866 38.1343 92.7763 37.6187 92.9378 37.1233C93.289 35.9768 93.9968 34.9695 94.96 34.245C95.9232 33.5206 97.0927 33.116 98.3017 33.089C98.3534 33.0828 98.4058 33.0828 98.4575 33.089L125.089 33.089C126.534 33.0906 127.936 32.5997 129.059 31.6988C130.182 30.798 130.959 29.5418 131.258 28.141C131.426 27.3236 131.508 26.4914 131.505 25.6573L131.505 25.4321C131.424 23.9056 130.798 22.4571 129.738 21.3463C128.406 19.882 127.46 18.1136 126.985 16.1989C126.503 14.2925 126.491 12.299 126.952 10.3874C127.412 8.47571 128.331 6.70224 129.63 5.21723C130.929 3.73223 132.571 2.57948 134.415 1.85671C136.26 1.13395 138.253 0.862458 140.226 1.06526C141.894 1.25283 143.506 1.77251 144.966 2.59311C146.427 3.4137 147.704 4.5183 148.723 5.84048C149.741 7.16266 150.479 8.67514 150.893 10.2871C151.306 11.8991 151.387 13.5773 151.129 15.2208C151.071 15.549 151.006 15.8642 150.921 16.2053C150.439 18.1147 149.499 19.8805 148.181 21.3528C147.117 22.4581 146.49 23.9062 146.415 25.4321L146.415 25.6638C146.413 26.4981 146.498 27.3303 146.668 28.1474C146.966 29.5488 147.742 30.8056 148.866 31.7067C149.989 32.6078 151.392 33.0982 152.837 33.0954L179.462 33.0954C179.544 33.0892 179.626 33.0892 179.709 33.0954C181.171 33.1596 182.555 33.7687 183.583 34.8008C184.611 35.8328 185.208 37.2116 185.254 38.6612C185.248 38.7211 185.248 38.7815 185.254 38.8414L185.254 65.2222C185.257 66.6544 184.762 68.0438 183.853 69.157C182.943 70.2702 181.675 71.0392 180.261 71.3348C179.435 71.4986 178.596 71.5805 177.754 71.5793L177.52 71.5793C175.989 71.5034 174.535 70.8872 173.423 69.842C171.938 68.5337 170.155 67.6019 168.227 67.1267C167.896 67.0431 167.578 66.9723 167.234 66.9208C165.426 66.6251 163.574 66.7322 161.813 67.2343C160.052 67.7363 158.426 68.6208 157.053 69.8234C155.68 71.0259 154.594 72.5165 153.875 74.1866C153.156 75.8568 152.822 77.6647 152.896 79.479C152.971 81.2933 153.452 83.0683 154.305 84.6752C155.159 86.2821 156.362 87.6805 157.829 88.7688C159.296 89.8571 160.989 90.608 162.786 90.9669C164.582 91.3258 166.437 91.2838 168.214 90.8437C170.145 90.3695 171.929 89.4327 173.41 88.1156C174.53 87.063 175.992 86.4403 177.533 86.359L177.754 86.359C178.596 86.3609 179.436 86.4493 180.261 86.6228C181.676 86.9124 182.946 87.678 183.856 88.7898C184.766 89.9015 185.26 91.291 185.254 92.7226L185.254 119.142C185.248 119.2 185.248 119.258 185.254 119.316C185.246 119.83 185.159 120.34 184.995 120.828C184.65 121.96 183.959 122.959 183.016 123.685C182.074 124.411 180.927 124.829 179.735 124.882L152.844 124.882C151.397 124.879 149.994 125.37 148.871 126.273C147.747 127.175 146.971 128.433 146.674 129.836C146.504 130.651 146.419 131.481 146.421 132.313L146.421 132.545C146.499 134.063 147.123 135.504 148.181 136.605C149.499 138.077 150.439 139.843 150.921 141.752C151.006 142.081 151.071 142.396 151.129 142.743C151.411 144.412 151.34 146.12 150.92 147.76C150.501 149.4 149.743 150.936 148.694 152.271C147.644 153.606 146.327 154.71 144.825 155.514C143.323 156.318 141.668 156.805 139.967 156.943C138.265 157.081 136.553 156.868 134.938 156.316C133.324 155.765 131.843 154.888 130.589 153.74C129.334 152.592 128.334 151.199 127.651 149.648C126.968 148.097 126.618 146.423 126.621 144.731L126.621 144.719Z" fill="#4254A6" stroke="#344383" stroke-miterlimit="10"/>
<path d="M231.995 92.4713C231.567 92.4449 231.138 92.4449 230.71 92.4713C230.504 92.4713 230.299 92.4713 230.068 92.5103C229.682 92.5557 229.303 92.6075 228.918 92.6918C228.912 92.6947 228.905 92.6962 228.898 92.6962C228.892 92.6962 228.885 92.6947 228.879 92.6918C228.678 92.7186 228.481 92.7642 228.288 92.8281C227.944 92.9099 227.605 93.0117 227.273 93.1329C226.741 93.3202 226.225 93.5524 225.731 93.8269C225.561 93.9062 225.395 93.9973 225.237 94.0994C223.559 95.0703 222.135 96.4312 221.083 98.0691C220.03 99.707 219.38 101.575 219.185 103.517C219.147 103.926 219.115 104.341 219.115 104.769C219.115 105.048 219.115 105.327 219.115 105.586C219.115 105.742 219.115 105.904 219.166 106.073C219.18 106.323 219.212 106.573 219.262 106.819C219.302 107.136 219.363 107.45 219.442 107.759C219.562 108.246 219.712 108.725 219.892 109.193C220.419 110.571 221.19 111.841 222.166 112.942C222.569 113.382 222.918 113.87 223.207 114.394C223.391 114.72 223.544 115.063 223.663 115.419C223.848 115.956 223.948 116.518 223.958 117.086L223.958 117.326C223.962 118.165 223.88 119.002 223.714 119.823C223.461 121.062 222.84 122.193 221.935 123.066C220.772 124.184 219.229 124.809 217.624 124.811L191.247 124.811C191.054 124.811 190.862 124.811 190.675 124.811C190.294 124.771 189.917 124.693 189.551 124.578C188.847 124.358 188.192 124.001 187.624 123.527L187.226 123.157C187.092 123.03 186.969 122.891 186.859 122.742C186.146 121.872 185.699 120.81 185.575 119.687L185.575 119.564C185.568 119.458 185.568 119.352 185.575 119.246C185.568 119.186 185.568 119.125 185.575 119.064L185.575 92.374C185.58 90.931 185.092 89.5303 184.191 88.4095C183.291 87.2888 182.034 86.5171 180.634 86.2252C179.819 86.0507 178.988 85.9615 178.155 85.9592L177.936 85.9592C176.412 86.0451 174.967 86.6723 173.857 87.73C172.394 89.0599 170.629 90.0045 168.718 90.4801C167.751 90.7201 166.759 90.842 165.763 90.8433C164.058 90.8775 162.364 90.5506 160.792 89.8835C159.22 89.2165 157.803 88.2242 156.634 86.9706C155.465 85.7169 154.569 84.2298 154.004 82.6051C153.439 80.9804 153.217 79.2543 153.353 77.5378C153.49 75.8214 153.981 74.1528 154.795 72.6397C155.609 71.1266 156.728 69.8025 158.08 68.7528C159.432 67.7032 160.987 66.9512 162.644 66.5455C164.302 66.1397 166.025 66.0892 167.703 66.3971C168.03 66.4555 168.345 66.5204 168.686 66.6047C170.591 67.0889 172.353 68.0276 173.825 69.3418C174.924 70.3978 176.363 71.0194 177.879 71.0931L178.11 71.0931C178.943 71.0972 179.774 71.0146 180.589 70.8466C181.989 70.5486 183.243 69.7734 184.143 68.6513C185.043 67.5291 185.532 66.1285 185.53 64.6848L185.53 38.0917C185.523 38.0313 185.523 37.9704 185.53 37.9101C185.523 37.8042 185.523 37.6981 185.53 37.5923L185.53 37.469C185.654 36.3462 186.101 35.2844 186.814 34.414C186.939 34.2516 187.079 34.1018 187.232 33.9665C187.36 33.8433 187.495 33.707 187.63 33.5968C187.63 33.5968 187.63 33.5968 187.675 33.5579C188.092 33.2134 188.558 32.9336 189.056 32.7277C189.222 32.643 189.397 32.5777 189.577 32.533C189.943 32.418 190.32 32.3398 190.701 32.2996C190.887 32.2996 191.08 32.2996 191.273 32.2996L217.637 32.2996C219.067 32.2964 220.453 32.7917 221.563 33.7017C222.673 34.6117 223.437 35.8806 223.727 37.2939C223.894 38.1155 223.976 38.9524 223.971 39.791L223.971 40.0246C223.961 40.5947 223.862 41.1595 223.676 41.6979C223.363 42.5983 222.874 43.4256 222.237 44.1302C221.097 45.4111 220.243 46.924 219.731 48.5668C219.639 48.8091 219.566 49.0585 219.513 49.3126C219.443 49.5989 219.389 49.8892 219.352 50.1818C219.302 50.4276 219.269 50.677 219.256 50.9277C219.256 51.0964 219.217 51.2585 219.205 51.4142C219.205 51.6736 219.205 51.9525 219.205 52.2314C219.205 52.6595 219.205 53.0746 219.275 53.4833C219.469 55.4251 220.119 57.2921 221.172 58.929C222.224 60.5659 223.649 61.9255 225.327 62.8946C225.485 62.9987 225.65 63.0919 225.821 63.1735C226.315 63.4481 226.831 63.6802 227.363 63.8675C227.694 63.9895 228.034 64.0892 228.378 64.1659C228.569 64.2348 228.768 64.2827 228.969 64.3086C228.975 64.3057 228.982 64.3042 228.988 64.3042C228.995 64.3042 229.002 64.3057 229.008 64.3086C229.393 64.3929 229.772 64.4448 230.158 64.4902C230.363 64.4902 230.569 64.5291 230.8 64.5291C231.228 64.5556 231.657 64.5556 232.085 64.5291C232.29 64.5291 232.496 64.5291 232.727 64.4902C233.113 64.4448 233.492 64.3929 233.877 64.3086C233.883 64.3115 233.89 64.313 233.896 64.313C233.903 64.313 233.91 64.3115 233.916 64.3086C234.117 64.2827 234.315 64.2348 234.507 64.1659C234.701 64.1278 234.893 64.0736 235.078 64.0037C235.275 63.9506 235.468 63.8856 235.657 63.8092C236.141 63.6289 236.611 63.4121 237.063 63.1605C237.234 63.079 237.4 62.9858 237.558 62.8816C239.236 61.9126 240.66 60.553 241.713 58.9161C242.765 57.2791 243.416 55.4121 243.61 53.4703C243.677 52.7827 243.69 52.0908 243.648 51.4012C243.648 51.2455 243.648 51.0834 243.597 50.9147C243.592 50.7204 243.569 50.527 243.526 50.3375C243.533 50.2967 243.533 50.255 243.526 50.2142C243.529 50.2072 243.531 50.1994 243.531 50.1915C243.531 50.1837 243.529 50.1759 243.526 50.1688C243.486 49.8518 243.426 49.5377 243.346 49.2284C243.293 48.9742 243.22 48.7248 243.128 48.4824C242.616 46.8361 241.762 45.3191 240.622 44.033C239.986 43.333 239.496 42.51 239.183 41.6136C238.998 41.0747 238.897 40.5104 238.881 39.9402L238.881 39.7067C238.881 39.2786 238.914 38.8505 238.939 38.4095C238.965 37.9684 239.048 37.5793 239.132 37.1836C239.387 35.946 240.008 34.8153 240.911 33.9406C242.077 32.8203 243.625 32.1955 245.235 32.1958L271.573 32.1958C271.779 32.1958 271.972 32.1958 272.158 32.1958C272.54 32.236 272.916 32.3142 273.282 32.4293C273.46 32.4824 273.634 32.5474 273.803 32.6239C274.148 32.768 274.477 32.9485 274.786 33.1622C275.419 33.5914 275.961 34.1451 276.379 34.7902L276.623 35.2053C276.706 35.374 276.79 35.5361 276.854 35.7048C277.073 36.2237 277.216 36.7722 277.278 37.3328L277.278 37.456C277.285 37.5619 277.285 37.668 277.278 37.7738C277.278 37.7738 277.278 37.8193 277.278 37.8322C277.284 37.8731 277.284 37.9146 277.278 37.9555L277.278 64.5486C277.275 65.9923 277.765 67.3929 278.665 68.515C279.564 69.6372 280.819 70.4124 282.218 70.7104C283.034 70.879 283.865 70.9616 284.698 70.9569L284.929 70.9569C286.443 70.8846 287.88 70.2627 288.976 69.2056C290.45 67.8939 292.211 66.9555 294.115 66.4685C294.45 66.3841 294.758 66.3193 295.105 66.2609C296.893 65.9628 298.725 66.0707 300.468 66.5768C302.21 67.0829 303.818 67.9745 305.177 69.1868C306.535 70.399 307.609 71.9016 308.32 73.5852C309.031 75.2688 309.362 77.0913 309.288 78.9201C309.215 80.749 308.739 82.5383 307.894 84.1581C307.05 85.778 305.86 87.1876 304.408 88.2847C302.957 89.3818 301.282 90.1387 299.505 90.5005C297.728 90.8623 295.894 90.8199 294.135 90.3763C292.224 89.9007 290.458 88.9561 288.996 87.6262C287.885 86.5685 286.44 85.9413 284.916 85.8555L284.698 85.8555C283.864 85.8571 283.033 85.9462 282.218 86.1214C280.818 86.4133 279.562 87.1851 278.661 88.3058C277.761 89.4265 277.272 90.8272 277.278 92.2703L277.278 118.902C277.284 118.947 277.284 118.993 277.278 119.038L277.278 119.084C277.285 119.19 277.285 119.296 277.278 119.402L277.278 119.525C277.216 120.086 277.073 120.634 276.854 121.153C276.79 121.322 276.706 121.484 276.623 121.652L276.379 122.067C275.909 122.788 275.286 123.394 274.557 123.843C273.827 124.292 273.008 124.571 272.158 124.662C271.972 124.662 271.779 124.662 271.573 124.662L245.235 124.662C243.625 124.662 242.077 124.038 240.911 122.917C240.004 122.045 239.382 120.914 239.132 119.674C239.048 119.259 238.997 118.863 238.939 118.448C238.881 118.033 238.881 117.605 238.881 117.151L238.881 116.911C238.897 116.343 238.999 115.781 239.183 115.244C239.496 114.348 239.986 113.525 240.622 112.825C241.596 111.718 242.366 110.444 242.896 109.063C243.073 108.594 243.223 108.115 243.346 107.629C243.426 107.32 243.486 107.006 243.526 106.689C243.531 106.674 243.531 106.658 243.526 106.643C243.533 106.603 243.533 106.561 243.526 106.52C243.569 106.331 243.592 106.137 243.597 105.943C243.597 105.774 243.635 105.612 243.648 105.457C243.69 104.767 243.677 104.075 243.61 103.387C243.415 101.445 242.765 99.5773 241.712 97.9394C240.66 96.3015 239.236 94.9406 237.558 93.9696C237.4 93.8676 237.234 93.7766 237.063 93.6972C236.611 93.4457 236.141 93.2288 235.657 93.0486C235.468 92.9721 235.275 92.9071 235.078 92.854C234.892 92.7851 234.701 92.7288 234.507 92.6854C234.314 92.6216 234.116 92.576 233.916 92.5492C233.91 92.5463 233.903 92.5448 233.896 92.5448C233.89 92.5448 233.883 92.5463 233.877 92.5492C233.492 92.4648 233.113 92.4129 232.727 92.3675C232.406 92.4843 232.2 92.4843 231.995 92.4713Z" fill="#912891" stroke="#601A60" stroke-miterlimit="10"/>
<path d="M219.11 237.444C219.108 236.438 219.229 235.435 219.469 234.459C219.941 232.533 220.876 230.753 222.194 229.279C223.243 228.162 223.862 226.704 223.942 225.168L223.942 224.948C223.945 224.111 223.864 223.275 223.697 222.455C223.402 221.044 222.635 219.779 221.523 218.871C220.412 217.963 219.024 217.468 217.593 217.47L190.966 217.47C189.785 217.414 188.65 216.992 187.716 216.262C186.783 215.532 186.095 214.529 185.748 213.391C185.581 212.901 185.492 212.387 185.485 211.869L185.485 211.83C185.491 211.785 185.491 211.739 185.485 211.694L185.485 185.116C185.481 183.675 185.971 182.277 186.873 181.158C187.774 180.04 189.032 179.27 190.433 178.978C191.246 178.804 192.075 178.715 192.906 178.713L193.125 178.713C194.65 178.795 196.097 179.421 197.205 180.48C198.671 181.803 200.436 182.745 202.346 183.226C203.315 183.463 204.31 183.583 205.308 183.582C207.001 183.595 208.68 183.253 210.235 182.577C211.791 181.902 213.19 180.908 214.343 179.658C215.497 178.408 216.379 176.93 216.935 175.317C217.491 173.705 217.708 171.994 217.572 170.292C217.436 168.591 216.95 166.937 216.145 165.435C215.34 163.933 214.234 162.617 212.897 161.569C211.56 160.521 210.021 159.765 208.378 159.35C206.735 158.934 205.024 158.867 203.354 159.153C203.02 159.205 202.712 159.276 202.365 159.36C200.458 159.841 198.695 160.778 197.224 162.093C196.124 163.145 194.685 163.766 193.17 163.841L192.939 163.841C192.108 163.842 191.279 163.76 190.465 163.595C189.065 163.298 187.809 162.524 186.908 161.404C186.007 160.284 185.516 158.886 185.517 157.444L185.517 130.898C185.524 130.857 185.524 130.816 185.517 130.775C185.517 130.775 185.517 130.73 185.517 130.717C185.532 130.193 185.621 129.674 185.781 129.176C186.128 128.022 186.828 127.009 187.782 126.28C188.735 125.551 189.892 125.144 191.088 125.116C191.139 125.11 191.191 125.11 191.242 125.116L217.593 125.116C219.023 125.118 220.41 124.624 221.521 123.718C222.633 122.811 223.401 121.547 223.697 120.137C223.863 119.315 223.945 118.478 223.942 117.638L223.942 117.412C223.862 115.876 223.243 114.418 222.194 113.3C220.875 111.827 219.939 110.047 219.469 108.121C218.992 106.202 218.981 104.197 219.436 102.273C219.892 100.349 220.801 98.5647 222.087 97.0704C223.372 95.5761 224.996 94.4162 226.822 93.6889C228.647 92.9616 230.619 92.6884 232.571 92.8925C234.221 93.0813 235.817 93.6042 237.262 94.4299C238.706 95.2556 239.971 96.3671 240.978 97.6976C241.986 99.028 242.716 100.55 243.125 102.172C243.535 103.794 243.614 105.483 243.359 107.137C243.302 107.467 243.237 107.784 243.154 108.127C242.677 110.048 241.747 111.825 240.442 113.307C239.389 114.419 238.769 115.876 238.695 117.412L238.695 117.645C238.693 118.484 238.777 119.322 238.945 120.144C239.24 121.554 240.008 122.819 241.12 123.726C242.232 124.632 243.619 125.126 245.049 125.123L271.394 125.123C271.475 125.117 271.557 125.117 271.638 125.123C273.085 125.187 274.454 125.8 275.472 126.839C276.489 127.877 277.08 129.265 277.125 130.723C277.119 130.784 277.119 130.844 277.125 130.905L277.125 157.45C277.128 158.892 276.638 160.29 275.739 161.41C274.839 162.53 273.584 163.304 272.184 163.601C271.368 163.766 270.537 163.848 269.704 163.847L269.473 163.847C267.957 163.771 266.519 163.151 265.418 162.099C263.949 160.783 262.185 159.845 260.278 159.367C259.95 159.283 259.635 159.211 259.295 159.16C257.506 158.862 255.673 158.97 253.931 159.475C252.188 159.98 250.579 160.87 249.221 162.08C247.862 163.29 246.788 164.79 246.077 166.471C245.365 168.152 245.034 169.971 245.108 171.796C245.182 173.622 245.658 175.408 246.502 177.025C247.346 178.642 248.538 180.049 249.989 181.144C251.44 182.239 253.116 182.995 254.893 183.356C256.671 183.717 258.506 183.675 260.265 183.232C262.176 182.755 263.941 181.812 265.405 180.487C266.514 179.428 267.96 178.801 269.486 178.719L269.704 178.719C270.538 178.721 271.369 178.81 272.184 178.985C273.584 179.276 274.841 180.047 275.742 181.165C276.642 182.284 277.131 183.682 277.125 185.123L277.125 211.707C277.119 211.765 277.119 211.824 277.125 211.882C277.117 212.399 277.031 212.913 276.868 213.404C276.527 214.543 275.843 215.548 274.911 216.278C273.978 217.009 272.844 217.43 271.664 217.483L245.056 217.483C243.625 217.48 242.236 217.974 241.125 218.882C240.013 219.79 239.245 221.057 238.952 222.468C238.783 223.288 238.699 224.123 238.701 224.961L238.701 225.194C238.778 226.722 239.396 228.171 240.442 229.279C241.747 230.761 242.677 232.538 243.154 234.459C243.237 234.789 243.302 235.106 243.359 235.456C243.638 237.135 243.568 238.854 243.153 240.504C242.738 242.155 241.988 243.7 240.95 245.043C239.911 246.386 238.608 247.498 237.121 248.307C235.635 249.116 233.998 249.606 232.314 249.745C230.63 249.883 228.936 249.669 227.339 249.114C225.742 248.559 224.276 247.676 223.035 246.521C221.794 245.366 220.804 243.964 220.129 242.404C219.453 240.844 219.106 239.159 219.11 237.457L219.11 237.444Z" fill="#FFC00E" stroke="#C99403" stroke-miterlimit="10"/>
<path d="M139.641 185.273C139.21 185.247 138.778 185.247 138.348 185.273C138.141 185.273 137.934 185.273 137.701 185.312C137.313 185.358 136.932 185.409 136.544 185.494C136.538 185.497 136.532 185.498 136.525 185.498C136.518 185.498 136.512 185.497 136.505 185.494C136.303 185.521 136.104 185.566 135.911 185.63C135.565 185.712 135.224 185.814 134.889 185.935C134.354 186.122 133.835 186.354 133.338 186.629C133.166 186.708 133 186.799 132.84 186.901C131.152 187.872 129.719 189.233 128.66 190.871C127.601 192.509 126.947 194.377 126.751 196.319C126.712 196.728 126.68 197.143 126.68 197.571C126.68 197.85 126.68 198.129 126.68 198.388C126.68 198.544 126.68 198.706 126.732 198.875C126.745 199.125 126.778 199.375 126.829 199.621C126.869 199.938 126.929 200.252 127.01 200.561C127.13 201.048 127.281 201.527 127.462 201.994C127.993 203.373 128.768 204.643 129.75 205.743C130.156 206.184 130.507 206.672 130.798 207.196C130.983 207.522 131.137 207.865 131.257 208.221C131.443 208.757 131.543 209.32 131.554 209.888L131.554 210.128C131.558 210.967 131.475 211.803 131.308 212.625C131.053 213.864 130.429 214.995 129.518 215.868C128.348 216.986 126.795 217.611 125.18 217.613L98.6381 217.613C98.4442 217.613 98.2502 217.613 98.0628 217.613C97.6789 217.573 97.3 217.495 96.9315 217.379C96.2229 217.16 95.564 216.803 94.9923 216.329L94.5915 215.959C94.4569 215.832 94.3336 215.693 94.223 215.544C93.505 214.674 93.0556 213.612 92.9302 212.489L92.9302 212.366C92.9232 212.26 92.9232 212.154 92.9302 212.048C92.924 211.988 92.924 211.927 92.9302 211.866L92.9302 185.176C92.936 183.733 92.4443 182.332 91.5382 181.211C90.6322 180.091 89.3677 179.319 87.9592 179.027C87.1388 178.853 86.3027 178.763 85.464 178.761L85.2443 178.761C83.7107 178.847 82.2567 179.474 81.1395 180.532C79.6676 181.862 77.8912 182.806 75.9681 183.282C74.995 183.522 73.9967 183.644 72.9946 183.645C71.2788 183.679 69.5749 183.352 67.9927 182.685C66.4106 182.018 64.9853 181.026 63.8088 179.772C62.6323 178.519 61.7308 177.032 61.1622 175.407C60.5936 173.782 60.3707 172.056 60.5077 170.34C60.6448 168.623 61.1388 166.955 61.958 165.442C62.7771 163.928 63.9033 162.604 65.2637 161.555C66.6241 160.505 68.1886 159.753 69.8564 159.347C71.5243 158.942 73.2583 158.891 74.9467 159.199C75.2764 159.257 75.5932 159.322 75.9358 159.407C77.8529 159.891 79.6263 160.829 81.1072 162.144C82.2133 163.2 83.661 163.821 85.1861 163.895L85.4188 163.895C86.2567 163.899 87.0929 163.816 87.9139 163.648C89.3218 163.35 90.5845 162.575 91.4898 161.453C92.3951 160.331 92.8877 158.93 92.8849 157.487L92.8849 130.894C92.8787 130.833 92.8787 130.772 92.8849 130.712C92.8779 130.606 92.8779 130.5 92.8849 130.394L92.8849 130.271C93.0104 129.148 93.4597 128.086 94.1778 127.216C94.3031 127.054 94.4439 126.904 94.598 126.768C94.7272 126.645 94.863 126.509 94.9987 126.399C94.9987 126.399 94.9987 126.399 95.044 126.36C95.4636 126.015 95.932 125.735 96.4338 125.53C96.6004 125.445 96.7761 125.38 96.9574 125.335C97.3259 125.22 97.7048 125.142 98.0886 125.101C98.2761 125.101 98.47 125.101 98.6639 125.101L125.193 125.101C126.632 125.098 128.027 125.594 129.144 126.504C130.26 127.414 131.029 128.682 131.321 130.096C131.489 130.917 131.571 131.754 131.567 132.593L131.567 132.826C131.557 133.397 131.456 133.961 131.269 134.5C130.955 135.4 130.462 136.227 129.821 136.932C128.675 138.213 127.815 139.726 127.3 141.369C127.207 141.611 127.134 141.86 127.081 142.115C127.01 142.401 126.956 142.691 126.919 142.984C126.868 143.23 126.836 143.479 126.822 143.73C126.822 143.898 126.783 144.06 126.77 144.216C126.77 144.476 126.77 144.754 126.77 145.033C126.77 145.461 126.77 145.877 126.841 146.285C127.037 148.227 127.691 150.094 128.75 151.731C129.809 153.368 131.242 154.727 132.931 155.696C133.09 155.801 133.256 155.894 133.428 155.975C133.925 156.25 134.444 156.482 134.98 156.669C135.313 156.791 135.655 156.891 136.001 156.968C136.194 157.037 136.393 157.085 136.596 157.11C136.602 157.108 136.609 157.106 136.615 157.106C136.622 157.106 136.629 157.108 136.635 157.11C137.023 157.195 137.404 157.247 137.792 157.292C137.999 157.292 138.206 157.331 138.438 157.331C138.869 157.357 139.301 157.357 139.731 157.331C139.938 157.331 140.145 157.331 140.378 157.292C140.765 157.247 141.147 157.195 141.535 157.11C141.541 157.113 141.547 157.115 141.554 157.115C141.561 157.115 141.567 157.113 141.573 157.11C141.776 157.085 141.976 157.037 142.168 156.968C142.364 156.93 142.556 156.875 142.743 156.806C142.941 156.752 143.135 156.688 143.325 156.611C143.813 156.431 144.286 156.214 144.741 155.962C144.913 155.881 145.079 155.788 145.239 155.684C146.927 154.714 148.36 153.355 149.419 151.718C150.479 150.081 151.133 148.214 151.328 146.272C151.396 145.585 151.409 144.893 151.367 144.203C151.367 144.047 151.367 143.885 151.315 143.717C151.31 143.522 151.287 143.329 151.244 143.139C151.251 143.099 151.251 143.057 151.244 143.016C151.247 143.009 151.249 143.001 151.249 142.993C151.249 142.986 151.247 142.978 151.244 142.971C151.203 142.654 151.143 142.34 151.063 142.03C151.01 141.776 150.936 141.527 150.843 141.284C150.328 139.638 149.469 138.121 148.322 136.835C147.681 136.135 147.189 135.312 146.874 134.416C146.688 133.877 146.586 133.312 146.57 132.742L146.57 132.509C146.57 132.08 146.603 131.652 146.628 131.211C146.654 130.77 146.738 130.381 146.822 129.986C147.079 128.748 147.703 127.617 148.613 126.742C149.786 125.622 151.344 124.997 152.963 124.998L179.467 124.998C179.673 124.998 179.867 124.998 180.055 124.998C180.439 125.038 180.818 125.116 181.186 125.231C181.365 125.284 181.54 125.349 181.71 125.426C182.057 125.57 182.389 125.75 182.699 125.964C183.337 126.393 183.882 126.947 184.302 127.592L184.547 128.007C184.631 128.176 184.716 128.338 184.78 128.507C185.001 129.026 185.144 129.574 185.207 130.135L185.207 130.258C185.214 130.364 185.214 130.47 185.207 130.576C185.207 130.576 185.207 130.621 185.207 130.634C185.213 130.675 185.213 130.717 185.207 130.757L185.207 157.35C185.204 158.794 185.697 160.195 186.602 161.317C187.507 162.439 188.77 163.214 190.178 163.512C190.999 163.681 191.835 163.764 192.673 163.759L192.906 163.759C194.429 163.686 195.875 163.065 196.978 162.007C198.461 160.696 200.233 159.757 202.15 159.27C202.486 159.186 202.796 159.121 203.145 159.063C204.945 158.765 206.788 158.873 208.541 159.379C210.294 159.885 211.913 160.776 213.28 161.989C214.646 163.201 215.727 164.703 216.443 166.387C217.158 168.071 217.491 169.893 217.417 171.722C217.343 173.551 216.864 175.34 216.015 176.96C215.165 178.58 213.967 179.99 212.507 181.087C211.047 182.184 209.361 182.941 207.573 183.302C205.785 183.664 203.939 183.622 202.169 183.178C200.246 182.703 198.469 181.758 196.998 180.428C195.88 179.37 194.426 178.743 192.893 178.657L192.673 178.657C191.834 178.659 190.998 178.748 190.178 178.923C188.769 179.215 187.505 179.987 186.599 181.108C185.693 182.228 185.201 183.629 185.207 185.072L185.207 211.704C185.213 211.749 185.213 211.795 185.207 211.84L185.207 211.886C185.214 211.992 185.214 212.098 185.207 212.204L185.207 212.327C185.144 212.887 185.001 213.436 184.78 213.955C184.716 214.124 184.631 214.286 184.547 214.454L184.302 214.869C183.829 215.59 183.203 216.196 182.468 216.645C181.734 217.093 180.91 217.373 180.055 217.464C179.867 217.464 179.673 217.464 179.467 217.464L152.963 217.464C151.344 217.464 149.786 216.839 148.613 215.719C147.699 214.847 147.074 213.715 146.822 212.476C146.738 212.061 146.687 211.665 146.628 211.25C146.57 210.835 146.57 210.407 146.57 209.953L146.57 209.713C146.586 209.145 146.689 208.583 146.874 208.046C147.189 207.15 147.681 206.327 148.322 205.627C149.302 204.52 150.077 203.245 150.61 201.865C150.788 201.396 150.939 200.917 151.063 200.431C151.143 200.122 151.203 199.808 151.244 199.491C151.249 199.476 151.249 199.46 151.244 199.445C151.251 199.405 151.251 199.363 151.244 199.322C151.287 199.133 151.31 198.939 151.315 198.745C151.315 198.576 151.354 198.414 151.367 198.258C151.409 197.569 151.396 196.877 151.328 196.189C151.132 194.247 150.478 192.379 149.419 190.741C148.36 189.103 146.927 187.742 145.239 186.772C145.079 186.669 144.913 186.578 144.741 186.499C144.286 186.248 143.813 186.031 143.325 185.85C143.135 185.774 142.941 185.709 142.743 185.656C142.556 185.587 142.363 185.531 142.168 185.487C141.975 185.423 141.775 185.378 141.573 185.351C141.567 185.348 141.561 185.347 141.554 185.347C141.547 185.347 141.541 185.348 141.535 185.351C141.147 185.267 140.765 185.215 140.378 185.169C140.054 185.286 139.847 185.286 139.641 185.273Z" fill="#C9DA2A" stroke="#9EAC20" stroke-miterlimit="10"/>
<path d="M34.6248 237.444C34.6231 236.438 34.744 235.435 34.9846 234.459C35.4557 232.533 36.3915 230.753 37.709 229.279C38.7578 228.161 39.3773 226.704 39.4567 225.168L39.4567 224.948C39.4605 224.111 39.3787 223.275 39.2126 222.455C38.9175 221.044 38.1498 219.779 37.0383 218.871C35.9268 217.963 34.5391 217.468 33.1083 217.47L6.48107 217.47C5.30036 217.414 4.1655 216.992 3.23162 216.262C2.29773 215.532 1.6104 214.529 1.26357 213.391C1.09598 212.901 1.00706 212.387 1.00015 211.869L1.00015 211.83C1.00647 211.785 1.00647 211.739 1.00015 211.694L1.00015 185.116C0.995839 183.675 1.48604 182.277 2.38772 181.158C3.2894 180.04 4.54712 179.27 5.94779 178.978C6.76105 178.804 7.59009 178.715 8.42159 178.713L8.64007 178.713C10.1654 178.795 11.6119 179.421 12.7202 180.48C14.1866 181.803 15.9511 182.745 17.8606 183.226C18.8304 183.463 19.8248 183.583 20.8228 183.582C22.5166 183.595 24.1947 183.253 25.7503 182.577C27.3058 181.902 28.7049 180.908 29.8584 179.658C31.0119 178.408 31.8946 176.93 32.4505 175.317C33.0064 173.705 33.2232 171.994 33.0871 170.292C32.9511 168.591 32.4652 166.937 31.6603 165.435C30.8554 163.933 29.7492 162.617 28.412 161.569C27.0747 160.521 25.5357 159.765 23.8929 159.35C22.2501 158.934 20.5393 158.867 18.8695 159.153C18.5353 159.205 18.2269 159.276 17.8799 159.36C15.9732 159.841 14.2098 160.778 12.7395 162.093C11.6391 163.145 10.2006 163.766 8.68505 163.841L8.45371 163.841C7.62303 163.842 6.79432 163.76 5.97991 163.595C4.57986 163.297 3.32394 162.524 2.42302 161.404C1.5221 160.284 1.03102 158.886 1.03227 157.444L1.03227 130.898C1.03898 130.857 1.03898 130.816 1.03227 130.775C1.03227 130.775 1.03227 130.73 1.03227 130.717C1.0472 130.193 1.13592 129.674 1.29574 129.176C1.6433 128.022 2.34356 127.009 3.29664 126.28C4.24972 125.551 5.4069 125.144 6.60316 125.116C6.65438 125.11 6.70619 125.11 6.75741 125.116L33.1083 125.116C34.5382 125.118 35.9252 124.624 37.0366 123.718C38.148 122.811 38.9163 121.547 39.2126 120.137C39.3783 119.315 39.4602 118.478 39.4567 117.638L39.4567 117.412C39.3773 115.876 38.7578 114.418 37.709 113.3C36.3905 111.827 35.4545 110.047 34.9846 108.121C34.5072 106.202 34.4958 104.196 34.9514 102.273C35.407 100.349 36.3162 98.5647 37.6018 97.0704C38.8874 95.5761 40.5116 94.4162 42.3367 93.6889C44.1618 92.9616 46.134 92.6884 48.0862 92.8925C49.7365 93.0812 51.332 93.6042 52.7767 94.4299C54.2215 95.2556 55.4856 96.3671 56.4933 97.6975C57.501 99.028 58.2314 100.55 58.6406 102.172C59.0498 103.794 59.1294 105.483 58.8746 107.137C58.8168 107.467 58.7525 107.784 58.669 108.127C58.1921 110.048 57.2619 111.825 55.9574 113.307C54.9042 114.419 54.2838 115.876 54.2097 117.412L54.2097 117.645C54.2084 118.484 54.2923 119.322 54.4603 120.144C54.7555 121.554 55.5234 122.819 56.6351 123.725C57.7467 124.632 59.1343 125.126 60.5645 125.123L86.909 125.123C86.9903 125.117 87.0719 125.117 87.1532 125.123C88.6001 125.187 89.9693 125.8 90.9868 126.839C92.0043 127.877 92.595 129.265 92.6406 130.723C92.6342 130.784 92.6342 130.844 92.6406 130.905L92.6406 157.45C92.6433 158.892 92.1536 160.29 91.2538 161.41C90.3539 162.53 89.0988 163.304 87.6994 163.601C86.8828 163.766 86.0519 163.848 85.2191 163.847L84.9878 163.847C83.4725 163.771 82.0344 163.151 80.9333 162.099C79.4646 160.783 77.7006 159.845 75.7929 159.367C75.4652 159.283 75.1504 159.211 74.8098 159.16C73.0208 158.862 71.1884 158.97 69.4459 159.475C67.7033 159.98 66.0943 160.87 64.7358 162.08C63.3772 163.29 62.3032 164.79 61.5919 166.471C60.8805 168.152 60.5496 169.971 60.6232 171.796C60.6968 173.622 61.173 175.408 62.0173 177.025C62.8615 178.642 64.0527 180.049 65.5041 181.144C66.9556 182.239 68.6309 182.995 70.4084 183.356C72.1859 183.717 74.0209 183.675 75.7801 183.232C77.6907 182.755 79.4559 181.812 80.9205 180.487C82.0288 179.428 83.4753 178.801 85.0007 178.719L85.2191 178.719C86.0528 178.721 86.8839 178.81 87.6994 178.985C89.0994 179.276 90.3563 180.047 91.2569 181.165C92.1575 182.284 92.6464 183.682 92.6406 185.123L92.6406 211.707C92.6342 211.765 92.6342 211.824 92.6406 211.882C92.6326 212.399 92.5459 212.913 92.3836 213.404C92.0425 214.543 91.3584 215.548 90.426 216.278C89.4936 217.009 88.359 217.43 87.1789 217.483L60.5709 217.483C59.1398 217.48 57.7516 217.974 56.6398 218.882C55.528 219.79 54.7606 221.057 54.4667 222.468C54.2984 223.288 54.2145 224.123 54.2161 224.961L54.2161 225.194C54.2931 226.722 54.9108 228.171 55.9574 229.279C57.2619 230.761 58.1921 232.538 58.669 234.459C58.7525 234.789 58.8168 235.106 58.8746 235.456C59.1531 237.135 59.0827 238.854 58.6679 240.504C58.2531 242.155 57.5029 243.7 56.4647 245.043C55.4265 246.386 54.1229 247.498 52.6366 248.307C51.1502 249.116 49.5133 249.606 47.8294 249.745C46.1456 249.883 44.4515 249.669 42.8542 249.114C41.257 248.559 39.7914 247.676 38.5503 246.521C37.3091 245.366 36.3194 243.964 35.6437 242.404C34.968 240.844 34.621 239.159 34.6248 237.457L34.6248 237.444Z" fill="#01B8C6" stroke="#01858E" stroke-miterlimit="10"/>
</svg>
