<svg width="120" height="172" viewBox="0 0 120 172" fill="none" xmlns="http://www.w3.org/2000/svg">
<g filter="url(#filter0_d_564_641)">
<path d="M50.2447 127.332C50.2434 126.523 50.3413 125.717 50.5364 124.931C50.9182 123.382 51.6768 121.951 52.7447 120.765C53.5947 119.865 54.0969 118.693 54.1613 117.457L54.1613 117.28C54.1643 116.607 54.098 115.935 53.9634 115.275C53.7243 114.14 53.102 113.122 52.201 112.392C51.3001 111.662 50.1753 111.264 49.0155 111.265L27.4326 111.265C26.4755 111.22 25.5556 110.881 24.7987 110.293C24.0417 109.706 23.4846 108.899 23.2035 107.984C23.0676 107.59 22.9955 107.176 22.9899 106.76L22.9899 106.728C22.9951 106.692 22.9951 106.655 22.9899 106.619L22.9899 85.2391C22.9864 84.0799 23.3838 82.9551 24.1146 82.0553C24.8455 81.1555 25.865 80.536 27.0003 80.3017C27.6595 80.1613 28.3315 80.0897 29.0055 80.0882L29.1825 80.0882C30.4189 80.1539 31.5914 80.658 32.4898 81.51C33.6784 82.574 35.1086 83.3321 36.6564 83.7183C37.4424 83.9093 38.2485 84.0055 39.0574 84.0048C40.4303 84.0155 41.7905 83.7404 43.0514 83.1969C44.3123 82.6535 45.4463 81.8536 46.3812 80.8482C47.3162 79.8427 48.0318 78.6537 48.4823 77.3567C48.9329 76.0598 49.1086 74.6832 48.9983 73.3146C48.8881 71.9461 48.4942 70.6154 47.8418 69.4073C47.1894 68.1992 46.2928 67.1401 45.2088 66.2973C44.1249 65.4546 42.8775 64.8466 41.5459 64.512C40.2143 64.1774 38.8276 64.1236 37.4741 64.354C37.2032 64.3957 36.9533 64.453 36.672 64.5207C35.1265 64.9073 33.6971 65.6613 32.5054 66.7186C31.6134 67.5654 30.4474 68.0643 29.219 68.1248L29.0315 68.1248C28.3582 68.1258 27.6865 68.0595 27.0263 67.9269C25.8915 67.6878 24.8735 67.0655 24.1433 66.1646C23.413 65.2636 23.015 64.1388 23.016 62.9791L23.016 41.6253C23.0214 41.5925 23.0214 41.5591 23.016 41.5263C23.016 41.5263 23.016 41.4898 23.016 41.4794C23.0281 41.0582 23.1 40.6408 23.2295 40.2398C23.5112 39.3118 24.0788 38.4964 24.8514 37.91C25.6239 37.3236 26.5619 36.9961 27.5315 36.9743C27.573 36.9693 27.615 36.9693 27.6565 36.9743L49.0155 36.9743C50.1746 36.9756 51.2988 36.5782 52.1996 35.849C53.1005 35.1198 53.7232 34.103 53.9634 32.9692C54.0978 32.3075 54.1641 31.6339 54.1613 30.9587L54.1613 30.7765C54.0969 29.5408 53.5947 28.3684 52.7447 27.4692C51.6759 26.284 50.9172 24.8525 50.5364 23.3026C50.1494 21.7596 50.1402 20.1459 50.5095 18.5986C50.8788 17.0512 51.6157 15.6156 52.6578 14.4136C53.6998 13.2116 55.0163 12.2785 56.4957 11.6935C57.975 11.1084 59.5736 10.8887 61.156 11.0528C62.4937 11.2047 63.7869 11.6253 64.9579 12.2895C66.129 12.9538 67.1537 13.8479 67.9705 14.9181C68.7872 15.9883 69.3793 17.2126 69.711 18.5174C70.0426 19.8222 70.1072 21.1806 69.9006 22.511C69.8538 22.7766 69.8017 23.0318 69.734 23.3078C69.3474 24.8534 68.5934 26.2827 67.5361 27.4744C66.6824 28.3691 66.1796 29.5413 66.1194 30.7765L66.1194 30.964C66.1184 31.6393 66.1864 32.3129 66.3226 32.9743C66.5618 34.1086 67.1843 35.126 68.0854 35.8554C68.9864 36.5848 70.1111 36.9817 71.2704 36.9795L92.6242 36.9795C92.6901 36.9744 92.7563 36.9744 92.8221 36.9795C93.9949 37.0314 95.1048 37.5245 95.9295 38.3598C96.7543 39.1952 97.233 40.3113 97.27 41.4846C97.2648 41.5331 97.2648 41.582 97.27 41.6305L97.27 62.9843C97.2722 64.1436 96.8753 65.2682 96.1459 66.1693C95.4165 67.0704 94.3991 67.6929 93.2648 67.9321C92.6029 68.0647 91.9295 68.131 91.2545 68.13L91.0669 68.13C89.8387 68.0686 88.673 67.5698 87.7805 66.7238C86.59 65.6648 85.1602 64.9105 83.6139 64.5259C83.3483 64.4582 83.0931 64.4009 82.8171 64.3593C81.367 64.1199 79.8817 64.2066 78.4693 64.613C77.0568 65.0193 75.7526 65.7353 74.6515 66.7087C73.5503 67.6821 72.6798 68.8886 72.1031 70.2405C71.5265 71.5924 71.2583 73.0559 71.318 74.5244C71.3776 75.9929 71.7636 77.4297 72.448 78.7304C73.1323 80.0311 74.0978 81.1631 75.2743 82.044C76.4508 82.9249 77.8087 83.5327 79.2495 83.8232C80.6902 84.1137 82.1776 84.0797 83.6035 83.7235C85.1522 83.3396 86.583 82.5813 87.7701 81.5152C88.6685 80.6632 89.841 80.1592 91.0774 80.0934L91.2545 80.0934C91.9302 80.0949 92.6039 80.1665 93.2648 80.3069C94.3996 80.5413 95.4185 81.161 96.1485 82.0609C96.8785 82.9609 97.2747 84.0856 97.27 85.2443L97.27 106.629C97.2648 106.676 97.2648 106.723 97.27 106.77C97.2635 107.186 97.1932 107.599 97.0616 107.994C96.7852 108.911 96.2307 109.719 95.4749 110.307C94.7192 110.894 93.7995 111.233 92.843 111.275L71.2756 111.275C70.1156 111.273 68.9903 111.671 68.0892 112.401C67.188 113.132 66.566 114.15 66.3278 115.286C66.1914 115.945 66.1233 116.617 66.1247 117.291L66.1247 117.478C66.187 118.707 66.6878 119.873 67.5361 120.765C68.5934 121.956 69.3474 123.386 69.734 124.931C69.8017 125.197 69.8538 125.452 69.9006 125.733C70.1264 127.084 70.0693 128.467 69.7331 129.794C69.3969 131.122 68.7888 132.365 67.9473 133.445C67.1057 134.526 66.0491 135.42 64.8443 136.071C63.6395 136.722 62.3127 137.115 60.9479 137.227C59.583 137.339 58.2098 137.166 56.9152 136.72C55.6205 136.274 54.4326 135.563 53.4266 134.634C52.4205 133.705 51.6183 132.577 51.0706 131.322C50.5229 130.067 50.2417 128.712 50.2447 127.343L50.2447 127.332Z" fill="#C9DA2A"/>
<path d="M50.2447 127.332C50.2434 126.523 50.3413 125.717 50.5364 124.931C50.9182 123.382 51.6768 121.951 52.7447 120.765C53.5947 119.865 54.0969 118.693 54.1613 117.457L54.1613 117.28C54.1643 116.607 54.098 115.935 53.9634 115.275C53.7243 114.14 53.102 113.122 52.201 112.392C51.3001 111.662 50.1753 111.264 49.0155 111.265L27.4326 111.265C26.4755 111.22 25.5556 110.881 24.7987 110.293C24.0417 109.706 23.4846 108.899 23.2035 107.984C23.0676 107.59 22.9955 107.176 22.9899 106.76L22.9899 106.728C22.9951 106.692 22.9951 106.655 22.9899 106.619L22.9899 85.2391C22.9864 84.0799 23.3838 82.9551 24.1146 82.0553C24.8455 81.1555 25.865 80.536 27.0003 80.3017C27.6595 80.1613 28.3315 80.0897 29.0055 80.0882L29.1825 80.0882C30.4189 80.1539 31.5914 80.658 32.4898 81.51C33.6784 82.574 35.1086 83.3321 36.6564 83.7183C37.4424 83.9093 38.2485 84.0055 39.0574 84.0048C40.4303 84.0155 41.7905 83.7404 43.0514 83.1969C44.3123 82.6535 45.4463 81.8536 46.3812 80.8482C47.3162 79.8427 48.0318 78.6537 48.4823 77.3567C48.9329 76.0598 49.1086 74.6832 48.9983 73.3146C48.8881 71.9461 48.4942 70.6154 47.8418 69.4073C47.1894 68.1992 46.2928 67.1401 45.2088 66.2973C44.1249 65.4546 42.8775 64.8466 41.5459 64.512C40.2143 64.1774 38.8276 64.1236 37.4741 64.354C37.2032 64.3957 36.9533 64.453 36.672 64.5207C35.1265 64.9073 33.6971 65.6613 32.5054 66.7186C31.6134 67.5654 30.4474 68.0643 29.219 68.1248L29.0315 68.1248C28.3582 68.1258 27.6865 68.0595 27.0263 67.9269C25.8915 67.6878 24.8735 67.0655 24.1433 66.1646C23.413 65.2636 23.015 64.1388 23.016 62.9791L23.016 41.6253C23.0214 41.5925 23.0214 41.5591 23.016 41.5263C23.016 41.5263 23.016 41.4898 23.016 41.4794C23.0281 41.0582 23.1 40.6408 23.2295 40.2398C23.5112 39.3118 24.0788 38.4964 24.8514 37.91C25.6239 37.3236 26.5619 36.9961 27.5315 36.9743C27.573 36.9693 27.615 36.9693 27.6565 36.9743L49.0155 36.9743C50.1746 36.9756 51.2988 36.5782 52.1996 35.849C53.1005 35.1198 53.7232 34.103 53.9634 32.9692C54.0978 32.3075 54.1641 31.6339 54.1613 30.9587L54.1613 30.7765C54.0969 29.5408 53.5947 28.3684 52.7447 27.4692C51.6759 26.284 50.9172 24.8525 50.5364 23.3026C50.1494 21.7596 50.1402 20.1459 50.5095 18.5986C50.8788 17.0512 51.6157 15.6156 52.6578 14.4136C53.6998 13.2116 55.0163 12.2785 56.4957 11.6935C57.975 11.1084 59.5736 10.8887 61.156 11.0528C62.4937 11.2047 63.7869 11.6253 64.9579 12.2895C66.129 12.9538 67.1537 13.8479 67.9705 14.9181C68.7872 15.9883 69.3793 17.2126 69.711 18.5174C70.0426 19.8222 70.1072 21.1806 69.9006 22.511C69.8538 22.7766 69.8017 23.0318 69.734 23.3078C69.3474 24.8534 68.5934 26.2827 67.5361 27.4744C66.6824 28.3691 66.1796 29.5413 66.1194 30.7765L66.1194 30.964C66.1184 31.6393 66.1864 32.3129 66.3226 32.9743C66.5618 34.1086 67.1843 35.126 68.0854 35.8554C68.9864 36.5848 70.1111 36.9817 71.2704 36.9795L92.6242 36.9795C92.6901 36.9744 92.7563 36.9744 92.8221 36.9795C93.9949 37.0314 95.1048 37.5245 95.9295 38.3598C96.7543 39.1952 97.233 40.3113 97.27 41.4846C97.2648 41.5331 97.2648 41.582 97.27 41.6305L97.27 62.9843C97.2722 64.1436 96.8753 65.2682 96.1459 66.1693C95.4165 67.0704 94.3991 67.6929 93.2648 67.9321C92.6029 68.0647 91.9295 68.131 91.2545 68.13L91.0669 68.13C89.8387 68.0686 88.673 67.5698 87.7805 66.7238C86.59 65.6648 85.1602 64.9105 83.6139 64.5259C83.3483 64.4582 83.0931 64.4009 82.8171 64.3593C81.367 64.1199 79.8817 64.2066 78.4693 64.613C77.0568 65.0193 75.7526 65.7353 74.6515 66.7087C73.5503 67.6821 72.6798 68.8886 72.1031 70.2405C71.5265 71.5924 71.2583 73.0559 71.318 74.5244C71.3776 75.9929 71.7636 77.4297 72.448 78.7304C73.1323 80.0311 74.0978 81.1631 75.2743 82.044C76.4508 82.9249 77.8087 83.5327 79.2495 83.8232C80.6902 84.1137 82.1776 84.0797 83.6035 83.7235C85.1522 83.3396 86.583 82.5813 87.7701 81.5152C88.6685 80.6632 89.841 80.1592 91.0774 80.0934L91.2545 80.0934C91.9302 80.0949 92.6039 80.1665 93.2648 80.3069C94.3996 80.5413 95.4185 81.161 96.1485 82.0609C96.8785 82.9609 97.2747 84.0856 97.27 85.2443L97.27 106.629C97.2648 106.676 97.2648 106.723 97.27 106.77C97.2635 107.186 97.1932 107.599 97.0616 107.994C96.7852 108.911 96.2307 109.719 95.4749 110.307C94.7192 110.894 93.7995 111.233 92.843 111.275L71.2756 111.275C70.1156 111.273 68.9903 111.671 68.0892 112.401C67.188 113.132 66.566 114.15 66.3278 115.286C66.1914 115.945 66.1233 116.617 66.1247 117.291L66.1247 117.478C66.187 118.707 66.6878 119.873 67.5361 120.765C68.5934 121.956 69.3474 123.386 69.734 124.931C69.8017 125.197 69.8538 125.452 69.9006 125.733C70.1264 127.084 70.0693 128.467 69.7331 129.794C69.3969 131.122 68.7888 132.365 67.9473 133.445C67.1057 134.526 66.0491 135.42 64.8443 136.071C63.6395 136.722 62.3127 137.115 60.9479 137.227C59.583 137.339 58.2098 137.166 56.9152 136.72C55.6205 136.274 54.4326 135.563 53.4266 134.634C52.4205 133.705 51.6183 132.577 51.0706 131.322C50.5229 130.067 50.2417 128.712 50.2447 127.343L50.2447 127.332Z" stroke="#6F7916" stroke-miterlimit="10"/>
</g>
<defs>
<filter id="filter0_d_564_641" x="0.489899" y="0.5" width="119.281" height="171.26" filterUnits="userSpaceOnUse" color-interpolation-filters="sRGB">
<feFlood flood-opacity="0" result="BackgroundImageFix"/>
<feColorMatrix in="SourceAlpha" type="matrix" values="0 0 0 0 0 0 0 0 0 0 0 0 0 0 0 0 0 0 127 0" result="hardAlpha"/>
<feOffset dy="12"/>
<feGaussianBlur stdDeviation="11"/>
<feComposite in2="hardAlpha" operator="out"/>
<feColorMatrix type="matrix" values="0 0 0 0 0 0 0 0 0 0 0 0 0 0 0 0 0 0 0.15 0"/>
<feBlend mode="normal" in2="BackgroundImageFix" result="effect1_dropShadow_564_641"/>
<feBlend mode="normal" in="SourceGraphic" in2="effect1_dropShadow_564_641" result="shape"/>
</filter>
</defs>
</svg>
