<svg width="305" height="165" viewBox="0 0 305 165" fill="none" xmlns="http://www.w3.org/2000/svg">
<path d="M139.527 30.1809C138.685 30.1823 137.846 30.0787 137.029 29.8725C135.417 29.4687 133.927 28.6666 132.693 27.5374C131.758 26.6385 130.538 26.1075 129.252 26.0395H129.067C128.367 26.0363 127.668 26.1064 126.981 26.2488C125.8 26.5016 124.741 27.1596 123.981 28.1123C123.221 29.0649 122.807 30.2543 122.808 31.4806V54.3023C122.761 55.3143 122.408 56.2869 121.797 57.0873C121.186 57.8878 120.346 58.4769 119.393 58.7741C118.983 58.9178 118.553 58.994 118.12 58.9999H118.087C118.049 58.9945 118.011 58.9945 117.973 58.9999H95.7256C94.5193 59.0036 93.3488 58.5834 92.4125 57.8106C91.4761 57.0378 90.8315 55.9599 90.5877 54.7594C90.4416 54.0623 90.3671 53.3518 90.3655 52.6391V52.4519C90.434 51.1445 90.9585 49.9047 91.8451 48.9548C92.9523 47.698 93.7411 46.1857 94.1431 44.5491C94.3418 43.7179 94.4418 42.8656 94.4411 42.0103C94.4523 40.5585 94.166 39.1203 93.6005 37.787C93.035 36.4538 92.2026 35.2547 91.1564 34.2661C90.1101 33.2774 88.8728 32.5208 87.5232 32.0444C86.1736 31.568 84.7411 31.3822 83.317 31.4988C81.8929 31.6154 80.5082 32.0318 79.2511 32.7217C77.994 33.4115 76.8918 34.3596 76.0148 35.5057C75.1378 36.6519 74.5052 37.9709 74.157 39.379C73.8089 40.787 73.7529 42.2532 73.9926 43.6845C74.036 43.9708 74.0956 44.2352 74.1661 44.5325C74.5683 46.1668 75.3529 47.6782 76.4532 48.9383C77.3344 49.8814 77.8536 51.1144 77.9165 52.4133V52.6116C77.9175 53.3236 77.8485 54.0338 77.7106 54.7318C77.4617 55.9318 76.8142 57.0082 75.8767 57.7804C74.9391 58.5525 73.7687 58.9734 72.5619 58.9724H50.3412C50.3071 58.9666 50.2723 58.9666 50.2382 58.9724C50.2382 58.9724 50.2002 58.9724 50.1894 58.9724C49.7511 58.9596 49.3168 58.8835 48.8995 58.7466C47.9338 58.4487 47.0853 57.8485 46.4751 57.0316C45.8649 56.2147 45.5241 55.223 45.5014 54.1977C45.4962 54.1538 45.4962 54.1094 45.5014 54.0655V31.4806C45.5027 30.255 45.0893 29.0663 44.3304 28.1137C43.5716 27.1612 42.5136 26.5027 41.3337 26.2488C40.6452 26.1067 39.9442 26.0365 39.2416 26.0395H39.052C37.7661 26.1075 36.5461 26.6385 35.6105 27.5374C34.3771 28.6675 32.8875 29.4697 31.2747 29.8725C29.669 30.2816 27.9899 30.2914 26.3797 29.9009C24.7695 29.5104 23.2757 28.7312 22.0249 27.6293C20.774 26.5274 19.8031 25.1354 19.1943 23.5711C18.5855 22.0069 18.3568 20.3165 18.5276 18.6434C18.6856 17.2289 19.1233 15.8614 19.8145 14.6232C20.5057 13.3849 21.4361 12.3014 22.5498 11.4378C23.6635 10.5741 24.9375 9.9481 26.2952 9.59737C27.653 9.24664 29.0666 9.17841 30.4509 9.3968C30.7273 9.44637 30.9929 9.50144 31.2801 9.57303C32.8884 9.98177 34.3758 10.779 35.6159 11.8971C36.5469 12.7997 37.7667 13.3315 39.052 13.395H39.2471C39.9498 13.3961 40.6508 13.3242 41.3391 13.1802C42.5194 12.9272 43.5781 12.269 44.3371 11.3162C45.0961 10.3635 45.5091 9.17421 45.5068 7.94841V-14.631C45.5015 -14.7006 45.5015 -14.7706 45.5068 -14.8403C45.5608 -16.0803 46.0739 -17.2539 46.9432 -18.126C47.8125 -18.9981 48.9739 -19.5043 50.1948 -19.5434C50.2453 -19.5379 50.2962 -19.5379 50.3466 -19.5434H72.5673C73.7736 -19.5457 74.944 -19.126 75.8816 -18.3548C76.8192 -17.5835 77.467 -16.5078 77.716 -15.3084C77.854 -14.6085 77.9229 -13.8964 77.9219 -13.1826V-12.9843C77.858 -11.6856 77.339 -10.453 76.4586 -9.50931C75.3566 -8.25048 74.5717 -6.73861 74.1715 -5.10358C74.101 -4.82271 74.0414 -4.55286 73.9981 -4.26098C73.749 -2.72762 73.8392 -1.15715 74.2621 0.336368C74.685 1.82988 75.4299 3.20892 76.4429 4.3733C77.4558 5.53768 78.7113 6.45817 80.1181 7.06788C81.5249 7.67759 83.0477 7.96119 84.5759 7.89813C86.104 7.83506 87.5992 7.4269 88.9527 6.70328C90.3062 5.97966 91.4841 4.95875 92.4007 3.71474C93.3174 2.47073 93.9499 1.03484 94.2522 -0.488598C94.5545 -2.01204 94.5191 -3.58479 94.1484 -5.09257C93.749 -6.73017 92.9599 -8.24304 91.8505 -9.49831C90.9639 -10.4482 90.4394 -11.688 90.3709 -12.9954V-13.1826C90.3726 -13.8971 90.447 -14.6095 90.5931 -15.3084C90.837 -16.5083 91.4819 -17.5856 92.4184 -18.3575C93.3548 -19.1294 94.5252 -19.5484 95.731 -19.5434H117.984C118.033 -19.5379 118.082 -19.5379 118.131 -19.5434C118.564 -19.5365 118.993 -19.4622 119.404 -19.3231C120.358 -19.0308 121.199 -18.4445 121.811 -17.6453C122.422 -16.8462 122.775 -15.8737 122.819 -14.8623V7.9429C122.817 9.16947 123.23 10.3593 123.99 11.3122C124.75 12.2651 125.81 12.9228 126.992 13.1747C127.678 13.3189 128.377 13.3909 129.078 13.3895H129.273C130.552 13.3235 131.766 12.7941 132.693 11.8971C133.933 10.779 135.421 9.98177 137.029 9.57303C137.305 9.50144 137.571 9.44637 137.864 9.3968C139.269 9.15809 140.708 9.2184 142.09 9.57394C143.471 9.92948 144.765 10.5725 145.889 11.4623C147.013 12.3521 147.943 13.4693 148.621 14.7433C149.298 16.0173 149.708 17.4202 149.824 18.8634C149.94 20.3066 149.761 21.7586 149.296 23.1276C148.832 24.4965 148.093 25.7526 147.126 26.8164C146.159 27.8802 144.986 28.7285 143.68 29.3076C142.373 29.8867 140.963 30.1841 139.538 30.1809H139.527Z" fill="#4153A3" stroke="#232D58" stroke-miterlimit="10"/>
<path d="M293.622 30.1809C292.78 30.1823 291.941 30.0787 291.123 29.8725C289.511 29.4687 288.022 28.6666 286.788 27.5374C285.852 26.6385 284.632 26.1075 283.346 26.0395H283.162C282.461 26.0363 281.762 26.1064 281.075 26.2488C279.894 26.5016 278.835 27.1596 278.075 28.1123C277.315 29.0649 276.901 30.2543 276.902 31.4806V54.3023C276.856 55.3143 276.503 56.2869 275.892 57.0873C275.28 57.8878 274.441 58.4769 273.488 58.7741C273.078 58.9178 272.648 58.994 272.214 58.9999H272.182C272.144 58.9945 272.106 58.9945 272.068 58.9999H249.82C248.614 59.0036 247.443 58.5834 246.507 57.8106C245.571 57.0378 244.926 55.9599 244.682 54.7594C244.536 54.0623 244.462 53.3518 244.46 52.6391V52.4519C244.528 51.1445 245.053 49.9047 245.94 48.9548C247.047 47.698 247.836 46.1857 248.238 44.5491C248.436 43.7179 248.536 42.8656 248.536 42.0103C248.547 40.5585 248.26 39.1203 247.695 37.787C247.129 36.4538 246.297 35.2547 245.251 34.2661C244.205 33.2774 242.967 32.5208 241.618 32.0444C240.268 31.568 238.836 31.3822 237.412 31.4988C235.987 31.6154 234.603 32.0318 233.346 32.7217C232.088 33.4115 230.986 34.3596 230.109 35.5057C229.232 36.6519 228.6 37.9709 228.252 39.379C227.903 40.787 227.847 42.2532 228.087 43.6845C228.13 43.9708 228.19 44.2352 228.261 44.5325C228.663 46.1668 229.447 47.6782 230.548 48.9383C231.429 49.8814 231.948 51.1144 232.011 52.4133V52.6116C232.012 53.3236 231.943 54.0338 231.805 54.7318C231.556 55.9318 230.909 57.0082 229.971 57.7804C229.034 58.5525 227.863 58.9734 226.656 58.9724H204.436C204.402 58.9666 204.367 58.9666 204.333 58.9724C204.333 58.9724 204.295 58.9724 204.284 58.9724C203.846 58.9596 203.411 58.8835 202.994 58.7466C202.028 58.4487 201.18 57.8485 200.57 57.0316C199.959 56.2147 199.619 55.223 199.596 54.1977C199.591 54.1538 199.591 54.1094 199.596 54.0655V31.4806C199.597 30.255 199.184 29.0663 198.425 28.1137C197.666 27.1612 196.608 26.5027 195.428 26.2488C194.74 26.1067 194.039 26.0365 193.336 26.0395H193.146C191.861 26.1075 190.641 26.6385 189.705 27.5374C188.472 28.6675 186.982 29.4697 185.369 29.8725C183.764 30.2816 182.084 30.2914 180.474 29.9009C178.864 29.5104 177.37 28.7312 176.119 27.6293C174.869 26.5274 173.898 25.1354 173.289 23.5711C172.68 22.0069 172.451 20.3165 172.622 18.6434C172.78 17.2289 173.218 15.8614 173.909 14.6232C174.6 13.3849 175.531 12.3014 176.644 11.4378C177.758 10.5741 179.032 9.9481 180.39 9.59737C181.747 9.24664 183.161 9.17841 184.545 9.3968C184.822 9.44637 185.087 9.50144 185.375 9.57303C186.983 9.98177 188.47 10.779 189.71 11.8971C190.641 12.7997 191.861 13.3315 193.146 13.395H193.342C194.044 13.3961 194.745 13.3242 195.434 13.1802C196.614 12.9272 197.673 12.269 198.432 11.3162C199.191 10.3635 199.604 9.17421 199.601 7.94841V-14.631C199.596 -14.7006 199.596 -14.7706 199.601 -14.8403C199.655 -16.0803 200.168 -17.2539 201.038 -18.126C201.907 -18.9981 203.068 -19.5043 204.289 -19.5434C204.34 -19.5379 204.391 -19.5379 204.441 -19.5434H226.662C227.868 -19.5457 229.038 -19.126 229.976 -18.3548C230.914 -17.5835 231.561 -16.5078 231.81 -15.3084C231.948 -14.6085 232.017 -13.8964 232.016 -13.1826V-12.9843C231.952 -11.6856 231.433 -10.453 230.553 -9.50931C229.451 -8.25048 228.666 -6.73861 228.266 -5.10358C228.196 -4.82271 228.136 -4.55286 228.093 -4.26098C227.843 -2.72762 227.934 -1.15715 228.357 0.336368C228.779 1.82988 229.524 3.20892 230.537 4.3733C231.55 5.53768 232.806 6.45817 234.213 7.06788C235.619 7.67759 237.142 7.96119 238.67 7.89813C240.199 7.83506 241.694 7.4269 243.047 6.70328C244.401 5.97966 245.579 4.95875 246.495 3.71474C247.412 2.47073 248.044 1.03484 248.347 -0.488598C248.649 -2.01204 248.614 -3.58479 248.243 -5.09257C247.843 -6.73017 247.054 -8.24304 245.945 -9.49831C245.058 -10.4482 244.534 -11.688 244.465 -12.9954V-13.1826C244.467 -13.8971 244.541 -14.6095 244.688 -15.3084C244.932 -16.5083 245.576 -17.5856 246.513 -18.3575C247.449 -19.1294 248.62 -19.5484 249.825 -19.5434H272.079C272.127 -19.5379 272.176 -19.5379 272.225 -19.5434C272.658 -19.5365 273.088 -19.4622 273.499 -19.3231C274.453 -19.0308 275.293 -18.4445 275.905 -17.6453C276.517 -16.8462 276.869 -15.8737 276.913 -14.8623V7.9429C276.911 9.16947 277.325 10.3593 278.085 11.3122C278.845 12.2651 279.905 12.9228 281.086 13.1747C281.773 13.3189 282.472 13.3909 283.173 13.3895H283.368C284.647 13.3235 285.86 12.7941 286.788 11.8971C288.028 10.779 289.515 9.98177 291.123 9.57303C291.4 9.50144 291.665 9.44637 291.958 9.3968C293.364 9.15809 294.803 9.2184 296.184 9.57394C297.565 9.92948 298.859 10.5725 299.983 11.4623C301.108 12.3521 302.038 13.4693 302.715 14.7433C303.393 16.0173 303.802 17.4202 303.919 18.8634C304.035 20.3066 303.855 21.7586 303.391 23.1276C302.926 24.4965 302.187 25.7526 301.22 26.8164C300.254 27.8802 299.08 28.7285 297.774 29.3076C296.468 29.8867 295.058 30.1841 293.633 30.1809H293.622Z" fill="#4153A3" stroke="#232D58" stroke-miterlimit="10"/>
<path d="M216.575 108.724C215.733 108.726 214.894 108.622 214.076 108.416C212.464 108.012 210.975 107.21 209.741 106.081C208.805 105.182 207.585 104.651 206.299 104.583H206.115C205.414 104.58 204.715 104.65 204.028 104.792C202.847 105.045 201.788 105.703 201.028 106.656C200.268 107.608 199.854 108.798 199.855 110.024V132.846C199.809 133.858 199.456 134.83 198.844 135.631C198.233 136.431 197.394 137.02 196.441 137.318C196.031 137.461 195.601 137.537 195.167 137.543H195.135C195.097 137.538 195.058 137.538 195.021 137.543H172.773C171.567 137.547 170.396 137.127 169.46 136.354C168.524 135.581 167.879 134.503 167.635 133.303C167.489 132.606 167.415 131.895 167.413 131.183V130.995C167.481 129.688 168.006 128.448 168.892 127.498C170 126.241 170.788 124.729 171.19 123.093C171.389 122.261 171.489 121.409 171.488 120.554C171.5 119.102 171.213 117.664 170.648 116.33C170.082 114.997 169.25 113.798 168.204 112.809C167.157 111.821 165.92 111.064 164.571 110.588C163.221 110.111 161.789 109.926 160.364 110.042C158.94 110.159 157.556 110.575 156.298 111.265C155.041 111.955 153.939 112.903 153.062 114.049C152.185 115.195 151.553 116.514 151.204 117.922C150.856 119.33 150.8 120.797 151.04 122.228C151.083 122.514 151.143 122.779 151.213 123.076C151.616 124.71 152.4 126.222 153.501 127.482C154.382 128.425 154.901 129.658 154.964 130.957V131.155C154.965 131.867 154.896 132.577 154.758 133.275C154.509 134.475 153.862 135.552 152.924 136.324C151.986 137.096 150.816 137.517 149.609 137.516H127.389C127.354 137.51 127.32 137.51 127.286 137.516C127.286 137.516 127.248 137.516 127.237 137.516C126.798 137.503 126.364 137.427 125.947 137.29C124.981 136.992 124.133 136.392 123.522 135.575C122.912 134.758 122.571 133.766 122.549 132.741C122.544 132.697 122.544 132.653 122.549 132.609V110.024C122.55 108.798 122.137 107.61 121.378 106.657C120.619 105.705 119.561 105.046 118.381 104.792C117.693 104.65 116.992 104.58 116.289 104.583H116.099C114.813 104.651 113.593 105.182 112.658 106.081C111.424 107.211 109.935 108.013 108.322 108.416C106.716 108.825 105.037 108.835 103.427 108.444C101.817 108.054 100.323 107.275 99.0722 106.173C97.8214 105.071 96.8504 103.679 96.2416 102.115C95.6328 100.55 95.4042 98.86 95.575 97.1868C95.733 95.7723 96.1707 94.4048 96.8619 93.1666C97.5531 91.9283 98.4835 90.8448 99.5972 89.9812C100.711 89.1175 101.985 88.4915 103.343 88.1408C104.7 87.7901 106.114 87.7218 107.498 87.9402C107.775 87.9898 108.04 88.0449 108.327 88.1165C109.936 88.5252 111.423 89.3225 112.663 90.4405C113.594 91.3431 114.814 91.8749 116.099 91.9384H116.294C116.997 91.9396 117.698 91.8676 118.386 91.7237C119.567 91.4706 120.625 90.8124 121.384 89.8597C122.143 88.9069 122.556 87.7176 122.554 86.4918V63.9124C122.549 63.8428 122.549 63.7728 122.554 63.7032C122.608 62.4631 123.121 61.2895 123.991 60.4174C124.86 59.5454 126.021 59.0391 127.242 59C127.293 59.0055 127.344 59.0055 127.394 59H149.615C150.821 58.9977 151.991 59.4174 152.929 60.1887C153.867 60.9599 154.514 62.0356 154.763 63.2351C154.901 63.9349 154.97 64.647 154.969 65.3608V65.5591C154.905 66.8578 154.386 68.0904 153.506 69.0341C152.404 70.293 151.619 71.8048 151.219 73.4398C151.148 73.7207 151.089 73.9906 151.045 74.2824C150.796 75.8158 150.887 77.3863 151.309 78.8798C151.732 80.3733 152.477 81.7524 153.49 82.9167C154.503 84.0811 155.759 85.0016 157.165 85.6113C158.572 86.221 160.095 86.5046 161.623 86.4416C163.151 86.3785 164.647 85.9703 166 85.2467C167.354 84.5231 168.531 83.5022 169.448 82.2582C170.365 81.0142 170.997 79.5783 171.3 78.0548C171.602 76.5314 171.566 74.9586 171.196 73.4509C170.796 71.8133 170.007 70.3004 168.898 69.0451C168.011 68.0952 167.487 66.8554 167.418 65.5481V65.3608C167.42 64.6463 167.494 63.9339 167.64 63.2351C167.884 62.0351 168.529 60.9578 169.466 60.1859C170.402 59.414 171.573 58.9951 172.778 59H195.032C195.08 59.0055 195.129 59.0055 195.178 59C195.611 59.0069 196.041 59.0812 196.452 59.2203C197.405 59.5127 198.246 60.099 198.858 60.8981C199.47 61.6972 199.822 62.6697 199.866 63.6811V86.4863C199.864 87.7129 200.278 88.9028 201.038 89.8556C201.798 90.8085 202.858 91.4662 204.039 91.7181C204.726 91.8624 205.425 91.9343 206.126 91.9329H206.321C207.6 91.867 208.813 91.3375 209.741 90.4405C210.981 89.3225 212.468 88.5252 214.076 88.1165C214.353 88.0449 214.618 87.9898 214.911 87.9402C216.316 87.7015 217.755 87.7618 219.137 88.1174C220.518 88.4729 221.812 89.1159 222.936 90.0057C224.06 90.8955 224.991 92.0128 225.668 93.2867C226.345 94.5607 226.755 95.9636 226.872 97.4068C226.988 98.85 226.808 100.302 226.344 101.671C225.879 103.04 225.14 104.296 224.173 105.36C223.207 106.424 222.033 107.272 220.727 107.851C219.421 108.43 218.011 108.728 216.586 108.724H216.575Z" fill="#4153A4" stroke="#232D58" stroke-miterlimit="10"/>
<path d="M62.4801 108.724C61.638 108.726 60.7989 108.622 59.9816 108.416C58.3693 108.012 56.8799 107.21 55.6459 106.081C54.7103 105.182 53.4903 104.651 52.2044 104.583H52.0201C51.3193 104.58 50.6201 104.65 49.9335 104.792C48.7526 105.045 47.6933 105.703 46.9334 106.656C46.1736 107.608 45.7594 108.798 45.7604 110.024V132.846C45.7139 133.858 45.3608 134.83 44.7497 135.631C44.1386 136.431 43.2991 137.02 42.346 137.318C41.936 137.461 41.506 137.537 41.0724 137.543H41.0398C41.0021 137.538 40.9638 137.538 40.926 137.543H18.6782C17.4719 137.547 16.3015 137.127 15.3651 136.354C14.4288 135.581 13.7841 134.503 13.5404 133.303C13.3943 132.606 13.3198 131.895 13.3182 131.183V130.995C13.3866 129.688 13.9111 128.448 14.7977 127.498C15.9049 126.241 16.6937 124.729 17.0957 123.093C17.2944 122.261 17.3945 121.409 17.3938 120.554C17.4049 119.102 17.1186 117.664 16.5531 116.33C15.9876 114.997 15.1553 113.798 14.109 112.809C13.0627 111.821 11.8255 111.064 10.4758 110.588C9.12621 110.111 7.69378 109.926 6.26966 110.042C4.84553 110.159 3.46089 110.575 2.20374 111.265C0.946594 111.955 -0.155526 112.903 -1.03252 114.049C-1.90952 115.195 -2.54221 116.514 -2.89034 117.922C-3.23848 119.33 -3.29447 120.797 -3.05472 122.228C-3.01136 122.514 -2.95174 122.779 -2.88129 123.076C-2.47905 124.71 -1.69443 126.222 -0.594161 127.482C0.287012 128.425 0.806204 129.658 0.869163 130.957V131.155C0.870172 131.867 0.801179 132.577 0.663214 133.275C0.414385 134.475 -0.233163 135.552 -1.1707 136.324C-2.10823 137.096 -3.27867 137.517 -4.48549 137.516H-26.7062C-26.7403 137.51 -26.7751 137.51 -26.8092 137.516C-26.8092 137.516 -26.8471 137.516 -26.858 137.516C-27.2963 137.503 -27.7306 137.427 -28.1478 137.29C-29.1136 136.992 -29.9621 136.392 -30.5723 135.575C-31.1825 134.758 -31.5233 133.766 -31.546 132.741C-31.5512 132.697 -31.5512 132.653 -31.546 132.609V110.024C-31.5446 108.798 -31.9581 107.61 -32.7169 106.657C-33.4758 105.705 -34.5338 105.046 -35.7137 104.792C-36.4022 104.65 -37.1032 104.58 -37.8057 104.583H-37.9954C-39.2813 104.651 -40.5013 105.182 -41.4369 106.081C-42.6703 107.211 -44.1598 108.013 -45.7726 108.416C-47.3783 108.825 -49.0575 108.835 -50.6677 108.444C-52.2779 108.054 -53.7717 107.275 -55.0225 106.173C-56.2733 105.071 -57.2443 103.679 -57.8531 102.115C-58.4619 100.55 -58.6906 98.86 -58.5197 97.1868C-58.3617 95.7723 -57.924 94.4048 -57.2328 93.1666C-56.5416 91.9283 -55.6112 90.8448 -54.4975 89.9812C-53.3839 89.1175 -52.1099 88.4915 -50.7521 88.1408C-49.3944 87.7901 -47.9808 87.7218 -46.5964 87.9402C-46.32 87.9898 -46.0545 88.0449 -45.7672 88.1165C-44.159 88.5252 -42.6716 89.3225 -41.4315 90.4405C-40.5005 91.3431 -39.2807 91.8749 -37.9954 91.9384H-37.8003C-37.0976 91.9396 -36.3966 91.8676 -35.7083 91.7237C-34.5279 91.4706 -33.4693 90.8124 -32.7103 89.8597C-31.9513 88.9069 -31.5382 87.7176 -31.5406 86.4918V63.9124C-31.5458 63.8428 -31.5458 63.7728 -31.5406 63.7032C-31.4865 62.4631 -30.9735 61.2895 -30.1042 60.4174C-29.2349 59.5454 -28.0735 59.0391 -26.8525 59C-26.8021 59.0055 -26.7512 59.0055 -26.7008 59H-4.48006C-3.27373 58.9977 -2.10341 59.4174 -1.16577 60.1887C-0.228128 60.9599 0.419651 62.0356 0.668634 63.2351C0.806601 63.9349 0.875561 64.647 0.874552 65.3608V65.5591C0.810644 66.8578 0.291624 68.0904 -0.588734 69.0341C-1.69078 70.2929 -2.47564 71.8048 -2.87586 73.4398C-2.94631 73.7207 -3.00593 73.9906 -3.04929 74.2824C-3.29837 75.8158 -3.20818 77.3863 -2.78528 78.8798C-2.36239 80.3733 -1.61743 81.7524 -0.604482 82.9167C0.408467 84.0811 1.66394 85.0016 3.07074 85.6113C4.47754 86.221 6.00036 86.5046 7.52852 86.4416C9.05667 86.3785 10.5518 85.9703 11.9053 85.2467C13.2588 84.5231 14.4367 83.5022 15.3534 82.2582C16.2701 81.0142 16.9025 79.5783 17.2049 78.0548C17.5072 76.5314 17.4717 74.9586 17.1011 73.4509C16.7016 71.8133 15.9125 70.3004 14.8031 69.0451C13.9166 68.0952 13.392 66.8554 13.3236 65.5481V65.3608C13.3252 64.6463 13.3996 63.9339 13.5458 63.2351C13.7897 62.0351 14.4346 60.9578 15.371 60.1859C16.3075 59.414 17.4778 58.9951 18.6837 59H40.9369C40.9855 59.0055 41.0346 59.0055 41.0832 59C41.5163 59.0069 41.9459 59.0812 42.3568 59.2203C43.3107 59.5127 44.1516 60.099 44.7633 60.8981C45.3749 61.6972 45.7272 62.6697 45.7713 63.6811V86.4863C45.7692 87.7129 46.183 88.9028 46.943 89.8556C47.7031 90.8085 48.763 91.4662 49.9444 91.7181C50.6308 91.8624 51.33 91.9343 52.0309 91.9329H52.226C53.5049 91.867 54.7182 91.3375 55.6459 90.4405C56.886 89.3225 58.3734 88.5252 59.9816 88.1165C60.2581 88.0449 60.5236 87.9898 60.8162 87.9402C62.2218 87.7015 63.6608 87.7618 65.0422 88.1174C66.4236 88.4729 67.7173 89.1159 68.8415 90.0057C69.9657 90.8955 70.896 92.0128 71.5734 93.2867C72.2508 94.5607 72.6606 95.9636 72.7768 97.4068C72.8931 98.85 72.7134 100.302 72.249 101.671C71.7845 103.04 71.0455 104.296 70.0786 105.36C69.1118 106.424 67.9383 107.272 66.6322 107.851C65.3261 108.43 63.916 108.728 62.491 108.724H62.4801Z" fill="#4153A4" stroke="#232D58" stroke-miterlimit="10"/>
<path d="M18.6158 19.558C18.594 19.9208 18.594 20.2847 18.6158 20.6476C18.6158 20.8219 18.6158 20.9962 18.6478 21.1924C18.6852 21.5192 18.7279 21.8407 18.7973 22.1675C18.7996 22.1726 18.8009 22.1782 18.8009 22.1839C18.8009 22.1896 18.7996 22.1951 18.7973 22.2002C18.8193 22.3705 18.8569 22.5383 18.9094 22.7015C18.9768 22.9931 19.0606 23.2804 19.1603 23.5622C19.3145 24.0136 19.5056 24.451 19.7316 24.8698C19.7969 25.0146 19.8718 25.1548 19.9559 25.2893C20.7551 26.712 21.8753 27.9197 23.2236 28.8123C24.5718 29.7048 26.1092 30.2564 27.7081 30.4212C28.0445 30.4539 28.3862 30.4812 28.7386 30.4812C28.9681 30.4812 29.1977 30.4812 29.4113 30.4812C29.5394 30.4812 29.6729 30.4812 29.8117 30.4376C30.0181 30.4261 30.2234 30.3988 30.4257 30.3559C30.6867 30.3218 30.9453 30.2709 31.1999 30.2033C31.6007 30.1017 31.9948 29.9744 32.3798 29.8219C33.5143 29.3748 34.5599 28.7214 35.4658 27.8934C35.8287 27.5518 36.2302 27.2555 36.6617 27.0108C36.9299 26.8542 37.2125 26.7246 37.5053 26.624C37.9468 26.4668 38.4099 26.3823 38.8774 26.3734H39.075C39.7653 26.3702 40.4541 26.4396 41.1305 26.5804C42.1499 26.7952 43.081 27.3215 43.8 28.0895C44.7201 29.0752 45.2343 30.3838 45.2363 31.7451V54.1145C45.2363 54.278 45.2363 54.4414 45.2363 54.5994C45.2032 54.9229 45.1387 55.2423 45.044 55.5528C44.8631 56.15 44.5693 56.7053 44.1791 57.1872L43.8748 57.525C43.77 57.6384 43.6556 57.7423 43.5331 57.8355C42.8166 58.4407 41.9427 58.8194 41.0184 58.9251H40.9169C40.8298 58.931 40.7424 58.931 40.6553 58.9251C40.6056 58.9303 40.5555 58.9303 40.5058 58.9251H18.5357C17.3478 58.9202 16.1948 59.3346 15.2723 60.0982C14.3498 60.8618 13.7145 61.9276 13.4743 63.1146C13.3306 63.806 13.2572 64.5107 13.2553 65.2175V65.4027C13.326 66.6952 13.8423 67.9207 14.7129 68.8622C15.8076 70.1027 16.5852 71.5998 16.9767 73.2206C17.1742 74.0408 17.2746 74.8821 17.2757 75.7267C17.3038 77.1727 17.0347 78.6088 16.4856 79.9422C15.9365 81.2756 15.1197 82.4768 14.0878 83.4683C13.0559 84.4599 11.8318 85.2197 10.4944 85.6989C9.15704 86.1781 7.73613 86.366 6.32324 86.2505C4.91035 86.135 3.53687 85.7186 2.29135 85.0282C1.04584 84.3378 -0.0440732 83.3888 -0.908098 82.2422C-1.77212 81.0957 -2.39109 79.7771 -2.72508 78.3715C-3.05907 76.9658 -3.10068 75.5044 -2.84722 74.0814C-2.79917 73.8036 -2.74577 73.5366 -2.67636 73.2478C-2.27775 71.6321 -1.50512 70.1375 -0.423302 68.8895C0.445971 67.9572 0.957638 66.7371 1.01825 65.4518V65.2557C1.02163 64.5494 0.953635 63.8447 0.815361 63.1527C0.570083 61.9662 -0.0680276 60.902 -0.991716 60.1391C-1.9154 59.3761 -3.06835 58.9609 -4.25673 58.9632H-26.1468C-26.1965 58.9685 -26.2466 58.9685 -26.2963 58.9632C-26.3834 58.9692 -26.4708 58.9692 -26.5579 58.9632H-26.6594C-27.5836 58.8575 -28.4576 58.4788 -29.1741 57.8736C-29.3077 57.768 -29.4311 57.6494 -29.5425 57.5195C-29.6439 57.4106 -29.756 57.2962 -29.8468 57.1817C-29.8468 57.1817 -29.8468 57.1817 -29.8788 57.1436C-30.1624 56.79 -30.3927 56.3952 -30.5622 55.9723C-30.6318 55.8319 -30.6856 55.6838 -30.7224 55.531C-30.8171 55.2204 -30.8815 54.9011 -30.9146 54.5776C-30.9146 54.4196 -30.9146 54.2562 -30.9146 54.0927V31.7342C-30.9172 30.5219 -30.5095 29.3458 -29.7604 28.4048C-29.0114 27.4638 -27.9669 26.8155 -26.8035 26.5695C-26.1272 26.4281 -25.4383 26.3588 -24.748 26.3625H-24.5558C-24.0865 26.3709 -23.6215 26.4555 -23.1783 26.6131C-22.4372 26.8782 -21.7562 27.2932 -21.1762 27.8335C-20.1218 28.8001 -18.8765 29.5246 -17.5243 29.9581C-17.3248 30.0366 -17.1195 30.0985 -16.9103 30.1434C-16.6746 30.2031 -16.4357 30.2485 -16.1948 30.2796C-15.9925 30.3225 -15.7872 30.3499 -15.5808 30.3613C-15.442 30.3613 -15.3085 30.394 -15.1804 30.4049C-14.9668 30.4049 -14.7373 30.4049 -14.5077 30.4049C-14.1553 30.4049 -13.8136 30.4049 -13.4772 30.345C-11.8788 30.1806 -10.342 29.6291 -8.99458 28.7365C-7.64713 27.8439 -6.52802 26.6359 -5.73032 25.213C-5.6446 25.0786 -5.56787 24.9384 -5.50071 24.7935C-5.27472 24.3747 -5.08365 23.9374 -4.92946 23.486C-4.82902 23.2049 -4.74696 22.9173 -4.68385 22.6252C-4.62712 22.4629 -4.58772 22.2949 -4.56637 22.124C-4.56875 22.1189 -4.56999 22.1133 -4.56999 22.1076C-4.56999 22.102 -4.56875 22.0964 -4.56637 22.0913C-4.49697 21.7644 -4.45427 21.443 -4.4169 21.1161C-4.4169 20.9417 -4.38487 20.7674 -4.38487 20.5713C-4.36307 20.2084 -4.36307 19.8445 -4.38487 19.4817C-4.38487 19.3074 -4.38486 19.133 -4.4169 18.9369C-4.45427 18.61 -4.49697 18.2886 -4.56637 17.9617C-4.564 17.9566 -4.56279 17.951 -4.56279 17.9454C-4.56279 17.9397 -4.564 17.9341 -4.56637 17.929C-4.58772 17.7581 -4.62712 17.5901 -4.68385 17.4278C-4.71519 17.2627 -4.75984 17.1005 -4.81733 16.9429C-4.86106 16.7764 -4.91454 16.6126 -4.97749 16.4526C-5.12584 16.0418 -5.30432 15.643 -5.5114 15.2595C-5.57856 15.1145 -5.65525 14.9744 -5.74097 14.84C-6.53867 13.4171 -7.65779 12.2091 -9.00524 11.3165C-10.3527 10.4238 -11.8895 9.8724 -13.4879 9.708C-14.0539 9.65084 -14.6234 9.63991 -15.1911 9.67531C-15.3192 9.67531 -15.4527 9.67532 -15.5915 9.71891C-15.7515 9.72273 -15.9107 9.74279 -16.0667 9.77883C-16.1003 9.77314 -16.1346 9.77314 -16.1681 9.77883C-16.174 9.77594 -16.1803 9.77444 -16.1868 9.77444C-16.1933 9.77444 -16.1997 9.77594 -16.2055 9.77883C-16.4665 9.81286 -16.725 9.86383 -16.9797 9.93139C-17.1889 9.97624 -17.3942 10.0382 -17.5937 10.1166C-18.9489 10.5506 -20.1976 11.275 -21.2562 12.2413C-21.8324 12.7813 -22.5099 13.1964 -23.2477 13.4617C-23.6913 13.6185 -24.1559 13.7048 -24.6252 13.7177H-24.8174C-25.1698 13.7177 -25.5222 13.6905 -25.8852 13.6687C-26.2483 13.6469 -26.5686 13.5761 -26.8943 13.5053C-27.913 13.2889 -28.8437 12.7627 -29.5638 11.9962C-30.486 11.0074 -31.0002 9.69463 -31 8.32966V-14.0071C-31 -14.1814 -31 -14.3449 -31 -14.5028C-30.9669 -14.8263 -30.9025 -15.1457 -30.8078 -15.4562C-30.7641 -15.6068 -30.7106 -15.7542 -30.6476 -15.8975C-30.529 -16.1905 -30.3804 -16.4698 -30.2045 -16.7311C-29.8512 -17.2687 -29.3954 -17.7281 -28.8644 -18.0822L-28.5227 -18.2892C-28.3839 -18.36 -28.2504 -18.4308 -28.1116 -18.4853C-27.6844 -18.6711 -27.2329 -18.7922 -26.7715 -18.8449H-26.67C-26.5829 -18.8508 -26.4955 -18.8508 -26.4084 -18.8449C-26.4084 -18.8449 -26.371 -18.8449 -26.3604 -18.8449C-26.3268 -18.8502 -26.2925 -18.8502 -26.2589 -18.8449H-4.36883C-3.18045 -18.8426 -2.02754 -19.2578 -1.10385 -20.0207C-0.180159 -20.7837 0.457984 -21.8479 0.703262 -23.0344C0.842066 -23.7263 0.910061 -24.4311 0.906148 -25.1373V-25.3334C0.846644 -26.6174 0.334726 -27.8362 -0.535401 -28.7657C-1.61517 -30.0151 -2.38755 -31.5092 -2.7885 -33.1241C-2.8579 -33.4073 -2.9113 -33.6689 -2.95935 -33.963C-3.20472 -35.4799 -3.11587 -37.0335 -2.69927 -38.511C-2.28267 -39.9884 -1.54879 -41.3527 -0.550912 -42.5045C0.446966 -43.6564 1.68376 -44.567 3.06963 -45.1701C4.4555 -45.7733 5.95566 -46.0539 7.46108 -45.9915C8.9665 -45.9291 10.4394 -45.5253 11.7728 -44.8095C13.1061 -44.0936 14.2665 -43.0837 15.1695 -41.853C16.0726 -40.6224 16.6956 -39.2019 16.9934 -37.6949C17.2913 -36.1878 17.2563 -34.632 16.8912 -33.1404C16.4998 -31.5196 15.7222 -30.0225 14.6275 -28.782C13.7568 -27.8404 13.2406 -26.615 13.1699 -25.3225V-25.1373C13.1712 -24.4305 13.2446 -23.7257 13.3888 -23.0344C13.6291 -21.8473 14.2644 -20.7816 15.1869 -20.018C16.1094 -19.2544 17.2624 -18.84 18.4502 -18.8449H40.3724C40.4096 -18.8503 40.4473 -18.8503 40.4845 -18.8449H40.5218C40.609 -18.8508 40.6963 -18.8508 40.7835 -18.8449H40.8849C41.3464 -18.7922 41.7979 -18.6711 42.225 -18.4853C42.3639 -18.4308 42.4973 -18.36 42.6361 -18.2892L42.9778 -18.0822C43.5708 -17.6836 44.07 -17.1559 44.4393 -16.537C44.8085 -15.9181 45.0387 -15.2234 45.1134 -14.5028C45.1134 -14.3449 45.1134 -14.1814 45.1134 -14.0071V8.32966C45.1136 9.69463 44.5994 11.0074 43.6772 11.9962C42.9597 12.7661 42.0279 13.2928 41.0077 13.5053C40.666 13.5761 40.3403 13.6197 39.9986 13.6687C39.6569 13.7177 39.3046 13.7177 38.9308 13.7177H38.7333C38.2658 13.7042 37.8031 13.6179 37.3611 13.4617C36.6233 13.1964 35.9459 12.7813 35.3697 12.2413C34.4583 11.4153 33.4096 10.7622 32.273 10.3127C31.8872 10.1628 31.4932 10.0355 31.0931 9.93139C30.8385 9.86383 30.5799 9.81286 30.3189 9.77883C30.3069 9.77423 30.2936 9.77423 30.2816 9.77883C30.248 9.77314 30.2137 9.77314 30.1801 9.77883C30.0241 9.74279 29.8649 9.72273 29.7049 9.71891C29.5661 9.71891 29.4326 9.68621 29.3045 9.67531C28.7368 9.63991 28.1673 9.65084 27.6014 9.708C26.0024 9.87287 24.465 10.4245 23.1168 11.317C21.7685 12.2095 20.6483 13.4173 19.8491 14.84C19.7651 14.9745 19.6901 15.1146 19.6248 15.2595C19.4178 15.643 19.2393 16.0418 19.0909 16.4526C19.028 16.6126 18.9745 16.7764 18.9307 16.9429C18.874 17.1013 18.8277 17.2632 18.792 17.4278C18.7394 17.5909 18.7019 17.7588 18.6798 17.929C18.6774 17.9341 18.6762 17.9397 18.6762 17.9454C18.6762 17.951 18.6774 17.9566 18.6798 17.9617C18.6104 18.2886 18.5677 18.61 18.5303 18.9369C18.6264 19.2093 18.6264 19.3836 18.6158 19.558Z" fill="#4153A3" stroke="#232D58" stroke-miterlimit="10"/>
<path d="M95.6634 97.2748C95.6416 97.6376 95.6416 98.0015 95.6634 98.3644C95.6634 98.5387 95.6634 98.713 95.6954 98.9092C95.7328 99.236 95.7755 99.5575 95.8449 99.8843C95.8472 99.8894 95.8485 99.895 95.8485 99.9007C95.8485 99.9063 95.8472 99.9119 95.8449 99.917C95.8669 100.087 95.9045 100.255 95.957 100.418C96.0244 100.71 96.1082 100.997 96.2079 101.279C96.3621 101.73 96.5532 102.168 96.7792 102.587C96.8445 102.731 96.9195 102.872 97.0035 103.006C97.8027 104.429 98.9229 105.637 100.271 106.529C101.619 107.422 103.157 107.973 104.756 108.138C105.092 108.171 105.434 108.198 105.786 108.198C106.016 108.198 106.245 108.198 106.459 108.198C106.587 108.198 106.721 108.198 106.859 108.154C107.066 108.143 107.271 108.116 107.473 108.073C107.734 108.039 107.993 107.988 108.248 107.92C108.648 107.819 109.042 107.691 109.427 107.539C110.562 107.092 111.608 106.438 112.513 105.61C112.876 105.269 113.278 104.972 113.709 104.728C113.978 104.571 114.26 104.441 114.553 104.341C114.994 104.184 115.458 104.099 115.925 104.09H116.123C116.813 104.087 117.502 104.156 118.178 104.297C119.197 104.512 120.129 105.038 120.848 105.806C121.768 106.792 122.282 108.101 122.284 109.462V131.831C122.284 131.995 122.284 132.158 122.284 132.316C122.251 132.64 122.186 132.959 122.092 133.27C121.911 133.867 121.617 134.422 121.227 134.904L120.922 135.242C120.818 135.355 120.703 135.459 120.581 135.552C119.864 136.157 118.99 136.536 118.066 136.642H117.965C117.877 136.648 117.79 136.648 117.703 136.642C117.653 136.647 117.603 136.647 117.553 136.642H95.5833C94.3954 136.637 93.2424 137.051 92.3199 137.815C91.3974 138.579 90.7621 139.644 90.5219 140.831C90.3782 141.523 90.3048 142.228 90.3029 142.934V143.12C90.3736 144.412 90.8899 145.637 91.7605 146.579C92.8552 147.82 93.6328 149.317 94.0243 150.937C94.2218 151.758 94.3222 152.599 94.3233 153.443C94.3514 154.89 94.0823 156.326 93.5332 157.659C92.9841 158.992 92.1673 160.194 91.1354 161.185C90.1035 162.177 88.8794 162.937 87.542 163.416C86.2047 163.895 84.7837 164.083 83.3708 163.967C81.958 163.852 80.5845 163.435 79.339 162.745C78.0934 162.055 77.0035 161.106 76.1395 159.959C75.2755 158.812 74.6565 157.494 74.3225 156.088C73.9885 154.683 73.9469 153.221 74.2004 151.798C74.2484 151.52 74.3018 151.253 74.3712 150.965C74.7699 149.349 75.5425 147.854 76.6243 146.606C77.4936 145.674 78.0052 144.454 78.0659 143.169V142.972C78.0692 142.266 78.0012 141.562 77.863 140.87C77.6177 139.683 76.9796 138.619 76.0559 137.856C75.1322 137.093 73.9793 136.678 72.7909 136.68H50.9008C50.8511 136.685 50.801 136.685 50.7513 136.68C50.6642 136.686 50.5768 136.686 50.4897 136.68H50.3883C49.464 136.574 48.59 136.196 47.8736 135.59C47.7399 135.485 47.6165 135.366 47.5052 135.236C47.4037 135.127 47.2916 135.013 47.2008 134.899C47.2008 134.899 47.2008 134.899 47.1688 134.86C46.8852 134.507 46.6549 134.112 46.4854 133.689C46.4158 133.549 46.362 133.401 46.3252 133.248C46.2305 132.937 46.1661 132.618 46.133 132.294C46.133 132.136 46.133 131.973 46.133 131.81V109.451C46.1304 108.239 46.5381 107.063 47.2872 106.122C48.0362 105.181 49.0807 104.532 50.2441 104.286C50.9204 104.145 51.6093 104.076 52.2996 104.079H52.4918C52.9611 104.088 53.4261 104.172 53.8693 104.33C54.6104 104.595 55.2914 105.01 55.8714 105.55C56.9258 106.517 58.1711 107.241 59.5234 107.675C59.7228 107.753 59.9281 107.815 60.1373 107.86C60.373 107.92 60.6119 107.965 60.8528 107.996C61.0551 108.039 61.2604 108.067 61.4668 108.078C61.6056 108.078 61.7391 108.111 61.8672 108.122C62.0808 108.122 62.3103 108.122 62.5399 108.122C62.8923 108.122 63.234 108.122 63.5704 108.062C65.1688 107.897 66.7056 107.346 68.053 106.453C69.4005 105.561 70.5196 104.353 71.3173 102.93C71.403 102.795 71.4797 102.655 71.5469 102.51C71.7729 102.092 71.964 101.654 72.1181 101.203C72.2186 100.922 72.3006 100.634 72.3638 100.342C72.4205 100.18 72.4599 100.012 72.4812 99.8408C72.4789 99.8357 72.4776 99.8301 72.4776 99.8244C72.4776 99.8188 72.4789 99.8132 72.4812 99.8081C72.5506 99.4812 72.5933 99.1598 72.6307 98.8329C72.6307 98.6585 72.6627 98.4842 72.6627 98.2881C72.6845 97.9252 72.6845 97.5613 72.6627 97.1985C72.6627 97.0241 72.6627 96.8498 72.6307 96.6537C72.5933 96.3268 72.5506 96.0054 72.4812 95.6785C72.4836 95.6734 72.4848 95.6678 72.4848 95.6621C72.4848 95.6565 72.4836 95.6509 72.4812 95.6458C72.4599 95.4749 72.4205 95.3068 72.3638 95.1446C72.3324 94.9795 72.2878 94.8173 72.2303 94.6597C72.1866 94.4932 72.1331 94.3294 72.0701 94.1694C71.9218 93.7586 71.7433 93.3598 71.5362 92.9763C71.4691 92.8313 71.3924 92.6912 71.3066 92.5568C70.5089 91.1339 69.3898 89.9259 68.0424 89.0333C66.6949 88.1406 65.1581 87.5892 63.5597 87.4248C62.9937 87.3676 62.4242 87.3567 61.8565 87.3921C61.7284 87.3921 61.5949 87.3921 61.4561 87.4357C61.2961 87.4395 61.137 87.4596 60.9809 87.4956C60.9473 87.4899 60.913 87.4899 60.8795 87.4956C60.8736 87.4927 60.8673 87.4912 60.8608 87.4912C60.8543 87.4912 60.8479 87.4927 60.8421 87.4956C60.5811 87.5297 60.3226 87.5806 60.0679 87.6482C59.8588 87.693 59.6534 87.755 59.4539 87.8334C58.0987 88.2674 56.85 88.9918 55.7914 89.9581C55.2152 90.4981 54.5377 90.9132 53.7999 91.1785C53.3563 91.3353 52.8917 91.4216 52.4224 91.4345H52.2302C51.8778 91.4345 51.5254 91.4073 51.1624 91.3855C50.7993 91.3637 50.479 91.2929 50.1533 91.2221C49.1346 91.0057 48.2039 90.4795 47.4838 89.713C46.5616 88.7242 46.0474 87.4114 46.0476 86.0465V63.7097C46.0476 63.5354 46.0476 63.3719 46.0476 63.214C46.0807 62.8905 46.1451 62.5711 46.2398 62.2606C46.2835 62.11 46.337 61.9626 46.4 61.8193C46.5186 61.5263 46.6672 61.247 46.8431 60.9857C47.1964 60.4481 47.6522 59.9887 48.1832 59.6346L48.5249 59.4276C48.6637 59.3568 48.7972 59.286 48.936 59.2315C49.3632 59.0457 49.8147 58.9246 50.2761 58.8719H50.3776C50.4647 58.866 50.5521 58.866 50.6392 58.8719C50.6392 58.8719 50.6766 58.8719 50.6872 58.8719C50.7209 58.8666 50.7551 58.8666 50.7887 58.8719H72.6788C73.8672 58.8742 75.0201 58.459 75.9438 57.6961C76.8674 56.9331 77.5056 55.8689 77.7509 54.6824C77.8897 53.9905 77.9577 53.2857 77.9538 52.5795V52.3834C77.8943 51.0994 77.3823 49.8806 76.5122 48.9511C75.4324 47.7017 74.6601 46.2076 74.2591 44.5927C74.1897 44.3095 74.1363 44.0479 74.0883 43.7538C73.8429 42.2369 73.9317 40.6833 74.3483 39.2058C74.7649 37.7283 75.4988 36.3641 76.4967 35.2123C77.4946 34.0604 78.7314 33.1498 80.1172 32.5467C81.5031 31.9435 83.0033 31.6629 84.5087 31.7253C86.0141 31.7877 87.487 32.1915 88.8204 32.9073C90.1537 33.6232 91.3141 34.6331 92.2171 35.8638C93.1202 37.0944 93.7432 38.5149 94.0411 40.0219C94.3389 41.529 94.3039 43.0848 93.9388 44.5764C93.5474 46.1972 92.7698 47.6943 91.6751 48.9348C90.8045 49.8764 90.2882 51.1017 90.2175 52.3943V52.5795C90.2188 53.2863 90.2922 53.9911 90.4364 54.6824C90.6767 55.8695 91.312 56.9352 92.2345 57.6988C93.157 58.4624 94.31 58.8768 95.4979 58.8719H117.42C117.457 58.8665 117.495 58.8665 117.532 58.8719H117.569C117.657 58.866 117.744 58.866 117.831 58.8719H117.933C118.394 58.9246 118.845 59.0457 119.273 59.2315C119.411 59.286 119.545 59.3568 119.684 59.4276L120.025 59.6346C120.618 60.0332 121.118 60.5609 121.487 61.1798C121.856 61.7987 122.086 62.4934 122.161 63.214C122.161 63.3719 122.161 63.5354 122.161 63.7097V86.0465C122.161 87.4114 121.647 88.7242 120.725 89.713C120.007 90.4829 119.076 91.0096 118.055 91.2221C117.714 91.2929 117.388 91.3365 117.046 91.3855C116.705 91.4345 116.352 91.4345 115.978 91.4345H115.781C115.313 91.421 114.851 91.3347 114.409 91.1785C113.671 90.9132 112.993 90.4981 112.417 89.9581C111.506 89.1321 110.457 88.479 109.321 88.0295C108.935 87.8796 108.541 87.7523 108.141 87.6482C107.886 87.5806 107.628 87.5297 107.367 87.4956C107.354 87.491 107.341 87.491 107.329 87.4956C107.296 87.4899 107.261 87.4899 107.228 87.4956C107.072 87.4596 106.912 87.4395 106.753 87.4357C106.614 87.4357 106.48 87.403 106.352 87.3921C105.784 87.3567 105.215 87.3676 104.649 87.4248C103.05 87.5897 101.513 88.1413 100.164 89.0338C98.8161 89.9263 97.6959 91.1341 96.8967 92.5568C96.8127 92.6913 96.7378 92.8314 96.6725 92.9763C96.4654 93.3598 96.2869 93.7586 96.1385 94.1694C96.0756 94.3294 96.0221 94.4932 95.9784 94.6597C95.9216 94.8181 95.8753 94.98 95.8396 95.1446C95.787 95.3077 95.7495 95.4756 95.7274 95.6458C95.7251 95.6509 95.7238 95.6565 95.7238 95.6621C95.7238 95.6678 95.7251 95.6734 95.7274 95.6785C95.658 96.0054 95.6153 96.3268 95.5779 96.6537C95.674 96.9261 95.674 97.1004 95.6634 97.2748Z" fill="#4153A3" stroke="#232D58" stroke-miterlimit="10"/>
<path d="M95.6634 -58.442C95.6416 -58.0792 95.6416 -57.7153 95.6634 -57.3524C95.6634 -57.1781 95.6634 -57.0038 95.6954 -56.8076C95.7328 -56.4808 95.7755 -56.1593 95.8449 -55.8325C95.8472 -55.8274 95.8485 -55.8218 95.8485 -55.8161C95.8485 -55.8104 95.8472 -55.8049 95.8449 -55.7998C95.8669 -55.6295 95.9045 -55.4617 95.957 -55.2985C96.0244 -55.0069 96.1082 -54.7196 96.2079 -54.4378C96.3621 -53.9864 96.5532 -53.549 96.7792 -53.1302C96.8445 -52.9854 96.9195 -52.8452 97.0035 -52.7107C97.8027 -51.288 98.9229 -50.0803 100.271 -49.1877C101.619 -48.2952 103.157 -47.7436 104.756 -47.5788C105.092 -47.5461 105.434 -47.5188 105.786 -47.5188C106.016 -47.5188 106.245 -47.5188 106.459 -47.5188C106.587 -47.5188 106.721 -47.5188 106.859 -47.5624C107.066 -47.5739 107.271 -47.6012 107.473 -47.6441C107.734 -47.6782 107.993 -47.7291 108.248 -47.7967C108.648 -47.8983 109.042 -48.0256 109.427 -48.1781C110.562 -48.6252 111.608 -49.2786 112.513 -50.1066C112.876 -50.4482 113.278 -50.7445 113.709 -50.9892C113.978 -51.1458 114.26 -51.2754 114.553 -51.376C114.994 -51.5332 115.458 -51.6177 115.925 -51.6266H116.123C116.813 -51.6298 117.502 -51.5604 118.178 -51.4196C119.197 -51.2048 120.129 -50.6785 120.848 -49.9105C121.768 -48.9248 122.282 -47.6162 122.284 -46.2549V-23.8855C122.284 -23.722 122.284 -23.5586 122.284 -23.4006C122.251 -23.0771 122.186 -22.7577 122.092 -22.4472C121.911 -21.85 121.617 -21.2947 121.227 -20.8128L120.922 -20.475C120.818 -20.3616 120.703 -20.2577 120.581 -20.1645C119.864 -19.5593 118.99 -19.1806 118.066 -19.0749H117.965C117.877 -19.069 117.79 -19.069 117.703 -19.0749C117.653 -19.0697 117.603 -19.0697 117.553 -19.0749H95.5833C94.3954 -19.0798 93.2424 -18.6654 92.3199 -17.9018C91.3974 -17.1382 90.7621 -16.0724 90.5219 -14.8854C90.3782 -14.194 90.3048 -13.4893 90.3029 -12.7825V-12.5973C90.3736 -11.3048 90.8899 -10.0793 91.7605 -9.13778C92.8552 -7.8973 93.6328 -6.40019 94.0243 -4.77939C94.2218 -3.95924 94.3222 -3.11788 94.3233 -2.27333C94.3514 -0.827276 94.0823 0.608763 93.5332 1.94218C92.9841 3.27559 92.1673 4.4768 91.1354 5.46834C90.1035 6.45987 88.8794 7.2197 87.542 7.6989C86.2047 8.1781 84.7837 8.36601 83.3708 8.25048C81.958 8.13496 80.5845 7.71859 79.339 7.02821C78.0934 6.33783 77.0035 5.38876 76.1395 4.24221C75.2755 3.09565 74.6565 1.77707 74.3225 0.371457C73.9885 -1.03416 73.9469 -2.49557 74.2004 -3.9186C74.2484 -4.19644 74.3018 -4.46341 74.3712 -4.75216C74.7699 -6.36791 75.5425 -7.86253 76.6243 -9.11054C77.4936 -10.0428 78.0052 -11.2629 78.0659 -12.5482V-12.7443C78.0692 -13.4506 78.0012 -14.1553 77.863 -14.8473C77.6177 -16.0338 76.9796 -17.098 76.0559 -17.8609C75.1322 -18.6239 73.9793 -19.0391 72.7909 -19.0368H50.9008C50.8511 -19.0315 50.801 -19.0315 50.7513 -19.0368C50.6642 -19.0308 50.5768 -19.0308 50.4897 -19.0368H50.3883C49.464 -19.1425 48.59 -19.5212 47.8736 -20.1264C47.7399 -20.232 47.6165 -20.3506 47.5052 -20.4805C47.4037 -20.5894 47.2916 -20.7038 47.2008 -20.8183C47.2008 -20.8183 47.2008 -20.8183 47.1688 -20.8564C46.8852 -21.21 46.6549 -21.6048 46.4854 -22.0277C46.4158 -22.1681 46.362 -22.3162 46.3252 -22.469C46.2305 -22.7796 46.1661 -23.0989 46.133 -23.4224C46.133 -23.5804 46.133 -23.7438 46.133 -23.9073V-46.2658C46.1304 -47.4781 46.5381 -48.6542 47.2872 -49.5952C48.0362 -50.5362 49.0807 -51.1845 50.2441 -51.4305C50.9204 -51.5719 51.6093 -51.6412 52.2996 -51.6375H52.4918C52.9611 -51.6291 53.4261 -51.5445 53.8693 -51.3869C54.6104 -51.1218 55.2914 -50.7068 55.8714 -50.1665C56.9258 -49.1999 58.1711 -48.4754 59.5234 -48.0419C59.7228 -47.9634 59.9281 -47.9015 60.1373 -47.8566C60.373 -47.7969 60.6119 -47.7515 60.8528 -47.7204C61.0551 -47.6775 61.2604 -47.6501 61.4668 -47.6387C61.6056 -47.6387 61.7391 -47.606 61.8672 -47.5951C62.0808 -47.5951 62.3103 -47.5951 62.5399 -47.5951C62.8923 -47.5951 63.234 -47.5951 63.5704 -47.655C65.1688 -47.8194 66.7056 -48.3709 68.053 -49.2635C69.4005 -50.1561 70.5196 -51.3641 71.3173 -52.787C71.403 -52.9214 71.4797 -53.0616 71.5469 -53.2065C71.7729 -53.6253 71.964 -54.0626 72.1181 -54.514C72.2186 -54.7951 72.3006 -55.0827 72.3638 -55.3748C72.4205 -55.5371 72.4599 -55.7051 72.4812 -55.876C72.4789 -55.8811 72.4776 -55.8867 72.4776 -55.8924C72.4776 -55.898 72.4789 -55.9036 72.4812 -55.9087C72.5506 -56.2356 72.5933 -56.557 72.6307 -56.8839C72.6307 -57.0583 72.6627 -57.2326 72.6627 -57.4287C72.6845 -57.7916 72.6845 -58.1555 72.6627 -58.5183C72.6627 -58.6926 72.6627 -58.867 72.6307 -59.0631C72.5933 -59.39 72.5506 -59.7114 72.4812 -60.0383C72.4836 -60.0434 72.4848 -60.049 72.4848 -60.0546C72.4848 -60.0603 72.4836 -60.0659 72.4812 -60.071C72.4599 -60.2419 72.4205 -60.4099 72.3638 -60.5722C72.3324 -60.7373 72.2878 -60.8995 72.2303 -61.0571C72.1866 -61.2236 72.1331 -61.3874 72.0701 -61.5474C71.9218 -61.9582 71.7433 -62.357 71.5362 -62.7405C71.4691 -62.8855 71.3924 -63.0256 71.3066 -63.16C70.5089 -64.5829 69.3898 -65.7909 68.0424 -66.6835C66.6949 -67.5762 65.1581 -68.1276 63.5597 -68.292C62.9937 -68.3492 62.4242 -68.3601 61.8565 -68.3247C61.7284 -68.3247 61.5949 -68.3247 61.4561 -68.2811C61.2961 -68.2773 61.137 -68.2572 60.9809 -68.2212C60.9473 -68.2269 60.913 -68.2269 60.8795 -68.2212C60.8736 -68.2241 60.8673 -68.2256 60.8608 -68.2256C60.8543 -68.2256 60.8479 -68.2241 60.8421 -68.2212C60.5811 -68.1871 60.3226 -68.1362 60.0679 -68.0686C59.8588 -68.0238 59.6534 -67.9618 59.4539 -67.8834C58.0987 -67.4494 56.85 -66.725 55.7914 -65.7587C55.2152 -65.2187 54.5377 -64.8036 53.7999 -64.5383C53.3563 -64.3815 52.8917 -64.2952 52.4224 -64.2823H52.2302C51.8778 -64.2823 51.5254 -64.3095 51.1624 -64.3313C50.7993 -64.3531 50.479 -64.4239 50.1533 -64.4947C49.1346 -64.7111 48.2039 -65.2373 47.4838 -66.0038C46.5616 -66.9926 46.0474 -68.3054 46.0476 -69.6703V-92.0071C46.0476 -92.1814 46.0476 -92.3449 46.0476 -92.5028C46.0807 -92.8263 46.1451 -93.1457 46.2398 -93.4562C46.2835 -93.6068 46.337 -93.7542 46.4 -93.8975C46.5186 -94.1905 46.6672 -94.4698 46.8431 -94.7311C47.1964 -95.2687 47.6522 -95.7281 48.1832 -96.0822L48.5249 -96.2892C48.6637 -96.36 48.7972 -96.4308 48.936 -96.4853C49.3632 -96.6711 49.8147 -96.7922 50.2761 -96.8449H50.3776C50.4647 -96.8508 50.5521 -96.8508 50.6392 -96.8449C50.6392 -96.8449 50.6766 -96.8449 50.6872 -96.8449C50.7209 -96.8502 50.7551 -96.8502 50.7887 -96.8449H72.6788C73.8672 -96.8426 75.0201 -97.2578 75.9438 -98.0207C76.8674 -98.7837 77.5056 -99.8479 77.7509 -101.034C77.8897 -101.726 77.9577 -102.431 77.9538 -103.137V-103.333C77.8943 -104.617 77.3823 -105.836 76.5122 -106.766C75.4324 -108.015 74.6601 -109.509 74.2591 -111.124C74.1897 -111.407 74.1363 -111.669 74.0883 -111.963C73.8429 -113.48 73.9317 -115.034 74.3483 -116.511C74.7649 -117.988 75.4988 -119.353 76.4967 -120.505C77.4946 -121.656 78.7314 -122.567 80.1172 -123.17C81.5031 -123.773 83.0033 -124.054 84.5087 -123.991C86.0141 -123.929 87.487 -123.525 88.8204 -122.809C90.1537 -122.094 91.3141 -121.084 92.2171 -119.853C93.1202 -118.622 93.7432 -117.202 94.0411 -115.695C94.3389 -114.188 94.3039 -112.632 93.9388 -111.14C93.5474 -109.52 92.7698 -108.022 91.6751 -106.782C90.8045 -105.84 90.2882 -104.615 90.2175 -103.323V-103.137C90.2188 -102.43 90.2922 -101.726 90.4364 -101.034C90.6767 -99.8473 91.312 -98.7816 92.2345 -98.018C93.157 -97.2544 94.31 -96.84 95.4979 -96.8449H117.42C117.457 -96.8503 117.495 -96.8503 117.532 -96.8449H117.569C117.657 -96.8508 117.744 -96.8508 117.831 -96.8449H117.933C118.394 -96.7922 118.845 -96.6711 119.273 -96.4853C119.411 -96.4308 119.545 -96.36 119.684 -96.2892L120.025 -96.0822C120.618 -95.6836 121.118 -95.1559 121.487 -94.537C121.856 -93.9181 122.086 -93.2234 122.161 -92.5028C122.161 -92.3449 122.161 -92.1814 122.161 -92.0071V-69.6703C122.161 -68.3054 121.647 -66.9926 120.725 -66.0038C120.007 -65.2339 119.076 -64.7072 118.055 -64.4947C117.714 -64.4239 117.388 -64.3803 117.046 -64.3313C116.705 -64.2823 116.352 -64.2823 115.978 -64.2823H115.781C115.313 -64.2958 114.851 -64.3821 114.409 -64.5383C113.671 -64.8036 112.993 -65.2187 112.417 -65.7587C111.506 -66.5847 110.457 -67.2378 109.321 -67.6873C108.935 -67.8372 108.541 -67.9645 108.141 -68.0686C107.886 -68.1362 107.628 -68.1871 107.367 -68.2212C107.354 -68.2258 107.341 -68.2258 107.329 -68.2212C107.296 -68.2269 107.261 -68.2269 107.228 -68.2212C107.072 -68.2572 106.912 -68.2773 106.753 -68.2811C106.614 -68.2811 106.48 -68.3138 106.352 -68.3247C105.784 -68.3601 105.215 -68.3492 104.649 -68.292C103.05 -68.1271 101.513 -67.5755 100.164 -66.683C98.8161 -65.7905 97.6959 -64.5827 96.8967 -63.16C96.8127 -63.0255 96.7378 -62.8854 96.6725 -62.7405C96.4654 -62.357 96.2869 -61.9582 96.1385 -61.5474C96.0756 -61.3874 96.0221 -61.2236 95.9784 -61.0571C95.9216 -60.8987 95.8753 -60.7368 95.8396 -60.5722C95.787 -60.4091 95.7495 -60.2412 95.7274 -60.071C95.7251 -60.0659 95.7238 -60.0603 95.7238 -60.0546C95.7238 -60.049 95.7251 -60.0434 95.7274 -60.0383C95.658 -59.7114 95.6153 -59.39 95.5779 -59.0631C95.674 -58.7907 95.674 -58.6164 95.6634 -58.442Z" fill="#4153A3" stroke="#232D58" stroke-miterlimit="10"/>
<path d="M249.616 -58.442C249.594 -58.0792 249.594 -57.7153 249.616 -57.3524C249.616 -57.1781 249.616 -57.0038 249.648 -56.8076C249.685 -56.4808 249.728 -56.1593 249.797 -55.8325C249.8 -55.8274 249.801 -55.8218 249.801 -55.8161C249.801 -55.8104 249.8 -55.8049 249.797 -55.7998C249.819 -55.6295 249.857 -55.4617 249.909 -55.2985C249.977 -55.0069 250.061 -54.7196 250.16 -54.4378C250.315 -53.9864 250.506 -53.549 250.732 -53.1302C250.797 -52.9854 250.872 -52.8452 250.956 -52.7107C251.755 -51.288 252.875 -50.0803 254.224 -49.1877C255.572 -48.2952 257.109 -47.7436 258.708 -47.5788C259.044 -47.5461 259.386 -47.5188 259.739 -47.5188C259.968 -47.5188 260.198 -47.5188 260.411 -47.5188C260.539 -47.5188 260.673 -47.5188 260.812 -47.5624C261.018 -47.5739 261.223 -47.6012 261.426 -47.6441C261.687 -47.6782 261.945 -47.7291 262.2 -47.7967C262.601 -47.8983 262.995 -48.0256 263.38 -48.178C264.514 -48.6252 265.56 -49.2786 266.466 -50.1066C266.829 -50.4482 267.23 -50.7445 267.662 -50.9892C267.93 -51.1458 268.212 -51.2754 268.505 -51.376C268.947 -51.5332 269.41 -51.6177 269.877 -51.6266H270.075C270.765 -51.6298 271.454 -51.5604 272.131 -51.4196C273.15 -51.2048 274.081 -50.6785 274.8 -49.9105C275.72 -48.9248 276.234 -47.6162 276.236 -46.2549V-23.8855C276.236 -23.722 276.236 -23.5586 276.236 -23.4006C276.203 -23.0771 276.139 -22.7577 276.044 -22.4472C275.863 -21.85 275.569 -21.2947 275.179 -20.8128L274.875 -20.475C274.77 -20.3616 274.656 -20.2577 274.533 -20.1645C273.817 -19.5593 272.943 -19.1806 272.018 -19.0749H271.917C271.83 -19.069 271.742 -19.069 271.655 -19.0749C271.606 -19.0697 271.556 -19.0697 271.506 -19.0749H249.536C248.348 -19.0798 247.195 -18.6654 246.272 -17.9018C245.35 -17.1382 244.715 -16.0724 244.474 -14.8854C244.331 -14.194 244.257 -13.4893 244.255 -12.7825V-12.5973C244.326 -11.3048 244.842 -10.0793 245.713 -9.13778C246.808 -7.8973 247.585 -6.40019 247.977 -4.77939C248.174 -3.95924 248.275 -3.11788 248.276 -2.27333C248.304 -0.827277 248.035 0.608765 247.486 1.94218C246.937 3.27559 246.12 4.4768 245.088 5.46834C244.056 6.45987 242.832 7.2197 241.494 7.6989C240.157 8.1781 238.736 8.36601 237.323 8.25049C235.91 8.13497 234.537 7.71859 233.291 7.02821C232.046 6.33783 230.956 5.38876 230.092 4.2422C229.228 3.09565 228.609 1.77707 228.275 0.37146C227.941 -1.03415 227.899 -2.49557 228.153 -3.91859C228.201 -4.19644 228.254 -4.46341 228.324 -4.75215C228.722 -6.36791 229.495 -7.86253 230.577 -9.11054C231.446 -10.0428 231.958 -11.2629 232.018 -12.5482V-12.7443C232.022 -13.4506 231.954 -14.1553 231.815 -14.8473C231.57 -16.0338 230.932 -17.098 230.008 -17.8609C229.085 -18.6239 227.932 -19.0391 226.743 -19.0368H204.853C204.803 -19.0315 204.753 -19.0315 204.704 -19.0368C204.617 -19.0308 204.529 -19.0308 204.442 -19.0368H204.341C203.416 -19.1425 202.542 -19.5212 201.826 -20.1264C201.692 -20.232 201.569 -20.3506 201.458 -20.4805C201.356 -20.5894 201.244 -20.7038 201.153 -20.8183C201.153 -20.8183 201.153 -20.8183 201.121 -20.8564C200.838 -21.21 200.607 -21.6048 200.438 -22.0277C200.368 -22.1681 200.314 -22.3162 200.278 -22.469C200.183 -22.7796 200.119 -23.0989 200.085 -23.4224C200.085 -23.5804 200.085 -23.7438 200.085 -23.9073V-46.2658C200.083 -47.4781 200.491 -48.6542 201.24 -49.5952C201.989 -50.5362 203.033 -51.1845 204.196 -51.4305C204.873 -51.5719 205.562 -51.6412 206.252 -51.6375H206.444C206.914 -51.6291 207.378 -51.5445 207.822 -51.3869C208.563 -51.1218 209.244 -50.7068 209.824 -50.1665C210.878 -49.1999 212.124 -48.4754 213.476 -48.0418C213.675 -47.9634 213.881 -47.9015 214.09 -47.8566C214.325 -47.7969 214.564 -47.7515 214.805 -47.7204C215.008 -47.6775 215.213 -47.6501 215.419 -47.6387C215.558 -47.6387 215.691 -47.606 215.82 -47.5951C216.033 -47.5951 216.263 -47.5951 216.492 -47.5951C216.845 -47.5951 217.186 -47.5951 217.523 -47.655C219.121 -47.8194 220.658 -48.3709 222.005 -49.2635C223.353 -50.1561 224.472 -51.3641 225.27 -52.787C225.355 -52.9214 225.432 -53.0616 225.499 -53.2065C225.725 -53.6253 225.916 -54.0626 226.071 -54.514C226.171 -54.7951 226.253 -55.0827 226.316 -55.3748C226.373 -55.5371 226.412 -55.7051 226.434 -55.876C226.431 -55.8811 226.43 -55.8867 226.43 -55.8924C226.43 -55.898 226.431 -55.9036 226.434 -55.9087C226.503 -56.2356 226.546 -56.557 226.583 -56.8839C226.583 -57.0583 226.615 -57.2326 226.615 -57.4287C226.637 -57.7916 226.637 -58.1555 226.615 -58.5183C226.615 -58.6926 226.615 -58.867 226.583 -59.0631C226.546 -59.39 226.503 -59.7114 226.434 -60.0383C226.436 -60.0434 226.437 -60.049 226.437 -60.0546C226.437 -60.0603 226.436 -60.0659 226.434 -60.071C226.412 -60.2419 226.373 -60.4099 226.316 -60.5722C226.285 -60.7373 226.24 -60.8995 226.183 -61.0571C226.139 -61.2236 226.085 -61.3874 226.023 -61.5474C225.874 -61.9582 225.696 -62.357 225.489 -62.7405C225.421 -62.8855 225.345 -63.0256 225.259 -63.16C224.461 -64.5829 223.342 -65.7909 221.995 -66.6835C220.647 -67.5762 219.11 -68.1276 217.512 -68.292C216.946 -68.3492 216.377 -68.3601 215.809 -68.3247C215.681 -68.3247 215.547 -68.3247 215.408 -68.2811C215.249 -68.2773 215.089 -68.2572 214.933 -68.2212C214.9 -68.2269 214.865 -68.2269 214.832 -68.2212C214.826 -68.2241 214.82 -68.2256 214.813 -68.2256C214.807 -68.2256 214.8 -68.2241 214.794 -68.2212C214.534 -68.1871 214.275 -68.1362 214.02 -68.0686C213.811 -68.0238 213.606 -67.9618 213.406 -67.8834C212.051 -67.4494 210.802 -66.725 209.744 -65.7587C209.168 -65.2187 208.49 -64.8036 207.752 -64.5383C207.309 -64.3815 206.844 -64.2952 206.375 -64.2823H206.183C205.83 -64.2823 205.478 -64.3095 205.115 -64.3313C204.752 -64.3531 204.431 -64.4239 204.106 -64.4947C203.087 -64.7111 202.156 -65.2373 201.436 -66.0038C200.514 -66.9926 200 -68.3054 200 -69.6703V-92.0071C200 -92.1814 200 -92.3449 200 -92.5028C200.033 -92.8263 200.097 -93.1457 200.192 -93.4562C200.236 -93.6068 200.289 -93.7542 200.352 -93.8975C200.471 -94.1905 200.62 -94.4698 200.796 -94.7311C201.149 -95.2687 201.605 -95.7281 202.136 -96.0822L202.477 -96.2892C202.616 -96.36 202.75 -96.4308 202.888 -96.4853C203.316 -96.6711 203.767 -96.7922 204.229 -96.8449H204.33C204.417 -96.8508 204.504 -96.8508 204.592 -96.8449C204.592 -96.8449 204.629 -96.8449 204.64 -96.8449C204.673 -96.8502 204.707 -96.8502 204.741 -96.8449H226.631C227.82 -96.8426 228.972 -97.2578 229.896 -98.0207C230.82 -98.7837 231.458 -99.8479 231.703 -101.034C231.842 -101.726 231.91 -102.431 231.906 -103.137V-103.333C231.847 -104.617 231.335 -105.836 230.465 -106.766C229.385 -108.015 228.612 -109.509 228.212 -111.124C228.142 -111.407 228.089 -111.669 228.041 -111.963C227.795 -113.48 227.884 -115.034 228.301 -116.511C228.717 -117.988 229.451 -119.353 230.449 -120.505C231.447 -121.656 232.684 -122.567 234.07 -123.17C235.455 -123.773 236.956 -124.054 238.461 -123.991C239.966 -123.929 241.439 -123.525 242.773 -122.809C244.106 -122.094 245.266 -121.084 246.17 -119.853C247.073 -118.622 247.696 -117.202 247.993 -115.695C248.291 -114.188 248.256 -112.632 247.891 -111.14C247.5 -109.52 246.722 -108.022 245.627 -106.782C244.757 -105.84 244.241 -104.615 244.17 -103.323V-103.137C244.171 -102.43 244.245 -101.726 244.389 -101.034C244.629 -99.8473 245.264 -98.7816 246.187 -98.018C247.109 -97.2544 248.262 -96.84 249.45 -96.8449H271.372C271.41 -96.8503 271.447 -96.8503 271.484 -96.8449H271.522C271.609 -96.8508 271.696 -96.8508 271.783 -96.8449H271.885C272.346 -96.7922 272.798 -96.6711 273.225 -96.4853C273.364 -96.4308 273.497 -96.36 273.636 -96.2892L273.978 -96.0822C274.571 -95.6836 275.07 -95.1559 275.439 -94.537C275.809 -93.9181 276.039 -93.2234 276.113 -92.5028C276.113 -92.3449 276.113 -92.1814 276.113 -92.0071V-69.6703C276.114 -68.3054 275.599 -66.9926 274.677 -66.0038C273.96 -65.2339 273.028 -64.7072 272.008 -64.4947C271.666 -64.4239 271.34 -64.3803 270.999 -64.3313C270.657 -64.2823 270.305 -64.2823 269.931 -64.2823H269.733C269.266 -64.2958 268.803 -64.3821 268.361 -64.5383C267.623 -64.8036 266.946 -65.2187 266.37 -65.7587C265.458 -66.5847 264.41 -67.2378 263.273 -67.6873C262.887 -67.8372 262.493 -67.9645 262.093 -68.0686C261.838 -68.1362 261.58 -68.1871 261.319 -68.2212C261.307 -68.2258 261.294 -68.2258 261.282 -68.2212C261.248 -68.2269 261.214 -68.2269 261.18 -68.2212C261.024 -68.2572 260.865 -68.2773 260.705 -68.2811C260.566 -68.2811 260.433 -68.3138 260.305 -68.3247C259.737 -68.3601 259.167 -68.3492 258.601 -68.292C257.002 -68.1271 255.465 -67.5755 254.117 -66.683C252.769 -65.7905 251.648 -64.5827 250.849 -63.16C250.765 -63.0255 250.69 -62.8854 250.625 -62.7405C250.418 -62.357 250.239 -61.9582 250.091 -61.5474C250.028 -61.3874 249.974 -61.2236 249.931 -61.0571C249.874 -60.8987 249.828 -60.7368 249.792 -60.5722C249.739 -60.4091 249.702 -60.2412 249.68 -60.071C249.677 -60.0659 249.676 -60.0603 249.676 -60.0546C249.676 -60.049 249.677 -60.0434 249.68 -60.0383C249.61 -59.7114 249.568 -59.39 249.53 -59.0631C249.626 -58.7907 249.626 -58.6164 249.616 -58.442Z" fill="#4153A3" stroke="#232D58" stroke-miterlimit="10"/>
<path d="M172.616 19.558C172.594 19.9208 172.594 20.2847 172.616 20.6476C172.616 20.8219 172.616 20.9962 172.648 21.1924C172.685 21.5192 172.728 21.8407 172.797 22.1675C172.8 22.1726 172.801 22.1782 172.801 22.1839C172.801 22.1896 172.8 22.1951 172.797 22.2002C172.819 22.3705 172.857 22.5383 172.909 22.7015C172.977 22.9931 173.061 23.2804 173.16 23.5622C173.315 24.0136 173.506 24.451 173.732 24.8698C173.797 25.0146 173.872 25.1548 173.956 25.2893C174.755 26.712 175.875 27.9197 177.224 28.8123C178.572 29.7048 180.109 30.2564 181.708 30.4212C182.044 30.4539 182.386 30.4812 182.739 30.4812C182.968 30.4812 183.198 30.4812 183.411 30.4812C183.539 30.4812 183.673 30.4812 183.812 30.4376C184.018 30.4261 184.223 30.3988 184.426 30.3559C184.687 30.3218 184.945 30.2709 185.2 30.2033C185.601 30.1017 185.995 29.9744 186.38 29.8219C187.514 29.3748 188.56 28.7214 189.466 27.8934C189.829 27.5518 190.23 27.2555 190.662 27.0108C190.93 26.8542 191.212 26.7246 191.505 26.624C191.947 26.4668 192.41 26.3823 192.877 26.3734H193.075C193.765 26.3702 194.454 26.4396 195.131 26.5804C196.15 26.7952 197.081 27.3215 197.8 28.0895C198.72 29.0752 199.234 30.3838 199.236 31.7451V54.1145C199.236 54.278 199.236 54.4414 199.236 54.5994C199.203 54.9229 199.139 55.2423 199.044 55.5528C198.863 56.15 198.569 56.7053 198.179 57.1872L197.875 57.525C197.77 57.6384 197.656 57.7423 197.533 57.8355C196.817 58.4407 195.943 58.8194 195.018 58.9251H194.917C194.83 58.931 194.742 58.931 194.655 58.9251C194.606 58.9303 194.556 58.9303 194.506 58.9251H172.536C171.348 58.9202 170.195 59.3346 169.272 60.0982C168.35 60.8618 167.715 61.9276 167.474 63.1146C167.331 63.806 167.257 64.5107 167.255 65.2175V65.4027C167.326 66.6952 167.842 67.9207 168.713 68.8622C169.808 70.1027 170.585 71.5998 170.977 73.2206C171.174 74.0408 171.275 74.8821 171.276 75.7267C171.304 77.1727 171.035 78.6088 170.486 79.9422C169.937 81.2756 169.12 82.4768 168.088 83.4683C167.056 84.4599 165.832 85.2197 164.494 85.6989C163.157 86.1781 161.736 86.366 160.323 86.2505C158.91 86.135 157.537 85.7186 156.291 85.0282C155.046 84.3378 153.956 83.3888 153.092 82.2422C152.228 81.0957 151.609 79.7771 151.275 78.3715C150.941 76.9658 150.899 75.5044 151.153 74.0814C151.201 73.8036 151.254 73.5366 151.324 73.2478C151.722 71.6321 152.495 70.1375 153.577 68.8895C154.446 67.9572 154.958 66.7371 155.018 65.4518V65.2557C155.022 64.5494 154.954 63.8447 154.815 63.1527C154.57 61.9662 153.932 60.902 153.008 60.1391C152.085 59.3761 150.932 58.9609 149.743 58.9632H127.853C127.803 58.9685 127.753 58.9685 127.704 58.9632C127.617 58.9692 127.529 58.9692 127.442 58.9632H127.341C126.416 58.8575 125.542 58.4788 124.826 57.8736C124.692 57.768 124.569 57.6494 124.458 57.5195C124.356 57.4106 124.244 57.2962 124.153 57.1817C124.153 57.1817 124.153 57.1817 124.121 57.1436C123.838 56.79 123.607 56.3952 123.438 55.9723C123.368 55.8319 123.314 55.6838 123.278 55.531C123.183 55.2204 123.119 54.9011 123.085 54.5776C123.085 54.4196 123.085 54.2562 123.085 54.0927V31.7342C123.083 30.5219 123.491 29.3458 124.24 28.4048C124.989 27.4638 126.033 26.8155 127.196 26.5695C127.873 26.4281 128.562 26.3588 129.252 26.3625H129.444C129.914 26.3709 130.378 26.4555 130.822 26.6131C131.563 26.8782 132.244 27.2932 132.824 27.8335C133.878 28.8001 135.124 29.5246 136.476 29.9581C136.675 30.0366 136.881 30.0985 137.09 30.1434C137.325 30.2031 137.564 30.2485 137.805 30.2796C138.008 30.3225 138.213 30.3499 138.419 30.3613C138.558 30.3613 138.691 30.394 138.82 30.4049C139.033 30.4049 139.263 30.4049 139.492 30.4049C139.845 30.4049 140.186 30.4049 140.523 30.345C142.121 30.1806 143.658 29.6291 145.005 28.7365C146.353 27.8439 147.472 26.6359 148.27 25.213C148.355 25.0786 148.432 24.9384 148.499 24.7935C148.725 24.3747 148.916 23.9374 149.071 23.486C149.171 23.2049 149.253 22.9173 149.316 22.6252C149.373 22.4629 149.412 22.2949 149.434 22.124C149.431 22.1189 149.43 22.1133 149.43 22.1076C149.43 22.102 149.431 22.0964 149.434 22.0913C149.503 21.7644 149.546 21.443 149.583 21.1161C149.583 20.9417 149.615 20.7674 149.615 20.5713C149.637 20.2084 149.637 19.8445 149.615 19.4817C149.615 19.3074 149.615 19.133 149.583 18.9369C149.546 18.61 149.503 18.2886 149.434 17.9617C149.436 17.9566 149.437 17.951 149.437 17.9454C149.437 17.9397 149.436 17.9341 149.434 17.929C149.412 17.7581 149.373 17.5901 149.316 17.4278C149.285 17.2627 149.24 17.1005 149.183 16.9429C149.139 16.7764 149.085 16.6126 149.023 16.4526C148.874 16.0418 148.696 15.643 148.489 15.2595C148.421 15.1145 148.345 14.9744 148.259 14.84C147.461 13.4171 146.342 12.2091 144.995 11.3165C143.647 10.4238 142.11 9.8724 140.512 9.708C139.946 9.65084 139.377 9.63991 138.809 9.67531C138.681 9.67531 138.547 9.67532 138.408 9.71891C138.249 9.72273 138.089 9.74279 137.933 9.77883C137.9 9.77314 137.865 9.77314 137.832 9.77883C137.826 9.77594 137.82 9.77444 137.813 9.77444C137.807 9.77444 137.8 9.77594 137.794 9.77883C137.534 9.81286 137.275 9.86383 137.02 9.93139C136.811 9.97624 136.606 10.0382 136.406 10.1166C135.051 10.5506 133.802 11.275 132.744 12.2413C132.168 12.7813 131.49 13.1964 130.752 13.4617C130.309 13.6185 129.844 13.7048 129.375 13.7177H129.183C128.83 13.7177 128.478 13.6905 128.115 13.6687C127.752 13.6469 127.431 13.5761 127.106 13.5053C126.087 13.2889 125.156 12.7627 124.436 11.9962C123.514 11.0074 123 9.69463 123 8.32966V-14.0071C123 -14.1814 123 -14.3449 123 -14.5028C123.033 -14.8263 123.097 -15.1457 123.192 -15.4562C123.236 -15.6068 123.289 -15.7542 123.352 -15.8975C123.471 -16.1905 123.62 -16.4698 123.796 -16.7311C124.149 -17.2687 124.605 -17.7281 125.136 -18.0822L125.477 -18.2892C125.616 -18.36 125.75 -18.4308 125.888 -18.4853C126.316 -18.6711 126.767 -18.7922 127.229 -18.8449H127.33C127.417 -18.8508 127.504 -18.8508 127.592 -18.8449C127.592 -18.8449 127.629 -18.8449 127.64 -18.8449C127.673 -18.8502 127.707 -18.8502 127.741 -18.8449H149.631C150.82 -18.8426 151.972 -19.2578 152.896 -20.0207C153.82 -20.7837 154.458 -21.8479 154.703 -23.0344C154.842 -23.7263 154.91 -24.4311 154.906 -25.1373V-25.3334C154.847 -26.6174 154.335 -27.8362 153.465 -28.7657C152.385 -30.0151 151.612 -31.5092 151.212 -33.1241C151.142 -33.4073 151.089 -33.6689 151.041 -33.963C150.795 -35.4799 150.884 -37.0335 151.301 -38.511C151.717 -39.9884 152.451 -41.3527 153.449 -42.5045C154.447 -43.6564 155.684 -44.567 157.07 -45.1701C158.455 -45.7733 159.956 -46.0539 161.461 -45.9915C162.966 -45.9291 164.439 -45.5253 165.773 -44.8095C167.106 -44.0936 168.266 -43.0837 169.17 -41.853C170.073 -40.6224 170.696 -39.2019 170.993 -37.6949C171.291 -36.1878 171.256 -34.632 170.891 -33.1404C170.5 -31.5196 169.722 -30.0225 168.627 -28.782C167.757 -27.8404 167.241 -26.615 167.17 -25.3225V-25.1373C167.171 -24.4305 167.245 -23.7257 167.389 -23.0344C167.629 -21.8473 168.264 -20.7816 169.187 -20.018C170.109 -19.2544 171.262 -18.84 172.45 -18.8449H194.372C194.41 -18.8503 194.447 -18.8503 194.484 -18.8449H194.522C194.609 -18.8508 194.696 -18.8508 194.783 -18.8449H194.885C195.346 -18.7922 195.798 -18.6711 196.225 -18.4853C196.364 -18.4308 196.497 -18.36 196.636 -18.2892L196.978 -18.0822C197.571 -17.6836 198.07 -17.1559 198.439 -16.537C198.809 -15.9181 199.039 -15.2234 199.113 -14.5028C199.113 -14.3449 199.113 -14.1814 199.113 -14.0071V8.32966C199.114 9.69463 198.599 11.0074 197.677 11.9962C196.96 12.7661 196.028 13.2928 195.008 13.5053C194.666 13.5761 194.34 13.6197 193.999 13.6687C193.657 13.7177 193.305 13.7177 192.931 13.7177H192.733C192.266 13.7042 191.803 13.6179 191.361 13.4617C190.623 13.1964 189.946 12.7813 189.37 12.2413C188.458 11.4153 187.41 10.7622 186.273 10.3127C185.887 10.1628 185.493 10.0355 185.093 9.93139C184.838 9.86383 184.58 9.81286 184.319 9.77883C184.307 9.77423 184.294 9.77423 184.282 9.77883C184.248 9.77314 184.214 9.77314 184.18 9.77883C184.024 9.74279 183.865 9.72273 183.705 9.71891C183.566 9.71891 183.433 9.68621 183.305 9.67531C182.737 9.63991 182.167 9.65084 181.601 9.708C180.002 9.87287 178.465 10.4245 177.117 11.317C175.769 12.2095 174.648 13.4173 173.849 14.84C173.765 14.9745 173.69 15.1146 173.625 15.2595C173.418 15.643 173.239 16.0418 173.091 16.4526C173.028 16.6126 172.974 16.7764 172.931 16.9429C172.874 17.1013 172.828 17.2632 172.792 17.4278C172.739 17.5909 172.702 17.7588 172.68 17.929C172.677 17.9341 172.676 17.9397 172.676 17.9454C172.676 17.951 172.677 17.9566 172.68 17.9617C172.61 18.2886 172.568 18.61 172.53 18.9369C172.626 19.2093 172.626 19.3836 172.616 19.558Z" fill="#4153A3" stroke="#232D58" stroke-miterlimit="10"/>
</svg>
